G04 #@! TF.FileFunction,Soldermask,Bot*
%FSLAX46Y46*%
G04 Gerber Fmt 4.6, Leading zero omitted, Abs format (unit mm)*
G04 Created by KiCad (PCBNEW 4.0.4-stable) date 11/30/16 20:12:39*
%MOMM*%
%LPD*%
G01*
G04 APERTURE LIST*
%ADD10C,0.150000*%
%ADD11R,1.300000X1.300000*%
%ADD12C,1.300000*%
%ADD13R,3.500120X3.500120*%
%ADD14C,1.524000*%
%ADD15R,1.727200X1.727200*%
%ADD16O,1.727200X1.727200*%
%ADD17O,1.900000X1.000000*%
%ADD18O,1.250000X1.050000*%
%ADD19R,10.500000X12.500000*%
%ADD20O,1.501140X2.499360*%
%ADD21R,1.501140X2.499360*%
%ADD22C,5.080000*%
%ADD23R,0.850000X0.850000*%
%ADD24C,0.850000*%
%ADD25R,2.032000X1.727200*%
%ADD26O,2.032000X1.727200*%
%ADD27C,1.998980*%
%ADD28C,3.100000*%
%ADD29C,1.500000*%
%ADD30C,1.400000*%
%ADD31C,4.500000*%
%ADD32C,3.330000*%
%ADD33R,1.500000X1.500000*%
%ADD34C,4.000000*%
%ADD35R,1.050000X1.050000*%
%ADD36C,1.050000*%
%ADD37C,1.700000*%
%ADD38C,0.254000*%
G04 APERTURE END LIST*
D10*
D11*
X224090000Y-83230000D03*
D12*
X224090000Y-81230000D03*
D13*
X173700140Y-50000000D03*
X167700660Y-50000000D03*
X170700400Y-54699000D03*
D14*
X204000000Y-83730000D03*
X201460000Y-83730000D03*
X196380000Y-83730000D03*
X193840000Y-83730000D03*
X191300000Y-83730000D03*
X169440000Y-110280000D03*
X169440000Y-112820000D03*
X171980000Y-110280000D03*
X171980000Y-112820000D03*
D15*
X220540000Y-114040000D03*
D16*
X218000000Y-114040000D03*
X220540000Y-111500000D03*
X218000000Y-111500000D03*
X220540000Y-108960000D03*
X218000000Y-108960000D03*
D17*
X166450000Y-115825000D03*
X166450000Y-124175000D03*
D18*
X169450000Y-117775000D03*
X169450000Y-122225000D03*
D19*
X232800000Y-96964000D03*
D20*
X232800000Y-83000000D03*
D21*
X235340000Y-83000000D03*
D20*
X230260000Y-83000000D03*
D22*
X232800000Y-99750000D03*
D14*
X164880000Y-100960000D03*
X164880000Y-106040000D03*
X172500000Y-106040000D03*
X172500000Y-103500000D03*
X172500000Y-100960000D03*
D23*
X240400000Y-108900000D03*
D24*
X240400000Y-107650000D03*
X240400000Y-106400000D03*
X240400000Y-105150000D03*
D25*
X229000000Y-113500000D03*
D26*
X229000000Y-110960000D03*
X229000000Y-108420000D03*
D27*
X181000000Y-105499360D03*
X181000000Y-100498100D03*
X189000000Y-92499360D03*
X189000000Y-87498100D03*
X184000000Y-100500640D03*
X184000000Y-105501900D03*
X192000000Y-92499360D03*
X192000000Y-87498100D03*
X185500000Y-90500640D03*
X185500000Y-95501900D03*
X181500000Y-90500640D03*
X181500000Y-95501900D03*
D28*
X167680000Y-67340000D03*
D29*
X175000000Y-69500000D03*
X172000000Y-69500000D03*
X172000000Y-66500000D03*
X175000000Y-66500000D03*
X175000000Y-63500000D03*
X172000000Y-63500000D03*
X175000000Y-60500000D03*
X172000000Y-60500000D03*
D28*
X167680000Y-62660000D03*
D30*
X195500000Y-111000000D03*
X198040000Y-111000000D03*
X195500000Y-107500000D03*
X198040000Y-107500000D03*
X202000000Y-107500000D03*
X204540000Y-107500000D03*
X202000000Y-111000000D03*
X204540000Y-111000000D03*
D31*
X168570000Y-129450000D03*
X168570000Y-40550000D03*
D32*
X167600000Y-89480000D03*
X167600000Y-76780000D03*
D33*
X170140000Y-86710000D03*
D29*
X171920000Y-85690000D03*
X170140000Y-84670000D03*
X171920000Y-83650000D03*
X170140000Y-82630000D03*
X171920000Y-81610000D03*
X170140000Y-80590000D03*
X171920000Y-79570000D03*
D34*
X242240000Y-129450000D03*
X242240000Y-40550000D03*
D35*
X219400000Y-95700000D03*
D36*
X219400000Y-94430000D03*
X219400000Y-93160000D03*
X219400000Y-91890000D03*
X218130000Y-94430000D03*
X218130000Y-93160000D03*
X218130000Y-91890000D03*
X218130000Y-95700000D03*
D11*
X237550000Y-78450000D03*
D12*
X235550000Y-78450000D03*
D11*
X196700000Y-89600000D03*
D12*
X196700000Y-87600000D03*
D27*
X236749360Y-125500000D03*
X231748100Y-125500000D03*
D37*
X165100000Y-95000000D03*
X170180000Y-95000000D03*
X172720000Y-95000000D03*
X175260000Y-95000000D03*
D38*
G36*
X223373000Y-67373000D02*
X199127000Y-67373000D01*
X199127000Y-38627000D01*
X223373000Y-38627000D01*
X223373000Y-67373000D01*
X223373000Y-67373000D01*
G37*
X223373000Y-67373000D02*
X199127000Y-67373000D01*
X199127000Y-38627000D01*
X223373000Y-38627000D01*
X223373000Y-67373000D01*
M02*
