M48
; DRILL file {KiCad (5.1.0)-1} date 16/10/2019 14:32:55
; FORMAT={-:-/ absolute / metric / decimal}
; #@! TF.CreationDate,2019-10-16T14:32:55+01:00
; #@! TF.GenerationSoftware,Kicad,Pcbnew,(5.1.0)-1
; #@! TF.FileFunction,Plated,1,4,PTH
FMAT,2
METRIC
T1C0.400
T2C0.500
T3C0.600
T4C0.635
T5C0.650
T6C0.700
T7C0.762
T8C0.800
T9C0.840
T10C0.970
T11C1.000
T12C1.001
T13C1.016
T14C1.100
T15C1.200
T16C1.500
T17C2.200
T18C2.800
T19C3.800
%
G90
G05
T1
X201.55Y-129.54
X202.033Y-128.373
X202.033Y-130.707
X203.2Y-127.89
X203.2Y-131.19
X204.367Y-128.373
X204.367Y-130.707
X204.85Y-129.54
X173.61Y-40.64
X174.093Y-39.473
X174.093Y-41.807
X175.26Y-38.99
X175.26Y-42.29
X176.427Y-39.473
X176.427Y-41.807
X176.91Y-40.64
X234.57Y-40.64
X235.053Y-39.473
X235.053Y-41.807
X236.22Y-38.99
X236.22Y-42.29
X237.387Y-39.473
X237.387Y-41.807
X237.87Y-40.64
X171.07Y-99.06
X171.553Y-97.893
X171.553Y-100.227
X172.72Y-97.41
X172.72Y-100.71
X173.887Y-97.893
X173.887Y-100.227
X174.37Y-99.06
X239.65Y-88.9
X240.133Y-87.733
X240.133Y-90.067
X241.3Y-87.25
X241.3Y-90.55
X242.467Y-87.733
X242.467Y-90.067
X242.95Y-88.9
T2
X240.4Y-105.15
X240.4Y-106.4
X240.4Y-107.65
X240.4Y-108.9
T4
X170.663Y-121.631
X172.4Y-102.0
X173.3Y-124.9
X175.5Y-115.4
X175.6Y-118.7
X178.518Y-122.607
X178.6Y-127.5
X178.8Y-124.1
X182.0Y-77.4
X182.2Y-127.2
X182.4Y-125.2
X183.0Y-47.0
X184.3Y-70.3
X184.706Y-57.1
X184.9Y-76.8
X185.674Y-99.314
X186.0Y-45.7
X186.0Y-127.9
X186.5Y-120.5
X186.701Y-58.39
X187.0Y-63.6
X187.0Y-121.7
X187.192Y-104.054
X187.2Y-48.4
X187.584Y-106.154
X188.2Y-42.9
X188.4Y-48.2
X188.4Y-62.0
X188.9Y-66.2
X189.0Y-52.3
X189.6Y-48.2
X189.792Y-103.354
X189.8Y-62.0
X190.2Y-100.1
X190.284Y-96.592
X190.9Y-46.9
X191.3Y-61.0
X191.5Y-71.8
X191.784Y-106.154
X192.0Y-69.2
X193.434Y-98.167
X193.5Y-71.3
X194.8Y-93.2
X195.0Y-103.5
X195.8Y-75.2
X196.4Y-52.4
X196.787Y-114.072
X197.0Y-55.0
X197.4Y-119.6
X197.4Y-130.1
X197.6Y-77.4
X197.9Y-94.4
X198.9Y-121.9
X199.0Y-70.6
X199.2Y-102.2
X199.454Y-104.381
X199.8Y-118.9
X200.0Y-68.8
X200.1Y-93.8
X200.194Y-103.198
X200.4Y-74.5
X200.4Y-116.8
X200.582Y-95.035
X200.6Y-72.4
X201.25Y-96.4
X201.35Y-97.95
X202.5Y-42.5
X202.5Y-45.0
X202.5Y-47.5
X202.5Y-50.0
X202.5Y-57.5
X202.5Y-60.0
X202.5Y-62.5
X202.5Y-65.0
X203.3Y-73.8
X203.3Y-75.0
X204.6Y-91.1
X205.0Y-42.5
X205.0Y-45.0
X205.0Y-47.5
X205.0Y-50.0
X205.0Y-57.5
X205.0Y-60.0
X205.0Y-62.5
X205.0Y-65.0
X205.232Y-97.028
X205.4Y-102.6
X206.2Y-105.0
X207.4Y-129.1
X207.444Y-104.356
X207.5Y-42.5
X207.5Y-45.0
X207.5Y-47.5
X207.5Y-50.0
X207.5Y-57.5
X207.5Y-60.0
X207.5Y-62.5
X207.5Y-65.0
X207.7Y-108.9
X207.8Y-111.2
X207.9Y-72.3
X208.1Y-70.4
X208.2Y-105.3
X208.5Y-116.6
X209.0Y-118.6
X209.2Y-74.4
X209.273Y-111.043
X209.3Y-78.9
X209.6Y-108.5
X210.0Y-94.7
X210.217Y-120.59
X210.345Y-96.115
X210.499Y-105.607
X210.8Y-77.7
X211.0Y-126.7
X211.5Y-111.7
X211.8Y-120.9
X211.864Y-130.201
X212.0Y-105.4
X212.204Y-74.004
X212.372Y-75.102
X212.6Y-111.3
X212.6Y-126.6
X212.8Y-122.2
X213.2Y-97.2
X213.36Y-99.822
X213.663Y-82.992
X214.2Y-105.2
X214.45Y-102.25
X214.5Y-110.9
X214.5Y-121.1
X215.0Y-42.5
X215.0Y-45.0
X215.0Y-47.5
X215.0Y-50.0
X215.0Y-57.5
X215.0Y-60.0
X215.0Y-62.5
X215.0Y-65.0
X215.0Y-116.1
X215.5Y-74.5
X215.5Y-104.1
X216.3Y-129.7
X216.94Y-80.69
X217.0Y-82.03
X217.5Y-42.5
X217.5Y-45.0
X217.5Y-47.5
X217.5Y-50.0
X217.5Y-57.5
X217.5Y-60.0
X217.5Y-62.5
X217.5Y-65.0
X218.46Y-80.58
X218.6Y-74.3
X218.8Y-68.5
X219.2Y-76.9
X219.378Y-81.908
X219.4Y-101.5
X219.5Y-103.7
X219.8Y-98.7
X220.0Y-42.5
X220.0Y-45.0
X220.0Y-47.5
X220.0Y-50.0
X220.0Y-57.5
X220.0Y-60.0
X220.0Y-62.5
X220.0Y-65.0
X220.014Y-125.697
X220.959Y-81.679
X220.98Y-123.952
X221.03Y-80.63
X222.504Y-68.072
X222.75Y-108.25
X222.821Y-117.389
X223.52Y-77.978
X223.52Y-119.888
X223.52Y-121.92
X223.571Y-114.631
X224.0Y-56.0
X225.552Y-122.682
X225.9Y-68.8
X226.314Y-120.396
X226.568Y-116.586
X226.568Y-123.444
X226.816Y-121.416
X227.076Y-119.126
X227.5Y-55.7
X227.5Y-104.25
X227.579Y-71.45
X228.0Y-129.612
X228.4Y-39.4
X228.854Y-115.824
X230.9Y-47.0
X231.0Y-61.0
X231.6Y-110.3
X231.873Y-77.062
X232.0Y-59.8
X232.2Y-46.0
X232.3Y-104.8
X232.5Y-69.0
X233.0Y-42.7
X233.377Y-45.777
X233.4Y-59.8
X233.426Y-62.23
X233.496Y-56.287
X233.68Y-46.99
X233.904Y-43.591
X234.1Y-121.5
X234.3Y-113.8
X234.3Y-115.2
X234.453Y-59.453
X235.2Y-107.6
X235.3Y-50.8
X235.8Y-70.5
X235.839Y-61.849
X236.0Y-112.2
X236.3Y-47.8
X237.109Y-44.831
X238.0Y-104.9
X240.0Y-113.2
X240.2Y-110.8
X241.0Y-112.2
X241.0Y-115.1
X241.554Y-94.996
X241.6Y-110.8
X242.0Y-100.1
X242.0Y-102.6
X243.3Y-122.1
T5
X218.13Y-91.89
X218.13Y-93.16
X218.13Y-94.43
X218.13Y-95.7
X219.4Y-91.89
X219.4Y-93.16
X219.4Y-94.43
X219.4Y-95.7
T6
X182.372Y-61.214
X181.102Y-44.958
X210.82Y-69.85
X215.9Y-69.85
T7
X191.3Y-83.73
X193.84Y-83.73
X196.38Y-83.73
X201.46Y-83.73
X204.0Y-83.73
X169.44Y-110.28
X169.44Y-112.82
X171.98Y-110.28
X171.98Y-112.82
X169.44Y-102.38
X169.44Y-104.92
T8
X224.09Y-81.23
X224.09Y-83.23
X235.49Y-78.486
X237.49Y-78.486
X196.7Y-87.6
X196.7Y-89.6
T9
X208.43Y-86.63
X208.43Y-89.17
X209.7Y-87.9
X210.97Y-86.63
X210.97Y-89.17
T10
X170.14Y-80.59
X170.14Y-82.63
X170.14Y-84.67
X170.14Y-86.71
X171.92Y-79.57
X171.92Y-81.61
X171.92Y-83.65
X171.92Y-85.69
T11
X184.277Y-39.751
X196.596Y-110.49
X182.372Y-57.912
X178.816Y-67.945
X181.356Y-67.945
X183.896Y-67.945
X182.372Y-64.262
X241.3Y-45.974
X241.3Y-48.514
X241.3Y-51.054
X201.93Y-106.68
X181.229Y-48.514
X195.5Y-106.68
X181.102Y-41.656
X201.93Y-110.49
X182.372Y-54.102
T12
X181.5Y-90.501
X181.5Y-95.502
X230.26Y-83.0
X232.8Y-83.0
X235.34Y-83.0
X185.5Y-90.501
X185.5Y-95.502
T13
X229.0Y-108.42
X229.0Y-110.96
X229.0Y-113.5
X218.0Y-108.96
X218.0Y-111.5
X218.0Y-114.04
X220.54Y-108.96
X220.54Y-111.5
X220.54Y-114.04
T14
X172.0Y-60.5
X172.0Y-63.5
X172.0Y-66.5
X172.0Y-69.5
X175.0Y-60.5
X175.0Y-63.5
X175.0Y-66.5
X175.0Y-69.5
X165.1Y-95.0
X170.18Y-95.0
X172.72Y-95.0
X175.26Y-95.0
T15
X232.256Y-127.146
X237.336Y-127.146
T16
X241.3Y-55.88
X241.3Y-66.04
X241.3Y-76.2
X241.3Y-60.96
X241.3Y-71.12
X193.04Y-116.84
X241.3Y-81.28
T17
X203.2Y-129.54
X175.26Y-40.64
X236.22Y-40.64
X172.72Y-99.06
X241.3Y-88.9
T18
X242.24Y-40.55
X242.24Y-129.45
X168.57Y-40.55
X168.57Y-129.45
T19
X232.8Y-99.75
T3
G00X166.8Y-115.825
M15
G01X166.1Y-115.825
M16
G05
G00X166.8Y-124.175
M15
G01X166.1Y-124.175
M16
G05
T5
G00X169.55Y-117.775
M15
G01X169.35Y-117.775
M16
G05
G00X169.55Y-122.225
M15
G01X169.35Y-122.225
M16
G05
T11
G00X168.0Y-48.0
M15
G01X168.0Y-50.0
M16
G05
G00X170.0Y-53.7
M15
G01X172.0Y-53.7
M16
G05
G00X174.0Y-48.0
M15
G01X174.0Y-50.0
M16
G05
T0
M30
