G04 #@! TF.FileFunction,Copper,L2,Inr,Signal*
%FSLAX46Y46*%
G04 Gerber Fmt 4.6, Leading zero omitted, Abs format (unit mm)*
G04 Created by KiCad (PCBNEW 4.0.4-stable) date 11/30/16 20:12:39*
%MOMM*%
%LPD*%
G01*
G04 APERTURE LIST*
%ADD10C,0.150000*%
%ADD11R,1.300000X1.300000*%
%ADD12C,1.300000*%
%ADD13R,3.500120X3.500120*%
%ADD14C,1.524000*%
%ADD15R,1.727200X1.727200*%
%ADD16O,1.727200X1.727200*%
%ADD17O,1.900000X1.000000*%
%ADD18O,1.250000X1.050000*%
%ADD19O,1.501140X2.499360*%
%ADD20R,1.501140X2.499360*%
%ADD21C,5.080000*%
%ADD22R,0.850000X0.850000*%
%ADD23C,0.850000*%
%ADD24R,2.032000X1.727200*%
%ADD25O,2.032000X1.727200*%
%ADD26C,1.998980*%
%ADD27C,1.500000*%
%ADD28C,1.400000*%
%ADD29C,4.500000*%
%ADD30R,1.500000X1.500000*%
%ADD31C,4.000000*%
%ADD32R,1.050000X1.050000*%
%ADD33C,1.050000*%
%ADD34C,1.700000*%
%ADD35C,0.889000*%
%ADD36C,0.254000*%
G04 APERTURE END LIST*
D10*
D11*
X224090000Y-83230000D03*
D12*
X224090000Y-81230000D03*
D13*
X173700140Y-50000000D03*
X167700660Y-50000000D03*
X170700400Y-54699000D03*
D14*
X204000000Y-83730000D03*
X201460000Y-83730000D03*
X196380000Y-83730000D03*
X193840000Y-83730000D03*
X191300000Y-83730000D03*
X169440000Y-110280000D03*
X169440000Y-112820000D03*
X171980000Y-110280000D03*
X171980000Y-112820000D03*
D15*
X220540000Y-114040000D03*
D16*
X218000000Y-114040000D03*
X220540000Y-111500000D03*
X218000000Y-111500000D03*
X220540000Y-108960000D03*
X218000000Y-108960000D03*
D17*
X166450000Y-115825000D03*
X166450000Y-124175000D03*
D18*
X169450000Y-117775000D03*
X169450000Y-122225000D03*
D19*
X232800000Y-83000000D03*
D20*
X235340000Y-83000000D03*
D19*
X230260000Y-83000000D03*
D21*
X232800000Y-99750000D03*
D14*
X164880000Y-100960000D03*
X164880000Y-106040000D03*
X172500000Y-106040000D03*
X172500000Y-103500000D03*
X172500000Y-100960000D03*
D22*
X240400000Y-108900000D03*
D23*
X240400000Y-107650000D03*
X240400000Y-106400000D03*
X240400000Y-105150000D03*
D24*
X229000000Y-113500000D03*
D25*
X229000000Y-110960000D03*
X229000000Y-108420000D03*
D26*
X181000000Y-105499360D03*
X181000000Y-100498100D03*
X189000000Y-92499360D03*
X189000000Y-87498100D03*
X184000000Y-100500640D03*
X184000000Y-105501900D03*
X192000000Y-92499360D03*
X192000000Y-87498100D03*
X185500000Y-90500640D03*
X185500000Y-95501900D03*
X181500000Y-90500640D03*
X181500000Y-95501900D03*
D27*
X175000000Y-69500000D03*
X172000000Y-69500000D03*
X172000000Y-66500000D03*
X175000000Y-66500000D03*
X175000000Y-63500000D03*
X172000000Y-63500000D03*
X175000000Y-60500000D03*
X172000000Y-60500000D03*
D28*
X195500000Y-111000000D03*
X198040000Y-111000000D03*
X195500000Y-107500000D03*
X198040000Y-107500000D03*
X202000000Y-107500000D03*
X204540000Y-107500000D03*
X202000000Y-111000000D03*
X204540000Y-111000000D03*
D29*
X168570000Y-129450000D03*
X168570000Y-40550000D03*
D30*
X170140000Y-86710000D03*
D27*
X171920000Y-85690000D03*
X170140000Y-84670000D03*
X171920000Y-83650000D03*
X170140000Y-82630000D03*
X171920000Y-81610000D03*
X170140000Y-80590000D03*
X171920000Y-79570000D03*
D31*
X242240000Y-129450000D03*
X242240000Y-40550000D03*
D32*
X219400000Y-95700000D03*
D33*
X219400000Y-94430000D03*
X219400000Y-93160000D03*
X219400000Y-91890000D03*
X218130000Y-94430000D03*
X218130000Y-93160000D03*
X218130000Y-91890000D03*
X218130000Y-95700000D03*
D11*
X237550000Y-78450000D03*
D12*
X235550000Y-78450000D03*
D11*
X196700000Y-89600000D03*
D12*
X196700000Y-87600000D03*
D26*
X236749360Y-125500000D03*
X231748100Y-125500000D03*
D34*
X165100000Y-95000000D03*
X170180000Y-95000000D03*
X172720000Y-95000000D03*
X175260000Y-95000000D03*
D35*
X197000000Y-55000000D03*
X189100000Y-61400000D03*
X187100000Y-48900000D03*
X233400000Y-58500000D03*
X234900000Y-45300000D03*
X218460000Y-80580000D03*
X216940000Y-80690000D03*
X217000000Y-82030000D03*
X235200000Y-107600000D03*
X211864465Y-130201480D03*
X218600000Y-74300000D03*
X195800000Y-75200000D03*
X212371512Y-75101827D03*
X209200000Y-74100000D03*
X207500000Y-73200000D03*
X227579000Y-71450000D03*
X184900000Y-76800000D03*
X211500000Y-111700000D03*
X207700000Y-108900000D03*
X214500000Y-121100000D03*
X197400000Y-119600000D03*
X199800000Y-118900000D03*
X234300000Y-113800000D03*
X221030000Y-80630000D03*
X219410000Y-82070000D03*
X220980000Y-82000000D03*
X241250000Y-92250000D03*
X234100000Y-121500000D03*
X231600000Y-110300000D03*
X238000000Y-104900000D03*
X232300000Y-104800000D03*
X236300000Y-47800000D03*
X207400000Y-129100000D03*
X232500000Y-69000000D03*
X233495837Y-56287027D03*
X209400000Y-78231447D03*
X212900000Y-82800000D03*
X228000000Y-129612458D03*
X215000000Y-42500000D03*
X215000000Y-45000000D03*
X215000000Y-47500000D03*
X215000000Y-50000000D03*
X217500000Y-42500000D03*
X217500000Y-45000000D03*
X217500000Y-47500000D03*
X217500000Y-50000000D03*
X220000000Y-45000000D03*
X220000000Y-42500000D03*
X220000000Y-47500000D03*
X220000000Y-50000000D03*
X220000000Y-65000000D03*
X220000000Y-62500000D03*
X220000000Y-57500000D03*
X220000000Y-60000000D03*
X217500000Y-65000000D03*
X217500000Y-62500000D03*
X217500000Y-60000000D03*
X217500000Y-57500000D03*
X215000000Y-65000000D03*
X215000000Y-62500000D03*
X215000000Y-60000000D03*
X215000000Y-57500000D03*
X202500000Y-57500000D03*
X202500000Y-60000000D03*
X202500000Y-62500000D03*
X202500000Y-65000000D03*
X205000000Y-57500000D03*
X205000000Y-60000000D03*
X205000000Y-62500000D03*
X205000000Y-65000000D03*
X207500000Y-60000000D03*
X207500000Y-57500000D03*
X207500000Y-62500000D03*
X207500000Y-65000000D03*
X207500000Y-50000000D03*
X207500000Y-47500000D03*
X207500000Y-42500000D03*
X207500000Y-45000000D03*
X205000000Y-50000000D03*
X205000000Y-47500000D03*
X205000000Y-45000000D03*
X205000000Y-42500000D03*
X202500000Y-50000000D03*
X202500000Y-47500000D03*
X202500000Y-45000000D03*
X202500000Y-42500000D03*
X231000000Y-61000000D03*
X188200000Y-42900000D03*
X191300000Y-61000000D03*
X230900000Y-47000000D03*
X218800000Y-68500000D03*
X219200000Y-76900000D03*
X223458932Y-77512460D03*
X215500000Y-74500000D03*
X220013846Y-125598520D03*
X206700000Y-70700000D03*
X210800000Y-77700000D03*
X225900000Y-68800000D03*
X227500000Y-55700000D03*
X236200000Y-61300000D03*
X233000000Y-42700000D03*
X186500000Y-58200000D03*
X186000000Y-45700000D03*
X190900000Y-46900000D03*
X197600000Y-77400000D03*
X193500000Y-71300000D03*
X203300000Y-73800000D03*
X200400000Y-74500000D03*
X189000000Y-52300000D03*
X196400000Y-52400000D03*
X188900000Y-66200000D03*
X184300000Y-70300000D03*
X182000000Y-77400000D03*
X191500000Y-71800000D03*
X232000000Y-76300000D03*
X214500000Y-110900000D03*
X207800000Y-111200000D03*
X208500000Y-116600000D03*
X216300000Y-129700000D03*
X212600000Y-126600000D03*
X211000000Y-126700000D03*
X211800000Y-120900000D03*
X198900000Y-121900000D03*
X197400000Y-130100000D03*
X234300000Y-115200000D03*
X200194000Y-103198000D03*
X173300000Y-124900000D03*
X178518239Y-122607338D03*
X186000000Y-127900000D03*
X187000000Y-121700000D03*
X182400000Y-125200000D03*
X178600000Y-127500000D03*
X178800000Y-124100000D03*
X175600000Y-118700000D03*
X175500000Y-115400000D03*
X170663421Y-121630882D03*
X182200000Y-127200000D03*
X186500000Y-120500000D03*
X222750000Y-108250000D03*
X227500000Y-104250000D03*
X224000000Y-56000000D03*
X183000000Y-47000000D03*
X200600000Y-72400000D03*
X184600000Y-57100000D03*
X199000000Y-70600000D03*
X241000000Y-112200000D03*
X241600000Y-110800000D03*
X242000000Y-102600000D03*
X219400000Y-101500000D03*
X207443928Y-104356072D03*
X212000000Y-105400000D03*
X201250000Y-96400000D03*
X199454021Y-104381085D03*
X192800000Y-105900000D03*
X194450000Y-98675000D03*
X219800000Y-98700000D03*
X186700000Y-99000000D03*
X208200000Y-105300000D03*
X214200000Y-105200000D03*
X219500000Y-103700000D03*
X215500000Y-104100000D03*
X204600000Y-100600000D03*
X205531072Y-96768928D03*
X201350000Y-97950000D03*
X198700000Y-93200000D03*
X194800000Y-93200000D03*
X191300000Y-97100000D03*
X195000000Y-103500000D03*
X187700000Y-103800000D03*
X188600000Y-105900000D03*
X210362800Y-96901000D03*
X214450000Y-102250000D03*
X213360000Y-99822000D03*
X210000000Y-94700000D03*
X200582281Y-95034824D03*
X200400000Y-116800000D03*
X190200000Y-100100000D03*
X190300000Y-103100000D03*
X203300000Y-75000000D03*
X212204113Y-74004113D03*
X209600000Y-108500000D03*
X212600000Y-111300000D03*
X236000000Y-112200000D03*
X222007717Y-116337406D03*
X209273308Y-111042739D03*
X215000000Y-116100000D03*
X223377439Y-117577439D03*
X210216752Y-120590427D03*
X223893469Y-115656958D03*
X209000000Y-118600000D03*
X210498520Y-105606778D03*
X206200000Y-105000000D03*
X197900000Y-94400000D03*
X199200000Y-102200000D03*
X196300000Y-114100000D03*
X212800000Y-122200000D03*
X235300000Y-50800000D03*
X222400000Y-68400000D03*
X240000000Y-113200000D03*
X240200000Y-110800000D03*
X243300000Y-122100000D03*
X241000000Y-115100000D03*
X242000000Y-100100000D03*
D36*
G36*
X169160900Y-114216757D02*
X169716661Y-114217242D01*
X169935064Y-114127000D01*
X171484741Y-114127000D01*
X171700900Y-114216757D01*
X172256661Y-114217242D01*
X172475064Y-114127000D01*
X188947394Y-114127000D01*
X189873000Y-115052606D01*
X189873000Y-134174500D01*
X165825500Y-134174500D01*
X165825500Y-130362588D01*
X166122790Y-131082086D01*
X166933645Y-131894357D01*
X167993620Y-132334498D01*
X169141344Y-132335499D01*
X170202086Y-131897210D01*
X171014357Y-131086355D01*
X171454498Y-130026380D01*
X171455499Y-128878656D01*
X171017210Y-127817914D01*
X170613785Y-127413784D01*
X181120313Y-127413784D01*
X181284311Y-127810689D01*
X181587714Y-128114622D01*
X181984332Y-128279313D01*
X182413784Y-128279687D01*
X182810689Y-128115689D01*
X183114622Y-127812286D01*
X183279313Y-127415668D01*
X183279687Y-126986216D01*
X183115689Y-126589311D01*
X182812286Y-126285378D01*
X182415668Y-126120687D01*
X181986216Y-126120313D01*
X181589311Y-126284311D01*
X181285378Y-126587714D01*
X181120687Y-126984332D01*
X181120313Y-127413784D01*
X170613785Y-127413784D01*
X170206355Y-127005643D01*
X169146380Y-126565502D01*
X167998656Y-126564501D01*
X166937914Y-127002790D01*
X166125643Y-127813645D01*
X165825500Y-128536468D01*
X165825500Y-125294901D01*
X165873000Y-125310000D01*
X166323000Y-125310000D01*
X166323000Y-124302000D01*
X166577000Y-124302000D01*
X166577000Y-125310000D01*
X167027000Y-125310000D01*
X167451678Y-125175002D01*
X167792368Y-124887763D01*
X167994119Y-124476874D01*
X167876456Y-124313784D01*
X177720313Y-124313784D01*
X177884311Y-124710689D01*
X178187714Y-125014622D01*
X178584332Y-125179313D01*
X179013784Y-125179687D01*
X179410689Y-125015689D01*
X179714622Y-124712286D01*
X179879313Y-124315668D01*
X179879687Y-123886216D01*
X179715689Y-123489311D01*
X179412286Y-123185378D01*
X179015668Y-123020687D01*
X178586216Y-123020313D01*
X178189311Y-123184311D01*
X177885378Y-123487714D01*
X177720687Y-123884332D01*
X177720313Y-124313784D01*
X167876456Y-124313784D01*
X167867954Y-124302000D01*
X166577000Y-124302000D01*
X166323000Y-124302000D01*
X166303000Y-124302000D01*
X166303000Y-124048000D01*
X166323000Y-124048000D01*
X166323000Y-123040000D01*
X166577000Y-123040000D01*
X166577000Y-124048000D01*
X167867954Y-124048000D01*
X167994119Y-123873126D01*
X167792368Y-123462237D01*
X167451678Y-123174998D01*
X167027000Y-123040000D01*
X166577000Y-123040000D01*
X166323000Y-123040000D01*
X165873000Y-123040000D01*
X165825500Y-123055099D01*
X165825500Y-122530810D01*
X168231036Y-122530810D01*
X168396864Y-122884120D01*
X168721651Y-123198697D01*
X169142099Y-123365037D01*
X169323000Y-123224774D01*
X169323000Y-122352000D01*
X168356837Y-122352000D01*
X168231036Y-122530810D01*
X165825500Y-122530810D01*
X165825500Y-121919190D01*
X168231036Y-121919190D01*
X168356837Y-122098000D01*
X169323000Y-122098000D01*
X169323000Y-121225226D01*
X169577000Y-121225226D01*
X169577000Y-122098000D01*
X169597000Y-122098000D01*
X169597000Y-122352000D01*
X169577000Y-122352000D01*
X169577000Y-123224774D01*
X169757901Y-123365037D01*
X170178349Y-123198697D01*
X170503136Y-122884120D01*
X170584713Y-122710314D01*
X170877205Y-122710569D01*
X171274110Y-122546571D01*
X171578043Y-122243168D01*
X171742734Y-121846550D01*
X171743108Y-121417098D01*
X171579110Y-121020193D01*
X171275707Y-120716260D01*
X171269745Y-120713784D01*
X185420313Y-120713784D01*
X185584311Y-121110689D01*
X185887714Y-121414622D01*
X186284332Y-121579313D01*
X186713784Y-121579687D01*
X187110689Y-121415689D01*
X187414622Y-121112286D01*
X187579313Y-120715668D01*
X187579687Y-120286216D01*
X187415689Y-119889311D01*
X187112286Y-119585378D01*
X186715668Y-119420687D01*
X186286216Y-119420313D01*
X185889311Y-119584311D01*
X185585378Y-119887714D01*
X185420687Y-120284332D01*
X185420313Y-120713784D01*
X171269745Y-120713784D01*
X170879089Y-120551569D01*
X170449637Y-120551195D01*
X170052732Y-120715193D01*
X169748799Y-121018596D01*
X169703833Y-121126885D01*
X169577000Y-121225226D01*
X169323000Y-121225226D01*
X169142099Y-121084963D01*
X168721651Y-121251303D01*
X168396864Y-121565880D01*
X168231036Y-121919190D01*
X165825500Y-121919190D01*
X165825500Y-118080810D01*
X168231036Y-118080810D01*
X168396864Y-118434120D01*
X168721651Y-118748697D01*
X169142099Y-118915037D01*
X169323000Y-118774774D01*
X169323000Y-117902000D01*
X169577000Y-117902000D01*
X169577000Y-118774774D01*
X169757901Y-118915037D01*
X169761068Y-118913784D01*
X174520313Y-118913784D01*
X174684311Y-119310689D01*
X174987714Y-119614622D01*
X175384332Y-119779313D01*
X175813784Y-119779687D01*
X176210689Y-119615689D01*
X176514622Y-119312286D01*
X176679313Y-118915668D01*
X176679687Y-118486216D01*
X176515689Y-118089311D01*
X176212286Y-117785378D01*
X175815668Y-117620687D01*
X175386216Y-117620313D01*
X174989311Y-117784311D01*
X174685378Y-118087714D01*
X174520687Y-118484332D01*
X174520313Y-118913784D01*
X169761068Y-118913784D01*
X170178349Y-118748697D01*
X170503136Y-118434120D01*
X170668964Y-118080810D01*
X170543163Y-117902000D01*
X169577000Y-117902000D01*
X169323000Y-117902000D01*
X168356837Y-117902000D01*
X168231036Y-118080810D01*
X165825500Y-118080810D01*
X165825500Y-117469190D01*
X168231036Y-117469190D01*
X168356837Y-117648000D01*
X169323000Y-117648000D01*
X169323000Y-116775226D01*
X169577000Y-116775226D01*
X169577000Y-117648000D01*
X170543163Y-117648000D01*
X170668964Y-117469190D01*
X170503136Y-117115880D01*
X170178349Y-116801303D01*
X169757901Y-116634963D01*
X169577000Y-116775226D01*
X169323000Y-116775226D01*
X169142099Y-116634963D01*
X168721651Y-116801303D01*
X168396864Y-117115880D01*
X168231036Y-117469190D01*
X165825500Y-117469190D01*
X165825500Y-116944901D01*
X165873000Y-116960000D01*
X166323000Y-116960000D01*
X166323000Y-115952000D01*
X166577000Y-115952000D01*
X166577000Y-116960000D01*
X167027000Y-116960000D01*
X167451678Y-116825002D01*
X167792368Y-116537763D01*
X167994119Y-116126874D01*
X167867954Y-115952000D01*
X166577000Y-115952000D01*
X166323000Y-115952000D01*
X166303000Y-115952000D01*
X166303000Y-115698000D01*
X166323000Y-115698000D01*
X166323000Y-114690000D01*
X166577000Y-114690000D01*
X166577000Y-115698000D01*
X167867954Y-115698000D01*
X167928712Y-115613784D01*
X174420313Y-115613784D01*
X174584311Y-116010689D01*
X174887714Y-116314622D01*
X175284332Y-116479313D01*
X175713784Y-116479687D01*
X176110689Y-116315689D01*
X176414622Y-116012286D01*
X176579313Y-115615668D01*
X176579687Y-115186216D01*
X176415689Y-114789311D01*
X176112286Y-114485378D01*
X175715668Y-114320687D01*
X175286216Y-114320313D01*
X174889311Y-114484311D01*
X174585378Y-114787714D01*
X174420687Y-115184332D01*
X174420313Y-115613784D01*
X167928712Y-115613784D01*
X167994119Y-115523126D01*
X167792368Y-115112237D01*
X167451678Y-114824998D01*
X167027000Y-114690000D01*
X166577000Y-114690000D01*
X166323000Y-114690000D01*
X165873000Y-114690000D01*
X165825500Y-114705099D01*
X165825500Y-114127000D01*
X168944741Y-114127000D01*
X169160900Y-114216757D01*
X169160900Y-114216757D01*
G37*
X169160900Y-114216757D02*
X169716661Y-114217242D01*
X169935064Y-114127000D01*
X171484741Y-114127000D01*
X171700900Y-114216757D01*
X172256661Y-114217242D01*
X172475064Y-114127000D01*
X188947394Y-114127000D01*
X189873000Y-115052606D01*
X189873000Y-134174500D01*
X165825500Y-134174500D01*
X165825500Y-130362588D01*
X166122790Y-131082086D01*
X166933645Y-131894357D01*
X167993620Y-132334498D01*
X169141344Y-132335499D01*
X170202086Y-131897210D01*
X171014357Y-131086355D01*
X171454498Y-130026380D01*
X171455499Y-128878656D01*
X171017210Y-127817914D01*
X170613785Y-127413784D01*
X181120313Y-127413784D01*
X181284311Y-127810689D01*
X181587714Y-128114622D01*
X181984332Y-128279313D01*
X182413784Y-128279687D01*
X182810689Y-128115689D01*
X183114622Y-127812286D01*
X183279313Y-127415668D01*
X183279687Y-126986216D01*
X183115689Y-126589311D01*
X182812286Y-126285378D01*
X182415668Y-126120687D01*
X181986216Y-126120313D01*
X181589311Y-126284311D01*
X181285378Y-126587714D01*
X181120687Y-126984332D01*
X181120313Y-127413784D01*
X170613785Y-127413784D01*
X170206355Y-127005643D01*
X169146380Y-126565502D01*
X167998656Y-126564501D01*
X166937914Y-127002790D01*
X166125643Y-127813645D01*
X165825500Y-128536468D01*
X165825500Y-125294901D01*
X165873000Y-125310000D01*
X166323000Y-125310000D01*
X166323000Y-124302000D01*
X166577000Y-124302000D01*
X166577000Y-125310000D01*
X167027000Y-125310000D01*
X167451678Y-125175002D01*
X167792368Y-124887763D01*
X167994119Y-124476874D01*
X167876456Y-124313784D01*
X177720313Y-124313784D01*
X177884311Y-124710689D01*
X178187714Y-125014622D01*
X178584332Y-125179313D01*
X179013784Y-125179687D01*
X179410689Y-125015689D01*
X179714622Y-124712286D01*
X179879313Y-124315668D01*
X179879687Y-123886216D01*
X179715689Y-123489311D01*
X179412286Y-123185378D01*
X179015668Y-123020687D01*
X178586216Y-123020313D01*
X178189311Y-123184311D01*
X177885378Y-123487714D01*
X177720687Y-123884332D01*
X177720313Y-124313784D01*
X167876456Y-124313784D01*
X167867954Y-124302000D01*
X166577000Y-124302000D01*
X166323000Y-124302000D01*
X166303000Y-124302000D01*
X166303000Y-124048000D01*
X166323000Y-124048000D01*
X166323000Y-123040000D01*
X166577000Y-123040000D01*
X166577000Y-124048000D01*
X167867954Y-124048000D01*
X167994119Y-123873126D01*
X167792368Y-123462237D01*
X167451678Y-123174998D01*
X167027000Y-123040000D01*
X166577000Y-123040000D01*
X166323000Y-123040000D01*
X165873000Y-123040000D01*
X165825500Y-123055099D01*
X165825500Y-122530810D01*
X168231036Y-122530810D01*
X168396864Y-122884120D01*
X168721651Y-123198697D01*
X169142099Y-123365037D01*
X169323000Y-123224774D01*
X169323000Y-122352000D01*
X168356837Y-122352000D01*
X168231036Y-122530810D01*
X165825500Y-122530810D01*
X165825500Y-121919190D01*
X168231036Y-121919190D01*
X168356837Y-122098000D01*
X169323000Y-122098000D01*
X169323000Y-121225226D01*
X169577000Y-121225226D01*
X169577000Y-122098000D01*
X169597000Y-122098000D01*
X169597000Y-122352000D01*
X169577000Y-122352000D01*
X169577000Y-123224774D01*
X169757901Y-123365037D01*
X170178349Y-123198697D01*
X170503136Y-122884120D01*
X170584713Y-122710314D01*
X170877205Y-122710569D01*
X171274110Y-122546571D01*
X171578043Y-122243168D01*
X171742734Y-121846550D01*
X171743108Y-121417098D01*
X171579110Y-121020193D01*
X171275707Y-120716260D01*
X171269745Y-120713784D01*
X185420313Y-120713784D01*
X185584311Y-121110689D01*
X185887714Y-121414622D01*
X186284332Y-121579313D01*
X186713784Y-121579687D01*
X187110689Y-121415689D01*
X187414622Y-121112286D01*
X187579313Y-120715668D01*
X187579687Y-120286216D01*
X187415689Y-119889311D01*
X187112286Y-119585378D01*
X186715668Y-119420687D01*
X186286216Y-119420313D01*
X185889311Y-119584311D01*
X185585378Y-119887714D01*
X185420687Y-120284332D01*
X185420313Y-120713784D01*
X171269745Y-120713784D01*
X170879089Y-120551569D01*
X170449637Y-120551195D01*
X170052732Y-120715193D01*
X169748799Y-121018596D01*
X169703833Y-121126885D01*
X169577000Y-121225226D01*
X169323000Y-121225226D01*
X169142099Y-121084963D01*
X168721651Y-121251303D01*
X168396864Y-121565880D01*
X168231036Y-121919190D01*
X165825500Y-121919190D01*
X165825500Y-118080810D01*
X168231036Y-118080810D01*
X168396864Y-118434120D01*
X168721651Y-118748697D01*
X169142099Y-118915037D01*
X169323000Y-118774774D01*
X169323000Y-117902000D01*
X169577000Y-117902000D01*
X169577000Y-118774774D01*
X169757901Y-118915037D01*
X169761068Y-118913784D01*
X174520313Y-118913784D01*
X174684311Y-119310689D01*
X174987714Y-119614622D01*
X175384332Y-119779313D01*
X175813784Y-119779687D01*
X176210689Y-119615689D01*
X176514622Y-119312286D01*
X176679313Y-118915668D01*
X176679687Y-118486216D01*
X176515689Y-118089311D01*
X176212286Y-117785378D01*
X175815668Y-117620687D01*
X175386216Y-117620313D01*
X174989311Y-117784311D01*
X174685378Y-118087714D01*
X174520687Y-118484332D01*
X174520313Y-118913784D01*
X169761068Y-118913784D01*
X170178349Y-118748697D01*
X170503136Y-118434120D01*
X170668964Y-118080810D01*
X170543163Y-117902000D01*
X169577000Y-117902000D01*
X169323000Y-117902000D01*
X168356837Y-117902000D01*
X168231036Y-118080810D01*
X165825500Y-118080810D01*
X165825500Y-117469190D01*
X168231036Y-117469190D01*
X168356837Y-117648000D01*
X169323000Y-117648000D01*
X169323000Y-116775226D01*
X169577000Y-116775226D01*
X169577000Y-117648000D01*
X170543163Y-117648000D01*
X170668964Y-117469190D01*
X170503136Y-117115880D01*
X170178349Y-116801303D01*
X169757901Y-116634963D01*
X169577000Y-116775226D01*
X169323000Y-116775226D01*
X169142099Y-116634963D01*
X168721651Y-116801303D01*
X168396864Y-117115880D01*
X168231036Y-117469190D01*
X165825500Y-117469190D01*
X165825500Y-116944901D01*
X165873000Y-116960000D01*
X166323000Y-116960000D01*
X166323000Y-115952000D01*
X166577000Y-115952000D01*
X166577000Y-116960000D01*
X167027000Y-116960000D01*
X167451678Y-116825002D01*
X167792368Y-116537763D01*
X167994119Y-116126874D01*
X167867954Y-115952000D01*
X166577000Y-115952000D01*
X166323000Y-115952000D01*
X166303000Y-115952000D01*
X166303000Y-115698000D01*
X166323000Y-115698000D01*
X166323000Y-114690000D01*
X166577000Y-114690000D01*
X166577000Y-115698000D01*
X167867954Y-115698000D01*
X167928712Y-115613784D01*
X174420313Y-115613784D01*
X174584311Y-116010689D01*
X174887714Y-116314622D01*
X175284332Y-116479313D01*
X175713784Y-116479687D01*
X176110689Y-116315689D01*
X176414622Y-116012286D01*
X176579313Y-115615668D01*
X176579687Y-115186216D01*
X176415689Y-114789311D01*
X176112286Y-114485378D01*
X175715668Y-114320687D01*
X175286216Y-114320313D01*
X174889311Y-114484311D01*
X174585378Y-114787714D01*
X174420687Y-115184332D01*
X174420313Y-115613784D01*
X167928712Y-115613784D01*
X167994119Y-115523126D01*
X167792368Y-115112237D01*
X167451678Y-114824998D01*
X167027000Y-114690000D01*
X166577000Y-114690000D01*
X166323000Y-114690000D01*
X165873000Y-114690000D01*
X165825500Y-114705099D01*
X165825500Y-114127000D01*
X168944741Y-114127000D01*
X169160900Y-114216757D01*
G36*
X172873000Y-76000000D02*
X172881685Y-76046159D01*
X172882652Y-76047662D01*
X172883006Y-76049410D01*
X172896248Y-76068791D01*
X172908965Y-76088553D01*
X172910440Y-76089560D01*
X172911447Y-76091035D01*
X172931209Y-76103752D01*
X172950590Y-76116994D01*
X172952338Y-76117348D01*
X172953841Y-76118315D01*
X173000000Y-76127000D01*
X176947394Y-76127000D01*
X183910197Y-83089803D01*
X183950590Y-83116994D01*
X183951465Y-83117171D01*
X183952211Y-83117666D01*
X184000000Y-83127000D01*
X188000000Y-83127000D01*
X188046159Y-83118315D01*
X188047662Y-83117348D01*
X188049410Y-83116994D01*
X188068791Y-83103752D01*
X188088553Y-83091035D01*
X188089560Y-83089560D01*
X188091035Y-83088553D01*
X188103752Y-83068791D01*
X188116994Y-83049410D01*
X188117348Y-83047662D01*
X188118315Y-83046159D01*
X188127000Y-83000000D01*
X188127000Y-82127000D01*
X197873000Y-82127000D01*
X197873000Y-87041021D01*
X197829611Y-86936271D01*
X197599016Y-86880590D01*
X196879605Y-87600000D01*
X196893748Y-87614142D01*
X196714142Y-87793748D01*
X196700000Y-87779605D01*
X196685858Y-87793748D01*
X196506252Y-87614142D01*
X196520395Y-87600000D01*
X195800984Y-86880590D01*
X195570389Y-86936271D01*
X195402378Y-87419078D01*
X195431917Y-87929428D01*
X195570389Y-88263729D01*
X195800982Y-88319410D01*
X195699320Y-88421072D01*
X195598559Y-88485910D01*
X195453569Y-88698110D01*
X195402560Y-88950000D01*
X195402560Y-90250000D01*
X195446838Y-90485317D01*
X195585910Y-90701441D01*
X195798110Y-90846431D01*
X196050000Y-90897440D01*
X197350000Y-90897440D01*
X197585317Y-90853162D01*
X197801441Y-90714090D01*
X197946431Y-90501890D01*
X197997440Y-90250000D01*
X197997440Y-89126518D01*
X198000000Y-89127000D01*
X205873000Y-89127000D01*
X205873000Y-90000000D01*
X205881685Y-90046159D01*
X205882652Y-90047662D01*
X205883006Y-90049410D01*
X205896248Y-90068791D01*
X205908965Y-90088553D01*
X205910440Y-90089560D01*
X205911447Y-90091035D01*
X205931209Y-90103752D01*
X205950590Y-90116994D01*
X205952338Y-90117348D01*
X205953841Y-90118315D01*
X206000000Y-90127000D01*
X212873000Y-90127000D01*
X212873000Y-92000000D01*
X212881685Y-92046159D01*
X212882652Y-92047662D01*
X212883006Y-92049410D01*
X212896248Y-92068791D01*
X212908965Y-92088553D01*
X212910440Y-92089560D01*
X212911447Y-92091035D01*
X212931209Y-92103752D01*
X212950590Y-92116994D01*
X212952338Y-92117348D01*
X212953841Y-92118315D01*
X213000000Y-92127000D01*
X215873000Y-92127000D01*
X215873000Y-98000000D01*
X215881685Y-98046159D01*
X215882652Y-98047662D01*
X215883006Y-98049410D01*
X215896248Y-98068791D01*
X215908965Y-98088553D01*
X215910440Y-98089560D01*
X215911447Y-98091035D01*
X215931209Y-98103752D01*
X215950590Y-98116994D01*
X215952338Y-98117348D01*
X215953841Y-98118315D01*
X216000000Y-98127000D01*
X220873000Y-98127000D01*
X220873000Y-99873000D01*
X220000000Y-99873000D01*
X219953841Y-99881685D01*
X219952338Y-99882652D01*
X219950590Y-99883006D01*
X219931209Y-99896248D01*
X219911447Y-99908965D01*
X219910440Y-99910440D01*
X219908965Y-99911447D01*
X219896248Y-99931209D01*
X219883006Y-99950590D01*
X219882652Y-99952338D01*
X219881685Y-99953841D01*
X219873000Y-100000000D01*
X219873000Y-100527541D01*
X219615668Y-100420687D01*
X219186216Y-100420313D01*
X218789311Y-100584311D01*
X218485378Y-100887714D01*
X218320687Y-101284332D01*
X218320313Y-101713784D01*
X218484311Y-102110689D01*
X218787714Y-102414622D01*
X219184332Y-102579313D01*
X219613784Y-102579687D01*
X219873000Y-102472581D01*
X219873000Y-105873000D01*
X212972459Y-105873000D01*
X213079313Y-105615668D01*
X213079687Y-105186216D01*
X212915689Y-104789311D01*
X212612286Y-104485378D01*
X212215668Y-104320687D01*
X211786216Y-104320313D01*
X211389311Y-104484311D01*
X211145893Y-104727304D01*
X211110806Y-104692156D01*
X210714188Y-104527465D01*
X210284736Y-104527091D01*
X209887831Y-104691089D01*
X209583898Y-104994492D01*
X209419207Y-105391110D01*
X209418833Y-105820562D01*
X209440500Y-105873000D01*
X206853453Y-105873000D01*
X207114622Y-105612286D01*
X207193987Y-105421154D01*
X207228260Y-105435385D01*
X207657712Y-105435759D01*
X208054617Y-105271761D01*
X208358550Y-104968358D01*
X208523241Y-104571740D01*
X208523615Y-104142288D01*
X208359617Y-103745383D01*
X208056214Y-103441450D01*
X207659596Y-103276759D01*
X207230144Y-103276385D01*
X206833239Y-103440383D01*
X206529306Y-103743786D01*
X206449941Y-103934918D01*
X206415668Y-103920687D01*
X205986216Y-103920313D01*
X205589311Y-104084311D01*
X205285378Y-104387714D01*
X205120687Y-104784332D01*
X205120313Y-105213784D01*
X205284311Y-105610689D01*
X205587714Y-105914622D01*
X205873000Y-106033084D01*
X205873000Y-107230218D01*
X205672418Y-106744771D01*
X205297204Y-106368902D01*
X204806713Y-106165232D01*
X204275617Y-106164769D01*
X203784771Y-106367582D01*
X203408902Y-106742796D01*
X203269909Y-107077527D01*
X203132418Y-106744771D01*
X202757204Y-106368902D01*
X202266713Y-106165232D01*
X201735617Y-106164769D01*
X201244771Y-106367582D01*
X200868902Y-106742796D01*
X200665232Y-107233287D01*
X200664769Y-107764383D01*
X200867582Y-108255229D01*
X201242796Y-108631098D01*
X201733287Y-108834768D01*
X202264383Y-108835231D01*
X202755229Y-108632418D01*
X203131098Y-108257204D01*
X203270091Y-107922473D01*
X203407582Y-108255229D01*
X203782796Y-108631098D01*
X204273287Y-108834768D01*
X204804383Y-108835231D01*
X205295229Y-108632418D01*
X205671098Y-108257204D01*
X205873000Y-107770971D01*
X205873000Y-110730218D01*
X205672418Y-110244771D01*
X205297204Y-109868902D01*
X204806713Y-109665232D01*
X204275617Y-109664769D01*
X203784771Y-109867582D01*
X203408902Y-110242796D01*
X203269909Y-110577527D01*
X203132418Y-110244771D01*
X202757204Y-109868902D01*
X202266713Y-109665232D01*
X201735617Y-109664769D01*
X201244771Y-109867582D01*
X200868902Y-110242796D01*
X200665232Y-110733287D01*
X200664769Y-111264383D01*
X200867582Y-111755229D01*
X200985148Y-111873000D01*
X199055100Y-111873000D01*
X199171098Y-111757204D01*
X199374768Y-111266713D01*
X199375231Y-110735617D01*
X199172418Y-110244771D01*
X198797204Y-109868902D01*
X198306713Y-109665232D01*
X197775617Y-109664769D01*
X197284771Y-109867582D01*
X196908902Y-110242796D01*
X196769909Y-110577527D01*
X196632418Y-110244771D01*
X196257204Y-109868902D01*
X195766713Y-109665232D01*
X195235617Y-109664769D01*
X194744771Y-109867582D01*
X194395675Y-110216069D01*
X193089803Y-108910197D01*
X193049410Y-108883006D01*
X193048535Y-108882829D01*
X193047789Y-108882334D01*
X193000000Y-108873000D01*
X181127000Y-108873000D01*
X181127000Y-108435275D01*
X194744331Y-108435275D01*
X194806169Y-108671042D01*
X195307122Y-108847419D01*
X195837440Y-108818664D01*
X196193831Y-108671042D01*
X196255669Y-108435275D01*
X197284331Y-108435275D01*
X197346169Y-108671042D01*
X197847122Y-108847419D01*
X198377440Y-108818664D01*
X198733831Y-108671042D01*
X198795669Y-108435275D01*
X198040000Y-107679605D01*
X197284331Y-108435275D01*
X196255669Y-108435275D01*
X195500000Y-107679605D01*
X194744331Y-108435275D01*
X181127000Y-108435275D01*
X181127000Y-107307122D01*
X194152581Y-107307122D01*
X194181336Y-107837440D01*
X194328958Y-108193831D01*
X194564725Y-108255669D01*
X195320395Y-107500000D01*
X195679605Y-107500000D01*
X196435275Y-108255669D01*
X196671042Y-108193831D01*
X196761977Y-107935555D01*
X196868958Y-108193831D01*
X197104725Y-108255669D01*
X197860395Y-107500000D01*
X198219605Y-107500000D01*
X198975275Y-108255669D01*
X199211042Y-108193831D01*
X199387419Y-107692878D01*
X199358664Y-107162560D01*
X199211042Y-106806169D01*
X198975275Y-106744331D01*
X198219605Y-107500000D01*
X197860395Y-107500000D01*
X197104725Y-106744331D01*
X196868958Y-106806169D01*
X196778023Y-107064445D01*
X196671042Y-106806169D01*
X196435275Y-106744331D01*
X195679605Y-107500000D01*
X195320395Y-107500000D01*
X194564725Y-106744331D01*
X194328958Y-106806169D01*
X194152581Y-107307122D01*
X181127000Y-107307122D01*
X181127000Y-107133962D01*
X181323694Y-107134134D01*
X181924655Y-106885822D01*
X182384846Y-106426433D01*
X182499449Y-106150438D01*
X182613538Y-106426555D01*
X183072927Y-106886746D01*
X183673453Y-107136106D01*
X184323694Y-107136674D01*
X184924655Y-106888362D01*
X185384846Y-106428973D01*
X185515723Y-106113784D01*
X191720313Y-106113784D01*
X191884311Y-106510689D01*
X192187714Y-106814622D01*
X192584332Y-106979313D01*
X193013784Y-106979687D01*
X193410689Y-106815689D01*
X193662091Y-106564725D01*
X194744331Y-106564725D01*
X195500000Y-107320395D01*
X196255669Y-106564725D01*
X197284331Y-106564725D01*
X198040000Y-107320395D01*
X198795669Y-106564725D01*
X198733831Y-106328958D01*
X198232878Y-106152581D01*
X197702560Y-106181336D01*
X197346169Y-106328958D01*
X197284331Y-106564725D01*
X196255669Y-106564725D01*
X196193831Y-106328958D01*
X195692878Y-106152581D01*
X195162560Y-106181336D01*
X194806169Y-106328958D01*
X194744331Y-106564725D01*
X193662091Y-106564725D01*
X193714622Y-106512286D01*
X193879313Y-106115668D01*
X193879687Y-105686216D01*
X193715689Y-105289311D01*
X193412286Y-104985378D01*
X193015668Y-104820687D01*
X192586216Y-104820313D01*
X192189311Y-104984311D01*
X191885378Y-105287714D01*
X191720687Y-105684332D01*
X191720313Y-106113784D01*
X185515723Y-106113784D01*
X185634206Y-105828447D01*
X185634774Y-105178206D01*
X185386462Y-104577245D01*
X184927073Y-104117054D01*
X184326547Y-103867694D01*
X183676306Y-103867126D01*
X183075345Y-104115438D01*
X182615154Y-104574827D01*
X182500551Y-104850822D01*
X182386462Y-104574705D01*
X181927073Y-104114514D01*
X181326547Y-103865154D01*
X180676306Y-103864586D01*
X180075345Y-104112898D01*
X179615154Y-104572287D01*
X179365794Y-105172813D01*
X179365782Y-105186176D01*
X179127000Y-104947394D01*
X179127000Y-103313784D01*
X189220313Y-103313784D01*
X189384311Y-103710689D01*
X189687714Y-104014622D01*
X190084332Y-104179313D01*
X190513784Y-104179687D01*
X190910689Y-104015689D01*
X191214622Y-103712286D01*
X191379313Y-103315668D01*
X191379687Y-102886216D01*
X191215689Y-102489311D01*
X191140294Y-102413784D01*
X198120313Y-102413784D01*
X198284311Y-102810689D01*
X198587714Y-103114622D01*
X198984332Y-103279313D01*
X199114428Y-103279426D01*
X199114364Y-103353408D01*
X198843332Y-103465396D01*
X198539399Y-103768799D01*
X198374708Y-104165417D01*
X198374334Y-104594869D01*
X198538332Y-104991774D01*
X198841735Y-105295707D01*
X199238353Y-105460398D01*
X199667805Y-105460772D01*
X200064710Y-105296774D01*
X200368643Y-104993371D01*
X200533334Y-104596753D01*
X200533657Y-104225677D01*
X200804689Y-104113689D01*
X201108622Y-103810286D01*
X201273313Y-103413668D01*
X201273687Y-102984216D01*
X201109689Y-102587311D01*
X200806286Y-102283378D01*
X200409668Y-102118687D01*
X200279572Y-102118574D01*
X200279687Y-101986216D01*
X200115689Y-101589311D01*
X199812286Y-101285378D01*
X199415668Y-101120687D01*
X198986216Y-101120313D01*
X198589311Y-101284311D01*
X198285378Y-101587714D01*
X198120687Y-101984332D01*
X198120313Y-102413784D01*
X191140294Y-102413784D01*
X190912286Y-102185378D01*
X190515668Y-102020687D01*
X190086216Y-102020313D01*
X189689311Y-102184311D01*
X189385378Y-102487714D01*
X189220687Y-102884332D01*
X189220313Y-103313784D01*
X179127000Y-103313784D01*
X179127000Y-100821794D01*
X179365226Y-100821794D01*
X179613538Y-101422755D01*
X180072927Y-101882946D01*
X180673453Y-102132306D01*
X181323694Y-102132874D01*
X181924655Y-101884562D01*
X182384846Y-101425173D01*
X182499449Y-101149178D01*
X182613538Y-101425295D01*
X183072927Y-101885486D01*
X183673453Y-102134846D01*
X184323694Y-102135414D01*
X184924655Y-101887102D01*
X185384846Y-101427713D01*
X185634206Y-100827187D01*
X185634654Y-100313784D01*
X189120313Y-100313784D01*
X189284311Y-100710689D01*
X189587714Y-101014622D01*
X189984332Y-101179313D01*
X190413784Y-101179687D01*
X190810689Y-101015689D01*
X191114622Y-100712286D01*
X191279313Y-100315668D01*
X191279687Y-99886216D01*
X191115689Y-99489311D01*
X190812286Y-99185378D01*
X190415668Y-99020687D01*
X189986216Y-99020313D01*
X189589311Y-99184311D01*
X189285378Y-99487714D01*
X189120687Y-99884332D01*
X189120313Y-100313784D01*
X185634654Y-100313784D01*
X185634774Y-100176946D01*
X185386462Y-99575985D01*
X184927073Y-99115794D01*
X184380372Y-98888784D01*
X193370313Y-98888784D01*
X193534311Y-99285689D01*
X193837714Y-99589622D01*
X194234332Y-99754313D01*
X194663784Y-99754687D01*
X195060689Y-99590689D01*
X195364622Y-99287286D01*
X195529313Y-98890668D01*
X195529687Y-98461216D01*
X195365689Y-98064311D01*
X195062286Y-97760378D01*
X194665668Y-97595687D01*
X194236216Y-97595313D01*
X193839311Y-97759311D01*
X193535378Y-98062714D01*
X193370687Y-98459332D01*
X193370313Y-98888784D01*
X184380372Y-98888784D01*
X184326547Y-98866434D01*
X183676306Y-98865866D01*
X183075345Y-99114178D01*
X182615154Y-99573567D01*
X182500551Y-99849562D01*
X182386462Y-99573445D01*
X181927073Y-99113254D01*
X181326547Y-98863894D01*
X180676306Y-98863326D01*
X180075345Y-99111638D01*
X179615154Y-99571027D01*
X179365794Y-100171553D01*
X179365226Y-100821794D01*
X179127000Y-100821794D01*
X179127000Y-96654063D01*
X180527443Y-96654063D01*
X180626042Y-96920865D01*
X181235582Y-97147301D01*
X181885377Y-97123241D01*
X182373958Y-96920865D01*
X182472557Y-96654063D01*
X184527443Y-96654063D01*
X184626042Y-96920865D01*
X185235582Y-97147301D01*
X185885377Y-97123241D01*
X186373958Y-96920865D01*
X186472557Y-96654063D01*
X185500000Y-95681505D01*
X184527443Y-96654063D01*
X182472557Y-96654063D01*
X181500000Y-95681505D01*
X180527443Y-96654063D01*
X179127000Y-96654063D01*
X179127000Y-96052606D01*
X179857724Y-95321882D01*
X179878659Y-95887277D01*
X180081035Y-96375858D01*
X180347837Y-96474457D01*
X181320395Y-95501900D01*
X181679605Y-95501900D01*
X182652163Y-96474457D01*
X182918965Y-96375858D01*
X183145401Y-95766318D01*
X183125820Y-95237482D01*
X183854599Y-95237482D01*
X183878659Y-95887277D01*
X184081035Y-96375858D01*
X184347837Y-96474457D01*
X185320395Y-95501900D01*
X185679605Y-95501900D01*
X186652163Y-96474457D01*
X186918965Y-96375858D01*
X187145401Y-95766318D01*
X187121341Y-95116523D01*
X186918965Y-94627942D01*
X186880655Y-94613784D01*
X196820313Y-94613784D01*
X196984311Y-95010689D01*
X197287714Y-95314622D01*
X197684332Y-95479313D01*
X198113784Y-95479687D01*
X198510689Y-95315689D01*
X198577887Y-95248608D01*
X199502594Y-95248608D01*
X199666592Y-95645513D01*
X199969995Y-95949446D01*
X200224362Y-96055069D01*
X200170687Y-96184332D01*
X200170313Y-96613784D01*
X200334311Y-97010689D01*
X200637714Y-97314622D01*
X201034332Y-97479313D01*
X201463784Y-97479687D01*
X201860689Y-97315689D01*
X202164622Y-97012286D01*
X202329313Y-96615668D01*
X202329687Y-96186216D01*
X202165689Y-95789311D01*
X201862286Y-95485378D01*
X201607919Y-95379755D01*
X201661594Y-95250492D01*
X201661887Y-94913784D01*
X208920313Y-94913784D01*
X209084311Y-95310689D01*
X209387714Y-95614622D01*
X209784332Y-95779313D01*
X210213784Y-95779687D01*
X210610689Y-95615689D01*
X210914622Y-95312286D01*
X211079313Y-94915668D01*
X211079687Y-94486216D01*
X210915689Y-94089311D01*
X210612286Y-93785378D01*
X210215668Y-93620687D01*
X209786216Y-93620313D01*
X209389311Y-93784311D01*
X209085378Y-94087714D01*
X208920687Y-94484332D01*
X208920313Y-94913784D01*
X201661887Y-94913784D01*
X201661968Y-94821040D01*
X201497970Y-94424135D01*
X201194567Y-94120202D01*
X200797949Y-93955511D01*
X200368497Y-93955137D01*
X199971592Y-94119135D01*
X199667659Y-94422538D01*
X199502968Y-94819156D01*
X199502594Y-95248608D01*
X198577887Y-95248608D01*
X198814622Y-95012286D01*
X198979313Y-94615668D01*
X198979687Y-94186216D01*
X198815689Y-93789311D01*
X198512286Y-93485378D01*
X198115668Y-93320687D01*
X197686216Y-93320313D01*
X197289311Y-93484311D01*
X196985378Y-93787714D01*
X196820687Y-94184332D01*
X196820313Y-94613784D01*
X186880655Y-94613784D01*
X186652163Y-94529343D01*
X185679605Y-95501900D01*
X185320395Y-95501900D01*
X184347837Y-94529343D01*
X184081035Y-94627942D01*
X183854599Y-95237482D01*
X183125820Y-95237482D01*
X183121341Y-95116523D01*
X182918965Y-94627942D01*
X182652163Y-94529343D01*
X181679605Y-95501900D01*
X181320395Y-95501900D01*
X181306252Y-95487758D01*
X181485858Y-95308152D01*
X181500000Y-95322295D01*
X182472557Y-94349737D01*
X184527443Y-94349737D01*
X185500000Y-95322295D01*
X186472557Y-94349737D01*
X186373958Y-94082935D01*
X185764418Y-93856499D01*
X185114623Y-93880559D01*
X184626042Y-94082935D01*
X184527443Y-94349737D01*
X182472557Y-94349737D01*
X182373958Y-94082935D01*
X181764418Y-93856499D01*
X181114623Y-93880559D01*
X180627000Y-94082538D01*
X180627000Y-92823054D01*
X187365226Y-92823054D01*
X187613538Y-93424015D01*
X188072927Y-93884206D01*
X188673453Y-94133566D01*
X189323694Y-94134134D01*
X189924655Y-93885822D01*
X190384846Y-93426433D01*
X190499975Y-93149171D01*
X190613538Y-93424015D01*
X191072927Y-93884206D01*
X191673453Y-94133566D01*
X192323694Y-94134134D01*
X192924655Y-93885822D01*
X193384846Y-93426433D01*
X193634206Y-92825907D01*
X193634774Y-92175666D01*
X193386462Y-91574705D01*
X192927073Y-91114514D01*
X192326547Y-90865154D01*
X191676306Y-90864586D01*
X191075345Y-91112898D01*
X190615154Y-91572287D01*
X190500025Y-91849549D01*
X190386462Y-91574705D01*
X189927073Y-91114514D01*
X189326547Y-90865154D01*
X188676306Y-90864586D01*
X188075345Y-91112898D01*
X187615154Y-91572287D01*
X187365794Y-92172813D01*
X187365226Y-92823054D01*
X180627000Y-92823054D01*
X180627000Y-91907939D01*
X181173453Y-92134846D01*
X181823694Y-92135414D01*
X182424655Y-91887102D01*
X182884846Y-91427713D01*
X183134206Y-90827187D01*
X183134208Y-90824334D01*
X183865226Y-90824334D01*
X184113538Y-91425295D01*
X184572927Y-91885486D01*
X185173453Y-92134846D01*
X185823694Y-92135414D01*
X186424655Y-91887102D01*
X186884846Y-91427713D01*
X187134206Y-90827187D01*
X187134774Y-90176946D01*
X186886462Y-89575985D01*
X186427073Y-89115794D01*
X185826547Y-88866434D01*
X185176306Y-88865866D01*
X184575345Y-89114178D01*
X184115154Y-89573567D01*
X183865794Y-90174093D01*
X183865226Y-90824334D01*
X183134208Y-90824334D01*
X183134774Y-90176946D01*
X182886462Y-89575985D01*
X182427073Y-89115794D01*
X181826547Y-88866434D01*
X181176306Y-88865866D01*
X180627000Y-89092835D01*
X180627000Y-89000000D01*
X180618315Y-88953841D01*
X180617348Y-88952338D01*
X180616994Y-88950590D01*
X180603752Y-88931209D01*
X180591035Y-88911447D01*
X180589560Y-88910440D01*
X180588553Y-88908965D01*
X180568791Y-88896248D01*
X180549410Y-88883006D01*
X180547662Y-88882652D01*
X180546159Y-88881685D01*
X180500000Y-88873000D01*
X169837797Y-88873000D01*
X169550982Y-88178857D01*
X169467271Y-88095000D01*
X169854250Y-88095000D01*
X170013000Y-87936250D01*
X170013000Y-86837000D01*
X168913750Y-86837000D01*
X168755000Y-86995750D01*
X168755000Y-87469195D01*
X168059505Y-87180400D01*
X167144509Y-87179601D01*
X166298857Y-87529018D01*
X165825500Y-88001549D01*
X165825500Y-84465171D01*
X168742799Y-84465171D01*
X168770770Y-85015448D01*
X168927540Y-85393923D01*
X169029328Y-85422646D01*
X168851673Y-85600302D01*
X168755000Y-85833691D01*
X168755000Y-86424250D01*
X168913750Y-86583000D01*
X170013000Y-86583000D01*
X170013000Y-86563000D01*
X170267000Y-86563000D01*
X170267000Y-86583000D01*
X170287000Y-86583000D01*
X170287000Y-86837000D01*
X170267000Y-86837000D01*
X170267000Y-87936250D01*
X170425750Y-88095000D01*
X171016310Y-88095000D01*
X171249699Y-87998327D01*
X171426231Y-87821794D01*
X187365226Y-87821794D01*
X187613538Y-88422755D01*
X188072927Y-88882946D01*
X188673453Y-89132306D01*
X189323694Y-89132874D01*
X189924655Y-88884562D01*
X190384846Y-88425173D01*
X190499975Y-88147911D01*
X190613538Y-88422755D01*
X191072927Y-88882946D01*
X191673453Y-89132306D01*
X192323694Y-89132874D01*
X192924655Y-88884562D01*
X193384846Y-88425173D01*
X193634206Y-87824647D01*
X193634774Y-87174406D01*
X193439161Y-86700984D01*
X195980590Y-86700984D01*
X196700000Y-87420395D01*
X197419410Y-86700984D01*
X197363729Y-86470389D01*
X196880922Y-86302378D01*
X196370572Y-86331917D01*
X196036271Y-86470389D01*
X195980590Y-86700984D01*
X193439161Y-86700984D01*
X193386462Y-86573445D01*
X192927073Y-86113254D01*
X192326547Y-85863894D01*
X191676306Y-85863326D01*
X191075345Y-86111638D01*
X190615154Y-86571027D01*
X190500025Y-86848289D01*
X190386462Y-86573445D01*
X189927073Y-86113254D01*
X189326547Y-85863894D01*
X188676306Y-85863326D01*
X188075345Y-86111638D01*
X187615154Y-86571027D01*
X187365794Y-87171553D01*
X187365226Y-87821794D01*
X171426231Y-87821794D01*
X171428327Y-87819698D01*
X171525000Y-87586309D01*
X171525000Y-87025637D01*
X171643298Y-87074759D01*
X172194285Y-87075240D01*
X172703515Y-86864831D01*
X173093461Y-86475564D01*
X173304759Y-85966702D01*
X173305240Y-85415715D01*
X173094831Y-84906485D01*
X172858687Y-84669929D01*
X173093461Y-84435564D01*
X173271557Y-84006661D01*
X189902758Y-84006661D01*
X190114990Y-84520303D01*
X190507630Y-84913629D01*
X191020900Y-85126757D01*
X191576661Y-85127242D01*
X192090303Y-84915010D01*
X192483629Y-84522370D01*
X192569949Y-84314488D01*
X192654990Y-84520303D01*
X193047630Y-84913629D01*
X193560900Y-85126757D01*
X194116661Y-85127242D01*
X194630303Y-84915010D01*
X195023629Y-84522370D01*
X195109949Y-84314488D01*
X195194990Y-84520303D01*
X195587630Y-84913629D01*
X196100900Y-85126757D01*
X196656661Y-85127242D01*
X197170303Y-84915010D01*
X197563629Y-84522370D01*
X197776757Y-84009100D01*
X197777242Y-83453339D01*
X197565010Y-82939697D01*
X197172370Y-82546371D01*
X196659100Y-82333243D01*
X196103339Y-82332758D01*
X195589697Y-82544990D01*
X195196371Y-82937630D01*
X195110051Y-83145512D01*
X195025010Y-82939697D01*
X194632370Y-82546371D01*
X194119100Y-82333243D01*
X193563339Y-82332758D01*
X193049697Y-82544990D01*
X192656371Y-82937630D01*
X192570051Y-83145512D01*
X192485010Y-82939697D01*
X192092370Y-82546371D01*
X191579100Y-82333243D01*
X191023339Y-82332758D01*
X190509697Y-82544990D01*
X190116371Y-82937630D01*
X189903243Y-83450900D01*
X189902758Y-84006661D01*
X173271557Y-84006661D01*
X173304759Y-83926702D01*
X173305240Y-83375715D01*
X173094831Y-82866485D01*
X172858687Y-82629929D01*
X173093461Y-82395564D01*
X173304759Y-81886702D01*
X173305240Y-81335715D01*
X173094831Y-80826485D01*
X172858687Y-80589929D01*
X173093461Y-80355564D01*
X173304759Y-79846702D01*
X173305240Y-79295715D01*
X173094831Y-78786485D01*
X172705564Y-78396539D01*
X172196702Y-78185241D01*
X171645715Y-78184760D01*
X171136485Y-78395169D01*
X170746539Y-78784436D01*
X170547083Y-79264779D01*
X170344829Y-79192799D01*
X169794552Y-79220770D01*
X169416077Y-79377540D01*
X169348088Y-79618483D01*
X170140000Y-80410395D01*
X170154143Y-80396253D01*
X170333748Y-80575858D01*
X170319605Y-80590000D01*
X170333748Y-80604143D01*
X170154143Y-80783748D01*
X170140000Y-80769605D01*
X169545797Y-81363808D01*
X169416077Y-81417540D01*
X169386206Y-81523399D01*
X169348088Y-81561517D01*
X169361769Y-81610000D01*
X169348088Y-81658483D01*
X169386206Y-81696601D01*
X169416077Y-81802460D01*
X169534051Y-81844446D01*
X170140000Y-82450395D01*
X170154143Y-82436253D01*
X170333748Y-82615858D01*
X170319605Y-82630000D01*
X170333748Y-82644143D01*
X170154143Y-82823748D01*
X170140000Y-82809605D01*
X169545797Y-83403808D01*
X169416077Y-83457540D01*
X169386206Y-83563399D01*
X169348088Y-83601517D01*
X169361769Y-83650000D01*
X169348088Y-83698483D01*
X169386206Y-83736601D01*
X169416077Y-83842460D01*
X169534051Y-83884446D01*
X170140000Y-84490395D01*
X170154143Y-84476253D01*
X170333748Y-84655858D01*
X170319605Y-84670000D01*
X170333748Y-84684143D01*
X170154143Y-84863748D01*
X170140000Y-84849605D01*
X170125858Y-84863748D01*
X169946253Y-84684143D01*
X169960395Y-84670000D01*
X169168483Y-83878088D01*
X168927540Y-83946077D01*
X168742799Y-84465171D01*
X165825500Y-84465171D01*
X165825500Y-82425171D01*
X168742799Y-82425171D01*
X168770770Y-82975448D01*
X168927540Y-83353923D01*
X169168483Y-83421912D01*
X169960395Y-82630000D01*
X169168483Y-81838088D01*
X168927540Y-81906077D01*
X168742799Y-82425171D01*
X165825500Y-82425171D01*
X165825500Y-80385171D01*
X168742799Y-80385171D01*
X168770770Y-80935448D01*
X168927540Y-81313923D01*
X169168483Y-81381912D01*
X169960395Y-80590000D01*
X169168483Y-79798088D01*
X168927540Y-79866077D01*
X168742799Y-80385171D01*
X165825500Y-80385171D01*
X165825500Y-78257933D01*
X166295453Y-78728708D01*
X167140495Y-79079600D01*
X168055491Y-79080399D01*
X168901143Y-78730982D01*
X169548708Y-78084547D01*
X169899600Y-77239505D01*
X169900399Y-76324509D01*
X169550982Y-75478857D01*
X168904547Y-74831292D01*
X168059505Y-74480400D01*
X167144509Y-74479601D01*
X166298857Y-74829018D01*
X165825500Y-75301549D01*
X165825500Y-74127000D01*
X172873000Y-74127000D01*
X172873000Y-76000000D01*
X172873000Y-76000000D01*
G37*
X172873000Y-76000000D02*
X172881685Y-76046159D01*
X172882652Y-76047662D01*
X172883006Y-76049410D01*
X172896248Y-76068791D01*
X172908965Y-76088553D01*
X172910440Y-76089560D01*
X172911447Y-76091035D01*
X172931209Y-76103752D01*
X172950590Y-76116994D01*
X172952338Y-76117348D01*
X172953841Y-76118315D01*
X173000000Y-76127000D01*
X176947394Y-76127000D01*
X183910197Y-83089803D01*
X183950590Y-83116994D01*
X183951465Y-83117171D01*
X183952211Y-83117666D01*
X184000000Y-83127000D01*
X188000000Y-83127000D01*
X188046159Y-83118315D01*
X188047662Y-83117348D01*
X188049410Y-83116994D01*
X188068791Y-83103752D01*
X188088553Y-83091035D01*
X188089560Y-83089560D01*
X188091035Y-83088553D01*
X188103752Y-83068791D01*
X188116994Y-83049410D01*
X188117348Y-83047662D01*
X188118315Y-83046159D01*
X188127000Y-83000000D01*
X188127000Y-82127000D01*
X197873000Y-82127000D01*
X197873000Y-87041021D01*
X197829611Y-86936271D01*
X197599016Y-86880590D01*
X196879605Y-87600000D01*
X196893748Y-87614142D01*
X196714142Y-87793748D01*
X196700000Y-87779605D01*
X196685858Y-87793748D01*
X196506252Y-87614142D01*
X196520395Y-87600000D01*
X195800984Y-86880590D01*
X195570389Y-86936271D01*
X195402378Y-87419078D01*
X195431917Y-87929428D01*
X195570389Y-88263729D01*
X195800982Y-88319410D01*
X195699320Y-88421072D01*
X195598559Y-88485910D01*
X195453569Y-88698110D01*
X195402560Y-88950000D01*
X195402560Y-90250000D01*
X195446838Y-90485317D01*
X195585910Y-90701441D01*
X195798110Y-90846431D01*
X196050000Y-90897440D01*
X197350000Y-90897440D01*
X197585317Y-90853162D01*
X197801441Y-90714090D01*
X197946431Y-90501890D01*
X197997440Y-90250000D01*
X197997440Y-89126518D01*
X198000000Y-89127000D01*
X205873000Y-89127000D01*
X205873000Y-90000000D01*
X205881685Y-90046159D01*
X205882652Y-90047662D01*
X205883006Y-90049410D01*
X205896248Y-90068791D01*
X205908965Y-90088553D01*
X205910440Y-90089560D01*
X205911447Y-90091035D01*
X205931209Y-90103752D01*
X205950590Y-90116994D01*
X205952338Y-90117348D01*
X205953841Y-90118315D01*
X206000000Y-90127000D01*
X212873000Y-90127000D01*
X212873000Y-92000000D01*
X212881685Y-92046159D01*
X212882652Y-92047662D01*
X212883006Y-92049410D01*
X212896248Y-92068791D01*
X212908965Y-92088553D01*
X212910440Y-92089560D01*
X212911447Y-92091035D01*
X212931209Y-92103752D01*
X212950590Y-92116994D01*
X212952338Y-92117348D01*
X212953841Y-92118315D01*
X213000000Y-92127000D01*
X215873000Y-92127000D01*
X215873000Y-98000000D01*
X215881685Y-98046159D01*
X215882652Y-98047662D01*
X215883006Y-98049410D01*
X215896248Y-98068791D01*
X215908965Y-98088553D01*
X215910440Y-98089560D01*
X215911447Y-98091035D01*
X215931209Y-98103752D01*
X215950590Y-98116994D01*
X215952338Y-98117348D01*
X215953841Y-98118315D01*
X216000000Y-98127000D01*
X220873000Y-98127000D01*
X220873000Y-99873000D01*
X220000000Y-99873000D01*
X219953841Y-99881685D01*
X219952338Y-99882652D01*
X219950590Y-99883006D01*
X219931209Y-99896248D01*
X219911447Y-99908965D01*
X219910440Y-99910440D01*
X219908965Y-99911447D01*
X219896248Y-99931209D01*
X219883006Y-99950590D01*
X219882652Y-99952338D01*
X219881685Y-99953841D01*
X219873000Y-100000000D01*
X219873000Y-100527541D01*
X219615668Y-100420687D01*
X219186216Y-100420313D01*
X218789311Y-100584311D01*
X218485378Y-100887714D01*
X218320687Y-101284332D01*
X218320313Y-101713784D01*
X218484311Y-102110689D01*
X218787714Y-102414622D01*
X219184332Y-102579313D01*
X219613784Y-102579687D01*
X219873000Y-102472581D01*
X219873000Y-105873000D01*
X212972459Y-105873000D01*
X213079313Y-105615668D01*
X213079687Y-105186216D01*
X212915689Y-104789311D01*
X212612286Y-104485378D01*
X212215668Y-104320687D01*
X211786216Y-104320313D01*
X211389311Y-104484311D01*
X211145893Y-104727304D01*
X211110806Y-104692156D01*
X210714188Y-104527465D01*
X210284736Y-104527091D01*
X209887831Y-104691089D01*
X209583898Y-104994492D01*
X209419207Y-105391110D01*
X209418833Y-105820562D01*
X209440500Y-105873000D01*
X206853453Y-105873000D01*
X207114622Y-105612286D01*
X207193987Y-105421154D01*
X207228260Y-105435385D01*
X207657712Y-105435759D01*
X208054617Y-105271761D01*
X208358550Y-104968358D01*
X208523241Y-104571740D01*
X208523615Y-104142288D01*
X208359617Y-103745383D01*
X208056214Y-103441450D01*
X207659596Y-103276759D01*
X207230144Y-103276385D01*
X206833239Y-103440383D01*
X206529306Y-103743786D01*
X206449941Y-103934918D01*
X206415668Y-103920687D01*
X205986216Y-103920313D01*
X205589311Y-104084311D01*
X205285378Y-104387714D01*
X205120687Y-104784332D01*
X205120313Y-105213784D01*
X205284311Y-105610689D01*
X205587714Y-105914622D01*
X205873000Y-106033084D01*
X205873000Y-107230218D01*
X205672418Y-106744771D01*
X205297204Y-106368902D01*
X204806713Y-106165232D01*
X204275617Y-106164769D01*
X203784771Y-106367582D01*
X203408902Y-106742796D01*
X203269909Y-107077527D01*
X203132418Y-106744771D01*
X202757204Y-106368902D01*
X202266713Y-106165232D01*
X201735617Y-106164769D01*
X201244771Y-106367582D01*
X200868902Y-106742796D01*
X200665232Y-107233287D01*
X200664769Y-107764383D01*
X200867582Y-108255229D01*
X201242796Y-108631098D01*
X201733287Y-108834768D01*
X202264383Y-108835231D01*
X202755229Y-108632418D01*
X203131098Y-108257204D01*
X203270091Y-107922473D01*
X203407582Y-108255229D01*
X203782796Y-108631098D01*
X204273287Y-108834768D01*
X204804383Y-108835231D01*
X205295229Y-108632418D01*
X205671098Y-108257204D01*
X205873000Y-107770971D01*
X205873000Y-110730218D01*
X205672418Y-110244771D01*
X205297204Y-109868902D01*
X204806713Y-109665232D01*
X204275617Y-109664769D01*
X203784771Y-109867582D01*
X203408902Y-110242796D01*
X203269909Y-110577527D01*
X203132418Y-110244771D01*
X202757204Y-109868902D01*
X202266713Y-109665232D01*
X201735617Y-109664769D01*
X201244771Y-109867582D01*
X200868902Y-110242796D01*
X200665232Y-110733287D01*
X200664769Y-111264383D01*
X200867582Y-111755229D01*
X200985148Y-111873000D01*
X199055100Y-111873000D01*
X199171098Y-111757204D01*
X199374768Y-111266713D01*
X199375231Y-110735617D01*
X199172418Y-110244771D01*
X198797204Y-109868902D01*
X198306713Y-109665232D01*
X197775617Y-109664769D01*
X197284771Y-109867582D01*
X196908902Y-110242796D01*
X196769909Y-110577527D01*
X196632418Y-110244771D01*
X196257204Y-109868902D01*
X195766713Y-109665232D01*
X195235617Y-109664769D01*
X194744771Y-109867582D01*
X194395675Y-110216069D01*
X193089803Y-108910197D01*
X193049410Y-108883006D01*
X193048535Y-108882829D01*
X193047789Y-108882334D01*
X193000000Y-108873000D01*
X181127000Y-108873000D01*
X181127000Y-108435275D01*
X194744331Y-108435275D01*
X194806169Y-108671042D01*
X195307122Y-108847419D01*
X195837440Y-108818664D01*
X196193831Y-108671042D01*
X196255669Y-108435275D01*
X197284331Y-108435275D01*
X197346169Y-108671042D01*
X197847122Y-108847419D01*
X198377440Y-108818664D01*
X198733831Y-108671042D01*
X198795669Y-108435275D01*
X198040000Y-107679605D01*
X197284331Y-108435275D01*
X196255669Y-108435275D01*
X195500000Y-107679605D01*
X194744331Y-108435275D01*
X181127000Y-108435275D01*
X181127000Y-107307122D01*
X194152581Y-107307122D01*
X194181336Y-107837440D01*
X194328958Y-108193831D01*
X194564725Y-108255669D01*
X195320395Y-107500000D01*
X195679605Y-107500000D01*
X196435275Y-108255669D01*
X196671042Y-108193831D01*
X196761977Y-107935555D01*
X196868958Y-108193831D01*
X197104725Y-108255669D01*
X197860395Y-107500000D01*
X198219605Y-107500000D01*
X198975275Y-108255669D01*
X199211042Y-108193831D01*
X199387419Y-107692878D01*
X199358664Y-107162560D01*
X199211042Y-106806169D01*
X198975275Y-106744331D01*
X198219605Y-107500000D01*
X197860395Y-107500000D01*
X197104725Y-106744331D01*
X196868958Y-106806169D01*
X196778023Y-107064445D01*
X196671042Y-106806169D01*
X196435275Y-106744331D01*
X195679605Y-107500000D01*
X195320395Y-107500000D01*
X194564725Y-106744331D01*
X194328958Y-106806169D01*
X194152581Y-107307122D01*
X181127000Y-107307122D01*
X181127000Y-107133962D01*
X181323694Y-107134134D01*
X181924655Y-106885822D01*
X182384846Y-106426433D01*
X182499449Y-106150438D01*
X182613538Y-106426555D01*
X183072927Y-106886746D01*
X183673453Y-107136106D01*
X184323694Y-107136674D01*
X184924655Y-106888362D01*
X185384846Y-106428973D01*
X185515723Y-106113784D01*
X191720313Y-106113784D01*
X191884311Y-106510689D01*
X192187714Y-106814622D01*
X192584332Y-106979313D01*
X193013784Y-106979687D01*
X193410689Y-106815689D01*
X193662091Y-106564725D01*
X194744331Y-106564725D01*
X195500000Y-107320395D01*
X196255669Y-106564725D01*
X197284331Y-106564725D01*
X198040000Y-107320395D01*
X198795669Y-106564725D01*
X198733831Y-106328958D01*
X198232878Y-106152581D01*
X197702560Y-106181336D01*
X197346169Y-106328958D01*
X197284331Y-106564725D01*
X196255669Y-106564725D01*
X196193831Y-106328958D01*
X195692878Y-106152581D01*
X195162560Y-106181336D01*
X194806169Y-106328958D01*
X194744331Y-106564725D01*
X193662091Y-106564725D01*
X193714622Y-106512286D01*
X193879313Y-106115668D01*
X193879687Y-105686216D01*
X193715689Y-105289311D01*
X193412286Y-104985378D01*
X193015668Y-104820687D01*
X192586216Y-104820313D01*
X192189311Y-104984311D01*
X191885378Y-105287714D01*
X191720687Y-105684332D01*
X191720313Y-106113784D01*
X185515723Y-106113784D01*
X185634206Y-105828447D01*
X185634774Y-105178206D01*
X185386462Y-104577245D01*
X184927073Y-104117054D01*
X184326547Y-103867694D01*
X183676306Y-103867126D01*
X183075345Y-104115438D01*
X182615154Y-104574827D01*
X182500551Y-104850822D01*
X182386462Y-104574705D01*
X181927073Y-104114514D01*
X181326547Y-103865154D01*
X180676306Y-103864586D01*
X180075345Y-104112898D01*
X179615154Y-104572287D01*
X179365794Y-105172813D01*
X179365782Y-105186176D01*
X179127000Y-104947394D01*
X179127000Y-103313784D01*
X189220313Y-103313784D01*
X189384311Y-103710689D01*
X189687714Y-104014622D01*
X190084332Y-104179313D01*
X190513784Y-104179687D01*
X190910689Y-104015689D01*
X191214622Y-103712286D01*
X191379313Y-103315668D01*
X191379687Y-102886216D01*
X191215689Y-102489311D01*
X191140294Y-102413784D01*
X198120313Y-102413784D01*
X198284311Y-102810689D01*
X198587714Y-103114622D01*
X198984332Y-103279313D01*
X199114428Y-103279426D01*
X199114364Y-103353408D01*
X198843332Y-103465396D01*
X198539399Y-103768799D01*
X198374708Y-104165417D01*
X198374334Y-104594869D01*
X198538332Y-104991774D01*
X198841735Y-105295707D01*
X199238353Y-105460398D01*
X199667805Y-105460772D01*
X200064710Y-105296774D01*
X200368643Y-104993371D01*
X200533334Y-104596753D01*
X200533657Y-104225677D01*
X200804689Y-104113689D01*
X201108622Y-103810286D01*
X201273313Y-103413668D01*
X201273687Y-102984216D01*
X201109689Y-102587311D01*
X200806286Y-102283378D01*
X200409668Y-102118687D01*
X200279572Y-102118574D01*
X200279687Y-101986216D01*
X200115689Y-101589311D01*
X199812286Y-101285378D01*
X199415668Y-101120687D01*
X198986216Y-101120313D01*
X198589311Y-101284311D01*
X198285378Y-101587714D01*
X198120687Y-101984332D01*
X198120313Y-102413784D01*
X191140294Y-102413784D01*
X190912286Y-102185378D01*
X190515668Y-102020687D01*
X190086216Y-102020313D01*
X189689311Y-102184311D01*
X189385378Y-102487714D01*
X189220687Y-102884332D01*
X189220313Y-103313784D01*
X179127000Y-103313784D01*
X179127000Y-100821794D01*
X179365226Y-100821794D01*
X179613538Y-101422755D01*
X180072927Y-101882946D01*
X180673453Y-102132306D01*
X181323694Y-102132874D01*
X181924655Y-101884562D01*
X182384846Y-101425173D01*
X182499449Y-101149178D01*
X182613538Y-101425295D01*
X183072927Y-101885486D01*
X183673453Y-102134846D01*
X184323694Y-102135414D01*
X184924655Y-101887102D01*
X185384846Y-101427713D01*
X185634206Y-100827187D01*
X185634654Y-100313784D01*
X189120313Y-100313784D01*
X189284311Y-100710689D01*
X189587714Y-101014622D01*
X189984332Y-101179313D01*
X190413784Y-101179687D01*
X190810689Y-101015689D01*
X191114622Y-100712286D01*
X191279313Y-100315668D01*
X191279687Y-99886216D01*
X191115689Y-99489311D01*
X190812286Y-99185378D01*
X190415668Y-99020687D01*
X189986216Y-99020313D01*
X189589311Y-99184311D01*
X189285378Y-99487714D01*
X189120687Y-99884332D01*
X189120313Y-100313784D01*
X185634654Y-100313784D01*
X185634774Y-100176946D01*
X185386462Y-99575985D01*
X184927073Y-99115794D01*
X184380372Y-98888784D01*
X193370313Y-98888784D01*
X193534311Y-99285689D01*
X193837714Y-99589622D01*
X194234332Y-99754313D01*
X194663784Y-99754687D01*
X195060689Y-99590689D01*
X195364622Y-99287286D01*
X195529313Y-98890668D01*
X195529687Y-98461216D01*
X195365689Y-98064311D01*
X195062286Y-97760378D01*
X194665668Y-97595687D01*
X194236216Y-97595313D01*
X193839311Y-97759311D01*
X193535378Y-98062714D01*
X193370687Y-98459332D01*
X193370313Y-98888784D01*
X184380372Y-98888784D01*
X184326547Y-98866434D01*
X183676306Y-98865866D01*
X183075345Y-99114178D01*
X182615154Y-99573567D01*
X182500551Y-99849562D01*
X182386462Y-99573445D01*
X181927073Y-99113254D01*
X181326547Y-98863894D01*
X180676306Y-98863326D01*
X180075345Y-99111638D01*
X179615154Y-99571027D01*
X179365794Y-100171553D01*
X179365226Y-100821794D01*
X179127000Y-100821794D01*
X179127000Y-96654063D01*
X180527443Y-96654063D01*
X180626042Y-96920865D01*
X181235582Y-97147301D01*
X181885377Y-97123241D01*
X182373958Y-96920865D01*
X182472557Y-96654063D01*
X184527443Y-96654063D01*
X184626042Y-96920865D01*
X185235582Y-97147301D01*
X185885377Y-97123241D01*
X186373958Y-96920865D01*
X186472557Y-96654063D01*
X185500000Y-95681505D01*
X184527443Y-96654063D01*
X182472557Y-96654063D01*
X181500000Y-95681505D01*
X180527443Y-96654063D01*
X179127000Y-96654063D01*
X179127000Y-96052606D01*
X179857724Y-95321882D01*
X179878659Y-95887277D01*
X180081035Y-96375858D01*
X180347837Y-96474457D01*
X181320395Y-95501900D01*
X181679605Y-95501900D01*
X182652163Y-96474457D01*
X182918965Y-96375858D01*
X183145401Y-95766318D01*
X183125820Y-95237482D01*
X183854599Y-95237482D01*
X183878659Y-95887277D01*
X184081035Y-96375858D01*
X184347837Y-96474457D01*
X185320395Y-95501900D01*
X185679605Y-95501900D01*
X186652163Y-96474457D01*
X186918965Y-96375858D01*
X187145401Y-95766318D01*
X187121341Y-95116523D01*
X186918965Y-94627942D01*
X186880655Y-94613784D01*
X196820313Y-94613784D01*
X196984311Y-95010689D01*
X197287714Y-95314622D01*
X197684332Y-95479313D01*
X198113784Y-95479687D01*
X198510689Y-95315689D01*
X198577887Y-95248608D01*
X199502594Y-95248608D01*
X199666592Y-95645513D01*
X199969995Y-95949446D01*
X200224362Y-96055069D01*
X200170687Y-96184332D01*
X200170313Y-96613784D01*
X200334311Y-97010689D01*
X200637714Y-97314622D01*
X201034332Y-97479313D01*
X201463784Y-97479687D01*
X201860689Y-97315689D01*
X202164622Y-97012286D01*
X202329313Y-96615668D01*
X202329687Y-96186216D01*
X202165689Y-95789311D01*
X201862286Y-95485378D01*
X201607919Y-95379755D01*
X201661594Y-95250492D01*
X201661887Y-94913784D01*
X208920313Y-94913784D01*
X209084311Y-95310689D01*
X209387714Y-95614622D01*
X209784332Y-95779313D01*
X210213784Y-95779687D01*
X210610689Y-95615689D01*
X210914622Y-95312286D01*
X211079313Y-94915668D01*
X211079687Y-94486216D01*
X210915689Y-94089311D01*
X210612286Y-93785378D01*
X210215668Y-93620687D01*
X209786216Y-93620313D01*
X209389311Y-93784311D01*
X209085378Y-94087714D01*
X208920687Y-94484332D01*
X208920313Y-94913784D01*
X201661887Y-94913784D01*
X201661968Y-94821040D01*
X201497970Y-94424135D01*
X201194567Y-94120202D01*
X200797949Y-93955511D01*
X200368497Y-93955137D01*
X199971592Y-94119135D01*
X199667659Y-94422538D01*
X199502968Y-94819156D01*
X199502594Y-95248608D01*
X198577887Y-95248608D01*
X198814622Y-95012286D01*
X198979313Y-94615668D01*
X198979687Y-94186216D01*
X198815689Y-93789311D01*
X198512286Y-93485378D01*
X198115668Y-93320687D01*
X197686216Y-93320313D01*
X197289311Y-93484311D01*
X196985378Y-93787714D01*
X196820687Y-94184332D01*
X196820313Y-94613784D01*
X186880655Y-94613784D01*
X186652163Y-94529343D01*
X185679605Y-95501900D01*
X185320395Y-95501900D01*
X184347837Y-94529343D01*
X184081035Y-94627942D01*
X183854599Y-95237482D01*
X183125820Y-95237482D01*
X183121341Y-95116523D01*
X182918965Y-94627942D01*
X182652163Y-94529343D01*
X181679605Y-95501900D01*
X181320395Y-95501900D01*
X181306252Y-95487758D01*
X181485858Y-95308152D01*
X181500000Y-95322295D01*
X182472557Y-94349737D01*
X184527443Y-94349737D01*
X185500000Y-95322295D01*
X186472557Y-94349737D01*
X186373958Y-94082935D01*
X185764418Y-93856499D01*
X185114623Y-93880559D01*
X184626042Y-94082935D01*
X184527443Y-94349737D01*
X182472557Y-94349737D01*
X182373958Y-94082935D01*
X181764418Y-93856499D01*
X181114623Y-93880559D01*
X180627000Y-94082538D01*
X180627000Y-92823054D01*
X187365226Y-92823054D01*
X187613538Y-93424015D01*
X188072927Y-93884206D01*
X188673453Y-94133566D01*
X189323694Y-94134134D01*
X189924655Y-93885822D01*
X190384846Y-93426433D01*
X190499975Y-93149171D01*
X190613538Y-93424015D01*
X191072927Y-93884206D01*
X191673453Y-94133566D01*
X192323694Y-94134134D01*
X192924655Y-93885822D01*
X193384846Y-93426433D01*
X193634206Y-92825907D01*
X193634774Y-92175666D01*
X193386462Y-91574705D01*
X192927073Y-91114514D01*
X192326547Y-90865154D01*
X191676306Y-90864586D01*
X191075345Y-91112898D01*
X190615154Y-91572287D01*
X190500025Y-91849549D01*
X190386462Y-91574705D01*
X189927073Y-91114514D01*
X189326547Y-90865154D01*
X188676306Y-90864586D01*
X188075345Y-91112898D01*
X187615154Y-91572287D01*
X187365794Y-92172813D01*
X187365226Y-92823054D01*
X180627000Y-92823054D01*
X180627000Y-91907939D01*
X181173453Y-92134846D01*
X181823694Y-92135414D01*
X182424655Y-91887102D01*
X182884846Y-91427713D01*
X183134206Y-90827187D01*
X183134208Y-90824334D01*
X183865226Y-90824334D01*
X184113538Y-91425295D01*
X184572927Y-91885486D01*
X185173453Y-92134846D01*
X185823694Y-92135414D01*
X186424655Y-91887102D01*
X186884846Y-91427713D01*
X187134206Y-90827187D01*
X187134774Y-90176946D01*
X186886462Y-89575985D01*
X186427073Y-89115794D01*
X185826547Y-88866434D01*
X185176306Y-88865866D01*
X184575345Y-89114178D01*
X184115154Y-89573567D01*
X183865794Y-90174093D01*
X183865226Y-90824334D01*
X183134208Y-90824334D01*
X183134774Y-90176946D01*
X182886462Y-89575985D01*
X182427073Y-89115794D01*
X181826547Y-88866434D01*
X181176306Y-88865866D01*
X180627000Y-89092835D01*
X180627000Y-89000000D01*
X180618315Y-88953841D01*
X180617348Y-88952338D01*
X180616994Y-88950590D01*
X180603752Y-88931209D01*
X180591035Y-88911447D01*
X180589560Y-88910440D01*
X180588553Y-88908965D01*
X180568791Y-88896248D01*
X180549410Y-88883006D01*
X180547662Y-88882652D01*
X180546159Y-88881685D01*
X180500000Y-88873000D01*
X169837797Y-88873000D01*
X169550982Y-88178857D01*
X169467271Y-88095000D01*
X169854250Y-88095000D01*
X170013000Y-87936250D01*
X170013000Y-86837000D01*
X168913750Y-86837000D01*
X168755000Y-86995750D01*
X168755000Y-87469195D01*
X168059505Y-87180400D01*
X167144509Y-87179601D01*
X166298857Y-87529018D01*
X165825500Y-88001549D01*
X165825500Y-84465171D01*
X168742799Y-84465171D01*
X168770770Y-85015448D01*
X168927540Y-85393923D01*
X169029328Y-85422646D01*
X168851673Y-85600302D01*
X168755000Y-85833691D01*
X168755000Y-86424250D01*
X168913750Y-86583000D01*
X170013000Y-86583000D01*
X170013000Y-86563000D01*
X170267000Y-86563000D01*
X170267000Y-86583000D01*
X170287000Y-86583000D01*
X170287000Y-86837000D01*
X170267000Y-86837000D01*
X170267000Y-87936250D01*
X170425750Y-88095000D01*
X171016310Y-88095000D01*
X171249699Y-87998327D01*
X171426231Y-87821794D01*
X187365226Y-87821794D01*
X187613538Y-88422755D01*
X188072927Y-88882946D01*
X188673453Y-89132306D01*
X189323694Y-89132874D01*
X189924655Y-88884562D01*
X190384846Y-88425173D01*
X190499975Y-88147911D01*
X190613538Y-88422755D01*
X191072927Y-88882946D01*
X191673453Y-89132306D01*
X192323694Y-89132874D01*
X192924655Y-88884562D01*
X193384846Y-88425173D01*
X193634206Y-87824647D01*
X193634774Y-87174406D01*
X193439161Y-86700984D01*
X195980590Y-86700984D01*
X196700000Y-87420395D01*
X197419410Y-86700984D01*
X197363729Y-86470389D01*
X196880922Y-86302378D01*
X196370572Y-86331917D01*
X196036271Y-86470389D01*
X195980590Y-86700984D01*
X193439161Y-86700984D01*
X193386462Y-86573445D01*
X192927073Y-86113254D01*
X192326547Y-85863894D01*
X191676306Y-85863326D01*
X191075345Y-86111638D01*
X190615154Y-86571027D01*
X190500025Y-86848289D01*
X190386462Y-86573445D01*
X189927073Y-86113254D01*
X189326547Y-85863894D01*
X188676306Y-85863326D01*
X188075345Y-86111638D01*
X187615154Y-86571027D01*
X187365794Y-87171553D01*
X187365226Y-87821794D01*
X171426231Y-87821794D01*
X171428327Y-87819698D01*
X171525000Y-87586309D01*
X171525000Y-87025637D01*
X171643298Y-87074759D01*
X172194285Y-87075240D01*
X172703515Y-86864831D01*
X173093461Y-86475564D01*
X173304759Y-85966702D01*
X173305240Y-85415715D01*
X173094831Y-84906485D01*
X172858687Y-84669929D01*
X173093461Y-84435564D01*
X173271557Y-84006661D01*
X189902758Y-84006661D01*
X190114990Y-84520303D01*
X190507630Y-84913629D01*
X191020900Y-85126757D01*
X191576661Y-85127242D01*
X192090303Y-84915010D01*
X192483629Y-84522370D01*
X192569949Y-84314488D01*
X192654990Y-84520303D01*
X193047630Y-84913629D01*
X193560900Y-85126757D01*
X194116661Y-85127242D01*
X194630303Y-84915010D01*
X195023629Y-84522370D01*
X195109949Y-84314488D01*
X195194990Y-84520303D01*
X195587630Y-84913629D01*
X196100900Y-85126757D01*
X196656661Y-85127242D01*
X197170303Y-84915010D01*
X197563629Y-84522370D01*
X197776757Y-84009100D01*
X197777242Y-83453339D01*
X197565010Y-82939697D01*
X197172370Y-82546371D01*
X196659100Y-82333243D01*
X196103339Y-82332758D01*
X195589697Y-82544990D01*
X195196371Y-82937630D01*
X195110051Y-83145512D01*
X195025010Y-82939697D01*
X194632370Y-82546371D01*
X194119100Y-82333243D01*
X193563339Y-82332758D01*
X193049697Y-82544990D01*
X192656371Y-82937630D01*
X192570051Y-83145512D01*
X192485010Y-82939697D01*
X192092370Y-82546371D01*
X191579100Y-82333243D01*
X191023339Y-82332758D01*
X190509697Y-82544990D01*
X190116371Y-82937630D01*
X189903243Y-83450900D01*
X189902758Y-84006661D01*
X173271557Y-84006661D01*
X173304759Y-83926702D01*
X173305240Y-83375715D01*
X173094831Y-82866485D01*
X172858687Y-82629929D01*
X173093461Y-82395564D01*
X173304759Y-81886702D01*
X173305240Y-81335715D01*
X173094831Y-80826485D01*
X172858687Y-80589929D01*
X173093461Y-80355564D01*
X173304759Y-79846702D01*
X173305240Y-79295715D01*
X173094831Y-78786485D01*
X172705564Y-78396539D01*
X172196702Y-78185241D01*
X171645715Y-78184760D01*
X171136485Y-78395169D01*
X170746539Y-78784436D01*
X170547083Y-79264779D01*
X170344829Y-79192799D01*
X169794552Y-79220770D01*
X169416077Y-79377540D01*
X169348088Y-79618483D01*
X170140000Y-80410395D01*
X170154143Y-80396253D01*
X170333748Y-80575858D01*
X170319605Y-80590000D01*
X170333748Y-80604143D01*
X170154143Y-80783748D01*
X170140000Y-80769605D01*
X169545797Y-81363808D01*
X169416077Y-81417540D01*
X169386206Y-81523399D01*
X169348088Y-81561517D01*
X169361769Y-81610000D01*
X169348088Y-81658483D01*
X169386206Y-81696601D01*
X169416077Y-81802460D01*
X169534051Y-81844446D01*
X170140000Y-82450395D01*
X170154143Y-82436253D01*
X170333748Y-82615858D01*
X170319605Y-82630000D01*
X170333748Y-82644143D01*
X170154143Y-82823748D01*
X170140000Y-82809605D01*
X169545797Y-83403808D01*
X169416077Y-83457540D01*
X169386206Y-83563399D01*
X169348088Y-83601517D01*
X169361769Y-83650000D01*
X169348088Y-83698483D01*
X169386206Y-83736601D01*
X169416077Y-83842460D01*
X169534051Y-83884446D01*
X170140000Y-84490395D01*
X170154143Y-84476253D01*
X170333748Y-84655858D01*
X170319605Y-84670000D01*
X170333748Y-84684143D01*
X170154143Y-84863748D01*
X170140000Y-84849605D01*
X170125858Y-84863748D01*
X169946253Y-84684143D01*
X169960395Y-84670000D01*
X169168483Y-83878088D01*
X168927540Y-83946077D01*
X168742799Y-84465171D01*
X165825500Y-84465171D01*
X165825500Y-82425171D01*
X168742799Y-82425171D01*
X168770770Y-82975448D01*
X168927540Y-83353923D01*
X169168483Y-83421912D01*
X169960395Y-82630000D01*
X169168483Y-81838088D01*
X168927540Y-81906077D01*
X168742799Y-82425171D01*
X165825500Y-82425171D01*
X165825500Y-80385171D01*
X168742799Y-80385171D01*
X168770770Y-80935448D01*
X168927540Y-81313923D01*
X169168483Y-81381912D01*
X169960395Y-80590000D01*
X169168483Y-79798088D01*
X168927540Y-79866077D01*
X168742799Y-80385171D01*
X165825500Y-80385171D01*
X165825500Y-78257933D01*
X166295453Y-78728708D01*
X167140495Y-79079600D01*
X168055491Y-79080399D01*
X168901143Y-78730982D01*
X169548708Y-78084547D01*
X169899600Y-77239505D01*
X169900399Y-76324509D01*
X169550982Y-75478857D01*
X168904547Y-74831292D01*
X168059505Y-74480400D01*
X167144509Y-74479601D01*
X166298857Y-74829018D01*
X165825500Y-75301549D01*
X165825500Y-74127000D01*
X172873000Y-74127000D01*
X172873000Y-76000000D01*
G36*
X244174500Y-38758170D02*
X243734557Y-38317458D01*
X242766433Y-37915458D01*
X241718166Y-37914543D01*
X240749342Y-38314853D01*
X240007458Y-39055443D01*
X239605458Y-40023567D01*
X239604543Y-41071834D01*
X240004853Y-42040658D01*
X240745443Y-42782542D01*
X241713567Y-43184542D01*
X242761834Y-43185457D01*
X243730658Y-42785147D01*
X244174500Y-42342079D01*
X244174500Y-95873000D01*
X238500000Y-95873000D01*
X238453841Y-95881685D01*
X238452338Y-95882652D01*
X238450590Y-95883006D01*
X238431209Y-95896248D01*
X238411447Y-95908965D01*
X238410440Y-95910440D01*
X238408965Y-95911447D01*
X238396248Y-95931209D01*
X238383006Y-95950590D01*
X238382652Y-95952338D01*
X238381685Y-95953841D01*
X238373000Y-96000000D01*
X238373000Y-112447394D01*
X236410197Y-114410197D01*
X236383006Y-114450590D01*
X236382829Y-114451465D01*
X236382334Y-114452211D01*
X236373000Y-114500000D01*
X236373000Y-120947394D01*
X232947394Y-124373000D01*
X232932570Y-124373000D01*
X232675173Y-124115154D01*
X232074647Y-123865794D01*
X231424406Y-123865226D01*
X230823445Y-124113538D01*
X230363254Y-124572927D01*
X230113894Y-125173453D01*
X230113326Y-125823694D01*
X230361638Y-126424655D01*
X230821027Y-126884846D01*
X230873000Y-126906427D01*
X230873000Y-134174500D01*
X191127000Y-134174500D01*
X191127000Y-130415264D01*
X210784778Y-130415264D01*
X210948776Y-130812169D01*
X211252179Y-131116102D01*
X211648797Y-131280793D01*
X212078249Y-131281167D01*
X212475154Y-131117169D01*
X212779087Y-130813766D01*
X212943778Y-130417148D01*
X212944152Y-129987696D01*
X212780154Y-129590791D01*
X212476751Y-129286858D01*
X212080133Y-129122167D01*
X211650681Y-129121793D01*
X211253776Y-129285791D01*
X210949843Y-129589194D01*
X210785152Y-129985812D01*
X210784778Y-130415264D01*
X191127000Y-130415264D01*
X191127000Y-122413784D01*
X211720313Y-122413784D01*
X211884311Y-122810689D01*
X212187714Y-123114622D01*
X212584332Y-123279313D01*
X213013784Y-123279687D01*
X213410689Y-123115689D01*
X213714622Y-122812286D01*
X213879313Y-122415668D01*
X213879669Y-122006563D01*
X213887714Y-122014622D01*
X214284332Y-122179313D01*
X214713784Y-122179687D01*
X215110689Y-122015689D01*
X215414622Y-121712286D01*
X215579313Y-121315668D01*
X215579687Y-120886216D01*
X215415689Y-120489311D01*
X215112286Y-120185378D01*
X214715668Y-120020687D01*
X214286216Y-120020313D01*
X213889311Y-120184311D01*
X213585378Y-120487714D01*
X213420687Y-120884332D01*
X213420331Y-121293437D01*
X213412286Y-121285378D01*
X213015668Y-121120687D01*
X212586216Y-121120313D01*
X212189311Y-121284311D01*
X211885378Y-121587714D01*
X211720687Y-121984332D01*
X211720313Y-122413784D01*
X191127000Y-122413784D01*
X191127000Y-120804211D01*
X209137065Y-120804211D01*
X209301063Y-121201116D01*
X209604466Y-121505049D01*
X210001084Y-121669740D01*
X210430536Y-121670114D01*
X210827441Y-121506116D01*
X211131374Y-121202713D01*
X211296065Y-120806095D01*
X211296439Y-120376643D01*
X211132441Y-119979738D01*
X210829038Y-119675805D01*
X210432420Y-119511114D01*
X210002968Y-119510740D01*
X209606063Y-119674738D01*
X209302130Y-119978141D01*
X209137439Y-120374759D01*
X209137065Y-120804211D01*
X191127000Y-120804211D01*
X191127000Y-119813784D01*
X196320313Y-119813784D01*
X196484311Y-120210689D01*
X196787714Y-120514622D01*
X197184332Y-120679313D01*
X197613784Y-120679687D01*
X198010689Y-120515689D01*
X198314622Y-120212286D01*
X198479313Y-119815668D01*
X198479687Y-119386216D01*
X198367121Y-119113784D01*
X198720313Y-119113784D01*
X198884311Y-119510689D01*
X199187714Y-119814622D01*
X199584332Y-119979313D01*
X200013784Y-119979687D01*
X200410689Y-119815689D01*
X200714622Y-119512286D01*
X200879313Y-119115668D01*
X200879575Y-118813784D01*
X207920313Y-118813784D01*
X208084311Y-119210689D01*
X208387714Y-119514622D01*
X208784332Y-119679313D01*
X209213784Y-119679687D01*
X209610689Y-119515689D01*
X209914622Y-119212286D01*
X210079313Y-118815668D01*
X210079687Y-118386216D01*
X209915689Y-117989311D01*
X209612286Y-117685378D01*
X209215668Y-117520687D01*
X208786216Y-117520313D01*
X208389311Y-117684311D01*
X208085378Y-117987714D01*
X207920687Y-118384332D01*
X207920313Y-118813784D01*
X200879575Y-118813784D01*
X200879687Y-118686216D01*
X200715689Y-118289311D01*
X200412286Y-117985378D01*
X200015668Y-117820687D01*
X199586216Y-117820313D01*
X199189311Y-117984311D01*
X198885378Y-118287714D01*
X198720687Y-118684332D01*
X198720313Y-119113784D01*
X198367121Y-119113784D01*
X198315689Y-118989311D01*
X198012286Y-118685378D01*
X197615668Y-118520687D01*
X197186216Y-118520313D01*
X196789311Y-118684311D01*
X196485378Y-118987714D01*
X196320687Y-119384332D01*
X196320313Y-119813784D01*
X191127000Y-119813784D01*
X191127000Y-117013784D01*
X199320313Y-117013784D01*
X199484311Y-117410689D01*
X199787714Y-117714622D01*
X200184332Y-117879313D01*
X200613784Y-117879687D01*
X201010689Y-117715689D01*
X201314622Y-117412286D01*
X201479313Y-117015668D01*
X201479687Y-116586216D01*
X201367121Y-116313784D01*
X213920313Y-116313784D01*
X214084311Y-116710689D01*
X214387714Y-117014622D01*
X214784332Y-117179313D01*
X215213784Y-117179687D01*
X215610689Y-117015689D01*
X215914622Y-116712286D01*
X216079313Y-116315668D01*
X216079687Y-115886216D01*
X215915689Y-115489311D01*
X215612286Y-115185378D01*
X215215668Y-115020687D01*
X214786216Y-115020313D01*
X214389311Y-115184311D01*
X214085378Y-115487714D01*
X213920687Y-115884332D01*
X213920313Y-116313784D01*
X201367121Y-116313784D01*
X201315689Y-116189311D01*
X201012286Y-115885378D01*
X200615668Y-115720687D01*
X200186216Y-115720313D01*
X199789311Y-115884311D01*
X199485378Y-116187714D01*
X199320687Y-116584332D01*
X199320313Y-117013784D01*
X191127000Y-117013784D01*
X191127000Y-114000000D01*
X191117666Y-113952211D01*
X191117171Y-113951465D01*
X191116994Y-113950590D01*
X191089803Y-113910197D01*
X190089803Y-112910197D01*
X190049410Y-112883006D01*
X190048535Y-112882829D01*
X190047789Y-112882334D01*
X190000000Y-112873000D01*
X173381401Y-112873000D01*
X173361362Y-112472632D01*
X173202397Y-112088857D01*
X172960213Y-112019392D01*
X172159605Y-112820000D01*
X172173748Y-112834143D01*
X172134890Y-112873000D01*
X171825110Y-112873000D01*
X171786253Y-112834143D01*
X171800395Y-112820000D01*
X170999787Y-112019392D01*
X170757603Y-112088857D01*
X170713547Y-112212344D01*
X170662397Y-112088857D01*
X170420213Y-112019392D01*
X169619605Y-112820000D01*
X169633748Y-112834143D01*
X169594890Y-112873000D01*
X169285110Y-112873000D01*
X169246253Y-112834143D01*
X169260395Y-112820000D01*
X168459787Y-112019392D01*
X168217603Y-112088857D01*
X168030856Y-112612302D01*
X168043904Y-112873000D01*
X165825500Y-112873000D01*
X165825500Y-110556661D01*
X168042758Y-110556661D01*
X168254990Y-111070303D01*
X168647630Y-111463629D01*
X168839727Y-111543395D01*
X168708857Y-111597603D01*
X168639392Y-111839787D01*
X169440000Y-112640395D01*
X170240608Y-111839787D01*
X170171143Y-111597603D01*
X170030682Y-111547491D01*
X170230303Y-111465010D01*
X170623629Y-111072370D01*
X170709949Y-110864488D01*
X170794990Y-111070303D01*
X171187630Y-111463629D01*
X171379727Y-111543395D01*
X171248857Y-111597603D01*
X171179392Y-111839787D01*
X171980000Y-112640395D01*
X172780608Y-111839787D01*
X172711143Y-111597603D01*
X172570682Y-111547491D01*
X172770303Y-111465010D01*
X173163629Y-111072370D01*
X173376757Y-110559100D01*
X173377242Y-110003339D01*
X173165010Y-109489697D01*
X172772370Y-109096371D01*
X172259100Y-108883243D01*
X171703339Y-108882758D01*
X171189697Y-109094990D01*
X170796371Y-109487630D01*
X170710051Y-109695512D01*
X170625010Y-109489697D01*
X170232370Y-109096371D01*
X169719100Y-108883243D01*
X169163339Y-108882758D01*
X168649697Y-109094990D01*
X168256371Y-109487630D01*
X168043243Y-110000900D01*
X168042758Y-110556661D01*
X165825500Y-110556661D01*
X165825500Y-107070084D01*
X165875458Y-107020213D01*
X171699392Y-107020213D01*
X171768857Y-107262397D01*
X172292302Y-107449144D01*
X172847368Y-107421362D01*
X173231143Y-107262397D01*
X173300608Y-107020213D01*
X172500000Y-106219605D01*
X171699392Y-107020213D01*
X165875458Y-107020213D01*
X166063629Y-106832370D01*
X166276757Y-106319100D01*
X166277181Y-105832302D01*
X171090856Y-105832302D01*
X171118638Y-106387368D01*
X171277603Y-106771143D01*
X171519787Y-106840608D01*
X172320395Y-106040000D01*
X172679605Y-106040000D01*
X173480213Y-106840608D01*
X173722397Y-106771143D01*
X173909144Y-106247698D01*
X173881362Y-105692632D01*
X173722397Y-105308857D01*
X173480213Y-105239392D01*
X172679605Y-106040000D01*
X172320395Y-106040000D01*
X171519787Y-105239392D01*
X171277603Y-105308857D01*
X171090856Y-105832302D01*
X166277181Y-105832302D01*
X166277242Y-105763339D01*
X166065010Y-105249697D01*
X165825500Y-105009769D01*
X165825500Y-101990084D01*
X166063629Y-101752370D01*
X166276757Y-101239100D01*
X166276759Y-101236661D01*
X171102758Y-101236661D01*
X171314990Y-101750303D01*
X171707630Y-102143629D01*
X171915512Y-102229949D01*
X171709697Y-102314990D01*
X171316371Y-102707630D01*
X171103243Y-103220900D01*
X171102758Y-103776661D01*
X171314990Y-104290303D01*
X171707630Y-104683629D01*
X171899727Y-104763395D01*
X171768857Y-104817603D01*
X171699392Y-105059787D01*
X172500000Y-105860395D01*
X173300608Y-105059787D01*
X173231143Y-104817603D01*
X173090682Y-104767491D01*
X173290303Y-104685010D01*
X173683629Y-104292370D01*
X173896757Y-103779100D01*
X173897242Y-103223339D01*
X173685010Y-102709697D01*
X173292370Y-102316371D01*
X173084488Y-102230051D01*
X173290303Y-102145010D01*
X173683629Y-101752370D01*
X173896757Y-101239100D01*
X173897242Y-100683339D01*
X173685010Y-100169697D01*
X173292370Y-99776371D01*
X172779100Y-99563243D01*
X172223339Y-99562758D01*
X171709697Y-99774990D01*
X171316371Y-100167630D01*
X171103243Y-100680900D01*
X171102758Y-101236661D01*
X166276759Y-101236661D01*
X166277242Y-100683339D01*
X166065010Y-100169697D01*
X165825500Y-99929769D01*
X165825500Y-96307002D01*
X165940086Y-96259656D01*
X166358188Y-95842283D01*
X166584742Y-95296681D01*
X166584744Y-95294089D01*
X168694743Y-95294089D01*
X168920344Y-95840086D01*
X169337717Y-96258188D01*
X169883319Y-96484742D01*
X170474089Y-96485257D01*
X171020086Y-96259656D01*
X171438188Y-95842283D01*
X171449748Y-95814443D01*
X171460344Y-95840086D01*
X171877717Y-96258188D01*
X172423319Y-96484742D01*
X173014089Y-96485257D01*
X173560086Y-96259656D01*
X173776160Y-96043958D01*
X174395647Y-96043958D01*
X174475920Y-96295259D01*
X175031279Y-96496718D01*
X175621458Y-96470315D01*
X176044080Y-96295259D01*
X176124353Y-96043958D01*
X175260000Y-95179605D01*
X174395647Y-96043958D01*
X173776160Y-96043958D01*
X173978188Y-95842283D01*
X173997951Y-95794688D01*
X174216042Y-95864353D01*
X175080395Y-95000000D01*
X175439605Y-95000000D01*
X176303958Y-95864353D01*
X176555259Y-95784080D01*
X176756718Y-95228721D01*
X176730315Y-94638542D01*
X176555259Y-94215920D01*
X176303958Y-94135647D01*
X175439605Y-95000000D01*
X175080395Y-95000000D01*
X174216042Y-94135647D01*
X173998360Y-94205181D01*
X173979656Y-94159914D01*
X173776140Y-93956042D01*
X174395647Y-93956042D01*
X175260000Y-94820395D01*
X176124353Y-93956042D01*
X176044080Y-93704741D01*
X175488721Y-93503282D01*
X174898542Y-93529685D01*
X174475920Y-93704741D01*
X174395647Y-93956042D01*
X173776140Y-93956042D01*
X173562283Y-93741812D01*
X173016681Y-93515258D01*
X172425911Y-93514743D01*
X171879914Y-93740344D01*
X171461812Y-94157717D01*
X171450252Y-94185557D01*
X171439656Y-94159914D01*
X171022283Y-93741812D01*
X170476681Y-93515258D01*
X169885911Y-93514743D01*
X169339914Y-93740344D01*
X168921812Y-94157717D01*
X168695258Y-94703319D01*
X168694743Y-95294089D01*
X166584744Y-95294089D01*
X166585257Y-94705911D01*
X166359656Y-94159914D01*
X165942283Y-93741812D01*
X165825500Y-93693319D01*
X165825500Y-90957933D01*
X166295453Y-91428708D01*
X167140495Y-91779600D01*
X168055491Y-91780399D01*
X168901143Y-91430982D01*
X169548708Y-90784547D01*
X169821745Y-90127000D01*
X179373000Y-90127000D01*
X179373000Y-94447394D01*
X177910197Y-95910197D01*
X177883006Y-95950590D01*
X177882829Y-95951465D01*
X177882334Y-95952211D01*
X177873000Y-96000000D01*
X177873000Y-105000000D01*
X177882334Y-105047789D01*
X177882829Y-105048535D01*
X177883006Y-105049410D01*
X177910197Y-105089803D01*
X179873000Y-107052606D01*
X179873000Y-110000000D01*
X179881685Y-110046159D01*
X179882652Y-110047662D01*
X179883006Y-110049410D01*
X179896248Y-110068791D01*
X179908965Y-110088553D01*
X179910440Y-110089560D01*
X179911447Y-110091035D01*
X179931209Y-110103752D01*
X179950590Y-110116994D01*
X179952338Y-110117348D01*
X179953841Y-110118315D01*
X180000000Y-110127000D01*
X192947394Y-110127000D01*
X194221094Y-111400700D01*
X194367582Y-111755229D01*
X194742796Y-112131098D01*
X195099686Y-112279292D01*
X195910197Y-113089803D01*
X195913179Y-113091810D01*
X195689311Y-113184311D01*
X195385378Y-113487714D01*
X195220687Y-113884332D01*
X195220313Y-114313784D01*
X195384311Y-114710689D01*
X195687714Y-115014622D01*
X196084332Y-115179313D01*
X196513784Y-115179687D01*
X196910689Y-115015689D01*
X197214622Y-114712286D01*
X197379313Y-114315668D01*
X197379687Y-113886216D01*
X197215689Y-113489311D01*
X196912286Y-113185378D01*
X196771697Y-113127000D01*
X207000000Y-113127000D01*
X207046159Y-113118315D01*
X207047662Y-113117348D01*
X207049410Y-113116994D01*
X207068791Y-113103752D01*
X207088553Y-113091035D01*
X207089560Y-113089560D01*
X207091035Y-113088553D01*
X207103752Y-113068791D01*
X207116994Y-113049410D01*
X207117348Y-113047662D01*
X207118315Y-113046159D01*
X207127000Y-113000000D01*
X207127000Y-111256523D01*
X208193621Y-111256523D01*
X208357619Y-111653428D01*
X208661022Y-111957361D01*
X209057640Y-112122052D01*
X209487092Y-112122426D01*
X209883997Y-111958428D01*
X209928718Y-111913784D01*
X210420313Y-111913784D01*
X210584311Y-112310689D01*
X210887714Y-112614622D01*
X211284332Y-112779313D01*
X211713784Y-112779687D01*
X212110689Y-112615689D01*
X212358304Y-112368505D01*
X212384332Y-112379313D01*
X212813784Y-112379687D01*
X213210689Y-112215689D01*
X213514622Y-111912286D01*
X213679313Y-111515668D01*
X213679326Y-111500000D01*
X216472041Y-111500000D01*
X216586115Y-112073489D01*
X216910971Y-112559670D01*
X217225752Y-112770000D01*
X216910971Y-112980330D01*
X216586115Y-113466511D01*
X216472041Y-114040000D01*
X216586115Y-114613489D01*
X216910971Y-115099670D01*
X217397152Y-115424526D01*
X217970641Y-115538600D01*
X218029359Y-115538600D01*
X218602848Y-115424526D01*
X219068442Y-115113426D01*
X219073238Y-115138917D01*
X219212310Y-115355041D01*
X219424510Y-115500031D01*
X219676400Y-115551040D01*
X221267479Y-115551040D01*
X221093095Y-115725120D01*
X220928404Y-116121738D01*
X220928030Y-116551190D01*
X221092028Y-116948095D01*
X221395431Y-117252028D01*
X221792049Y-117416719D01*
X222221501Y-117417093D01*
X222298105Y-117385441D01*
X222297752Y-117791223D01*
X222461750Y-118188128D01*
X222765153Y-118492061D01*
X223161771Y-118656752D01*
X223591223Y-118657126D01*
X223988128Y-118493128D01*
X224292061Y-118189725D01*
X224456752Y-117793107D01*
X224457126Y-117363655D01*
X224293128Y-116966750D01*
X224063386Y-116736607D01*
X224107253Y-116736645D01*
X224504158Y-116572647D01*
X224808091Y-116269244D01*
X224972782Y-115872626D01*
X224973156Y-115443174D01*
X224809158Y-115046269D01*
X224505755Y-114742336D01*
X224109137Y-114577645D01*
X223679685Y-114577271D01*
X223282780Y-114741269D01*
X222978847Y-115044672D01*
X222814156Y-115441290D01*
X222814003Y-115617123D01*
X222620003Y-115422784D01*
X222223385Y-115258093D01*
X221930100Y-115257838D01*
X222000031Y-115155490D01*
X222051040Y-114903600D01*
X222051040Y-113176400D01*
X222006762Y-112941083D01*
X221867690Y-112724959D01*
X221655490Y-112579969D01*
X221611869Y-112571136D01*
X221629029Y-112559670D01*
X221953885Y-112073489D01*
X222067959Y-111500000D01*
X221953885Y-110926511D01*
X221629029Y-110440330D01*
X221314248Y-110230000D01*
X221629029Y-110019670D01*
X221953885Y-109533489D01*
X222045610Y-109072357D01*
X222137714Y-109164622D01*
X222534332Y-109329313D01*
X222963784Y-109329687D01*
X223360689Y-109165689D01*
X223664622Y-108862286D01*
X223829313Y-108465668D01*
X223829352Y-108420000D01*
X227316655Y-108420000D01*
X227430729Y-108993489D01*
X227755585Y-109479670D01*
X228070366Y-109690000D01*
X227755585Y-109900330D01*
X227430729Y-110386511D01*
X227316655Y-110960000D01*
X227430729Y-111533489D01*
X227755585Y-112019670D01*
X227769913Y-112029243D01*
X227748683Y-112033238D01*
X227532559Y-112172310D01*
X227387569Y-112384510D01*
X227336560Y-112636400D01*
X227336560Y-114363600D01*
X227380838Y-114598917D01*
X227519910Y-114815041D01*
X227732110Y-114960031D01*
X227984000Y-115011040D01*
X230016000Y-115011040D01*
X230251317Y-114966762D01*
X230467441Y-114827690D01*
X230612431Y-114615490D01*
X230663440Y-114363600D01*
X230663440Y-114013784D01*
X233220313Y-114013784D01*
X233384311Y-114410689D01*
X233687714Y-114714622D01*
X234084332Y-114879313D01*
X234513784Y-114879687D01*
X234910689Y-114715689D01*
X235214622Y-114412286D01*
X235379313Y-114015668D01*
X235379687Y-113586216D01*
X235215689Y-113189311D01*
X234912286Y-112885378D01*
X234515668Y-112720687D01*
X234086216Y-112720313D01*
X233689311Y-112884311D01*
X233385378Y-113187714D01*
X233220687Y-113584332D01*
X233220313Y-114013784D01*
X230663440Y-114013784D01*
X230663440Y-112636400D01*
X230621552Y-112413784D01*
X234920313Y-112413784D01*
X235084311Y-112810689D01*
X235387714Y-113114622D01*
X235784332Y-113279313D01*
X236213784Y-113279687D01*
X236610689Y-113115689D01*
X236914622Y-112812286D01*
X237079313Y-112415668D01*
X237079687Y-111986216D01*
X236915689Y-111589311D01*
X236612286Y-111285378D01*
X236215668Y-111120687D01*
X235786216Y-111120313D01*
X235389311Y-111284311D01*
X235085378Y-111587714D01*
X234920687Y-111984332D01*
X234920313Y-112413784D01*
X230621552Y-112413784D01*
X230619162Y-112401083D01*
X230480090Y-112184959D01*
X230267890Y-112039969D01*
X230226561Y-112031600D01*
X230244415Y-112019670D01*
X230569271Y-111533489D01*
X230683345Y-110960000D01*
X230569271Y-110386511D01*
X230244415Y-109900330D01*
X229929634Y-109690000D01*
X230244415Y-109479670D01*
X230569271Y-108993489D01*
X230683345Y-108420000D01*
X230569271Y-107846511D01*
X230547404Y-107813784D01*
X234120313Y-107813784D01*
X234284311Y-108210689D01*
X234587714Y-108514622D01*
X234984332Y-108679313D01*
X235413784Y-108679687D01*
X235810689Y-108515689D01*
X236114622Y-108212286D01*
X236279313Y-107815668D01*
X236279687Y-107386216D01*
X236115689Y-106989311D01*
X235812286Y-106685378D01*
X235415668Y-106520687D01*
X234986216Y-106520313D01*
X234589311Y-106684311D01*
X234285378Y-106987714D01*
X234120687Y-107384332D01*
X234120313Y-107813784D01*
X230547404Y-107813784D01*
X230244415Y-107360330D01*
X229758234Y-107035474D01*
X229184745Y-106921400D01*
X228815255Y-106921400D01*
X228241766Y-107035474D01*
X227755585Y-107360330D01*
X227430729Y-107846511D01*
X227316655Y-108420000D01*
X223829352Y-108420000D01*
X223829687Y-108036216D01*
X223665689Y-107639311D01*
X223362286Y-107335378D01*
X222965668Y-107170687D01*
X222536216Y-107170313D01*
X222139311Y-107334311D01*
X221835378Y-107637714D01*
X221689038Y-107990139D01*
X221629029Y-107900330D01*
X221142848Y-107575474D01*
X220569359Y-107461400D01*
X220510641Y-107461400D01*
X219937152Y-107575474D01*
X219450971Y-107900330D01*
X219270008Y-108171161D01*
X218888490Y-107753179D01*
X218359027Y-107505032D01*
X218127000Y-107625531D01*
X218127000Y-108833000D01*
X218147000Y-108833000D01*
X218147000Y-109087000D01*
X218127000Y-109087000D01*
X218127000Y-109107000D01*
X217873000Y-109107000D01*
X217873000Y-109087000D01*
X216666183Y-109087000D01*
X216545042Y-109319026D01*
X216717312Y-109734947D01*
X217111510Y-110166821D01*
X217234228Y-110224336D01*
X216910971Y-110440330D01*
X216586115Y-110926511D01*
X216472041Y-111500000D01*
X213679326Y-111500000D01*
X213679687Y-111086216D01*
X213515689Y-110689311D01*
X213212286Y-110385378D01*
X212815668Y-110220687D01*
X212386216Y-110220313D01*
X211989311Y-110384311D01*
X211741696Y-110631495D01*
X211715668Y-110620687D01*
X211286216Y-110620313D01*
X210889311Y-110784311D01*
X210585378Y-111087714D01*
X210420687Y-111484332D01*
X210420313Y-111913784D01*
X209928718Y-111913784D01*
X210187930Y-111655025D01*
X210352621Y-111258407D01*
X210352995Y-110828955D01*
X210188997Y-110432050D01*
X209885594Y-110128117D01*
X209488976Y-109963426D01*
X209059524Y-109963052D01*
X208662619Y-110127050D01*
X208358686Y-110430453D01*
X208193995Y-110827071D01*
X208193621Y-111256523D01*
X207127000Y-111256523D01*
X207127000Y-109830935D01*
X207484332Y-109979313D01*
X207913784Y-109979687D01*
X208310689Y-109815689D01*
X208614622Y-109512286D01*
X208752865Y-109179362D01*
X208987714Y-109414622D01*
X209384332Y-109579313D01*
X209813784Y-109579687D01*
X210210689Y-109415689D01*
X210514622Y-109112286D01*
X210679313Y-108715668D01*
X210679412Y-108600974D01*
X216545042Y-108600974D01*
X216666183Y-108833000D01*
X217873000Y-108833000D01*
X217873000Y-107625531D01*
X217640973Y-107505032D01*
X217111510Y-107753179D01*
X216717312Y-108185053D01*
X216545042Y-108600974D01*
X210679412Y-108600974D01*
X210679687Y-108286216D01*
X210515689Y-107889311D01*
X210212286Y-107585378D01*
X209815668Y-107420687D01*
X209386216Y-107420313D01*
X208989311Y-107584311D01*
X208685378Y-107887714D01*
X208547135Y-108220638D01*
X208312286Y-107985378D01*
X207915668Y-107820687D01*
X207486216Y-107820313D01*
X207127000Y-107968738D01*
X207127000Y-107127000D01*
X223000000Y-107127000D01*
X223046159Y-107118315D01*
X223047662Y-107117348D01*
X223049410Y-107116994D01*
X223068791Y-107103752D01*
X223088553Y-107091035D01*
X223089560Y-107089560D01*
X223091035Y-107088553D01*
X223103752Y-107068791D01*
X223116994Y-107049410D01*
X223117348Y-107047662D01*
X223118315Y-107046159D01*
X223127000Y-107000000D01*
X223127000Y-104463784D01*
X226420313Y-104463784D01*
X226584311Y-104860689D01*
X226887714Y-105164622D01*
X227284332Y-105329313D01*
X227713784Y-105329687D01*
X228110689Y-105165689D01*
X228414622Y-104862286D01*
X228579313Y-104465668D01*
X228579687Y-104036216D01*
X228415689Y-103639311D01*
X228112286Y-103335378D01*
X227715668Y-103170687D01*
X227286216Y-103170313D01*
X226889311Y-103334311D01*
X226585378Y-103637714D01*
X226420687Y-104034332D01*
X226420313Y-104463784D01*
X223127000Y-104463784D01*
X223127000Y-89000000D01*
X223117666Y-88952211D01*
X223117171Y-88951465D01*
X223116994Y-88950590D01*
X223089803Y-88910197D01*
X220089803Y-85910197D01*
X220049410Y-85883006D01*
X220048535Y-85882829D01*
X220047789Y-85882334D01*
X220000000Y-85873000D01*
X209052606Y-85873000D01*
X208089803Y-84910197D01*
X208049410Y-84883006D01*
X208048535Y-84882829D01*
X208047789Y-84882334D01*
X208000000Y-84873000D01*
X204832386Y-84873000D01*
X205183629Y-84522370D01*
X205396757Y-84009100D01*
X205397242Y-83453339D01*
X205185010Y-82939697D01*
X204792370Y-82546371D01*
X204279100Y-82333243D01*
X203723339Y-82332758D01*
X203209697Y-82544990D01*
X202816371Y-82937630D01*
X202736605Y-83129727D01*
X202682397Y-82998857D01*
X202440213Y-82929392D01*
X201639605Y-83730000D01*
X202440213Y-84530608D01*
X202682397Y-84461143D01*
X202732509Y-84320682D01*
X202814990Y-84520303D01*
X203167072Y-84873000D01*
X202213916Y-84873000D01*
X202260608Y-84710213D01*
X201460000Y-83909605D01*
X200659392Y-84710213D01*
X200706084Y-84873000D01*
X199127000Y-84873000D01*
X199127000Y-83522302D01*
X200050856Y-83522302D01*
X200078638Y-84077368D01*
X200237603Y-84461143D01*
X200479787Y-84530608D01*
X201280395Y-83730000D01*
X200479787Y-82929392D01*
X200237603Y-82998857D01*
X200050856Y-83522302D01*
X199127000Y-83522302D01*
X199127000Y-82749787D01*
X200659392Y-82749787D01*
X201460000Y-83550395D01*
X202260608Y-82749787D01*
X202191143Y-82507603D01*
X201667698Y-82320856D01*
X201112632Y-82348638D01*
X200728857Y-82507603D01*
X200659392Y-82749787D01*
X199127000Y-82749787D01*
X199127000Y-80903784D01*
X215860313Y-80903784D01*
X216024311Y-81300689D01*
X216113304Y-81389837D01*
X216085378Y-81417714D01*
X215920687Y-81814332D01*
X215920313Y-82243784D01*
X216084311Y-82640689D01*
X216387714Y-82944622D01*
X216784332Y-83109313D01*
X217213784Y-83109687D01*
X217610689Y-82945689D01*
X217914622Y-82642286D01*
X217940485Y-82580000D01*
X222792560Y-82580000D01*
X222792560Y-83880000D01*
X222836838Y-84115317D01*
X222975910Y-84331441D01*
X223188110Y-84476431D01*
X223440000Y-84527440D01*
X224740000Y-84527440D01*
X224975317Y-84483162D01*
X225191441Y-84344090D01*
X225336431Y-84131890D01*
X225387440Y-83880000D01*
X225387440Y-82580000D01*
X225365607Y-82463967D01*
X228874430Y-82463967D01*
X228874430Y-83536033D01*
X228979900Y-84066268D01*
X229280254Y-84515779D01*
X229729765Y-84816133D01*
X230260000Y-84921603D01*
X230790235Y-84816133D01*
X231239746Y-84515779D01*
X231530000Y-84081384D01*
X231820254Y-84515779D01*
X232269765Y-84816133D01*
X232800000Y-84921603D01*
X233330235Y-84816133D01*
X233779746Y-84515779D01*
X233945409Y-84267848D01*
X233986268Y-84484997D01*
X234125340Y-84701121D01*
X234337540Y-84846111D01*
X234589430Y-84897120D01*
X236090570Y-84897120D01*
X236325887Y-84852842D01*
X236542011Y-84713770D01*
X236687001Y-84501570D01*
X236738010Y-84249680D01*
X236738010Y-81750320D01*
X236693732Y-81515003D01*
X236554660Y-81298879D01*
X236342460Y-81153889D01*
X236090570Y-81102880D01*
X234589430Y-81102880D01*
X234354113Y-81147158D01*
X234137989Y-81286230D01*
X233992999Y-81498430D01*
X233945608Y-81732451D01*
X233779746Y-81484221D01*
X233330235Y-81183867D01*
X232800000Y-81078397D01*
X232269765Y-81183867D01*
X231820254Y-81484221D01*
X231530000Y-81918616D01*
X231239746Y-81484221D01*
X230790235Y-81183867D01*
X230260000Y-81078397D01*
X229729765Y-81183867D01*
X229280254Y-81484221D01*
X228979900Y-81933732D01*
X228874430Y-82463967D01*
X225365607Y-82463967D01*
X225343162Y-82344683D01*
X225204090Y-82128559D01*
X225088109Y-82049313D01*
X225178735Y-81958845D01*
X225374777Y-81486724D01*
X225375223Y-80975519D01*
X225180005Y-80503057D01*
X224818845Y-80141265D01*
X224346724Y-79945223D01*
X223835519Y-79944777D01*
X223363057Y-80139995D01*
X223001265Y-80501155D01*
X222805223Y-80973276D01*
X222804777Y-81484481D01*
X222999995Y-81956943D01*
X223092145Y-82049254D01*
X222988559Y-82115910D01*
X222843569Y-82328110D01*
X222792560Y-82580000D01*
X217940485Y-82580000D01*
X218079313Y-82245668D01*
X218079687Y-81816216D01*
X217967330Y-81544291D01*
X218244332Y-81659313D01*
X218673784Y-81659687D01*
X219070689Y-81495689D01*
X219374622Y-81192286D01*
X219539313Y-80795668D01*
X219539687Y-80366216D01*
X219375689Y-79969311D01*
X219072286Y-79665378D01*
X218675668Y-79500687D01*
X218246216Y-79500313D01*
X217849311Y-79664311D01*
X217645006Y-79868260D01*
X217552286Y-79775378D01*
X217155668Y-79610687D01*
X216726216Y-79610313D01*
X216329311Y-79774311D01*
X216025378Y-80077714D01*
X215860687Y-80474332D01*
X215860313Y-80903784D01*
X199127000Y-80903784D01*
X199127000Y-79000000D01*
X199118315Y-78953841D01*
X199117348Y-78952338D01*
X199116994Y-78950590D01*
X199103752Y-78931209D01*
X199091035Y-78911447D01*
X199089560Y-78910440D01*
X199088553Y-78908965D01*
X199068791Y-78896248D01*
X199049410Y-78883006D01*
X199047662Y-78882652D01*
X199046159Y-78881685D01*
X199000000Y-78873000D01*
X187000000Y-78873000D01*
X186952211Y-78882334D01*
X186951465Y-78882829D01*
X186950590Y-78883006D01*
X186910197Y-78910197D01*
X185947394Y-79873000D01*
X183052606Y-79873000D01*
X181884087Y-78704481D01*
X234264777Y-78704481D01*
X234459995Y-79176943D01*
X234821155Y-79538735D01*
X235293276Y-79734777D01*
X235804481Y-79735223D01*
X236276943Y-79540005D01*
X236369254Y-79447855D01*
X236435910Y-79551441D01*
X236648110Y-79696431D01*
X236900000Y-79747440D01*
X238200000Y-79747440D01*
X238435317Y-79703162D01*
X238651441Y-79564090D01*
X238796431Y-79351890D01*
X238847440Y-79100000D01*
X238847440Y-77800000D01*
X238803162Y-77564683D01*
X238664090Y-77348559D01*
X238451890Y-77203569D01*
X238200000Y-77152560D01*
X236900000Y-77152560D01*
X236664683Y-77196838D01*
X236448559Y-77335910D01*
X236369313Y-77451891D01*
X236278845Y-77361265D01*
X235806724Y-77165223D01*
X235295519Y-77164777D01*
X234823057Y-77359995D01*
X234461265Y-77721155D01*
X234265223Y-78193276D01*
X234264777Y-78704481D01*
X181884087Y-78704481D01*
X180193390Y-77013784D01*
X183820313Y-77013784D01*
X183984311Y-77410689D01*
X184287714Y-77714622D01*
X184684332Y-77879313D01*
X185113784Y-77879687D01*
X185510689Y-77715689D01*
X185814622Y-77412286D01*
X185979313Y-77015668D01*
X185979687Y-76586216D01*
X185815689Y-76189311D01*
X185512286Y-75885378D01*
X185115668Y-75720687D01*
X184686216Y-75720313D01*
X184289311Y-75884311D01*
X183985378Y-76187714D01*
X183820687Y-76584332D01*
X183820313Y-77013784D01*
X180193390Y-77013784D01*
X178593390Y-75413784D01*
X194720313Y-75413784D01*
X194884311Y-75810689D01*
X195187714Y-76114622D01*
X195584332Y-76279313D01*
X196013784Y-76279687D01*
X196410689Y-76115689D01*
X196714622Y-75812286D01*
X196879313Y-75415668D01*
X196879488Y-75213784D01*
X202220313Y-75213784D01*
X202384311Y-75610689D01*
X202687714Y-75914622D01*
X203084332Y-76079313D01*
X203513784Y-76079687D01*
X203910689Y-75915689D01*
X204214622Y-75612286D01*
X204379313Y-75215668D01*
X204379687Y-74786216D01*
X204215689Y-74389311D01*
X203912286Y-74085378D01*
X203515668Y-73920687D01*
X203086216Y-73920313D01*
X202689311Y-74084311D01*
X202385378Y-74387714D01*
X202220687Y-74784332D01*
X202220313Y-75213784D01*
X196879488Y-75213784D01*
X196879687Y-74986216D01*
X196715689Y-74589311D01*
X196412286Y-74285378D01*
X196015668Y-74120687D01*
X195586216Y-74120313D01*
X195189311Y-74284311D01*
X194885378Y-74587714D01*
X194720687Y-74984332D01*
X194720313Y-75413784D01*
X178593390Y-75413784D01*
X178127000Y-74947394D01*
X178127000Y-72613784D01*
X199520313Y-72613784D01*
X199684311Y-73010689D01*
X199987714Y-73314622D01*
X200384332Y-73479313D01*
X200813784Y-73479687D01*
X200973281Y-73413784D01*
X206420313Y-73413784D01*
X206584311Y-73810689D01*
X206887714Y-74114622D01*
X207284332Y-74279313D01*
X207713784Y-74279687D01*
X208110689Y-74115689D01*
X208120494Y-74105901D01*
X208120313Y-74313784D01*
X208284311Y-74710689D01*
X208587714Y-75014622D01*
X208984332Y-75179313D01*
X209413784Y-75179687D01*
X209810689Y-75015689D01*
X210114622Y-74712286D01*
X210279313Y-74315668D01*
X210279398Y-74217897D01*
X211124426Y-74217897D01*
X211288424Y-74614802D01*
X211370667Y-74697188D01*
X211292199Y-74886159D01*
X211291825Y-75315611D01*
X211455823Y-75712516D01*
X211759226Y-76016449D01*
X212155844Y-76181140D01*
X212585296Y-76181514D01*
X212982201Y-76017516D01*
X213286134Y-75714113D01*
X213450825Y-75317495D01*
X213451199Y-74888043D01*
X213296559Y-74513784D01*
X217520313Y-74513784D01*
X217684311Y-74910689D01*
X217987714Y-75214622D01*
X218384332Y-75379313D01*
X218813784Y-75379687D01*
X219210689Y-75215689D01*
X219514622Y-74912286D01*
X219679313Y-74515668D01*
X219679687Y-74086216D01*
X219515689Y-73689311D01*
X219212286Y-73385378D01*
X218815668Y-73220687D01*
X218386216Y-73220313D01*
X217989311Y-73384311D01*
X217685378Y-73687714D01*
X217520687Y-74084332D01*
X217520313Y-74513784D01*
X213296559Y-74513784D01*
X213287201Y-74491138D01*
X213204958Y-74408752D01*
X213283426Y-74219781D01*
X213283800Y-73790329D01*
X213119802Y-73393424D01*
X212816399Y-73089491D01*
X212419781Y-72924800D01*
X211990329Y-72924426D01*
X211593424Y-73088424D01*
X211289491Y-73391827D01*
X211124800Y-73788445D01*
X211124426Y-74217897D01*
X210279398Y-74217897D01*
X210279687Y-73886216D01*
X210115689Y-73489311D01*
X209812286Y-73185378D01*
X209415668Y-73020687D01*
X208986216Y-73020313D01*
X208589311Y-73184311D01*
X208579506Y-73194099D01*
X208579687Y-72986216D01*
X208415689Y-72589311D01*
X208112286Y-72285378D01*
X207715668Y-72120687D01*
X207286216Y-72120313D01*
X206889311Y-72284311D01*
X206585378Y-72587714D01*
X206420687Y-72984332D01*
X206420313Y-73413784D01*
X200973281Y-73413784D01*
X201210689Y-73315689D01*
X201514622Y-73012286D01*
X201679313Y-72615668D01*
X201679687Y-72186216D01*
X201515689Y-71789311D01*
X201390381Y-71663784D01*
X226499313Y-71663784D01*
X226663311Y-72060689D01*
X226966714Y-72364622D01*
X227363332Y-72529313D01*
X227792784Y-72529687D01*
X228189689Y-72365689D01*
X228493622Y-72062286D01*
X228658313Y-71665668D01*
X228658687Y-71236216D01*
X228494689Y-70839311D01*
X228191286Y-70535378D01*
X227794668Y-70370687D01*
X227365216Y-70370313D01*
X226968311Y-70534311D01*
X226664378Y-70837714D01*
X226499687Y-71234332D01*
X226499313Y-71663784D01*
X201390381Y-71663784D01*
X201212286Y-71485378D01*
X200815668Y-71320687D01*
X200386216Y-71320313D01*
X199989311Y-71484311D01*
X199685378Y-71787714D01*
X199520687Y-72184332D01*
X199520313Y-72613784D01*
X178127000Y-72613784D01*
X178127000Y-72000000D01*
X178118315Y-71953841D01*
X178117348Y-71952338D01*
X178116994Y-71950590D01*
X178103752Y-71931209D01*
X178091035Y-71911447D01*
X178089560Y-71910440D01*
X178088553Y-71908965D01*
X178068791Y-71896248D01*
X178049410Y-71883006D01*
X178047662Y-71882652D01*
X178046159Y-71881685D01*
X178000000Y-71873000D01*
X165825500Y-71873000D01*
X165825500Y-70471517D01*
X171208088Y-70471517D01*
X171276077Y-70712460D01*
X171795171Y-70897201D01*
X172345448Y-70869230D01*
X172723923Y-70712460D01*
X172791912Y-70471517D01*
X172000000Y-69679605D01*
X171208088Y-70471517D01*
X165825500Y-70471517D01*
X165825500Y-68573504D01*
X165826567Y-68576086D01*
X166440681Y-69191273D01*
X167243470Y-69524620D01*
X168112717Y-69525379D01*
X168669861Y-69295171D01*
X170602799Y-69295171D01*
X170630770Y-69845448D01*
X170787540Y-70223923D01*
X171028483Y-70291912D01*
X171820395Y-69500000D01*
X172179605Y-69500000D01*
X172971517Y-70291912D01*
X173212460Y-70223923D01*
X173372482Y-69774285D01*
X173614760Y-69774285D01*
X173825169Y-70283515D01*
X174214436Y-70673461D01*
X174723298Y-70884759D01*
X175274285Y-70885240D01*
X175447222Y-70813784D01*
X197920313Y-70813784D01*
X198084311Y-71210689D01*
X198387714Y-71514622D01*
X198784332Y-71679313D01*
X199213784Y-71679687D01*
X199610689Y-71515689D01*
X199914622Y-71212286D01*
X200079313Y-70815668D01*
X200079687Y-70386216D01*
X199915689Y-69989311D01*
X199612286Y-69685378D01*
X199215668Y-69520687D01*
X198786216Y-69520313D01*
X198389311Y-69684311D01*
X198085378Y-69987714D01*
X197920687Y-70384332D01*
X197920313Y-70813784D01*
X175447222Y-70813784D01*
X175783515Y-70674831D01*
X176173461Y-70285564D01*
X176384759Y-69776702D01*
X176385240Y-69225715D01*
X176174831Y-68716485D01*
X176072309Y-68613784D01*
X221320313Y-68613784D01*
X221484311Y-69010689D01*
X221787714Y-69314622D01*
X222184332Y-69479313D01*
X222613784Y-69479687D01*
X223010689Y-69315689D01*
X223314622Y-69012286D01*
X223479313Y-68615668D01*
X223479687Y-68186216D01*
X223315689Y-67789311D01*
X223012286Y-67485378D01*
X222615668Y-67320687D01*
X222186216Y-67320313D01*
X221789311Y-67484311D01*
X221485378Y-67787714D01*
X221320687Y-68184332D01*
X221320313Y-68613784D01*
X176072309Y-68613784D01*
X175785564Y-68326539D01*
X175276702Y-68115241D01*
X174725715Y-68114760D01*
X174216485Y-68325169D01*
X173826539Y-68714436D01*
X173615241Y-69223298D01*
X173614760Y-69774285D01*
X173372482Y-69774285D01*
X173397201Y-69704829D01*
X173369230Y-69154552D01*
X173212460Y-68776077D01*
X172971517Y-68708088D01*
X172179605Y-69500000D01*
X171820395Y-69500000D01*
X171028483Y-68708088D01*
X170787540Y-68776077D01*
X170602799Y-69295171D01*
X168669861Y-69295171D01*
X168916086Y-69193433D01*
X169531273Y-68579319D01*
X169552381Y-68528483D01*
X171208088Y-68528483D01*
X172000000Y-69320395D01*
X172791912Y-68528483D01*
X172723923Y-68287540D01*
X172204829Y-68102799D01*
X171654552Y-68130770D01*
X171276077Y-68287540D01*
X171208088Y-68528483D01*
X169552381Y-68528483D01*
X169864620Y-67776530D01*
X169864886Y-67471517D01*
X171208088Y-67471517D01*
X171276077Y-67712460D01*
X171795171Y-67897201D01*
X172345448Y-67869230D01*
X172723923Y-67712460D01*
X172791912Y-67471517D01*
X172000000Y-66679605D01*
X171208088Y-67471517D01*
X169864886Y-67471517D01*
X169865379Y-66907283D01*
X169612459Y-66295171D01*
X170602799Y-66295171D01*
X170630770Y-66845448D01*
X170787540Y-67223923D01*
X171028483Y-67291912D01*
X171820395Y-66500000D01*
X172179605Y-66500000D01*
X172971517Y-67291912D01*
X173212460Y-67223923D01*
X173372482Y-66774285D01*
X173614760Y-66774285D01*
X173825169Y-67283515D01*
X174214436Y-67673461D01*
X174723298Y-67884759D01*
X175274285Y-67885240D01*
X175783515Y-67674831D01*
X176173461Y-67285564D01*
X176384759Y-66776702D01*
X176385240Y-66225715D01*
X176174831Y-65716485D01*
X175785564Y-65326539D01*
X175276702Y-65115241D01*
X174725715Y-65114760D01*
X174216485Y-65325169D01*
X173826539Y-65714436D01*
X173615241Y-66223298D01*
X173614760Y-66774285D01*
X173372482Y-66774285D01*
X173397201Y-66704829D01*
X173369230Y-66154552D01*
X173212460Y-65776077D01*
X172971517Y-65708088D01*
X172179605Y-66500000D01*
X171820395Y-66500000D01*
X171028483Y-65708088D01*
X170787540Y-65776077D01*
X170602799Y-66295171D01*
X169612459Y-66295171D01*
X169533433Y-66103914D01*
X168959006Y-65528483D01*
X171208088Y-65528483D01*
X172000000Y-66320395D01*
X172791912Y-65528483D01*
X172723923Y-65287540D01*
X172204829Y-65102799D01*
X171654552Y-65130770D01*
X171276077Y-65287540D01*
X171208088Y-65528483D01*
X168959006Y-65528483D01*
X168919319Y-65488727D01*
X168116530Y-65155380D01*
X167247283Y-65154621D01*
X166443914Y-65486567D01*
X165828727Y-66100681D01*
X165825500Y-66108452D01*
X165825500Y-63893504D01*
X165826567Y-63896086D01*
X166440681Y-64511273D01*
X167243470Y-64844620D01*
X168112717Y-64845379D01*
X168916086Y-64513433D01*
X168958075Y-64471517D01*
X171208088Y-64471517D01*
X171276077Y-64712460D01*
X171795171Y-64897201D01*
X172345448Y-64869230D01*
X172723923Y-64712460D01*
X172791912Y-64471517D01*
X172000000Y-63679605D01*
X171208088Y-64471517D01*
X168958075Y-64471517D01*
X169531273Y-63899319D01*
X169782137Y-63295171D01*
X170602799Y-63295171D01*
X170630770Y-63845448D01*
X170787540Y-64223923D01*
X171028483Y-64291912D01*
X171820395Y-63500000D01*
X172179605Y-63500000D01*
X172971517Y-64291912D01*
X173212460Y-64223923D01*
X173372482Y-63774285D01*
X173614760Y-63774285D01*
X173825169Y-64283515D01*
X174214436Y-64673461D01*
X174723298Y-64884759D01*
X175274285Y-64885240D01*
X175783515Y-64674831D01*
X176173461Y-64285564D01*
X176384759Y-63776702D01*
X176385240Y-63225715D01*
X176174831Y-62716485D01*
X175785564Y-62326539D01*
X175276702Y-62115241D01*
X174725715Y-62114760D01*
X174216485Y-62325169D01*
X173826539Y-62714436D01*
X173615241Y-63223298D01*
X173614760Y-63774285D01*
X173372482Y-63774285D01*
X173397201Y-63704829D01*
X173369230Y-63154552D01*
X173212460Y-62776077D01*
X172971517Y-62708088D01*
X172179605Y-63500000D01*
X171820395Y-63500000D01*
X171028483Y-62708088D01*
X170787540Y-62776077D01*
X170602799Y-63295171D01*
X169782137Y-63295171D01*
X169864620Y-63096530D01*
X169865116Y-62528483D01*
X171208088Y-62528483D01*
X172000000Y-63320395D01*
X172791912Y-62528483D01*
X172723923Y-62287540D01*
X172204829Y-62102799D01*
X171654552Y-62130770D01*
X171276077Y-62287540D01*
X171208088Y-62528483D01*
X169865116Y-62528483D01*
X169865379Y-62227283D01*
X169553103Y-61471517D01*
X171208088Y-61471517D01*
X171276077Y-61712460D01*
X171795171Y-61897201D01*
X172345448Y-61869230D01*
X172723923Y-61712460D01*
X172791912Y-61471517D01*
X172000000Y-60679605D01*
X171208088Y-61471517D01*
X169553103Y-61471517D01*
X169533433Y-61423914D01*
X168919319Y-60808727D01*
X168116530Y-60475380D01*
X167247283Y-60474621D01*
X166443914Y-60806567D01*
X165828727Y-61420681D01*
X165825500Y-61428452D01*
X165825500Y-60295171D01*
X170602799Y-60295171D01*
X170630770Y-60845448D01*
X170787540Y-61223923D01*
X171028483Y-61291912D01*
X171820395Y-60500000D01*
X172179605Y-60500000D01*
X172971517Y-61291912D01*
X173212460Y-61223923D01*
X173372482Y-60774285D01*
X173614760Y-60774285D01*
X173825169Y-61283515D01*
X174214436Y-61673461D01*
X174723298Y-61884759D01*
X175274285Y-61885240D01*
X175783515Y-61674831D01*
X175844668Y-61613784D01*
X188020313Y-61613784D01*
X188184311Y-62010689D01*
X188487714Y-62314622D01*
X188884332Y-62479313D01*
X189313784Y-62479687D01*
X189710689Y-62315689D01*
X190014622Y-62012286D01*
X190179313Y-61615668D01*
X190179687Y-61186216D01*
X190015689Y-60789311D01*
X189712286Y-60485378D01*
X189315668Y-60320687D01*
X188886216Y-60320313D01*
X188489311Y-60484311D01*
X188185378Y-60787714D01*
X188020687Y-61184332D01*
X188020313Y-61613784D01*
X175844668Y-61613784D01*
X176173461Y-61285564D01*
X176384759Y-60776702D01*
X176385240Y-60225715D01*
X176174831Y-59716485D01*
X175785564Y-59326539D01*
X175276702Y-59115241D01*
X174725715Y-59114760D01*
X174216485Y-59325169D01*
X173826539Y-59714436D01*
X173615241Y-60223298D01*
X173614760Y-60774285D01*
X173372482Y-60774285D01*
X173397201Y-60704829D01*
X173369230Y-60154552D01*
X173212460Y-59776077D01*
X172971517Y-59708088D01*
X172179605Y-60500000D01*
X171820395Y-60500000D01*
X171028483Y-59708088D01*
X170787540Y-59776077D01*
X170602799Y-60295171D01*
X165825500Y-60295171D01*
X165825500Y-59528483D01*
X171208088Y-59528483D01*
X172000000Y-60320395D01*
X172791912Y-59528483D01*
X172723923Y-59287540D01*
X172204829Y-59102799D01*
X171654552Y-59130770D01*
X171276077Y-59287540D01*
X171208088Y-59528483D01*
X165825500Y-59528483D01*
X165825500Y-58713784D01*
X232320313Y-58713784D01*
X232484311Y-59110689D01*
X232787714Y-59414622D01*
X233184332Y-59579313D01*
X233613784Y-59579687D01*
X234010689Y-59415689D01*
X234314622Y-59112286D01*
X234479313Y-58715668D01*
X234479687Y-58286216D01*
X234315689Y-57889311D01*
X234012286Y-57585378D01*
X233615668Y-57420687D01*
X233186216Y-57420313D01*
X232789311Y-57584311D01*
X232485378Y-57887714D01*
X232320687Y-58284332D01*
X232320313Y-58713784D01*
X165825500Y-58713784D01*
X165825500Y-57313784D01*
X183520313Y-57313784D01*
X183684311Y-57710689D01*
X183987714Y-58014622D01*
X184384332Y-58179313D01*
X184813784Y-58179687D01*
X185210689Y-58015689D01*
X185514622Y-57712286D01*
X185679313Y-57315668D01*
X185679687Y-56886216D01*
X185515689Y-56489311D01*
X185240643Y-56213784D01*
X222920313Y-56213784D01*
X223084311Y-56610689D01*
X223387714Y-56914622D01*
X223784332Y-57079313D01*
X224213784Y-57079687D01*
X224610689Y-56915689D01*
X224914622Y-56612286D01*
X225079313Y-56215668D01*
X225079687Y-55786216D01*
X224915689Y-55389311D01*
X224612286Y-55085378D01*
X224215668Y-54920687D01*
X223786216Y-54920313D01*
X223389311Y-55084311D01*
X223085378Y-55387714D01*
X222920687Y-55784332D01*
X222920313Y-56213784D01*
X185240643Y-56213784D01*
X185212286Y-56185378D01*
X184815668Y-56020687D01*
X184386216Y-56020313D01*
X183989311Y-56184311D01*
X183685378Y-56487714D01*
X183520687Y-56884332D01*
X183520313Y-57313784D01*
X165825500Y-57313784D01*
X165825500Y-57127000D01*
X178000000Y-57127000D01*
X178046159Y-57118315D01*
X178088553Y-57091035D01*
X178116994Y-57049410D01*
X178127000Y-57000000D01*
X178127000Y-55213784D01*
X195920313Y-55213784D01*
X196084311Y-55610689D01*
X196387714Y-55914622D01*
X196784332Y-56079313D01*
X197213784Y-56079687D01*
X197610689Y-55915689D01*
X197914622Y-55612286D01*
X198079313Y-55215668D01*
X198079687Y-54786216D01*
X197915689Y-54389311D01*
X197612286Y-54085378D01*
X197215668Y-53920687D01*
X196786216Y-53920313D01*
X196389311Y-54084311D01*
X196085378Y-54387714D01*
X195920687Y-54784332D01*
X195920313Y-55213784D01*
X178127000Y-55213784D01*
X178127000Y-51013784D01*
X234220313Y-51013784D01*
X234384311Y-51410689D01*
X234687714Y-51714622D01*
X235084332Y-51879313D01*
X235513784Y-51879687D01*
X235910689Y-51715689D01*
X236214622Y-51412286D01*
X236379313Y-51015668D01*
X236379687Y-50586216D01*
X236215689Y-50189311D01*
X235912286Y-49885378D01*
X235515668Y-49720687D01*
X235086216Y-49720313D01*
X234689311Y-49884311D01*
X234385378Y-50187714D01*
X234220687Y-50584332D01*
X234220313Y-51013784D01*
X178127000Y-51013784D01*
X178127000Y-49113784D01*
X186020313Y-49113784D01*
X186184311Y-49510689D01*
X186487714Y-49814622D01*
X186884332Y-49979313D01*
X187313784Y-49979687D01*
X187710689Y-49815689D01*
X188014622Y-49512286D01*
X188179313Y-49115668D01*
X188179687Y-48686216D01*
X188015689Y-48289311D01*
X187712286Y-47985378D01*
X187315668Y-47820687D01*
X186886216Y-47820313D01*
X186489311Y-47984311D01*
X186185378Y-48287714D01*
X186020687Y-48684332D01*
X186020313Y-49113784D01*
X178127000Y-49113784D01*
X178127000Y-47213784D01*
X181920313Y-47213784D01*
X182084311Y-47610689D01*
X182387714Y-47914622D01*
X182784332Y-48079313D01*
X183213784Y-48079687D01*
X183610689Y-47915689D01*
X183914622Y-47612286D01*
X184079313Y-47215668D01*
X184079687Y-46786216D01*
X183915689Y-46389311D01*
X183612286Y-46085378D01*
X183215668Y-45920687D01*
X182786216Y-45920313D01*
X182389311Y-46084311D01*
X182085378Y-46387714D01*
X181920687Y-46784332D01*
X181920313Y-47213784D01*
X178127000Y-47213784D01*
X178127000Y-47000000D01*
X178118315Y-46953841D01*
X178091035Y-46911447D01*
X178049410Y-46883006D01*
X178000000Y-46873000D01*
X165825500Y-46873000D01*
X165825500Y-45513784D01*
X233820313Y-45513784D01*
X233984311Y-45910689D01*
X234287714Y-46214622D01*
X234684332Y-46379313D01*
X235113784Y-46379687D01*
X235510689Y-46215689D01*
X235814622Y-45912286D01*
X235979313Y-45515668D01*
X235979687Y-45086216D01*
X235815689Y-44689311D01*
X235512286Y-44385378D01*
X235115668Y-44220687D01*
X234686216Y-44220313D01*
X234289311Y-44384311D01*
X233985378Y-44687714D01*
X233820687Y-45084332D01*
X233820313Y-45513784D01*
X165825500Y-45513784D01*
X165825500Y-41462588D01*
X166122790Y-42182086D01*
X166933645Y-42994357D01*
X167993620Y-43434498D01*
X169141344Y-43435499D01*
X170202086Y-42997210D01*
X171014357Y-42186355D01*
X171454498Y-41126380D01*
X171455499Y-39978656D01*
X171017210Y-38917914D01*
X170206355Y-38105643D01*
X169146380Y-37665502D01*
X167998656Y-37664501D01*
X166937914Y-38102790D01*
X166125643Y-38913645D01*
X165825500Y-39636468D01*
X165825500Y-35825500D01*
X244174500Y-35825500D01*
X244174500Y-38758170D01*
X244174500Y-38758170D01*
G37*
X244174500Y-38758170D02*
X243734557Y-38317458D01*
X242766433Y-37915458D01*
X241718166Y-37914543D01*
X240749342Y-38314853D01*
X240007458Y-39055443D01*
X239605458Y-40023567D01*
X239604543Y-41071834D01*
X240004853Y-42040658D01*
X240745443Y-42782542D01*
X241713567Y-43184542D01*
X242761834Y-43185457D01*
X243730658Y-42785147D01*
X244174500Y-42342079D01*
X244174500Y-95873000D01*
X238500000Y-95873000D01*
X238453841Y-95881685D01*
X238452338Y-95882652D01*
X238450590Y-95883006D01*
X238431209Y-95896248D01*
X238411447Y-95908965D01*
X238410440Y-95910440D01*
X238408965Y-95911447D01*
X238396248Y-95931209D01*
X238383006Y-95950590D01*
X238382652Y-95952338D01*
X238381685Y-95953841D01*
X238373000Y-96000000D01*
X238373000Y-112447394D01*
X236410197Y-114410197D01*
X236383006Y-114450590D01*
X236382829Y-114451465D01*
X236382334Y-114452211D01*
X236373000Y-114500000D01*
X236373000Y-120947394D01*
X232947394Y-124373000D01*
X232932570Y-124373000D01*
X232675173Y-124115154D01*
X232074647Y-123865794D01*
X231424406Y-123865226D01*
X230823445Y-124113538D01*
X230363254Y-124572927D01*
X230113894Y-125173453D01*
X230113326Y-125823694D01*
X230361638Y-126424655D01*
X230821027Y-126884846D01*
X230873000Y-126906427D01*
X230873000Y-134174500D01*
X191127000Y-134174500D01*
X191127000Y-130415264D01*
X210784778Y-130415264D01*
X210948776Y-130812169D01*
X211252179Y-131116102D01*
X211648797Y-131280793D01*
X212078249Y-131281167D01*
X212475154Y-131117169D01*
X212779087Y-130813766D01*
X212943778Y-130417148D01*
X212944152Y-129987696D01*
X212780154Y-129590791D01*
X212476751Y-129286858D01*
X212080133Y-129122167D01*
X211650681Y-129121793D01*
X211253776Y-129285791D01*
X210949843Y-129589194D01*
X210785152Y-129985812D01*
X210784778Y-130415264D01*
X191127000Y-130415264D01*
X191127000Y-122413784D01*
X211720313Y-122413784D01*
X211884311Y-122810689D01*
X212187714Y-123114622D01*
X212584332Y-123279313D01*
X213013784Y-123279687D01*
X213410689Y-123115689D01*
X213714622Y-122812286D01*
X213879313Y-122415668D01*
X213879669Y-122006563D01*
X213887714Y-122014622D01*
X214284332Y-122179313D01*
X214713784Y-122179687D01*
X215110689Y-122015689D01*
X215414622Y-121712286D01*
X215579313Y-121315668D01*
X215579687Y-120886216D01*
X215415689Y-120489311D01*
X215112286Y-120185378D01*
X214715668Y-120020687D01*
X214286216Y-120020313D01*
X213889311Y-120184311D01*
X213585378Y-120487714D01*
X213420687Y-120884332D01*
X213420331Y-121293437D01*
X213412286Y-121285378D01*
X213015668Y-121120687D01*
X212586216Y-121120313D01*
X212189311Y-121284311D01*
X211885378Y-121587714D01*
X211720687Y-121984332D01*
X211720313Y-122413784D01*
X191127000Y-122413784D01*
X191127000Y-120804211D01*
X209137065Y-120804211D01*
X209301063Y-121201116D01*
X209604466Y-121505049D01*
X210001084Y-121669740D01*
X210430536Y-121670114D01*
X210827441Y-121506116D01*
X211131374Y-121202713D01*
X211296065Y-120806095D01*
X211296439Y-120376643D01*
X211132441Y-119979738D01*
X210829038Y-119675805D01*
X210432420Y-119511114D01*
X210002968Y-119510740D01*
X209606063Y-119674738D01*
X209302130Y-119978141D01*
X209137439Y-120374759D01*
X209137065Y-120804211D01*
X191127000Y-120804211D01*
X191127000Y-119813784D01*
X196320313Y-119813784D01*
X196484311Y-120210689D01*
X196787714Y-120514622D01*
X197184332Y-120679313D01*
X197613784Y-120679687D01*
X198010689Y-120515689D01*
X198314622Y-120212286D01*
X198479313Y-119815668D01*
X198479687Y-119386216D01*
X198367121Y-119113784D01*
X198720313Y-119113784D01*
X198884311Y-119510689D01*
X199187714Y-119814622D01*
X199584332Y-119979313D01*
X200013784Y-119979687D01*
X200410689Y-119815689D01*
X200714622Y-119512286D01*
X200879313Y-119115668D01*
X200879575Y-118813784D01*
X207920313Y-118813784D01*
X208084311Y-119210689D01*
X208387714Y-119514622D01*
X208784332Y-119679313D01*
X209213784Y-119679687D01*
X209610689Y-119515689D01*
X209914622Y-119212286D01*
X210079313Y-118815668D01*
X210079687Y-118386216D01*
X209915689Y-117989311D01*
X209612286Y-117685378D01*
X209215668Y-117520687D01*
X208786216Y-117520313D01*
X208389311Y-117684311D01*
X208085378Y-117987714D01*
X207920687Y-118384332D01*
X207920313Y-118813784D01*
X200879575Y-118813784D01*
X200879687Y-118686216D01*
X200715689Y-118289311D01*
X200412286Y-117985378D01*
X200015668Y-117820687D01*
X199586216Y-117820313D01*
X199189311Y-117984311D01*
X198885378Y-118287714D01*
X198720687Y-118684332D01*
X198720313Y-119113784D01*
X198367121Y-119113784D01*
X198315689Y-118989311D01*
X198012286Y-118685378D01*
X197615668Y-118520687D01*
X197186216Y-118520313D01*
X196789311Y-118684311D01*
X196485378Y-118987714D01*
X196320687Y-119384332D01*
X196320313Y-119813784D01*
X191127000Y-119813784D01*
X191127000Y-117013784D01*
X199320313Y-117013784D01*
X199484311Y-117410689D01*
X199787714Y-117714622D01*
X200184332Y-117879313D01*
X200613784Y-117879687D01*
X201010689Y-117715689D01*
X201314622Y-117412286D01*
X201479313Y-117015668D01*
X201479687Y-116586216D01*
X201367121Y-116313784D01*
X213920313Y-116313784D01*
X214084311Y-116710689D01*
X214387714Y-117014622D01*
X214784332Y-117179313D01*
X215213784Y-117179687D01*
X215610689Y-117015689D01*
X215914622Y-116712286D01*
X216079313Y-116315668D01*
X216079687Y-115886216D01*
X215915689Y-115489311D01*
X215612286Y-115185378D01*
X215215668Y-115020687D01*
X214786216Y-115020313D01*
X214389311Y-115184311D01*
X214085378Y-115487714D01*
X213920687Y-115884332D01*
X213920313Y-116313784D01*
X201367121Y-116313784D01*
X201315689Y-116189311D01*
X201012286Y-115885378D01*
X200615668Y-115720687D01*
X200186216Y-115720313D01*
X199789311Y-115884311D01*
X199485378Y-116187714D01*
X199320687Y-116584332D01*
X199320313Y-117013784D01*
X191127000Y-117013784D01*
X191127000Y-114000000D01*
X191117666Y-113952211D01*
X191117171Y-113951465D01*
X191116994Y-113950590D01*
X191089803Y-113910197D01*
X190089803Y-112910197D01*
X190049410Y-112883006D01*
X190048535Y-112882829D01*
X190047789Y-112882334D01*
X190000000Y-112873000D01*
X173381401Y-112873000D01*
X173361362Y-112472632D01*
X173202397Y-112088857D01*
X172960213Y-112019392D01*
X172159605Y-112820000D01*
X172173748Y-112834143D01*
X172134890Y-112873000D01*
X171825110Y-112873000D01*
X171786253Y-112834143D01*
X171800395Y-112820000D01*
X170999787Y-112019392D01*
X170757603Y-112088857D01*
X170713547Y-112212344D01*
X170662397Y-112088857D01*
X170420213Y-112019392D01*
X169619605Y-112820000D01*
X169633748Y-112834143D01*
X169594890Y-112873000D01*
X169285110Y-112873000D01*
X169246253Y-112834143D01*
X169260395Y-112820000D01*
X168459787Y-112019392D01*
X168217603Y-112088857D01*
X168030856Y-112612302D01*
X168043904Y-112873000D01*
X165825500Y-112873000D01*
X165825500Y-110556661D01*
X168042758Y-110556661D01*
X168254990Y-111070303D01*
X168647630Y-111463629D01*
X168839727Y-111543395D01*
X168708857Y-111597603D01*
X168639392Y-111839787D01*
X169440000Y-112640395D01*
X170240608Y-111839787D01*
X170171143Y-111597603D01*
X170030682Y-111547491D01*
X170230303Y-111465010D01*
X170623629Y-111072370D01*
X170709949Y-110864488D01*
X170794990Y-111070303D01*
X171187630Y-111463629D01*
X171379727Y-111543395D01*
X171248857Y-111597603D01*
X171179392Y-111839787D01*
X171980000Y-112640395D01*
X172780608Y-111839787D01*
X172711143Y-111597603D01*
X172570682Y-111547491D01*
X172770303Y-111465010D01*
X173163629Y-111072370D01*
X173376757Y-110559100D01*
X173377242Y-110003339D01*
X173165010Y-109489697D01*
X172772370Y-109096371D01*
X172259100Y-108883243D01*
X171703339Y-108882758D01*
X171189697Y-109094990D01*
X170796371Y-109487630D01*
X170710051Y-109695512D01*
X170625010Y-109489697D01*
X170232370Y-109096371D01*
X169719100Y-108883243D01*
X169163339Y-108882758D01*
X168649697Y-109094990D01*
X168256371Y-109487630D01*
X168043243Y-110000900D01*
X168042758Y-110556661D01*
X165825500Y-110556661D01*
X165825500Y-107070084D01*
X165875458Y-107020213D01*
X171699392Y-107020213D01*
X171768857Y-107262397D01*
X172292302Y-107449144D01*
X172847368Y-107421362D01*
X173231143Y-107262397D01*
X173300608Y-107020213D01*
X172500000Y-106219605D01*
X171699392Y-107020213D01*
X165875458Y-107020213D01*
X166063629Y-106832370D01*
X166276757Y-106319100D01*
X166277181Y-105832302D01*
X171090856Y-105832302D01*
X171118638Y-106387368D01*
X171277603Y-106771143D01*
X171519787Y-106840608D01*
X172320395Y-106040000D01*
X172679605Y-106040000D01*
X173480213Y-106840608D01*
X173722397Y-106771143D01*
X173909144Y-106247698D01*
X173881362Y-105692632D01*
X173722397Y-105308857D01*
X173480213Y-105239392D01*
X172679605Y-106040000D01*
X172320395Y-106040000D01*
X171519787Y-105239392D01*
X171277603Y-105308857D01*
X171090856Y-105832302D01*
X166277181Y-105832302D01*
X166277242Y-105763339D01*
X166065010Y-105249697D01*
X165825500Y-105009769D01*
X165825500Y-101990084D01*
X166063629Y-101752370D01*
X166276757Y-101239100D01*
X166276759Y-101236661D01*
X171102758Y-101236661D01*
X171314990Y-101750303D01*
X171707630Y-102143629D01*
X171915512Y-102229949D01*
X171709697Y-102314990D01*
X171316371Y-102707630D01*
X171103243Y-103220900D01*
X171102758Y-103776661D01*
X171314990Y-104290303D01*
X171707630Y-104683629D01*
X171899727Y-104763395D01*
X171768857Y-104817603D01*
X171699392Y-105059787D01*
X172500000Y-105860395D01*
X173300608Y-105059787D01*
X173231143Y-104817603D01*
X173090682Y-104767491D01*
X173290303Y-104685010D01*
X173683629Y-104292370D01*
X173896757Y-103779100D01*
X173897242Y-103223339D01*
X173685010Y-102709697D01*
X173292370Y-102316371D01*
X173084488Y-102230051D01*
X173290303Y-102145010D01*
X173683629Y-101752370D01*
X173896757Y-101239100D01*
X173897242Y-100683339D01*
X173685010Y-100169697D01*
X173292370Y-99776371D01*
X172779100Y-99563243D01*
X172223339Y-99562758D01*
X171709697Y-99774990D01*
X171316371Y-100167630D01*
X171103243Y-100680900D01*
X171102758Y-101236661D01*
X166276759Y-101236661D01*
X166277242Y-100683339D01*
X166065010Y-100169697D01*
X165825500Y-99929769D01*
X165825500Y-96307002D01*
X165940086Y-96259656D01*
X166358188Y-95842283D01*
X166584742Y-95296681D01*
X166584744Y-95294089D01*
X168694743Y-95294089D01*
X168920344Y-95840086D01*
X169337717Y-96258188D01*
X169883319Y-96484742D01*
X170474089Y-96485257D01*
X171020086Y-96259656D01*
X171438188Y-95842283D01*
X171449748Y-95814443D01*
X171460344Y-95840086D01*
X171877717Y-96258188D01*
X172423319Y-96484742D01*
X173014089Y-96485257D01*
X173560086Y-96259656D01*
X173776160Y-96043958D01*
X174395647Y-96043958D01*
X174475920Y-96295259D01*
X175031279Y-96496718D01*
X175621458Y-96470315D01*
X176044080Y-96295259D01*
X176124353Y-96043958D01*
X175260000Y-95179605D01*
X174395647Y-96043958D01*
X173776160Y-96043958D01*
X173978188Y-95842283D01*
X173997951Y-95794688D01*
X174216042Y-95864353D01*
X175080395Y-95000000D01*
X175439605Y-95000000D01*
X176303958Y-95864353D01*
X176555259Y-95784080D01*
X176756718Y-95228721D01*
X176730315Y-94638542D01*
X176555259Y-94215920D01*
X176303958Y-94135647D01*
X175439605Y-95000000D01*
X175080395Y-95000000D01*
X174216042Y-94135647D01*
X173998360Y-94205181D01*
X173979656Y-94159914D01*
X173776140Y-93956042D01*
X174395647Y-93956042D01*
X175260000Y-94820395D01*
X176124353Y-93956042D01*
X176044080Y-93704741D01*
X175488721Y-93503282D01*
X174898542Y-93529685D01*
X174475920Y-93704741D01*
X174395647Y-93956042D01*
X173776140Y-93956042D01*
X173562283Y-93741812D01*
X173016681Y-93515258D01*
X172425911Y-93514743D01*
X171879914Y-93740344D01*
X171461812Y-94157717D01*
X171450252Y-94185557D01*
X171439656Y-94159914D01*
X171022283Y-93741812D01*
X170476681Y-93515258D01*
X169885911Y-93514743D01*
X169339914Y-93740344D01*
X168921812Y-94157717D01*
X168695258Y-94703319D01*
X168694743Y-95294089D01*
X166584744Y-95294089D01*
X166585257Y-94705911D01*
X166359656Y-94159914D01*
X165942283Y-93741812D01*
X165825500Y-93693319D01*
X165825500Y-90957933D01*
X166295453Y-91428708D01*
X167140495Y-91779600D01*
X168055491Y-91780399D01*
X168901143Y-91430982D01*
X169548708Y-90784547D01*
X169821745Y-90127000D01*
X179373000Y-90127000D01*
X179373000Y-94447394D01*
X177910197Y-95910197D01*
X177883006Y-95950590D01*
X177882829Y-95951465D01*
X177882334Y-95952211D01*
X177873000Y-96000000D01*
X177873000Y-105000000D01*
X177882334Y-105047789D01*
X177882829Y-105048535D01*
X177883006Y-105049410D01*
X177910197Y-105089803D01*
X179873000Y-107052606D01*
X179873000Y-110000000D01*
X179881685Y-110046159D01*
X179882652Y-110047662D01*
X179883006Y-110049410D01*
X179896248Y-110068791D01*
X179908965Y-110088553D01*
X179910440Y-110089560D01*
X179911447Y-110091035D01*
X179931209Y-110103752D01*
X179950590Y-110116994D01*
X179952338Y-110117348D01*
X179953841Y-110118315D01*
X180000000Y-110127000D01*
X192947394Y-110127000D01*
X194221094Y-111400700D01*
X194367582Y-111755229D01*
X194742796Y-112131098D01*
X195099686Y-112279292D01*
X195910197Y-113089803D01*
X195913179Y-113091810D01*
X195689311Y-113184311D01*
X195385378Y-113487714D01*
X195220687Y-113884332D01*
X195220313Y-114313784D01*
X195384311Y-114710689D01*
X195687714Y-115014622D01*
X196084332Y-115179313D01*
X196513784Y-115179687D01*
X196910689Y-115015689D01*
X197214622Y-114712286D01*
X197379313Y-114315668D01*
X197379687Y-113886216D01*
X197215689Y-113489311D01*
X196912286Y-113185378D01*
X196771697Y-113127000D01*
X207000000Y-113127000D01*
X207046159Y-113118315D01*
X207047662Y-113117348D01*
X207049410Y-113116994D01*
X207068791Y-113103752D01*
X207088553Y-113091035D01*
X207089560Y-113089560D01*
X207091035Y-113088553D01*
X207103752Y-113068791D01*
X207116994Y-113049410D01*
X207117348Y-113047662D01*
X207118315Y-113046159D01*
X207127000Y-113000000D01*
X207127000Y-111256523D01*
X208193621Y-111256523D01*
X208357619Y-111653428D01*
X208661022Y-111957361D01*
X209057640Y-112122052D01*
X209487092Y-112122426D01*
X209883997Y-111958428D01*
X209928718Y-111913784D01*
X210420313Y-111913784D01*
X210584311Y-112310689D01*
X210887714Y-112614622D01*
X211284332Y-112779313D01*
X211713784Y-112779687D01*
X212110689Y-112615689D01*
X212358304Y-112368505D01*
X212384332Y-112379313D01*
X212813784Y-112379687D01*
X213210689Y-112215689D01*
X213514622Y-111912286D01*
X213679313Y-111515668D01*
X213679326Y-111500000D01*
X216472041Y-111500000D01*
X216586115Y-112073489D01*
X216910971Y-112559670D01*
X217225752Y-112770000D01*
X216910971Y-112980330D01*
X216586115Y-113466511D01*
X216472041Y-114040000D01*
X216586115Y-114613489D01*
X216910971Y-115099670D01*
X217397152Y-115424526D01*
X217970641Y-115538600D01*
X218029359Y-115538600D01*
X218602848Y-115424526D01*
X219068442Y-115113426D01*
X219073238Y-115138917D01*
X219212310Y-115355041D01*
X219424510Y-115500031D01*
X219676400Y-115551040D01*
X221267479Y-115551040D01*
X221093095Y-115725120D01*
X220928404Y-116121738D01*
X220928030Y-116551190D01*
X221092028Y-116948095D01*
X221395431Y-117252028D01*
X221792049Y-117416719D01*
X222221501Y-117417093D01*
X222298105Y-117385441D01*
X222297752Y-117791223D01*
X222461750Y-118188128D01*
X222765153Y-118492061D01*
X223161771Y-118656752D01*
X223591223Y-118657126D01*
X223988128Y-118493128D01*
X224292061Y-118189725D01*
X224456752Y-117793107D01*
X224457126Y-117363655D01*
X224293128Y-116966750D01*
X224063386Y-116736607D01*
X224107253Y-116736645D01*
X224504158Y-116572647D01*
X224808091Y-116269244D01*
X224972782Y-115872626D01*
X224973156Y-115443174D01*
X224809158Y-115046269D01*
X224505755Y-114742336D01*
X224109137Y-114577645D01*
X223679685Y-114577271D01*
X223282780Y-114741269D01*
X222978847Y-115044672D01*
X222814156Y-115441290D01*
X222814003Y-115617123D01*
X222620003Y-115422784D01*
X222223385Y-115258093D01*
X221930100Y-115257838D01*
X222000031Y-115155490D01*
X222051040Y-114903600D01*
X222051040Y-113176400D01*
X222006762Y-112941083D01*
X221867690Y-112724959D01*
X221655490Y-112579969D01*
X221611869Y-112571136D01*
X221629029Y-112559670D01*
X221953885Y-112073489D01*
X222067959Y-111500000D01*
X221953885Y-110926511D01*
X221629029Y-110440330D01*
X221314248Y-110230000D01*
X221629029Y-110019670D01*
X221953885Y-109533489D01*
X222045610Y-109072357D01*
X222137714Y-109164622D01*
X222534332Y-109329313D01*
X222963784Y-109329687D01*
X223360689Y-109165689D01*
X223664622Y-108862286D01*
X223829313Y-108465668D01*
X223829352Y-108420000D01*
X227316655Y-108420000D01*
X227430729Y-108993489D01*
X227755585Y-109479670D01*
X228070366Y-109690000D01*
X227755585Y-109900330D01*
X227430729Y-110386511D01*
X227316655Y-110960000D01*
X227430729Y-111533489D01*
X227755585Y-112019670D01*
X227769913Y-112029243D01*
X227748683Y-112033238D01*
X227532559Y-112172310D01*
X227387569Y-112384510D01*
X227336560Y-112636400D01*
X227336560Y-114363600D01*
X227380838Y-114598917D01*
X227519910Y-114815041D01*
X227732110Y-114960031D01*
X227984000Y-115011040D01*
X230016000Y-115011040D01*
X230251317Y-114966762D01*
X230467441Y-114827690D01*
X230612431Y-114615490D01*
X230663440Y-114363600D01*
X230663440Y-114013784D01*
X233220313Y-114013784D01*
X233384311Y-114410689D01*
X233687714Y-114714622D01*
X234084332Y-114879313D01*
X234513784Y-114879687D01*
X234910689Y-114715689D01*
X235214622Y-114412286D01*
X235379313Y-114015668D01*
X235379687Y-113586216D01*
X235215689Y-113189311D01*
X234912286Y-112885378D01*
X234515668Y-112720687D01*
X234086216Y-112720313D01*
X233689311Y-112884311D01*
X233385378Y-113187714D01*
X233220687Y-113584332D01*
X233220313Y-114013784D01*
X230663440Y-114013784D01*
X230663440Y-112636400D01*
X230621552Y-112413784D01*
X234920313Y-112413784D01*
X235084311Y-112810689D01*
X235387714Y-113114622D01*
X235784332Y-113279313D01*
X236213784Y-113279687D01*
X236610689Y-113115689D01*
X236914622Y-112812286D01*
X237079313Y-112415668D01*
X237079687Y-111986216D01*
X236915689Y-111589311D01*
X236612286Y-111285378D01*
X236215668Y-111120687D01*
X235786216Y-111120313D01*
X235389311Y-111284311D01*
X235085378Y-111587714D01*
X234920687Y-111984332D01*
X234920313Y-112413784D01*
X230621552Y-112413784D01*
X230619162Y-112401083D01*
X230480090Y-112184959D01*
X230267890Y-112039969D01*
X230226561Y-112031600D01*
X230244415Y-112019670D01*
X230569271Y-111533489D01*
X230683345Y-110960000D01*
X230569271Y-110386511D01*
X230244415Y-109900330D01*
X229929634Y-109690000D01*
X230244415Y-109479670D01*
X230569271Y-108993489D01*
X230683345Y-108420000D01*
X230569271Y-107846511D01*
X230547404Y-107813784D01*
X234120313Y-107813784D01*
X234284311Y-108210689D01*
X234587714Y-108514622D01*
X234984332Y-108679313D01*
X235413784Y-108679687D01*
X235810689Y-108515689D01*
X236114622Y-108212286D01*
X236279313Y-107815668D01*
X236279687Y-107386216D01*
X236115689Y-106989311D01*
X235812286Y-106685378D01*
X235415668Y-106520687D01*
X234986216Y-106520313D01*
X234589311Y-106684311D01*
X234285378Y-106987714D01*
X234120687Y-107384332D01*
X234120313Y-107813784D01*
X230547404Y-107813784D01*
X230244415Y-107360330D01*
X229758234Y-107035474D01*
X229184745Y-106921400D01*
X228815255Y-106921400D01*
X228241766Y-107035474D01*
X227755585Y-107360330D01*
X227430729Y-107846511D01*
X227316655Y-108420000D01*
X223829352Y-108420000D01*
X223829687Y-108036216D01*
X223665689Y-107639311D01*
X223362286Y-107335378D01*
X222965668Y-107170687D01*
X222536216Y-107170313D01*
X222139311Y-107334311D01*
X221835378Y-107637714D01*
X221689038Y-107990139D01*
X221629029Y-107900330D01*
X221142848Y-107575474D01*
X220569359Y-107461400D01*
X220510641Y-107461400D01*
X219937152Y-107575474D01*
X219450971Y-107900330D01*
X219270008Y-108171161D01*
X218888490Y-107753179D01*
X218359027Y-107505032D01*
X218127000Y-107625531D01*
X218127000Y-108833000D01*
X218147000Y-108833000D01*
X218147000Y-109087000D01*
X218127000Y-109087000D01*
X218127000Y-109107000D01*
X217873000Y-109107000D01*
X217873000Y-109087000D01*
X216666183Y-109087000D01*
X216545042Y-109319026D01*
X216717312Y-109734947D01*
X217111510Y-110166821D01*
X217234228Y-110224336D01*
X216910971Y-110440330D01*
X216586115Y-110926511D01*
X216472041Y-111500000D01*
X213679326Y-111500000D01*
X213679687Y-111086216D01*
X213515689Y-110689311D01*
X213212286Y-110385378D01*
X212815668Y-110220687D01*
X212386216Y-110220313D01*
X211989311Y-110384311D01*
X211741696Y-110631495D01*
X211715668Y-110620687D01*
X211286216Y-110620313D01*
X210889311Y-110784311D01*
X210585378Y-111087714D01*
X210420687Y-111484332D01*
X210420313Y-111913784D01*
X209928718Y-111913784D01*
X210187930Y-111655025D01*
X210352621Y-111258407D01*
X210352995Y-110828955D01*
X210188997Y-110432050D01*
X209885594Y-110128117D01*
X209488976Y-109963426D01*
X209059524Y-109963052D01*
X208662619Y-110127050D01*
X208358686Y-110430453D01*
X208193995Y-110827071D01*
X208193621Y-111256523D01*
X207127000Y-111256523D01*
X207127000Y-109830935D01*
X207484332Y-109979313D01*
X207913784Y-109979687D01*
X208310689Y-109815689D01*
X208614622Y-109512286D01*
X208752865Y-109179362D01*
X208987714Y-109414622D01*
X209384332Y-109579313D01*
X209813784Y-109579687D01*
X210210689Y-109415689D01*
X210514622Y-109112286D01*
X210679313Y-108715668D01*
X210679412Y-108600974D01*
X216545042Y-108600974D01*
X216666183Y-108833000D01*
X217873000Y-108833000D01*
X217873000Y-107625531D01*
X217640973Y-107505032D01*
X217111510Y-107753179D01*
X216717312Y-108185053D01*
X216545042Y-108600974D01*
X210679412Y-108600974D01*
X210679687Y-108286216D01*
X210515689Y-107889311D01*
X210212286Y-107585378D01*
X209815668Y-107420687D01*
X209386216Y-107420313D01*
X208989311Y-107584311D01*
X208685378Y-107887714D01*
X208547135Y-108220638D01*
X208312286Y-107985378D01*
X207915668Y-107820687D01*
X207486216Y-107820313D01*
X207127000Y-107968738D01*
X207127000Y-107127000D01*
X223000000Y-107127000D01*
X223046159Y-107118315D01*
X223047662Y-107117348D01*
X223049410Y-107116994D01*
X223068791Y-107103752D01*
X223088553Y-107091035D01*
X223089560Y-107089560D01*
X223091035Y-107088553D01*
X223103752Y-107068791D01*
X223116994Y-107049410D01*
X223117348Y-107047662D01*
X223118315Y-107046159D01*
X223127000Y-107000000D01*
X223127000Y-104463784D01*
X226420313Y-104463784D01*
X226584311Y-104860689D01*
X226887714Y-105164622D01*
X227284332Y-105329313D01*
X227713784Y-105329687D01*
X228110689Y-105165689D01*
X228414622Y-104862286D01*
X228579313Y-104465668D01*
X228579687Y-104036216D01*
X228415689Y-103639311D01*
X228112286Y-103335378D01*
X227715668Y-103170687D01*
X227286216Y-103170313D01*
X226889311Y-103334311D01*
X226585378Y-103637714D01*
X226420687Y-104034332D01*
X226420313Y-104463784D01*
X223127000Y-104463784D01*
X223127000Y-89000000D01*
X223117666Y-88952211D01*
X223117171Y-88951465D01*
X223116994Y-88950590D01*
X223089803Y-88910197D01*
X220089803Y-85910197D01*
X220049410Y-85883006D01*
X220048535Y-85882829D01*
X220047789Y-85882334D01*
X220000000Y-85873000D01*
X209052606Y-85873000D01*
X208089803Y-84910197D01*
X208049410Y-84883006D01*
X208048535Y-84882829D01*
X208047789Y-84882334D01*
X208000000Y-84873000D01*
X204832386Y-84873000D01*
X205183629Y-84522370D01*
X205396757Y-84009100D01*
X205397242Y-83453339D01*
X205185010Y-82939697D01*
X204792370Y-82546371D01*
X204279100Y-82333243D01*
X203723339Y-82332758D01*
X203209697Y-82544990D01*
X202816371Y-82937630D01*
X202736605Y-83129727D01*
X202682397Y-82998857D01*
X202440213Y-82929392D01*
X201639605Y-83730000D01*
X202440213Y-84530608D01*
X202682397Y-84461143D01*
X202732509Y-84320682D01*
X202814990Y-84520303D01*
X203167072Y-84873000D01*
X202213916Y-84873000D01*
X202260608Y-84710213D01*
X201460000Y-83909605D01*
X200659392Y-84710213D01*
X200706084Y-84873000D01*
X199127000Y-84873000D01*
X199127000Y-83522302D01*
X200050856Y-83522302D01*
X200078638Y-84077368D01*
X200237603Y-84461143D01*
X200479787Y-84530608D01*
X201280395Y-83730000D01*
X200479787Y-82929392D01*
X200237603Y-82998857D01*
X200050856Y-83522302D01*
X199127000Y-83522302D01*
X199127000Y-82749787D01*
X200659392Y-82749787D01*
X201460000Y-83550395D01*
X202260608Y-82749787D01*
X202191143Y-82507603D01*
X201667698Y-82320856D01*
X201112632Y-82348638D01*
X200728857Y-82507603D01*
X200659392Y-82749787D01*
X199127000Y-82749787D01*
X199127000Y-80903784D01*
X215860313Y-80903784D01*
X216024311Y-81300689D01*
X216113304Y-81389837D01*
X216085378Y-81417714D01*
X215920687Y-81814332D01*
X215920313Y-82243784D01*
X216084311Y-82640689D01*
X216387714Y-82944622D01*
X216784332Y-83109313D01*
X217213784Y-83109687D01*
X217610689Y-82945689D01*
X217914622Y-82642286D01*
X217940485Y-82580000D01*
X222792560Y-82580000D01*
X222792560Y-83880000D01*
X222836838Y-84115317D01*
X222975910Y-84331441D01*
X223188110Y-84476431D01*
X223440000Y-84527440D01*
X224740000Y-84527440D01*
X224975317Y-84483162D01*
X225191441Y-84344090D01*
X225336431Y-84131890D01*
X225387440Y-83880000D01*
X225387440Y-82580000D01*
X225365607Y-82463967D01*
X228874430Y-82463967D01*
X228874430Y-83536033D01*
X228979900Y-84066268D01*
X229280254Y-84515779D01*
X229729765Y-84816133D01*
X230260000Y-84921603D01*
X230790235Y-84816133D01*
X231239746Y-84515779D01*
X231530000Y-84081384D01*
X231820254Y-84515779D01*
X232269765Y-84816133D01*
X232800000Y-84921603D01*
X233330235Y-84816133D01*
X233779746Y-84515779D01*
X233945409Y-84267848D01*
X233986268Y-84484997D01*
X234125340Y-84701121D01*
X234337540Y-84846111D01*
X234589430Y-84897120D01*
X236090570Y-84897120D01*
X236325887Y-84852842D01*
X236542011Y-84713770D01*
X236687001Y-84501570D01*
X236738010Y-84249680D01*
X236738010Y-81750320D01*
X236693732Y-81515003D01*
X236554660Y-81298879D01*
X236342460Y-81153889D01*
X236090570Y-81102880D01*
X234589430Y-81102880D01*
X234354113Y-81147158D01*
X234137989Y-81286230D01*
X233992999Y-81498430D01*
X233945608Y-81732451D01*
X233779746Y-81484221D01*
X233330235Y-81183867D01*
X232800000Y-81078397D01*
X232269765Y-81183867D01*
X231820254Y-81484221D01*
X231530000Y-81918616D01*
X231239746Y-81484221D01*
X230790235Y-81183867D01*
X230260000Y-81078397D01*
X229729765Y-81183867D01*
X229280254Y-81484221D01*
X228979900Y-81933732D01*
X228874430Y-82463967D01*
X225365607Y-82463967D01*
X225343162Y-82344683D01*
X225204090Y-82128559D01*
X225088109Y-82049313D01*
X225178735Y-81958845D01*
X225374777Y-81486724D01*
X225375223Y-80975519D01*
X225180005Y-80503057D01*
X224818845Y-80141265D01*
X224346724Y-79945223D01*
X223835519Y-79944777D01*
X223363057Y-80139995D01*
X223001265Y-80501155D01*
X222805223Y-80973276D01*
X222804777Y-81484481D01*
X222999995Y-81956943D01*
X223092145Y-82049254D01*
X222988559Y-82115910D01*
X222843569Y-82328110D01*
X222792560Y-82580000D01*
X217940485Y-82580000D01*
X218079313Y-82245668D01*
X218079687Y-81816216D01*
X217967330Y-81544291D01*
X218244332Y-81659313D01*
X218673784Y-81659687D01*
X219070689Y-81495689D01*
X219374622Y-81192286D01*
X219539313Y-80795668D01*
X219539687Y-80366216D01*
X219375689Y-79969311D01*
X219072286Y-79665378D01*
X218675668Y-79500687D01*
X218246216Y-79500313D01*
X217849311Y-79664311D01*
X217645006Y-79868260D01*
X217552286Y-79775378D01*
X217155668Y-79610687D01*
X216726216Y-79610313D01*
X216329311Y-79774311D01*
X216025378Y-80077714D01*
X215860687Y-80474332D01*
X215860313Y-80903784D01*
X199127000Y-80903784D01*
X199127000Y-79000000D01*
X199118315Y-78953841D01*
X199117348Y-78952338D01*
X199116994Y-78950590D01*
X199103752Y-78931209D01*
X199091035Y-78911447D01*
X199089560Y-78910440D01*
X199088553Y-78908965D01*
X199068791Y-78896248D01*
X199049410Y-78883006D01*
X199047662Y-78882652D01*
X199046159Y-78881685D01*
X199000000Y-78873000D01*
X187000000Y-78873000D01*
X186952211Y-78882334D01*
X186951465Y-78882829D01*
X186950590Y-78883006D01*
X186910197Y-78910197D01*
X185947394Y-79873000D01*
X183052606Y-79873000D01*
X181884087Y-78704481D01*
X234264777Y-78704481D01*
X234459995Y-79176943D01*
X234821155Y-79538735D01*
X235293276Y-79734777D01*
X235804481Y-79735223D01*
X236276943Y-79540005D01*
X236369254Y-79447855D01*
X236435910Y-79551441D01*
X236648110Y-79696431D01*
X236900000Y-79747440D01*
X238200000Y-79747440D01*
X238435317Y-79703162D01*
X238651441Y-79564090D01*
X238796431Y-79351890D01*
X238847440Y-79100000D01*
X238847440Y-77800000D01*
X238803162Y-77564683D01*
X238664090Y-77348559D01*
X238451890Y-77203569D01*
X238200000Y-77152560D01*
X236900000Y-77152560D01*
X236664683Y-77196838D01*
X236448559Y-77335910D01*
X236369313Y-77451891D01*
X236278845Y-77361265D01*
X235806724Y-77165223D01*
X235295519Y-77164777D01*
X234823057Y-77359995D01*
X234461265Y-77721155D01*
X234265223Y-78193276D01*
X234264777Y-78704481D01*
X181884087Y-78704481D01*
X180193390Y-77013784D01*
X183820313Y-77013784D01*
X183984311Y-77410689D01*
X184287714Y-77714622D01*
X184684332Y-77879313D01*
X185113784Y-77879687D01*
X185510689Y-77715689D01*
X185814622Y-77412286D01*
X185979313Y-77015668D01*
X185979687Y-76586216D01*
X185815689Y-76189311D01*
X185512286Y-75885378D01*
X185115668Y-75720687D01*
X184686216Y-75720313D01*
X184289311Y-75884311D01*
X183985378Y-76187714D01*
X183820687Y-76584332D01*
X183820313Y-77013784D01*
X180193390Y-77013784D01*
X178593390Y-75413784D01*
X194720313Y-75413784D01*
X194884311Y-75810689D01*
X195187714Y-76114622D01*
X195584332Y-76279313D01*
X196013784Y-76279687D01*
X196410689Y-76115689D01*
X196714622Y-75812286D01*
X196879313Y-75415668D01*
X196879488Y-75213784D01*
X202220313Y-75213784D01*
X202384311Y-75610689D01*
X202687714Y-75914622D01*
X203084332Y-76079313D01*
X203513784Y-76079687D01*
X203910689Y-75915689D01*
X204214622Y-75612286D01*
X204379313Y-75215668D01*
X204379687Y-74786216D01*
X204215689Y-74389311D01*
X203912286Y-74085378D01*
X203515668Y-73920687D01*
X203086216Y-73920313D01*
X202689311Y-74084311D01*
X202385378Y-74387714D01*
X202220687Y-74784332D01*
X202220313Y-75213784D01*
X196879488Y-75213784D01*
X196879687Y-74986216D01*
X196715689Y-74589311D01*
X196412286Y-74285378D01*
X196015668Y-74120687D01*
X195586216Y-74120313D01*
X195189311Y-74284311D01*
X194885378Y-74587714D01*
X194720687Y-74984332D01*
X194720313Y-75413784D01*
X178593390Y-75413784D01*
X178127000Y-74947394D01*
X178127000Y-72613784D01*
X199520313Y-72613784D01*
X199684311Y-73010689D01*
X199987714Y-73314622D01*
X200384332Y-73479313D01*
X200813784Y-73479687D01*
X200973281Y-73413784D01*
X206420313Y-73413784D01*
X206584311Y-73810689D01*
X206887714Y-74114622D01*
X207284332Y-74279313D01*
X207713784Y-74279687D01*
X208110689Y-74115689D01*
X208120494Y-74105901D01*
X208120313Y-74313784D01*
X208284311Y-74710689D01*
X208587714Y-75014622D01*
X208984332Y-75179313D01*
X209413784Y-75179687D01*
X209810689Y-75015689D01*
X210114622Y-74712286D01*
X210279313Y-74315668D01*
X210279398Y-74217897D01*
X211124426Y-74217897D01*
X211288424Y-74614802D01*
X211370667Y-74697188D01*
X211292199Y-74886159D01*
X211291825Y-75315611D01*
X211455823Y-75712516D01*
X211759226Y-76016449D01*
X212155844Y-76181140D01*
X212585296Y-76181514D01*
X212982201Y-76017516D01*
X213286134Y-75714113D01*
X213450825Y-75317495D01*
X213451199Y-74888043D01*
X213296559Y-74513784D01*
X217520313Y-74513784D01*
X217684311Y-74910689D01*
X217987714Y-75214622D01*
X218384332Y-75379313D01*
X218813784Y-75379687D01*
X219210689Y-75215689D01*
X219514622Y-74912286D01*
X219679313Y-74515668D01*
X219679687Y-74086216D01*
X219515689Y-73689311D01*
X219212286Y-73385378D01*
X218815668Y-73220687D01*
X218386216Y-73220313D01*
X217989311Y-73384311D01*
X217685378Y-73687714D01*
X217520687Y-74084332D01*
X217520313Y-74513784D01*
X213296559Y-74513784D01*
X213287201Y-74491138D01*
X213204958Y-74408752D01*
X213283426Y-74219781D01*
X213283800Y-73790329D01*
X213119802Y-73393424D01*
X212816399Y-73089491D01*
X212419781Y-72924800D01*
X211990329Y-72924426D01*
X211593424Y-73088424D01*
X211289491Y-73391827D01*
X211124800Y-73788445D01*
X211124426Y-74217897D01*
X210279398Y-74217897D01*
X210279687Y-73886216D01*
X210115689Y-73489311D01*
X209812286Y-73185378D01*
X209415668Y-73020687D01*
X208986216Y-73020313D01*
X208589311Y-73184311D01*
X208579506Y-73194099D01*
X208579687Y-72986216D01*
X208415689Y-72589311D01*
X208112286Y-72285378D01*
X207715668Y-72120687D01*
X207286216Y-72120313D01*
X206889311Y-72284311D01*
X206585378Y-72587714D01*
X206420687Y-72984332D01*
X206420313Y-73413784D01*
X200973281Y-73413784D01*
X201210689Y-73315689D01*
X201514622Y-73012286D01*
X201679313Y-72615668D01*
X201679687Y-72186216D01*
X201515689Y-71789311D01*
X201390381Y-71663784D01*
X226499313Y-71663784D01*
X226663311Y-72060689D01*
X226966714Y-72364622D01*
X227363332Y-72529313D01*
X227792784Y-72529687D01*
X228189689Y-72365689D01*
X228493622Y-72062286D01*
X228658313Y-71665668D01*
X228658687Y-71236216D01*
X228494689Y-70839311D01*
X228191286Y-70535378D01*
X227794668Y-70370687D01*
X227365216Y-70370313D01*
X226968311Y-70534311D01*
X226664378Y-70837714D01*
X226499687Y-71234332D01*
X226499313Y-71663784D01*
X201390381Y-71663784D01*
X201212286Y-71485378D01*
X200815668Y-71320687D01*
X200386216Y-71320313D01*
X199989311Y-71484311D01*
X199685378Y-71787714D01*
X199520687Y-72184332D01*
X199520313Y-72613784D01*
X178127000Y-72613784D01*
X178127000Y-72000000D01*
X178118315Y-71953841D01*
X178117348Y-71952338D01*
X178116994Y-71950590D01*
X178103752Y-71931209D01*
X178091035Y-71911447D01*
X178089560Y-71910440D01*
X178088553Y-71908965D01*
X178068791Y-71896248D01*
X178049410Y-71883006D01*
X178047662Y-71882652D01*
X178046159Y-71881685D01*
X178000000Y-71873000D01*
X165825500Y-71873000D01*
X165825500Y-70471517D01*
X171208088Y-70471517D01*
X171276077Y-70712460D01*
X171795171Y-70897201D01*
X172345448Y-70869230D01*
X172723923Y-70712460D01*
X172791912Y-70471517D01*
X172000000Y-69679605D01*
X171208088Y-70471517D01*
X165825500Y-70471517D01*
X165825500Y-68573504D01*
X165826567Y-68576086D01*
X166440681Y-69191273D01*
X167243470Y-69524620D01*
X168112717Y-69525379D01*
X168669861Y-69295171D01*
X170602799Y-69295171D01*
X170630770Y-69845448D01*
X170787540Y-70223923D01*
X171028483Y-70291912D01*
X171820395Y-69500000D01*
X172179605Y-69500000D01*
X172971517Y-70291912D01*
X173212460Y-70223923D01*
X173372482Y-69774285D01*
X173614760Y-69774285D01*
X173825169Y-70283515D01*
X174214436Y-70673461D01*
X174723298Y-70884759D01*
X175274285Y-70885240D01*
X175447222Y-70813784D01*
X197920313Y-70813784D01*
X198084311Y-71210689D01*
X198387714Y-71514622D01*
X198784332Y-71679313D01*
X199213784Y-71679687D01*
X199610689Y-71515689D01*
X199914622Y-71212286D01*
X200079313Y-70815668D01*
X200079687Y-70386216D01*
X199915689Y-69989311D01*
X199612286Y-69685378D01*
X199215668Y-69520687D01*
X198786216Y-69520313D01*
X198389311Y-69684311D01*
X198085378Y-69987714D01*
X197920687Y-70384332D01*
X197920313Y-70813784D01*
X175447222Y-70813784D01*
X175783515Y-70674831D01*
X176173461Y-70285564D01*
X176384759Y-69776702D01*
X176385240Y-69225715D01*
X176174831Y-68716485D01*
X176072309Y-68613784D01*
X221320313Y-68613784D01*
X221484311Y-69010689D01*
X221787714Y-69314622D01*
X222184332Y-69479313D01*
X222613784Y-69479687D01*
X223010689Y-69315689D01*
X223314622Y-69012286D01*
X223479313Y-68615668D01*
X223479687Y-68186216D01*
X223315689Y-67789311D01*
X223012286Y-67485378D01*
X222615668Y-67320687D01*
X222186216Y-67320313D01*
X221789311Y-67484311D01*
X221485378Y-67787714D01*
X221320687Y-68184332D01*
X221320313Y-68613784D01*
X176072309Y-68613784D01*
X175785564Y-68326539D01*
X175276702Y-68115241D01*
X174725715Y-68114760D01*
X174216485Y-68325169D01*
X173826539Y-68714436D01*
X173615241Y-69223298D01*
X173614760Y-69774285D01*
X173372482Y-69774285D01*
X173397201Y-69704829D01*
X173369230Y-69154552D01*
X173212460Y-68776077D01*
X172971517Y-68708088D01*
X172179605Y-69500000D01*
X171820395Y-69500000D01*
X171028483Y-68708088D01*
X170787540Y-68776077D01*
X170602799Y-69295171D01*
X168669861Y-69295171D01*
X168916086Y-69193433D01*
X169531273Y-68579319D01*
X169552381Y-68528483D01*
X171208088Y-68528483D01*
X172000000Y-69320395D01*
X172791912Y-68528483D01*
X172723923Y-68287540D01*
X172204829Y-68102799D01*
X171654552Y-68130770D01*
X171276077Y-68287540D01*
X171208088Y-68528483D01*
X169552381Y-68528483D01*
X169864620Y-67776530D01*
X169864886Y-67471517D01*
X171208088Y-67471517D01*
X171276077Y-67712460D01*
X171795171Y-67897201D01*
X172345448Y-67869230D01*
X172723923Y-67712460D01*
X172791912Y-67471517D01*
X172000000Y-66679605D01*
X171208088Y-67471517D01*
X169864886Y-67471517D01*
X169865379Y-66907283D01*
X169612459Y-66295171D01*
X170602799Y-66295171D01*
X170630770Y-66845448D01*
X170787540Y-67223923D01*
X171028483Y-67291912D01*
X171820395Y-66500000D01*
X172179605Y-66500000D01*
X172971517Y-67291912D01*
X173212460Y-67223923D01*
X173372482Y-66774285D01*
X173614760Y-66774285D01*
X173825169Y-67283515D01*
X174214436Y-67673461D01*
X174723298Y-67884759D01*
X175274285Y-67885240D01*
X175783515Y-67674831D01*
X176173461Y-67285564D01*
X176384759Y-66776702D01*
X176385240Y-66225715D01*
X176174831Y-65716485D01*
X175785564Y-65326539D01*
X175276702Y-65115241D01*
X174725715Y-65114760D01*
X174216485Y-65325169D01*
X173826539Y-65714436D01*
X173615241Y-66223298D01*
X173614760Y-66774285D01*
X173372482Y-66774285D01*
X173397201Y-66704829D01*
X173369230Y-66154552D01*
X173212460Y-65776077D01*
X172971517Y-65708088D01*
X172179605Y-66500000D01*
X171820395Y-66500000D01*
X171028483Y-65708088D01*
X170787540Y-65776077D01*
X170602799Y-66295171D01*
X169612459Y-66295171D01*
X169533433Y-66103914D01*
X168959006Y-65528483D01*
X171208088Y-65528483D01*
X172000000Y-66320395D01*
X172791912Y-65528483D01*
X172723923Y-65287540D01*
X172204829Y-65102799D01*
X171654552Y-65130770D01*
X171276077Y-65287540D01*
X171208088Y-65528483D01*
X168959006Y-65528483D01*
X168919319Y-65488727D01*
X168116530Y-65155380D01*
X167247283Y-65154621D01*
X166443914Y-65486567D01*
X165828727Y-66100681D01*
X165825500Y-66108452D01*
X165825500Y-63893504D01*
X165826567Y-63896086D01*
X166440681Y-64511273D01*
X167243470Y-64844620D01*
X168112717Y-64845379D01*
X168916086Y-64513433D01*
X168958075Y-64471517D01*
X171208088Y-64471517D01*
X171276077Y-64712460D01*
X171795171Y-64897201D01*
X172345448Y-64869230D01*
X172723923Y-64712460D01*
X172791912Y-64471517D01*
X172000000Y-63679605D01*
X171208088Y-64471517D01*
X168958075Y-64471517D01*
X169531273Y-63899319D01*
X169782137Y-63295171D01*
X170602799Y-63295171D01*
X170630770Y-63845448D01*
X170787540Y-64223923D01*
X171028483Y-64291912D01*
X171820395Y-63500000D01*
X172179605Y-63500000D01*
X172971517Y-64291912D01*
X173212460Y-64223923D01*
X173372482Y-63774285D01*
X173614760Y-63774285D01*
X173825169Y-64283515D01*
X174214436Y-64673461D01*
X174723298Y-64884759D01*
X175274285Y-64885240D01*
X175783515Y-64674831D01*
X176173461Y-64285564D01*
X176384759Y-63776702D01*
X176385240Y-63225715D01*
X176174831Y-62716485D01*
X175785564Y-62326539D01*
X175276702Y-62115241D01*
X174725715Y-62114760D01*
X174216485Y-62325169D01*
X173826539Y-62714436D01*
X173615241Y-63223298D01*
X173614760Y-63774285D01*
X173372482Y-63774285D01*
X173397201Y-63704829D01*
X173369230Y-63154552D01*
X173212460Y-62776077D01*
X172971517Y-62708088D01*
X172179605Y-63500000D01*
X171820395Y-63500000D01*
X171028483Y-62708088D01*
X170787540Y-62776077D01*
X170602799Y-63295171D01*
X169782137Y-63295171D01*
X169864620Y-63096530D01*
X169865116Y-62528483D01*
X171208088Y-62528483D01*
X172000000Y-63320395D01*
X172791912Y-62528483D01*
X172723923Y-62287540D01*
X172204829Y-62102799D01*
X171654552Y-62130770D01*
X171276077Y-62287540D01*
X171208088Y-62528483D01*
X169865116Y-62528483D01*
X169865379Y-62227283D01*
X169553103Y-61471517D01*
X171208088Y-61471517D01*
X171276077Y-61712460D01*
X171795171Y-61897201D01*
X172345448Y-61869230D01*
X172723923Y-61712460D01*
X172791912Y-61471517D01*
X172000000Y-60679605D01*
X171208088Y-61471517D01*
X169553103Y-61471517D01*
X169533433Y-61423914D01*
X168919319Y-60808727D01*
X168116530Y-60475380D01*
X167247283Y-60474621D01*
X166443914Y-60806567D01*
X165828727Y-61420681D01*
X165825500Y-61428452D01*
X165825500Y-60295171D01*
X170602799Y-60295171D01*
X170630770Y-60845448D01*
X170787540Y-61223923D01*
X171028483Y-61291912D01*
X171820395Y-60500000D01*
X172179605Y-60500000D01*
X172971517Y-61291912D01*
X173212460Y-61223923D01*
X173372482Y-60774285D01*
X173614760Y-60774285D01*
X173825169Y-61283515D01*
X174214436Y-61673461D01*
X174723298Y-61884759D01*
X175274285Y-61885240D01*
X175783515Y-61674831D01*
X175844668Y-61613784D01*
X188020313Y-61613784D01*
X188184311Y-62010689D01*
X188487714Y-62314622D01*
X188884332Y-62479313D01*
X189313784Y-62479687D01*
X189710689Y-62315689D01*
X190014622Y-62012286D01*
X190179313Y-61615668D01*
X190179687Y-61186216D01*
X190015689Y-60789311D01*
X189712286Y-60485378D01*
X189315668Y-60320687D01*
X188886216Y-60320313D01*
X188489311Y-60484311D01*
X188185378Y-60787714D01*
X188020687Y-61184332D01*
X188020313Y-61613784D01*
X175844668Y-61613784D01*
X176173461Y-61285564D01*
X176384759Y-60776702D01*
X176385240Y-60225715D01*
X176174831Y-59716485D01*
X175785564Y-59326539D01*
X175276702Y-59115241D01*
X174725715Y-59114760D01*
X174216485Y-59325169D01*
X173826539Y-59714436D01*
X173615241Y-60223298D01*
X173614760Y-60774285D01*
X173372482Y-60774285D01*
X173397201Y-60704829D01*
X173369230Y-60154552D01*
X173212460Y-59776077D01*
X172971517Y-59708088D01*
X172179605Y-60500000D01*
X171820395Y-60500000D01*
X171028483Y-59708088D01*
X170787540Y-59776077D01*
X170602799Y-60295171D01*
X165825500Y-60295171D01*
X165825500Y-59528483D01*
X171208088Y-59528483D01*
X172000000Y-60320395D01*
X172791912Y-59528483D01*
X172723923Y-59287540D01*
X172204829Y-59102799D01*
X171654552Y-59130770D01*
X171276077Y-59287540D01*
X171208088Y-59528483D01*
X165825500Y-59528483D01*
X165825500Y-58713784D01*
X232320313Y-58713784D01*
X232484311Y-59110689D01*
X232787714Y-59414622D01*
X233184332Y-59579313D01*
X233613784Y-59579687D01*
X234010689Y-59415689D01*
X234314622Y-59112286D01*
X234479313Y-58715668D01*
X234479687Y-58286216D01*
X234315689Y-57889311D01*
X234012286Y-57585378D01*
X233615668Y-57420687D01*
X233186216Y-57420313D01*
X232789311Y-57584311D01*
X232485378Y-57887714D01*
X232320687Y-58284332D01*
X232320313Y-58713784D01*
X165825500Y-58713784D01*
X165825500Y-57313784D01*
X183520313Y-57313784D01*
X183684311Y-57710689D01*
X183987714Y-58014622D01*
X184384332Y-58179313D01*
X184813784Y-58179687D01*
X185210689Y-58015689D01*
X185514622Y-57712286D01*
X185679313Y-57315668D01*
X185679687Y-56886216D01*
X185515689Y-56489311D01*
X185240643Y-56213784D01*
X222920313Y-56213784D01*
X223084311Y-56610689D01*
X223387714Y-56914622D01*
X223784332Y-57079313D01*
X224213784Y-57079687D01*
X224610689Y-56915689D01*
X224914622Y-56612286D01*
X225079313Y-56215668D01*
X225079687Y-55786216D01*
X224915689Y-55389311D01*
X224612286Y-55085378D01*
X224215668Y-54920687D01*
X223786216Y-54920313D01*
X223389311Y-55084311D01*
X223085378Y-55387714D01*
X222920687Y-55784332D01*
X222920313Y-56213784D01*
X185240643Y-56213784D01*
X185212286Y-56185378D01*
X184815668Y-56020687D01*
X184386216Y-56020313D01*
X183989311Y-56184311D01*
X183685378Y-56487714D01*
X183520687Y-56884332D01*
X183520313Y-57313784D01*
X165825500Y-57313784D01*
X165825500Y-57127000D01*
X178000000Y-57127000D01*
X178046159Y-57118315D01*
X178088553Y-57091035D01*
X178116994Y-57049410D01*
X178127000Y-57000000D01*
X178127000Y-55213784D01*
X195920313Y-55213784D01*
X196084311Y-55610689D01*
X196387714Y-55914622D01*
X196784332Y-56079313D01*
X197213784Y-56079687D01*
X197610689Y-55915689D01*
X197914622Y-55612286D01*
X198079313Y-55215668D01*
X198079687Y-54786216D01*
X197915689Y-54389311D01*
X197612286Y-54085378D01*
X197215668Y-53920687D01*
X196786216Y-53920313D01*
X196389311Y-54084311D01*
X196085378Y-54387714D01*
X195920687Y-54784332D01*
X195920313Y-55213784D01*
X178127000Y-55213784D01*
X178127000Y-51013784D01*
X234220313Y-51013784D01*
X234384311Y-51410689D01*
X234687714Y-51714622D01*
X235084332Y-51879313D01*
X235513784Y-51879687D01*
X235910689Y-51715689D01*
X236214622Y-51412286D01*
X236379313Y-51015668D01*
X236379687Y-50586216D01*
X236215689Y-50189311D01*
X235912286Y-49885378D01*
X235515668Y-49720687D01*
X235086216Y-49720313D01*
X234689311Y-49884311D01*
X234385378Y-50187714D01*
X234220687Y-50584332D01*
X234220313Y-51013784D01*
X178127000Y-51013784D01*
X178127000Y-49113784D01*
X186020313Y-49113784D01*
X186184311Y-49510689D01*
X186487714Y-49814622D01*
X186884332Y-49979313D01*
X187313784Y-49979687D01*
X187710689Y-49815689D01*
X188014622Y-49512286D01*
X188179313Y-49115668D01*
X188179687Y-48686216D01*
X188015689Y-48289311D01*
X187712286Y-47985378D01*
X187315668Y-47820687D01*
X186886216Y-47820313D01*
X186489311Y-47984311D01*
X186185378Y-48287714D01*
X186020687Y-48684332D01*
X186020313Y-49113784D01*
X178127000Y-49113784D01*
X178127000Y-47213784D01*
X181920313Y-47213784D01*
X182084311Y-47610689D01*
X182387714Y-47914622D01*
X182784332Y-48079313D01*
X183213784Y-48079687D01*
X183610689Y-47915689D01*
X183914622Y-47612286D01*
X184079313Y-47215668D01*
X184079687Y-46786216D01*
X183915689Y-46389311D01*
X183612286Y-46085378D01*
X183215668Y-45920687D01*
X182786216Y-45920313D01*
X182389311Y-46084311D01*
X182085378Y-46387714D01*
X181920687Y-46784332D01*
X181920313Y-47213784D01*
X178127000Y-47213784D01*
X178127000Y-47000000D01*
X178118315Y-46953841D01*
X178091035Y-46911447D01*
X178049410Y-46883006D01*
X178000000Y-46873000D01*
X165825500Y-46873000D01*
X165825500Y-45513784D01*
X233820313Y-45513784D01*
X233984311Y-45910689D01*
X234287714Y-46214622D01*
X234684332Y-46379313D01*
X235113784Y-46379687D01*
X235510689Y-46215689D01*
X235814622Y-45912286D01*
X235979313Y-45515668D01*
X235979687Y-45086216D01*
X235815689Y-44689311D01*
X235512286Y-44385378D01*
X235115668Y-44220687D01*
X234686216Y-44220313D01*
X234289311Y-44384311D01*
X233985378Y-44687714D01*
X233820687Y-45084332D01*
X233820313Y-45513784D01*
X165825500Y-45513784D01*
X165825500Y-41462588D01*
X166122790Y-42182086D01*
X166933645Y-42994357D01*
X167993620Y-43434498D01*
X169141344Y-43435499D01*
X170202086Y-42997210D01*
X171014357Y-42186355D01*
X171454498Y-41126380D01*
X171455499Y-39978656D01*
X171017210Y-38917914D01*
X170206355Y-38105643D01*
X169146380Y-37665502D01*
X167998656Y-37664501D01*
X166937914Y-38102790D01*
X166125643Y-38913645D01*
X165825500Y-39636468D01*
X165825500Y-35825500D01*
X244174500Y-35825500D01*
X244174500Y-38758170D01*
G36*
X244174500Y-127658170D02*
X243734557Y-127217458D01*
X242766433Y-126815458D01*
X241718166Y-126814543D01*
X240749342Y-127214853D01*
X240007458Y-127955443D01*
X239605458Y-128923567D01*
X239604543Y-129971834D01*
X240004853Y-130940658D01*
X240745443Y-131682542D01*
X241713567Y-132084542D01*
X242761834Y-132085457D01*
X243730658Y-131685147D01*
X244174500Y-131242079D01*
X244174500Y-134174500D01*
X232127000Y-134174500D01*
X232127000Y-127111963D01*
X232672755Y-126886462D01*
X233132946Y-126427073D01*
X233382306Y-125826547D01*
X233382308Y-125823694D01*
X235114586Y-125823694D01*
X235362898Y-126424655D01*
X235822287Y-126884846D01*
X236422813Y-127134206D01*
X237073054Y-127134774D01*
X237674015Y-126886462D01*
X238134206Y-126427073D01*
X238383566Y-125826547D01*
X238384134Y-125176306D01*
X238135822Y-124575345D01*
X237676433Y-124115154D01*
X237075907Y-123865794D01*
X236425666Y-123865226D01*
X235824705Y-124113538D01*
X235364514Y-124572927D01*
X235115154Y-125173453D01*
X235114586Y-125823694D01*
X233382308Y-125823694D01*
X233382769Y-125296837D01*
X237589803Y-121089803D01*
X237617666Y-121047789D01*
X237627000Y-121000000D01*
X237627000Y-115052606D01*
X239589803Y-113089803D01*
X239617666Y-113047789D01*
X239627000Y-113000000D01*
X239627000Y-109855762D01*
X239723110Y-109921431D01*
X239975000Y-109972440D01*
X240825000Y-109972440D01*
X240918687Y-109954811D01*
X240685378Y-110187714D01*
X240520687Y-110584332D01*
X240520313Y-111013784D01*
X240596688Y-111198625D01*
X240389311Y-111284311D01*
X240085378Y-111587714D01*
X239920687Y-111984332D01*
X239920313Y-112413784D01*
X240084311Y-112810689D01*
X240387714Y-113114622D01*
X240784332Y-113279313D01*
X241213784Y-113279687D01*
X241610689Y-113115689D01*
X241914622Y-112812286D01*
X242079313Y-112415668D01*
X242079687Y-111986216D01*
X242003312Y-111801375D01*
X242210689Y-111715689D01*
X242514622Y-111412286D01*
X242679313Y-111015668D01*
X242679687Y-110586216D01*
X242515689Y-110189311D01*
X242212286Y-109885378D01*
X241815668Y-109720687D01*
X241386216Y-109720313D01*
X241298737Y-109756459D01*
X241421431Y-109576890D01*
X241472440Y-109325000D01*
X241472440Y-108475000D01*
X241428162Y-108239683D01*
X241352025Y-108121363D01*
X241459816Y-107861772D01*
X241460184Y-107440078D01*
X241299149Y-107050342D01*
X241274068Y-107025217D01*
X241298101Y-107001226D01*
X241459816Y-106611772D01*
X241460184Y-106190078D01*
X241299149Y-105800342D01*
X241274068Y-105775217D01*
X241298101Y-105751226D01*
X241459816Y-105361772D01*
X241460184Y-104940078D01*
X241299149Y-104550342D01*
X241001226Y-104251899D01*
X240611772Y-104090184D01*
X240190078Y-104089816D01*
X239800342Y-104250851D01*
X239627000Y-104423891D01*
X239627000Y-102813784D01*
X240920313Y-102813784D01*
X241084311Y-103210689D01*
X241387714Y-103514622D01*
X241784332Y-103679313D01*
X242213784Y-103679687D01*
X242610689Y-103515689D01*
X242914622Y-103212286D01*
X243079313Y-102815668D01*
X243079687Y-102386216D01*
X242915689Y-101989311D01*
X242612286Y-101685378D01*
X242215668Y-101520687D01*
X241786216Y-101520313D01*
X241389311Y-101684311D01*
X241085378Y-101987714D01*
X240920687Y-102384332D01*
X240920313Y-102813784D01*
X239627000Y-102813784D01*
X239627000Y-97627000D01*
X244174500Y-97627000D01*
X244174500Y-127658170D01*
X244174500Y-127658170D01*
G37*
X244174500Y-127658170D02*
X243734557Y-127217458D01*
X242766433Y-126815458D01*
X241718166Y-126814543D01*
X240749342Y-127214853D01*
X240007458Y-127955443D01*
X239605458Y-128923567D01*
X239604543Y-129971834D01*
X240004853Y-130940658D01*
X240745443Y-131682542D01*
X241713567Y-132084542D01*
X242761834Y-132085457D01*
X243730658Y-131685147D01*
X244174500Y-131242079D01*
X244174500Y-134174500D01*
X232127000Y-134174500D01*
X232127000Y-127111963D01*
X232672755Y-126886462D01*
X233132946Y-126427073D01*
X233382306Y-125826547D01*
X233382308Y-125823694D01*
X235114586Y-125823694D01*
X235362898Y-126424655D01*
X235822287Y-126884846D01*
X236422813Y-127134206D01*
X237073054Y-127134774D01*
X237674015Y-126886462D01*
X238134206Y-126427073D01*
X238383566Y-125826547D01*
X238384134Y-125176306D01*
X238135822Y-124575345D01*
X237676433Y-124115154D01*
X237075907Y-123865794D01*
X236425666Y-123865226D01*
X235824705Y-124113538D01*
X235364514Y-124572927D01*
X235115154Y-125173453D01*
X235114586Y-125823694D01*
X233382308Y-125823694D01*
X233382769Y-125296837D01*
X237589803Y-121089803D01*
X237617666Y-121047789D01*
X237627000Y-121000000D01*
X237627000Y-115052606D01*
X239589803Y-113089803D01*
X239617666Y-113047789D01*
X239627000Y-113000000D01*
X239627000Y-109855762D01*
X239723110Y-109921431D01*
X239975000Y-109972440D01*
X240825000Y-109972440D01*
X240918687Y-109954811D01*
X240685378Y-110187714D01*
X240520687Y-110584332D01*
X240520313Y-111013784D01*
X240596688Y-111198625D01*
X240389311Y-111284311D01*
X240085378Y-111587714D01*
X239920687Y-111984332D01*
X239920313Y-112413784D01*
X240084311Y-112810689D01*
X240387714Y-113114622D01*
X240784332Y-113279313D01*
X241213784Y-113279687D01*
X241610689Y-113115689D01*
X241914622Y-112812286D01*
X242079313Y-112415668D01*
X242079687Y-111986216D01*
X242003312Y-111801375D01*
X242210689Y-111715689D01*
X242514622Y-111412286D01*
X242679313Y-111015668D01*
X242679687Y-110586216D01*
X242515689Y-110189311D01*
X242212286Y-109885378D01*
X241815668Y-109720687D01*
X241386216Y-109720313D01*
X241298737Y-109756459D01*
X241421431Y-109576890D01*
X241472440Y-109325000D01*
X241472440Y-108475000D01*
X241428162Y-108239683D01*
X241352025Y-108121363D01*
X241459816Y-107861772D01*
X241460184Y-107440078D01*
X241299149Y-107050342D01*
X241274068Y-107025217D01*
X241298101Y-107001226D01*
X241459816Y-106611772D01*
X241460184Y-106190078D01*
X241299149Y-105800342D01*
X241274068Y-105775217D01*
X241298101Y-105751226D01*
X241459816Y-105361772D01*
X241460184Y-104940078D01*
X241299149Y-104550342D01*
X241001226Y-104251899D01*
X240611772Y-104090184D01*
X240190078Y-104089816D01*
X239800342Y-104250851D01*
X239627000Y-104423891D01*
X239627000Y-102813784D01*
X240920313Y-102813784D01*
X241084311Y-103210689D01*
X241387714Y-103514622D01*
X241784332Y-103679313D01*
X242213784Y-103679687D01*
X242610689Y-103515689D01*
X242914622Y-103212286D01*
X243079313Y-102815668D01*
X243079687Y-102386216D01*
X242915689Y-101989311D01*
X242612286Y-101685378D01*
X242215668Y-101520687D01*
X241786216Y-101520313D01*
X241389311Y-101684311D01*
X241085378Y-101987714D01*
X240920687Y-102384332D01*
X240920313Y-102813784D01*
X239627000Y-102813784D01*
X239627000Y-97627000D01*
X244174500Y-97627000D01*
X244174500Y-127658170D01*
M02*
