G04 #@! TF.FileFunction,Copper,L4,Bot,Signal*
%FSLAX46Y46*%
G04 Gerber Fmt 4.6, Leading zero omitted, Abs format (unit mm)*
G04 Created by KiCad (PCBNEW 4.0.4-stable) date 11/30/16 20:12:39*
%MOMM*%
%LPD*%
G01*
G04 APERTURE LIST*
%ADD10C,0.150000*%
%ADD11R,1.300000X1.300000*%
%ADD12C,1.300000*%
%ADD13R,3.500120X3.500120*%
%ADD14C,1.524000*%
%ADD15R,1.727200X1.727200*%
%ADD16O,1.727200X1.727200*%
%ADD17O,1.900000X1.000000*%
%ADD18O,1.250000X1.050000*%
%ADD19R,10.500000X12.500000*%
%ADD20O,1.501140X2.499360*%
%ADD21R,1.501140X2.499360*%
%ADD22C,5.080000*%
%ADD23R,0.850000X0.850000*%
%ADD24C,0.850000*%
%ADD25R,2.032000X1.727200*%
%ADD26O,2.032000X1.727200*%
%ADD27C,1.998980*%
%ADD28C,1.500000*%
%ADD29C,1.400000*%
%ADD30C,4.500000*%
%ADD31R,1.500000X1.500000*%
%ADD32C,4.000000*%
%ADD33R,1.050000X1.050000*%
%ADD34C,1.050000*%
%ADD35C,1.700000*%
%ADD36C,0.889000*%
%ADD37C,0.500000*%
%ADD38C,0.254000*%
%ADD39C,0.400000*%
G04 APERTURE END LIST*
D10*
D11*
X224090000Y-83230000D03*
D12*
X224090000Y-81230000D03*
D13*
X173700140Y-50000000D03*
X167700660Y-50000000D03*
X170700400Y-54699000D03*
D14*
X204000000Y-83730000D03*
X201460000Y-83730000D03*
X196380000Y-83730000D03*
X193840000Y-83730000D03*
X191300000Y-83730000D03*
X169440000Y-110280000D03*
X169440000Y-112820000D03*
X171980000Y-110280000D03*
X171980000Y-112820000D03*
D15*
X220540000Y-114040000D03*
D16*
X218000000Y-114040000D03*
X220540000Y-111500000D03*
X218000000Y-111500000D03*
X220540000Y-108960000D03*
X218000000Y-108960000D03*
D17*
X166450000Y-115825000D03*
X166450000Y-124175000D03*
D18*
X169450000Y-117775000D03*
X169450000Y-122225000D03*
D19*
X232800000Y-96964000D03*
D20*
X232800000Y-83000000D03*
D21*
X235340000Y-83000000D03*
D20*
X230260000Y-83000000D03*
D22*
X232800000Y-99750000D03*
D14*
X164880000Y-100960000D03*
X164880000Y-106040000D03*
X172500000Y-106040000D03*
X172500000Y-103500000D03*
X172500000Y-100960000D03*
D23*
X240400000Y-108900000D03*
D24*
X240400000Y-107650000D03*
X240400000Y-106400000D03*
X240400000Y-105150000D03*
D25*
X229000000Y-113500000D03*
D26*
X229000000Y-110960000D03*
X229000000Y-108420000D03*
D27*
X181000000Y-105499360D03*
X181000000Y-100498100D03*
X189000000Y-92499360D03*
X189000000Y-87498100D03*
X184000000Y-100500640D03*
X184000000Y-105501900D03*
X192000000Y-92499360D03*
X192000000Y-87498100D03*
X185500000Y-90500640D03*
X185500000Y-95501900D03*
X181500000Y-90500640D03*
X181500000Y-95501900D03*
D28*
X175000000Y-69500000D03*
X172000000Y-69500000D03*
X172000000Y-66500000D03*
X175000000Y-66500000D03*
X175000000Y-63500000D03*
X172000000Y-63500000D03*
X175000000Y-60500000D03*
X172000000Y-60500000D03*
D29*
X195500000Y-111000000D03*
X198040000Y-111000000D03*
X195500000Y-107500000D03*
X198040000Y-107500000D03*
X202000000Y-107500000D03*
X204540000Y-107500000D03*
X202000000Y-111000000D03*
X204540000Y-111000000D03*
D30*
X168570000Y-129450000D03*
X168570000Y-40550000D03*
D31*
X170140000Y-86710000D03*
D28*
X171920000Y-85690000D03*
X170140000Y-84670000D03*
X171920000Y-83650000D03*
X170140000Y-82630000D03*
X171920000Y-81610000D03*
X170140000Y-80590000D03*
X171920000Y-79570000D03*
D32*
X242240000Y-129450000D03*
X242240000Y-40550000D03*
D33*
X219400000Y-95700000D03*
D34*
X219400000Y-94430000D03*
X219400000Y-93160000D03*
X219400000Y-91890000D03*
X218130000Y-94430000D03*
X218130000Y-93160000D03*
X218130000Y-91890000D03*
X218130000Y-95700000D03*
D11*
X237550000Y-78450000D03*
D12*
X235550000Y-78450000D03*
D11*
X196700000Y-89600000D03*
D12*
X196700000Y-87600000D03*
D27*
X236749360Y-125500000D03*
X231748100Y-125500000D03*
D35*
X165100000Y-95000000D03*
X170180000Y-95000000D03*
X172720000Y-95000000D03*
X175260000Y-95000000D03*
D36*
X197000000Y-55000000D03*
X189100000Y-61400000D03*
X187100000Y-48900000D03*
X233400000Y-58500000D03*
X234900000Y-45300000D03*
X218460000Y-80580000D03*
X216940000Y-80690000D03*
X217000000Y-82030000D03*
X235200000Y-107600000D03*
X211864465Y-130201480D03*
X218600000Y-74300000D03*
X195800000Y-75200000D03*
X212371512Y-75101827D03*
X209200000Y-74100000D03*
X207500000Y-73200000D03*
X227579000Y-71450000D03*
X184900000Y-76800000D03*
X211500000Y-111700000D03*
X207700000Y-108900000D03*
X214500000Y-121100000D03*
X197400000Y-119600000D03*
X199800000Y-118900000D03*
X234300000Y-113800000D03*
X221030000Y-80630000D03*
X219410000Y-82070000D03*
X220980000Y-82000000D03*
X241250000Y-92250000D03*
X234100000Y-121500000D03*
X231600000Y-110300000D03*
X238000000Y-104900000D03*
X232300000Y-104800000D03*
X236300000Y-47800000D03*
X207400000Y-129100000D03*
X232500000Y-69000000D03*
X233495837Y-56287027D03*
X209400000Y-78231447D03*
X212900000Y-82800000D03*
X228000000Y-129612458D03*
X215000000Y-42500000D03*
X215000000Y-45000000D03*
X215000000Y-47500000D03*
X215000000Y-50000000D03*
X217500000Y-42500000D03*
X217500000Y-45000000D03*
X217500000Y-47500000D03*
X217500000Y-50000000D03*
X220000000Y-45000000D03*
X220000000Y-42500000D03*
X220000000Y-47500000D03*
X220000000Y-50000000D03*
X220000000Y-65000000D03*
X220000000Y-62500000D03*
X220000000Y-57500000D03*
X220000000Y-60000000D03*
X217500000Y-65000000D03*
X217500000Y-62500000D03*
X217500000Y-60000000D03*
X217500000Y-57500000D03*
X215000000Y-65000000D03*
X215000000Y-62500000D03*
X215000000Y-60000000D03*
X215000000Y-57500000D03*
X202500000Y-57500000D03*
X202500000Y-60000000D03*
X202500000Y-62500000D03*
X202500000Y-65000000D03*
X205000000Y-57500000D03*
X205000000Y-60000000D03*
X205000000Y-62500000D03*
X205000000Y-65000000D03*
X207500000Y-60000000D03*
X207500000Y-57500000D03*
X207500000Y-62500000D03*
X207500000Y-65000000D03*
X207500000Y-50000000D03*
X207500000Y-47500000D03*
X207500000Y-42500000D03*
X207500000Y-45000000D03*
X205000000Y-50000000D03*
X205000000Y-47500000D03*
X205000000Y-45000000D03*
X205000000Y-42500000D03*
X202500000Y-50000000D03*
X202500000Y-47500000D03*
X202500000Y-45000000D03*
X202500000Y-42500000D03*
X231000000Y-61000000D03*
X188200000Y-42900000D03*
X191300000Y-61000000D03*
X230900000Y-47000000D03*
X218800000Y-68500000D03*
X219200000Y-76900000D03*
X223458932Y-77512460D03*
X215500000Y-74500000D03*
X220013846Y-125598520D03*
X206700000Y-70700000D03*
X210800000Y-77700000D03*
X225900000Y-68800000D03*
X227500000Y-55700000D03*
X236200000Y-61300000D03*
X233000000Y-42700000D03*
X186500000Y-58200000D03*
X186000000Y-45700000D03*
X190900000Y-46900000D03*
X197600000Y-77400000D03*
X193500000Y-71300000D03*
X203300000Y-73800000D03*
X200400000Y-74500000D03*
X189000000Y-52300000D03*
X196400000Y-52400000D03*
X188900000Y-66200000D03*
X184300000Y-70300000D03*
X182000000Y-77400000D03*
X191500000Y-71800000D03*
X232000000Y-76300000D03*
X214500000Y-110900000D03*
X207800000Y-111200000D03*
X208500000Y-116600000D03*
X216300000Y-129700000D03*
X212600000Y-126600000D03*
X211000000Y-126700000D03*
X211800000Y-120900000D03*
X198900000Y-121900000D03*
X197400000Y-130100000D03*
X234300000Y-115200000D03*
X200194000Y-103198000D03*
X173300000Y-124900000D03*
X178518239Y-122607338D03*
X186000000Y-127900000D03*
X187000000Y-121700000D03*
X182400000Y-125200000D03*
X178600000Y-127500000D03*
X178800000Y-124100000D03*
X175600000Y-118700000D03*
X175500000Y-115400000D03*
X170663421Y-121630882D03*
X182200000Y-127200000D03*
X186500000Y-120500000D03*
X222750000Y-108250000D03*
X227500000Y-104250000D03*
X224000000Y-56000000D03*
X183000000Y-47000000D03*
X200600000Y-72400000D03*
X184600000Y-57100000D03*
X199000000Y-70600000D03*
X241000000Y-112200000D03*
X241600000Y-110800000D03*
X242000000Y-102600000D03*
X219400000Y-101500000D03*
X207443928Y-104356072D03*
X212000000Y-105400000D03*
X201250000Y-96400000D03*
X199454021Y-104381085D03*
X192800000Y-105900000D03*
X194450000Y-98675000D03*
X219800000Y-98700000D03*
X186700000Y-99000000D03*
X208200000Y-105300000D03*
X214200000Y-105200000D03*
X219500000Y-103700000D03*
X215500000Y-104100000D03*
X204600000Y-100600000D03*
X205531072Y-96768928D03*
X201350000Y-97950000D03*
X198700000Y-93200000D03*
X194800000Y-93200000D03*
X191300000Y-97100000D03*
X195000000Y-103500000D03*
X187700000Y-103800000D03*
X188600000Y-105900000D03*
X210362800Y-96901000D03*
X214450000Y-102250000D03*
X213360000Y-99822000D03*
X210000000Y-94700000D03*
X200582281Y-95034824D03*
X200400000Y-116800000D03*
X190200000Y-100100000D03*
X190300000Y-103100000D03*
X203300000Y-75000000D03*
X212204113Y-74004113D03*
X209600000Y-108500000D03*
X212600000Y-111300000D03*
X236000000Y-112200000D03*
X222007717Y-116337406D03*
X209273308Y-111042739D03*
X215000000Y-116100000D03*
X223377439Y-117577439D03*
X210216752Y-120590427D03*
X223893469Y-115656958D03*
X209000000Y-118600000D03*
X210498520Y-105606778D03*
X206200000Y-105000000D03*
X197900000Y-94400000D03*
X199200000Y-102200000D03*
X196300000Y-114100000D03*
X212800000Y-122200000D03*
X235300000Y-50800000D03*
X222400000Y-68400000D03*
X240000000Y-113200000D03*
X240200000Y-110800000D03*
X243300000Y-122100000D03*
X241000000Y-115100000D03*
X242000000Y-100100000D03*
D37*
X178600000Y-65400000D02*
X176900000Y-67100000D01*
X197000000Y-55000000D02*
X198000000Y-54000000D01*
X198000000Y-54000000D02*
X198000000Y-40000000D01*
X198000000Y-40000000D02*
X184000000Y-40000000D01*
X184000000Y-40000000D02*
X181000000Y-43000000D01*
X181000000Y-43000000D02*
X181000000Y-63000000D01*
X178600000Y-65400000D02*
X181000000Y-63000000D01*
X176900000Y-67600000D02*
X175000000Y-69500000D01*
X176900000Y-67100000D02*
X176900000Y-67600000D01*
X235340000Y-83000000D02*
X235340000Y-80660000D01*
X235340000Y-80660000D02*
X237550000Y-78450000D01*
X237550000Y-77300000D02*
X237550000Y-78450000D01*
X238412186Y-76437814D02*
X237550000Y-77300000D01*
X238412186Y-42512186D02*
X238412186Y-76437814D01*
X234900000Y-39000000D02*
X238412186Y-42512186D01*
X179900000Y-37000000D02*
X174500000Y-42400000D01*
X174500000Y-42400000D02*
X174500000Y-49200140D01*
X174500000Y-49200140D02*
X173700140Y-50000000D01*
X234900000Y-39100000D02*
X234900000Y-39000000D01*
X234900000Y-39000000D02*
X232900000Y-37000000D01*
X234900000Y-45300000D02*
X234900000Y-39100000D01*
X179900000Y-37000000D02*
X232900000Y-37000000D01*
X234455501Y-57444499D02*
X233400000Y-58500000D01*
X234455501Y-45744499D02*
X234455501Y-57444499D01*
X234900000Y-45300000D02*
X234455501Y-45744499D01*
X216940000Y-80690000D02*
X218350000Y-80690000D01*
X218350000Y-80690000D02*
X218460000Y-80580000D01*
X217000000Y-82030000D02*
X217000000Y-80750000D01*
X217000000Y-80750000D02*
X216940000Y-80690000D01*
X217760000Y-83180000D02*
X217000000Y-82420000D01*
X217000000Y-82420000D02*
X217000000Y-82030000D01*
X222890000Y-83180000D02*
X217760000Y-83180000D01*
X224090000Y-83230000D02*
X222940000Y-83230000D01*
X222940000Y-83230000D02*
X222890000Y-83180000D01*
X230260000Y-83000000D02*
X224320000Y-83000000D01*
X224320000Y-83000000D02*
X224090000Y-83230000D01*
X220980000Y-82000000D02*
X220980000Y-80680000D01*
X220980000Y-80680000D02*
X221030000Y-80630000D01*
X220980000Y-82000000D02*
X219480000Y-82000000D01*
X219480000Y-82000000D02*
X219410000Y-82070000D01*
X224090000Y-81230000D02*
X221750000Y-81230000D01*
X221750000Y-81230000D02*
X220980000Y-82000000D01*
X225750000Y-80810000D02*
X225330000Y-81230000D01*
X225330000Y-81230000D02*
X224090000Y-81230000D01*
X231109110Y-80810000D02*
X225750000Y-80810000D01*
X232800000Y-83000000D02*
X232800000Y-82500890D01*
X232800000Y-82500890D02*
X231109110Y-80810000D01*
X232800000Y-83000000D02*
X232800000Y-83630000D01*
D38*
X200274000Y-103278000D02*
X200194000Y-103198000D01*
X227500000Y-104250000D02*
X223500000Y-108250000D01*
X223500000Y-108250000D02*
X222750000Y-108250000D01*
D37*
X179000000Y-51900000D02*
X179000000Y-59500000D01*
X179000000Y-59500000D02*
X175000000Y-63500000D01*
X179000000Y-43000000D02*
X179000000Y-51900000D01*
X179000000Y-51900000D02*
X179000000Y-51960660D01*
X183000000Y-39000000D02*
X179000000Y-43000000D01*
X196607616Y-39000000D02*
X183000000Y-39000000D01*
X197938626Y-37668990D02*
X196607616Y-39000000D01*
X223581768Y-37668990D02*
X197938626Y-37668990D01*
X224000000Y-38087222D02*
X223581768Y-37668990D01*
X224000000Y-56000000D02*
X224000000Y-38087222D01*
D38*
X196700000Y-71600000D02*
X196355501Y-71255501D01*
X199300000Y-72400000D02*
X198500000Y-71600000D01*
X198500000Y-71600000D02*
X196700000Y-71600000D01*
X196355501Y-71255501D02*
X183000000Y-57900000D01*
X183000000Y-57900000D02*
X183000000Y-47000000D01*
X200600000Y-72400000D02*
X199300000Y-72400000D01*
X196255501Y-70155501D02*
X184600000Y-58500000D01*
X184600000Y-58500000D02*
X184600000Y-57100000D01*
X199000000Y-70600000D02*
X198555501Y-70155501D01*
X198555501Y-70155501D02*
X196255501Y-70155501D01*
X200582281Y-95034824D02*
X200697457Y-95150000D01*
X200697457Y-95150000D02*
X209550000Y-95150000D01*
X209550000Y-95150000D02*
X210000000Y-94700000D01*
X222960000Y-108960000D02*
X227000000Y-108960000D01*
X220540000Y-108960000D02*
X222960000Y-108960000D01*
X227000000Y-108960000D02*
X229000000Y-110960000D01*
X205000000Y-116800000D02*
X200400000Y-116800000D01*
X220540000Y-108960000D02*
X218922399Y-107342399D01*
X208500000Y-107900000D02*
X208500000Y-113300000D01*
X218922399Y-107342399D02*
X209057601Y-107342399D01*
X209057601Y-107342399D02*
X208500000Y-107900000D01*
X208500000Y-113300000D02*
X205000000Y-116800000D01*
X190300000Y-103100000D02*
X190300000Y-100200000D01*
X190300000Y-100200000D02*
X190200000Y-100100000D01*
X218000000Y-111500000D02*
X216778686Y-111500000D01*
X216778686Y-111500000D02*
X216600000Y-111321314D01*
X216600000Y-111321314D02*
X216600000Y-111000000D01*
X212204113Y-74004113D02*
X211208226Y-75000000D01*
X211208226Y-75000000D02*
X203300000Y-75000000D01*
X210228617Y-108500000D02*
X209600000Y-108500000D01*
X214100000Y-108500000D02*
X210228617Y-108500000D01*
X216600000Y-111000000D02*
X214100000Y-108500000D01*
X219117601Y-112617601D02*
X220540000Y-114040000D01*
X212600000Y-111300000D02*
X213917601Y-112617601D01*
X213917601Y-112617601D02*
X219117601Y-112617601D01*
X236000000Y-112200000D02*
X226300000Y-112200000D01*
X226300000Y-112200000D02*
X222007717Y-112200000D01*
X222007717Y-112200000D02*
X222100000Y-112292283D01*
X222100000Y-112292283D02*
X222100000Y-112300000D01*
X222100000Y-112300000D02*
X222007717Y-112300000D01*
X220540000Y-111500000D02*
X221761314Y-111500000D01*
X221761314Y-111500000D02*
X222007717Y-111746403D01*
X222007717Y-111746403D02*
X222007717Y-112300000D01*
X222007717Y-112300000D02*
X222007717Y-113200000D01*
X222007717Y-113200000D02*
X222007717Y-116337406D01*
X222007717Y-116337406D02*
X215237406Y-116337406D01*
X215237406Y-116337406D02*
X215000000Y-116100000D01*
D39*
X209717807Y-111487238D02*
X209273308Y-111042739D01*
X214330569Y-116100000D02*
X209717807Y-111487238D01*
X215000000Y-116100000D02*
X214330569Y-116100000D01*
D38*
X222748822Y-117577439D02*
X223377439Y-117577439D01*
X213179740Y-117627439D02*
X222698822Y-117627439D01*
X210216752Y-120590427D02*
X213179740Y-117627439D01*
X222698822Y-117627439D02*
X222748822Y-117577439D01*
X209000000Y-118600000D02*
X210378367Y-117221633D01*
X223448970Y-116101457D02*
X223893469Y-115656958D01*
X210378367Y-117221633D02*
X222328794Y-117221633D01*
X222328794Y-117221633D02*
X223448970Y-116101457D01*
X210054021Y-106051277D02*
X210498520Y-105606778D01*
X207251277Y-106051277D02*
X210054021Y-106051277D01*
X206200000Y-105000000D02*
X207251277Y-106051277D01*
X203000000Y-110000000D02*
X203540000Y-110000000D01*
X203540000Y-110000000D02*
X204540000Y-111000000D01*
X203000000Y-103500000D02*
X203000000Y-110000000D01*
X203000000Y-110000000D02*
X202000000Y-111000000D01*
X201700000Y-102200000D02*
X203000000Y-103500000D01*
X199200000Y-102200000D02*
X201700000Y-102200000D01*
X197900000Y-100900000D02*
X197900000Y-94400000D01*
X199200000Y-102200000D02*
X197900000Y-100900000D01*
X211971383Y-122400000D02*
X204600000Y-122400000D01*
X204600000Y-122400000D02*
X196300000Y-114100000D01*
X212800000Y-122200000D02*
X212171383Y-122200000D01*
X212171383Y-122200000D02*
X211971383Y-122400000D01*
X235300000Y-57733782D02*
X235300000Y-51428617D01*
X235300000Y-51428617D02*
X235300000Y-50800000D01*
X224633782Y-68400000D02*
X235300000Y-57733782D01*
X222400000Y-68400000D02*
X224633782Y-68400000D01*
G36*
X223115000Y-55358144D02*
X223085378Y-55387714D01*
X222920687Y-55784332D01*
X222920313Y-56213784D01*
X223084311Y-56610689D01*
X223373000Y-56899882D01*
X223373000Y-67373000D01*
X222741651Y-67373000D01*
X222615668Y-67320687D01*
X222186216Y-67320313D01*
X222058704Y-67373000D01*
X199127000Y-67373000D01*
X199127000Y-38627000D01*
X223115000Y-38627000D01*
X223115000Y-55358144D01*
X223115000Y-55358144D01*
G37*
X223115000Y-55358144D02*
X223085378Y-55387714D01*
X222920687Y-55784332D01*
X222920313Y-56213784D01*
X223084311Y-56610689D01*
X223373000Y-56899882D01*
X223373000Y-67373000D01*
X222741651Y-67373000D01*
X222615668Y-67320687D01*
X222186216Y-67320313D01*
X222058704Y-67373000D01*
X199127000Y-67373000D01*
X199127000Y-38627000D01*
X223115000Y-38627000D01*
X223115000Y-55358144D01*
M02*
