G04 #@! TF.FileFunction,Soldermask,Top*
%FSLAX46Y46*%
G04 Gerber Fmt 4.6, Leading zero omitted, Abs format (unit mm)*
G04 Created by KiCad (PCBNEW 4.0.4-stable) date 11/30/16 20:12:39*
%MOMM*%
%LPD*%
G01*
G04 APERTURE LIST*
%ADD10C,0.150000*%
%ADD11R,1.300000X1.300000*%
%ADD12C,1.300000*%
%ADD13R,1.250000X1.500000*%
%ADD14R,11.430000X12.954000*%
%ADD15R,5.080000X0.889000*%
%ADD16R,1.100000X0.400000*%
%ADD17R,1.500000X0.450000*%
%ADD18R,1.500000X1.250000*%
%ADD19R,1.500000X1.300000*%
%ADD20R,1.300000X1.500000*%
%ADD21R,1.400000X0.300000*%
%ADD22R,3.500120X3.500120*%
%ADD23C,1.524000*%
%ADD24R,1.198880X1.198880*%
%ADD25R,0.600000X1.200000*%
%ADD26R,1.200000X0.600000*%
%ADD27R,1.727200X1.727200*%
%ADD28O,1.727200X1.727200*%
%ADD29R,1.500000X0.600000*%
%ADD30R,1.750000X0.450000*%
%ADD31O,1.900000X1.000000*%
%ADD32R,1.900000X2.900000*%
%ADD33O,1.250000X1.050000*%
%ADD34R,1.350000X0.400000*%
%ADD35O,1.501140X2.499360*%
%ADD36R,1.501140X2.499360*%
%ADD37R,10.500000X12.500000*%
%ADD38C,5.080000*%
%ADD39R,0.400000X1.000000*%
%ADD40R,0.600000X0.400000*%
%ADD41R,1.550000X0.600000*%
%ADD42R,0.850000X0.850000*%
%ADD43C,0.850000*%
%ADD44R,2.032000X1.727200*%
%ADD45O,2.032000X1.727200*%
%ADD46C,1.998980*%
%ADD47C,3.100000*%
%ADD48C,1.500000*%
%ADD49C,1.400000*%
%ADD50C,4.500000*%
%ADD51C,3.330000*%
%ADD52R,1.500000X1.500000*%
%ADD53C,4.000000*%
%ADD54R,1.050000X1.050000*%
%ADD55C,1.050000*%
%ADD56R,1.400000X1.200000*%
%ADD57C,1.700000*%
%ADD58C,0.254000*%
G04 APERTURE END LIST*
D10*
D11*
X224090000Y-83230000D03*
D12*
X224090000Y-81230000D03*
D13*
X241200000Y-101850000D03*
X241200000Y-99350000D03*
D14*
X204414000Y-47000000D03*
D15*
X194000000Y-43190000D03*
X194000000Y-44460000D03*
X194000000Y-45730000D03*
X194000000Y-47000000D03*
X194000000Y-48270000D03*
X194000000Y-49540000D03*
X194000000Y-50810000D03*
D16*
X208782800Y-93311000D03*
X208782800Y-93961000D03*
X208782800Y-94611000D03*
X208782800Y-95261000D03*
X208782800Y-95911000D03*
X208782800Y-96561000D03*
X208782800Y-97211000D03*
X208782800Y-97861000D03*
X208782800Y-98511000D03*
X208782800Y-99161000D03*
X208782800Y-99811000D03*
X208782800Y-100461000D03*
X208782800Y-101111000D03*
X208782800Y-101761000D03*
X214482800Y-101761000D03*
X214482800Y-101111000D03*
X214482800Y-100461000D03*
X214482800Y-99811000D03*
X214482800Y-99161000D03*
X214482800Y-98511000D03*
X214482800Y-97861000D03*
X214482800Y-97211000D03*
X214482800Y-96561000D03*
X214482800Y-95911000D03*
X214482800Y-95261000D03*
X214482800Y-94611000D03*
X214482800Y-93961000D03*
X214482800Y-93311000D03*
D17*
X199050000Y-71725000D03*
X199050000Y-72375000D03*
X199050000Y-73025000D03*
X199050000Y-73675000D03*
X199050000Y-74325000D03*
X199050000Y-74975000D03*
X199050000Y-75625000D03*
X199050000Y-76275000D03*
X204950000Y-76275000D03*
X204950000Y-75625000D03*
X204950000Y-74975000D03*
X204950000Y-74325000D03*
X204950000Y-73675000D03*
X204950000Y-73025000D03*
X204950000Y-72375000D03*
X204950000Y-71725000D03*
D13*
X202050000Y-96300000D03*
X202050000Y-98800000D03*
D18*
X207100000Y-96600000D03*
X204600000Y-96600000D03*
X204850000Y-94300000D03*
X202350000Y-94300000D03*
D13*
X204800000Y-98950000D03*
X204800000Y-101450000D03*
D19*
X187350000Y-56000000D03*
X184650000Y-56000000D03*
D20*
X185000000Y-48650000D03*
X185000000Y-51350000D03*
X185000000Y-62650000D03*
X185000000Y-65350000D03*
D18*
X228950000Y-105500000D03*
X231450000Y-105500000D03*
D13*
X218300000Y-101350000D03*
X218300000Y-103850000D03*
D18*
X216450000Y-99500000D03*
X218950000Y-99500000D03*
D13*
X216400000Y-101350000D03*
X216400000Y-103850000D03*
D19*
X177750000Y-111100000D03*
X175050000Y-111100000D03*
X177750000Y-109100000D03*
X175050000Y-109100000D03*
D18*
X196700000Y-75500000D03*
X194200000Y-75500000D03*
D13*
X206800000Y-74050000D03*
X206800000Y-71550000D03*
D18*
X192150000Y-105200000D03*
X189650000Y-105200000D03*
D13*
X201210000Y-103178000D03*
X201210000Y-100678000D03*
D19*
X193850000Y-100100000D03*
X191150000Y-100100000D03*
X191250000Y-103100000D03*
X188550000Y-103100000D03*
D20*
X202800000Y-103350000D03*
X202800000Y-100650000D03*
D21*
X193168000Y-101944000D03*
X193168000Y-102444000D03*
X193168000Y-102944000D03*
X193168000Y-103444000D03*
X193168000Y-103944000D03*
X197568000Y-103944000D03*
X197568000Y-103444000D03*
X197568000Y-102944000D03*
X197568000Y-102444000D03*
X197568000Y-101944000D03*
D13*
X195800000Y-95750000D03*
X195800000Y-93250000D03*
D18*
X189250000Y-100100000D03*
X186750000Y-100100000D03*
D13*
X199300000Y-96650000D03*
X199300000Y-94150000D03*
D18*
X196650000Y-99900000D03*
X199150000Y-99900000D03*
D19*
X196550000Y-98200000D03*
X199250000Y-98200000D03*
D21*
X189800000Y-96300000D03*
X189800000Y-96800000D03*
X189800000Y-97300000D03*
X189800000Y-97800000D03*
X189800000Y-98300000D03*
X194200000Y-98300000D03*
X194200000Y-97800000D03*
X194200000Y-97300000D03*
X194200000Y-96800000D03*
X194200000Y-96300000D03*
D18*
X196750000Y-73800000D03*
X194250000Y-73800000D03*
X196750000Y-72000000D03*
X194250000Y-72000000D03*
D13*
X234000000Y-45250000D03*
X234000000Y-42750000D03*
X232000000Y-45250000D03*
X232000000Y-42750000D03*
X188000000Y-48750000D03*
X188000000Y-51250000D03*
X190000000Y-48750000D03*
X190000000Y-51250000D03*
D18*
X186750000Y-45000000D03*
X189250000Y-45000000D03*
X235250000Y-48000000D03*
X232750000Y-48000000D03*
D19*
X192850000Y-41300000D03*
X195550000Y-41300000D03*
X187250000Y-42900000D03*
X189950000Y-42900000D03*
X195350000Y-53000000D03*
X192650000Y-53000000D03*
X192650000Y-55000000D03*
X195350000Y-55000000D03*
D22*
X173700140Y-50000000D03*
X167700660Y-50000000D03*
X170700400Y-54699000D03*
D23*
X204000000Y-83730000D03*
X201460000Y-83730000D03*
X196380000Y-83730000D03*
X193840000Y-83730000D03*
X191300000Y-83730000D03*
X169440000Y-110280000D03*
X169440000Y-112820000D03*
X171980000Y-110280000D03*
X171980000Y-112820000D03*
D18*
X217730000Y-81320000D03*
X220230000Y-81320000D03*
X212750000Y-129700000D03*
X215250000Y-129700000D03*
X212050000Y-117100000D03*
X209550000Y-117100000D03*
X210850000Y-129700000D03*
X208350000Y-129700000D03*
X203350000Y-121900000D03*
X200850000Y-121900000D03*
D13*
X174300000Y-122550000D03*
X174300000Y-125050000D03*
D24*
X181450980Y-118000000D03*
X183549020Y-118000000D03*
X181450980Y-116250000D03*
X183549020Y-116250000D03*
D25*
X209400000Y-127950000D03*
X210200000Y-127950000D03*
X211000000Y-127950000D03*
X211800000Y-127950000D03*
X212600000Y-127950000D03*
X213400000Y-127950000D03*
X214200000Y-127950000D03*
X215000000Y-127950000D03*
D26*
X216450000Y-126500000D03*
X216450000Y-125700000D03*
X216450000Y-124900000D03*
X216450000Y-124100000D03*
X216450000Y-123300000D03*
X216450000Y-122500000D03*
X216450000Y-121700000D03*
X216450000Y-120900000D03*
D25*
X215000000Y-119450000D03*
X214200000Y-119450000D03*
X213400000Y-119450000D03*
X212600000Y-119450000D03*
X211800000Y-119450000D03*
X211000000Y-119450000D03*
X210200000Y-119450000D03*
X209400000Y-119450000D03*
D26*
X207950000Y-120900000D03*
X207950000Y-121700000D03*
X207950000Y-122500000D03*
X207950000Y-123300000D03*
X207950000Y-124100000D03*
X207950000Y-124900000D03*
X207950000Y-125700000D03*
X207950000Y-126500000D03*
D27*
X220540000Y-114040000D03*
D28*
X218000000Y-114040000D03*
X220540000Y-111500000D03*
X218000000Y-111500000D03*
X220540000Y-108960000D03*
X218000000Y-108960000D03*
D19*
X200650000Y-119700000D03*
X203350000Y-119700000D03*
X179100000Y-118000000D03*
X176400000Y-118000000D03*
X179150000Y-116100000D03*
X176450000Y-116100000D03*
X203550000Y-124200000D03*
X200850000Y-124200000D03*
X200650000Y-126300000D03*
X203350000Y-126300000D03*
D29*
X188100000Y-120410000D03*
X188100000Y-121680000D03*
X188100000Y-122950000D03*
X188100000Y-124220000D03*
X188100000Y-125490000D03*
X188100000Y-126760000D03*
X188100000Y-128030000D03*
X188100000Y-129300000D03*
X197400000Y-129300000D03*
X197400000Y-128030000D03*
X197400000Y-126760000D03*
X197400000Y-125490000D03*
X197400000Y-124220000D03*
X197400000Y-122950000D03*
X197400000Y-121680000D03*
X197400000Y-120410000D03*
D30*
X183900000Y-129125000D03*
X183900000Y-128475000D03*
X183900000Y-127825000D03*
X183900000Y-127175000D03*
X183900000Y-126525000D03*
X183900000Y-125875000D03*
X183900000Y-125225000D03*
X183900000Y-124575000D03*
X183900000Y-123925000D03*
X183900000Y-123275000D03*
X183900000Y-122625000D03*
X183900000Y-121975000D03*
X183900000Y-121325000D03*
X183900000Y-120675000D03*
X176700000Y-120675000D03*
X176700000Y-121325000D03*
X176700000Y-121975000D03*
X176700000Y-122625000D03*
X176700000Y-123275000D03*
X176700000Y-123925000D03*
X176700000Y-124575000D03*
X176700000Y-125225000D03*
X176700000Y-125875000D03*
X176700000Y-126525000D03*
X176700000Y-127175000D03*
X176700000Y-127825000D03*
X176700000Y-128475000D03*
X176700000Y-129125000D03*
D18*
X208900000Y-91400000D03*
X211400000Y-91400000D03*
D13*
X207200000Y-91500000D03*
X207200000Y-94000000D03*
D19*
X203900000Y-90700000D03*
X201200000Y-90700000D03*
X203900000Y-92500000D03*
X201200000Y-92500000D03*
D13*
X228200000Y-126350000D03*
X228200000Y-128850000D03*
X219500000Y-126350000D03*
X219500000Y-128850000D03*
D31*
X166450000Y-115825000D03*
X166450000Y-124175000D03*
D32*
X166450000Y-120000000D03*
D33*
X169450000Y-117775000D03*
X169450000Y-122225000D03*
D34*
X169125000Y-121300000D03*
X169125000Y-120650000D03*
X169125000Y-120000000D03*
X169125000Y-119350000D03*
X169125000Y-118700000D03*
D35*
X232800000Y-83000000D03*
D36*
X235340000Y-83000000D03*
D35*
X230260000Y-83000000D03*
D37*
X232800000Y-96964000D03*
D38*
X232800000Y-99750000D03*
D23*
X164880000Y-100960000D03*
X164880000Y-106040000D03*
X172500000Y-106040000D03*
X172500000Y-103500000D03*
X172500000Y-100960000D03*
D39*
X208075000Y-109900000D03*
X208725000Y-109900000D03*
X209375000Y-109900000D03*
X210025000Y-109900000D03*
X210675000Y-109900000D03*
X211325000Y-109900000D03*
X211975000Y-109900000D03*
X212625000Y-109900000D03*
X213275000Y-109900000D03*
X213925000Y-109900000D03*
X213925000Y-104100000D03*
X213275000Y-104100000D03*
X212625000Y-104100000D03*
X211975000Y-104100000D03*
X211325000Y-104100000D03*
X210675000Y-104100000D03*
X210025000Y-104100000D03*
X209375000Y-104100000D03*
X208725000Y-104100000D03*
X208075000Y-104100000D03*
D40*
X208750000Y-106550000D03*
X208750000Y-107450000D03*
X209800000Y-106550000D03*
X209800000Y-107450000D03*
X213750000Y-106550000D03*
X213750000Y-107450000D03*
X211750000Y-106550000D03*
X211750000Y-107450000D03*
X212750000Y-106550000D03*
X212750000Y-107450000D03*
X210750000Y-106550000D03*
X210750000Y-107450000D03*
D13*
X188000000Y-62750000D03*
X188000000Y-65250000D03*
X190000000Y-62750000D03*
X190000000Y-65250000D03*
D18*
X186750000Y-59000000D03*
X189250000Y-59000000D03*
D13*
X234000000Y-59250000D03*
X234000000Y-56750000D03*
X232000000Y-59250000D03*
X232000000Y-56750000D03*
D18*
X235250000Y-62000000D03*
X232750000Y-62000000D03*
D19*
X229350000Y-53000000D03*
X226650000Y-53000000D03*
X226650000Y-55000000D03*
X229350000Y-55000000D03*
X231650000Y-69000000D03*
X228950000Y-69000000D03*
X229350000Y-67000000D03*
X226650000Y-67000000D03*
X232650000Y-54500000D03*
X235350000Y-54500000D03*
X232350000Y-65200000D03*
X235050000Y-65200000D03*
X232650000Y-50000000D03*
X235350000Y-50000000D03*
X232400000Y-63600000D03*
X235100000Y-63600000D03*
D14*
X217586000Y-61000000D03*
D15*
X228000000Y-64810000D03*
X228000000Y-63540000D03*
X228000000Y-62270000D03*
X228000000Y-61000000D03*
X228000000Y-59730000D03*
X228000000Y-58460000D03*
X228000000Y-57190000D03*
D14*
X204414000Y-61000000D03*
D15*
X194000000Y-57190000D03*
X194000000Y-58460000D03*
X194000000Y-59730000D03*
X194000000Y-61000000D03*
X194000000Y-62270000D03*
X194000000Y-63540000D03*
X194000000Y-64810000D03*
D14*
X217586000Y-47000000D03*
D15*
X228000000Y-50810000D03*
X228000000Y-49540000D03*
X228000000Y-48270000D03*
X228000000Y-47000000D03*
X228000000Y-45730000D03*
X228000000Y-44460000D03*
X228000000Y-43190000D03*
D20*
X184300000Y-43050000D03*
X184300000Y-45750000D03*
D13*
X209100000Y-75100000D03*
X209100000Y-77600000D03*
X219000000Y-75250000D03*
X219000000Y-77750000D03*
X212100000Y-80450000D03*
X212100000Y-82950000D03*
X213900000Y-78900000D03*
X213900000Y-81400000D03*
D17*
X216950000Y-77275000D03*
X216950000Y-76625000D03*
X216950000Y-75975000D03*
X216950000Y-75325000D03*
X216950000Y-74675000D03*
X216950000Y-74025000D03*
X216950000Y-73375000D03*
X216950000Y-72725000D03*
X211050000Y-72725000D03*
X211050000Y-73375000D03*
X211050000Y-74025000D03*
X211050000Y-74675000D03*
X211050000Y-75325000D03*
X211050000Y-75975000D03*
X211050000Y-76625000D03*
X211050000Y-77275000D03*
D13*
X180600000Y-74950000D03*
X180600000Y-72450000D03*
D18*
X186550000Y-68200000D03*
X189050000Y-68200000D03*
X185650000Y-78300000D03*
X183150000Y-78300000D03*
X230100000Y-71500000D03*
X232600000Y-71500000D03*
X221700000Y-69100000D03*
X224200000Y-69100000D03*
D13*
X226700000Y-71450000D03*
X226700000Y-68950000D03*
D19*
X193950000Y-77400000D03*
X196650000Y-77400000D03*
X180550000Y-70400000D03*
X183250000Y-70400000D03*
D20*
X183100000Y-75150000D03*
X183100000Y-72450000D03*
D19*
X186550000Y-70100000D03*
X189250000Y-70100000D03*
D20*
X219600000Y-72000000D03*
X219600000Y-69300000D03*
D19*
X230050000Y-75600000D03*
X232750000Y-75600000D03*
X230000000Y-73400000D03*
X232700000Y-73400000D03*
X221650000Y-70900000D03*
X224350000Y-70900000D03*
D41*
X191300000Y-76305000D03*
X191300000Y-75035000D03*
X191300000Y-73765000D03*
X191300000Y-72495000D03*
X185900000Y-72495000D03*
X185900000Y-73765000D03*
X185900000Y-75035000D03*
X185900000Y-76305000D03*
X222300000Y-73095000D03*
X222300000Y-74365000D03*
X222300000Y-75635000D03*
X222300000Y-76905000D03*
X227700000Y-76905000D03*
X227700000Y-75635000D03*
X227700000Y-74365000D03*
X227700000Y-73095000D03*
D42*
X240400000Y-108900000D03*
D43*
X240400000Y-107650000D03*
X240400000Y-106400000D03*
X240400000Y-105150000D03*
D18*
X190550000Y-54100000D03*
X188050000Y-54100000D03*
X189800000Y-41200000D03*
X187300000Y-41200000D03*
X231150000Y-67300000D03*
X233650000Y-67300000D03*
X231400000Y-52400000D03*
X233900000Y-52400000D03*
D24*
X234349020Y-110800000D03*
X232250980Y-110800000D03*
X234349020Y-108300000D03*
X232250980Y-108300000D03*
D19*
X234550000Y-105500000D03*
X237250000Y-105500000D03*
D20*
X237200000Y-110750000D03*
X237200000Y-108050000D03*
D44*
X229000000Y-113500000D03*
D45*
X229000000Y-110960000D03*
X229000000Y-108420000D03*
D46*
X181000000Y-105499360D03*
X181000000Y-100498100D03*
X189000000Y-92499360D03*
X189000000Y-87498100D03*
X184000000Y-100500640D03*
X184000000Y-105501900D03*
X192000000Y-92499360D03*
X192000000Y-87498100D03*
X185500000Y-90500640D03*
X185500000Y-95501900D03*
X181500000Y-90500640D03*
X181500000Y-95501900D03*
D47*
X167680000Y-67340000D03*
D48*
X175000000Y-69500000D03*
X172000000Y-69500000D03*
X172000000Y-66500000D03*
X175000000Y-66500000D03*
X175000000Y-63500000D03*
X172000000Y-63500000D03*
X175000000Y-60500000D03*
X172000000Y-60500000D03*
D47*
X167680000Y-62660000D03*
D49*
X195500000Y-111000000D03*
X198040000Y-111000000D03*
X195500000Y-107500000D03*
X198040000Y-107500000D03*
X202000000Y-107500000D03*
X204540000Y-107500000D03*
X202000000Y-111000000D03*
X204540000Y-111000000D03*
D50*
X168570000Y-129450000D03*
X168570000Y-40550000D03*
D51*
X167600000Y-89480000D03*
X167600000Y-76780000D03*
D52*
X170140000Y-86710000D03*
D48*
X171920000Y-85690000D03*
X170140000Y-84670000D03*
X171920000Y-83650000D03*
X170140000Y-82630000D03*
X171920000Y-81610000D03*
X170140000Y-80590000D03*
X171920000Y-79570000D03*
D53*
X242240000Y-129450000D03*
X242240000Y-40550000D03*
D29*
X232850000Y-113855000D03*
X232850000Y-115125000D03*
X232850000Y-116395000D03*
X232850000Y-117665000D03*
X232850000Y-118935000D03*
X232850000Y-120205000D03*
X232850000Y-121475000D03*
X232850000Y-122745000D03*
X242150000Y-122745000D03*
X242150000Y-121475000D03*
X242150000Y-120205000D03*
X242150000Y-118935000D03*
X242150000Y-117665000D03*
X242150000Y-116395000D03*
X242150000Y-115125000D03*
X242150000Y-113855000D03*
D54*
X219400000Y-95700000D03*
D55*
X219400000Y-94430000D03*
X219400000Y-93160000D03*
X219400000Y-91890000D03*
X218130000Y-94430000D03*
X218130000Y-93160000D03*
X218130000Y-91890000D03*
X218130000Y-95700000D03*
D18*
X241850000Y-111800000D03*
X239350000Y-111800000D03*
D11*
X237550000Y-78450000D03*
D12*
X235550000Y-78450000D03*
D11*
X196700000Y-89600000D03*
D12*
X196700000Y-87600000D03*
D56*
X222800000Y-128400000D03*
X225000000Y-128400000D03*
X222800000Y-126800000D03*
X225000000Y-126800000D03*
D20*
X240500000Y-82900000D03*
X240500000Y-85600000D03*
X240500000Y-88900000D03*
X240500000Y-91600000D03*
D46*
X236749360Y-125500000D03*
X231748100Y-125500000D03*
D57*
X165100000Y-95000000D03*
X170180000Y-95000000D03*
X172720000Y-95000000D03*
X175260000Y-95000000D03*
D58*
G36*
X223373000Y-67373000D02*
X199127000Y-67373000D01*
X199127000Y-38627000D01*
X223373000Y-38627000D01*
X223373000Y-67373000D01*
X223373000Y-67373000D01*
G37*
X223373000Y-67373000D02*
X199127000Y-67373000D01*
X199127000Y-38627000D01*
X223373000Y-38627000D01*
X223373000Y-67373000D01*
M02*
