M48
;DRILL file {KiCad 4.0.4-stable} date 11/30/16 20:12:48
;FORMAT={-:-/ absolute / metric / decimal}
FMAT,2
METRIC,TZ
T1C0.500
T2C0.600
T3C0.635
T4C0.650
T5C0.762
T6C0.800
T7C0.813
T8C0.900
T9C0.970
T10C1.001
T11C1.016
T12C1.100
T13C2.800
T14C3.800
%
G90
G05
M71
T1
X240.4Y-105.15
X240.4Y-106.4
X240.4Y-107.65
X240.4Y-108.9
T3
X170.663Y-121.631
X173.3Y-124.9
X175.5Y-115.4
X175.6Y-118.7
X178.518Y-122.607
X178.6Y-127.5
X178.8Y-124.1
X182.Y-77.4
X182.2Y-127.2
X182.4Y-125.2
X183.Y-47.
X184.3Y-70.3
X184.6Y-57.1
X184.9Y-76.8
X186.Y-45.7
X186.Y-127.9
X186.5Y-58.2
X186.5Y-120.5
X186.7Y-99.
X187.Y-121.7
X187.1Y-48.9
X187.7Y-103.8
X188.2Y-42.9
X188.6Y-105.9
X188.9Y-66.2
X189.Y-52.3
X189.1Y-61.4
X190.2Y-100.1
X190.3Y-103.1
X190.9Y-46.9
X191.3Y-61.
X191.3Y-97.1
X191.5Y-71.8
X192.8Y-105.9
X193.5Y-71.3
X194.45Y-98.675
X194.8Y-93.2
X195.Y-103.5
X195.8Y-75.2
X196.3Y-114.1
X196.4Y-52.4
X197.Y-55.
X197.4Y-119.6
X197.4Y-130.1
X197.6Y-77.4
X197.9Y-94.4
X198.7Y-93.2
X198.9Y-121.9
X199.Y-70.6
X199.2Y-102.2
X199.454Y-104.381
X199.8Y-118.9
X200.194Y-103.198
X200.4Y-74.5
X200.4Y-116.8
X200.582Y-95.035
X200.6Y-72.4
X201.25Y-96.4
X201.35Y-97.95
X202.5Y-42.5
X202.5Y-45.
X202.5Y-47.5
X202.5Y-50.
X202.5Y-57.5
X202.5Y-60.
X202.5Y-62.5
X202.5Y-65.
X203.3Y-73.8
X203.3Y-75.
X204.6Y-100.6
X205.Y-42.5
X205.Y-45.
X205.Y-47.5
X205.Y-50.
X205.Y-57.5
X205.Y-60.
X205.Y-62.5
X205.Y-65.
X205.531Y-96.769
X206.2Y-105.
X206.7Y-70.7
X207.4Y-129.1
X207.444Y-104.356
X207.5Y-42.5
X207.5Y-45.
X207.5Y-47.5
X207.5Y-50.
X207.5Y-57.5
X207.5Y-60.
X207.5Y-62.5
X207.5Y-65.
X207.5Y-73.2
X207.7Y-108.9
X207.8Y-111.2
X208.2Y-105.3
X208.5Y-116.6
X209.Y-118.6
X209.2Y-74.1
X209.273Y-111.043
X209.4Y-78.231
X209.6Y-108.5
X210.Y-94.7
X210.217Y-120.59
X210.363Y-96.901
X210.499Y-105.607
X210.8Y-77.7
X211.Y-126.7
X211.5Y-111.7
X211.8Y-120.9
X211.864Y-130.201
X212.Y-105.4
X212.204Y-74.004
X212.372Y-75.102
X212.6Y-111.3
X212.6Y-126.6
X212.8Y-122.2
X212.9Y-82.8
X213.36Y-99.822
X214.2Y-105.2
X214.45Y-102.25
X214.5Y-110.9
X214.5Y-121.1
X215.Y-42.5
X215.Y-45.
X215.Y-47.5
X215.Y-50.
X215.Y-57.5
X215.Y-60.
X215.Y-62.5
X215.Y-65.
X215.Y-116.1
X215.5Y-74.5
X215.5Y-104.1
X216.3Y-129.7
X216.94Y-80.69
X217.Y-82.03
X217.5Y-42.5
X217.5Y-45.
X217.5Y-47.5
X217.5Y-50.
X217.5Y-57.5
X217.5Y-60.
X217.5Y-62.5
X217.5Y-65.
X218.46Y-80.58
X218.6Y-74.3
X218.8Y-68.5
X219.2Y-76.9
X219.4Y-101.5
X219.41Y-82.07
X219.5Y-103.7
X219.8Y-98.7
X220.Y-42.5
X220.Y-45.
X220.Y-47.5
X220.Y-50.
X220.Y-57.5
X220.Y-60.
X220.Y-62.5
X220.Y-65.
X220.014Y-125.599
X220.98Y-82.
X221.03Y-80.63
X222.008Y-116.337
X222.4Y-68.4
X222.75Y-108.25
X223.377Y-117.577
X223.459Y-77.512
X223.893Y-115.657
X224.Y-56.
X225.9Y-68.8
X227.5Y-55.7
X227.5Y-104.25
X227.579Y-71.45
X228.Y-129.612
X230.9Y-47.
X231.Y-61.
X231.6Y-110.3
X232.Y-76.3
X232.3Y-104.8
X232.5Y-69.
X233.Y-42.7
X233.4Y-58.5
X233.496Y-56.287
X234.1Y-121.5
X234.3Y-113.8
X234.3Y-115.2
X234.9Y-45.3
X235.2Y-107.6
X235.3Y-50.8
X236.Y-112.2
X236.2Y-61.3
X236.3Y-47.8
X238.Y-104.9
X240.Y-113.2
X240.2Y-110.8
X241.Y-112.2
X241.Y-115.1
X241.25Y-92.25
X241.6Y-110.8
X242.Y-100.1
X242.Y-102.6
X243.3Y-122.1
T4
X218.13Y-91.89
X218.13Y-93.16
X218.13Y-94.43
X218.13Y-95.7
X219.4Y-91.89
X219.4Y-93.16
X219.4Y-94.43
X219.4Y-95.7
T5
X169.44Y-110.28
X169.44Y-112.82
X171.98Y-110.28
X171.98Y-112.82
X191.3Y-83.73
X193.84Y-83.73
X196.38Y-83.73
X201.46Y-83.73
X204.Y-83.73
T6
X196.7Y-87.6
X196.7Y-89.6
X224.09Y-81.23
X224.09Y-83.23
X235.55Y-78.45
X237.55Y-78.45
T7
X195.5Y-107.5
X195.5Y-111.
X198.04Y-107.5
X198.04Y-111.
X202.Y-107.5
X202.Y-111.
X204.54Y-107.5
X204.54Y-111.
T8
X164.88Y-100.96
X164.88Y-106.04
X172.5Y-100.96
X172.5Y-103.5
X172.5Y-106.04
T9
X170.14Y-80.59
X170.14Y-82.63
X170.14Y-84.67
X170.14Y-86.71
X171.92Y-79.57
X171.92Y-81.61
X171.92Y-83.65
X171.92Y-85.69
T10
X181.Y-100.498
X181.Y-105.499
X181.5Y-90.501
X181.5Y-95.502
X184.Y-100.501
X184.Y-105.502
X185.5Y-90.501
X185.5Y-95.502
X189.Y-87.498
X189.Y-92.499
X192.Y-87.498
X192.Y-92.499
X230.26Y-83.
X231.748Y-125.5
X232.8Y-83.
X235.34Y-83.
X236.749Y-125.5
T11
X218.Y-108.96
X218.Y-111.5
X218.Y-114.04
X220.54Y-108.96
X220.54Y-111.5
X220.54Y-114.04
X229.Y-108.42
X229.Y-110.96
X229.Y-113.5
T12
X165.1Y-95.
X170.18Y-95.
X172.Y-60.5
X172.Y-63.5
X172.Y-66.5
X172.Y-69.5
X172.72Y-95.
X175.Y-60.5
X175.Y-63.5
X175.Y-66.5
X175.Y-69.5
X175.26Y-95.
T13
X168.57Y-40.55
X168.57Y-129.45
X242.24Y-40.55
X242.24Y-129.45
T14
X232.8Y-99.75
T2
X166.8Y-115.825G85X166.1Y-115.825
G05
X166.8Y-124.175G85X166.1Y-124.175
G05
T4
X169.55Y-117.775G85X169.35Y-117.775
G05
X169.55Y-122.225G85X169.35Y-122.225
G05
T10
X167.701Y-49.001G85X167.701Y-50.999
G05
X169.701Y-54.699G85X171.7Y-54.699
G05
X173.7Y-49.001G85X173.7Y-50.999
G05
T0
M30
