G04 #@! TF.GenerationSoftware,KiCad,Pcbnew,(5.1.9)-1*
G04 #@! TF.CreationDate,2021-04-12T12:06:51+01:00*
G04 #@! TF.ProjectId,TempCtrl,54656d70-4374-4726-9c2e-6b696361645f,v4.3D*
G04 #@! TF.SameCoordinates,Original*
G04 #@! TF.FileFunction,Paste,Top*
G04 #@! TF.FilePolarity,Positive*
%FSLAX46Y46*%
G04 Gerber Fmt 4.6, Leading zero omitted, Abs format (unit mm)*
G04 Created by KiCad (PCBNEW (5.1.9)-1) date 2021-04-12 12:06:51*
%MOMM*%
%LPD*%
G01*
G04 APERTURE LIST*
%ADD10R,5.080000X0.889000*%
%ADD11R,8.890000X10.668000*%
%ADD12R,1.100000X0.400000*%
%ADD13R,1.500000X0.450000*%
%ADD14R,1.400000X0.300000*%
%ADD15R,1.198880X1.198880*%
%ADD16R,0.600000X1.200000*%
%ADD17R,1.200000X0.600000*%
%ADD18R,1.500000X0.600000*%
%ADD19R,1.750000X0.450000*%
%ADD20R,1.350000X0.400000*%
%ADD21R,10.500000X12.500000*%
%ADD22R,0.400000X1.000000*%
%ADD23R,1.550000X0.600000*%
%ADD24R,1.400000X1.200000*%
%ADD25R,1.450000X0.450000*%
G04 APERTURE END LIST*
D10*
X194000000Y-43190000D03*
X194000000Y-44460000D03*
X194000000Y-45730000D03*
X194000000Y-47000000D03*
X194000000Y-48270000D03*
X194000000Y-49540000D03*
X194000000Y-50810000D03*
D11*
X203144000Y-47000000D03*
D10*
X194000000Y-57190000D03*
X194000000Y-58460000D03*
X194000000Y-59730000D03*
X194000000Y-61000000D03*
X194000000Y-62270000D03*
X194000000Y-63540000D03*
X194000000Y-64810000D03*
D11*
X203144000Y-61000000D03*
D10*
X228000000Y-64810000D03*
X228000000Y-63540000D03*
X228000000Y-62270000D03*
X228000000Y-61000000D03*
X228000000Y-59730000D03*
X228000000Y-58460000D03*
X228000000Y-57190000D03*
D11*
X218856000Y-61000000D03*
D10*
X228000000Y-50810000D03*
X228000000Y-49540000D03*
X228000000Y-48270000D03*
X228000000Y-47000000D03*
X228000000Y-45730000D03*
X228000000Y-44460000D03*
X228000000Y-43190000D03*
D11*
X218856000Y-47000000D03*
G36*
G01*
X202570500Y-126434001D02*
X202570500Y-125533999D01*
G75*
G02*
X202820499Y-125284000I249999J0D01*
G01*
X203470501Y-125284000D01*
G75*
G02*
X203720500Y-125533999I0J-249999D01*
G01*
X203720500Y-126434001D01*
G75*
G02*
X203470501Y-126684000I-249999J0D01*
G01*
X202820499Y-126684000D01*
G75*
G02*
X202570500Y-126434001I0J249999D01*
G01*
G37*
G36*
G01*
X200520500Y-126434001D02*
X200520500Y-125533999D01*
G75*
G02*
X200770499Y-125284000I249999J0D01*
G01*
X201420501Y-125284000D01*
G75*
G02*
X201670500Y-125533999I0J-249999D01*
G01*
X201670500Y-126434001D01*
G75*
G02*
X201420501Y-126684000I-249999J0D01*
G01*
X200770499Y-126684000D01*
G75*
G02*
X200520500Y-126434001I0J249999D01*
G01*
G37*
G36*
G01*
X201750000Y-123501999D02*
X201750000Y-124402001D01*
G75*
G02*
X201500001Y-124652000I-249999J0D01*
G01*
X200849999Y-124652000D01*
G75*
G02*
X200600000Y-124402001I0J249999D01*
G01*
X200600000Y-123501999D01*
G75*
G02*
X200849999Y-123252000I249999J0D01*
G01*
X201500001Y-123252000D01*
G75*
G02*
X201750000Y-123501999I0J-249999D01*
G01*
G37*
G36*
G01*
X203800000Y-123501999D02*
X203800000Y-124402001D01*
G75*
G02*
X203550001Y-124652000I-249999J0D01*
G01*
X202899999Y-124652000D01*
G75*
G02*
X202650000Y-124402001I0J249999D01*
G01*
X202650000Y-123501999D01*
G75*
G02*
X202899999Y-123252000I249999J0D01*
G01*
X203550001Y-123252000D01*
G75*
G02*
X203800000Y-123501999I0J-249999D01*
G01*
G37*
G36*
G01*
X198350000Y-98350001D02*
X198350000Y-97449999D01*
G75*
G02*
X198599999Y-97200000I249999J0D01*
G01*
X199250001Y-97200000D01*
G75*
G02*
X199500000Y-97449999I0J-249999D01*
G01*
X199500000Y-98350001D01*
G75*
G02*
X199250001Y-98600000I-249999J0D01*
G01*
X198599999Y-98600000D01*
G75*
G02*
X198350000Y-98350001I0J249999D01*
G01*
G37*
G36*
G01*
X196300000Y-98350001D02*
X196300000Y-97449999D01*
G75*
G02*
X196549999Y-97200000I249999J0D01*
G01*
X197200001Y-97200000D01*
G75*
G02*
X197450000Y-97449999I0J-249999D01*
G01*
X197450000Y-98350001D01*
G75*
G02*
X197200001Y-98600000I-249999J0D01*
G01*
X196549999Y-98600000D01*
G75*
G02*
X196300000Y-98350001I0J249999D01*
G01*
G37*
G36*
G01*
X203750001Y-102050000D02*
X202849999Y-102050000D01*
G75*
G02*
X202600000Y-101800001I0J249999D01*
G01*
X202600000Y-101149999D01*
G75*
G02*
X202849999Y-100900000I249999J0D01*
G01*
X203750001Y-100900000D01*
G75*
G02*
X204000000Y-101149999I0J-249999D01*
G01*
X204000000Y-101800001D01*
G75*
G02*
X203750001Y-102050000I-249999J0D01*
G01*
G37*
G36*
G01*
X203750001Y-104100000D02*
X202849999Y-104100000D01*
G75*
G02*
X202600000Y-103850001I0J249999D01*
G01*
X202600000Y-103199999D01*
G75*
G02*
X202849999Y-102950000I249999J0D01*
G01*
X203750001Y-102950000D01*
G75*
G02*
X204000000Y-103199999I0J-249999D01*
G01*
X204000000Y-103850001D01*
G75*
G02*
X203750001Y-104100000I-249999J0D01*
G01*
G37*
G36*
G01*
X233876000Y-65855001D02*
X233876000Y-64954999D01*
G75*
G02*
X234125999Y-64705000I249999J0D01*
G01*
X234776001Y-64705000D01*
G75*
G02*
X235026000Y-64954999I0J-249999D01*
G01*
X235026000Y-65855001D01*
G75*
G02*
X234776001Y-66105000I-249999J0D01*
G01*
X234125999Y-66105000D01*
G75*
G02*
X233876000Y-65855001I0J249999D01*
G01*
G37*
G36*
G01*
X231826000Y-65855001D02*
X231826000Y-64954999D01*
G75*
G02*
X232075999Y-64705000I249999J0D01*
G01*
X232726001Y-64705000D01*
G75*
G02*
X232976000Y-64954999I0J-249999D01*
G01*
X232976000Y-65855001D01*
G75*
G02*
X232726001Y-66105000I-249999J0D01*
G01*
X232075999Y-66105000D01*
G75*
G02*
X231826000Y-65855001I0J249999D01*
G01*
G37*
G36*
G01*
X234450000Y-54950001D02*
X234450000Y-54049999D01*
G75*
G02*
X234699999Y-53800000I249999J0D01*
G01*
X235350001Y-53800000D01*
G75*
G02*
X235600000Y-54049999I0J-249999D01*
G01*
X235600000Y-54950001D01*
G75*
G02*
X235350001Y-55200000I-249999J0D01*
G01*
X234699999Y-55200000D01*
G75*
G02*
X234450000Y-54950001I0J249999D01*
G01*
G37*
G36*
G01*
X232400000Y-54950001D02*
X232400000Y-54049999D01*
G75*
G02*
X232649999Y-53800000I249999J0D01*
G01*
X233300001Y-53800000D01*
G75*
G02*
X233550000Y-54049999I0J-249999D01*
G01*
X233550000Y-54950001D01*
G75*
G02*
X233300001Y-55200000I-249999J0D01*
G01*
X232649999Y-55200000D01*
G75*
G02*
X232400000Y-54950001I0J249999D01*
G01*
G37*
G36*
G01*
X234200000Y-63823001D02*
X234200000Y-62922999D01*
G75*
G02*
X234449999Y-62673000I249999J0D01*
G01*
X235100001Y-62673000D01*
G75*
G02*
X235350000Y-62922999I0J-249999D01*
G01*
X235350000Y-63823001D01*
G75*
G02*
X235100001Y-64073000I-249999J0D01*
G01*
X234449999Y-64073000D01*
G75*
G02*
X234200000Y-63823001I0J249999D01*
G01*
G37*
G36*
G01*
X232150000Y-63823001D02*
X232150000Y-62922999D01*
G75*
G02*
X232399999Y-62673000I249999J0D01*
G01*
X233050001Y-62673000D01*
G75*
G02*
X233300000Y-62922999I0J-249999D01*
G01*
X233300000Y-63823001D01*
G75*
G02*
X233050001Y-64073000I-249999J0D01*
G01*
X232399999Y-64073000D01*
G75*
G02*
X232150000Y-63823001I0J249999D01*
G01*
G37*
G36*
G01*
X231723000Y-76812001D02*
X231723000Y-75911999D01*
G75*
G02*
X231972999Y-75662000I249999J0D01*
G01*
X232623001Y-75662000D01*
G75*
G02*
X232873000Y-75911999I0J-249999D01*
G01*
X232873000Y-76812001D01*
G75*
G02*
X232623001Y-77062000I-249999J0D01*
G01*
X231972999Y-77062000D01*
G75*
G02*
X231723000Y-76812001I0J249999D01*
G01*
G37*
G36*
G01*
X229673000Y-76812001D02*
X229673000Y-75911999D01*
G75*
G02*
X229922999Y-75662000I249999J0D01*
G01*
X230573001Y-75662000D01*
G75*
G02*
X230823000Y-75911999I0J-249999D01*
G01*
X230823000Y-76812001D01*
G75*
G02*
X230573001Y-77062000I-249999J0D01*
G01*
X229922999Y-77062000D01*
G75*
G02*
X229673000Y-76812001I0J249999D01*
G01*
G37*
G36*
G01*
X231673000Y-74612001D02*
X231673000Y-73711999D01*
G75*
G02*
X231922999Y-73462000I249999J0D01*
G01*
X232573001Y-73462000D01*
G75*
G02*
X232823000Y-73711999I0J-249999D01*
G01*
X232823000Y-74612001D01*
G75*
G02*
X232573001Y-74862000I-249999J0D01*
G01*
X231922999Y-74862000D01*
G75*
G02*
X231673000Y-74612001I0J249999D01*
G01*
G37*
G36*
G01*
X229623000Y-74612001D02*
X229623000Y-73711999D01*
G75*
G02*
X229872999Y-73462000I249999J0D01*
G01*
X230523001Y-73462000D01*
G75*
G02*
X230773000Y-73711999I0J-249999D01*
G01*
X230773000Y-74612001D01*
G75*
G02*
X230523001Y-74862000I-249999J0D01*
G01*
X229872999Y-74862000D01*
G75*
G02*
X229623000Y-74612001I0J249999D01*
G01*
G37*
G36*
G01*
X234450000Y-50450001D02*
X234450000Y-49549999D01*
G75*
G02*
X234699999Y-49300000I249999J0D01*
G01*
X235350001Y-49300000D01*
G75*
G02*
X235600000Y-49549999I0J-249999D01*
G01*
X235600000Y-50450001D01*
G75*
G02*
X235350001Y-50700000I-249999J0D01*
G01*
X234699999Y-50700000D01*
G75*
G02*
X234450000Y-50450001I0J249999D01*
G01*
G37*
G36*
G01*
X232400000Y-50450001D02*
X232400000Y-49549999D01*
G75*
G02*
X232649999Y-49300000I249999J0D01*
G01*
X233300001Y-49300000D01*
G75*
G02*
X233550000Y-49549999I0J-249999D01*
G01*
X233550000Y-50450001D01*
G75*
G02*
X233300001Y-50700000I-249999J0D01*
G01*
X232649999Y-50700000D01*
G75*
G02*
X232400000Y-50450001I0J249999D01*
G01*
G37*
G36*
G01*
X220050001Y-70200000D02*
X219149999Y-70200000D01*
G75*
G02*
X218900000Y-69950001I0J249999D01*
G01*
X218900000Y-69299999D01*
G75*
G02*
X219149999Y-69050000I249999J0D01*
G01*
X220050001Y-69050000D01*
G75*
G02*
X220300000Y-69299999I0J-249999D01*
G01*
X220300000Y-69950001D01*
G75*
G02*
X220050001Y-70200000I-249999J0D01*
G01*
G37*
G36*
G01*
X220050001Y-72250000D02*
X219149999Y-72250000D01*
G75*
G02*
X218900000Y-72000001I0J249999D01*
G01*
X218900000Y-71349999D01*
G75*
G02*
X219149999Y-71100000I249999J0D01*
G01*
X220050001Y-71100000D01*
G75*
G02*
X220300000Y-71349999I0J-249999D01*
G01*
X220300000Y-72000001D01*
G75*
G02*
X220050001Y-72250000I-249999J0D01*
G01*
G37*
G36*
G01*
X223450000Y-71350001D02*
X223450000Y-70449999D01*
G75*
G02*
X223699999Y-70200000I249999J0D01*
G01*
X224350001Y-70200000D01*
G75*
G02*
X224600000Y-70449999I0J-249999D01*
G01*
X224600000Y-71350001D01*
G75*
G02*
X224350001Y-71600000I-249999J0D01*
G01*
X223699999Y-71600000D01*
G75*
G02*
X223450000Y-71350001I0J249999D01*
G01*
G37*
G36*
G01*
X221400000Y-71350001D02*
X221400000Y-70449999D01*
G75*
G02*
X221649999Y-70200000I249999J0D01*
G01*
X222300001Y-70200000D01*
G75*
G02*
X222550000Y-70449999I0J-249999D01*
G01*
X222550000Y-71350001D01*
G75*
G02*
X222300001Y-71600000I-249999J0D01*
G01*
X221649999Y-71600000D01*
G75*
G02*
X221400000Y-71350001I0J249999D01*
G01*
G37*
G36*
G01*
X186240000Y-55937999D02*
X186240000Y-56838001D01*
G75*
G02*
X185990001Y-57088000I-249999J0D01*
G01*
X185339999Y-57088000D01*
G75*
G02*
X185090000Y-56838001I0J249999D01*
G01*
X185090000Y-55937999D01*
G75*
G02*
X185339999Y-55688000I249999J0D01*
G01*
X185990001Y-55688000D01*
G75*
G02*
X186240000Y-55937999I0J-249999D01*
G01*
G37*
G36*
G01*
X188290000Y-55937999D02*
X188290000Y-56838001D01*
G75*
G02*
X188040001Y-57088000I-249999J0D01*
G01*
X187389999Y-57088000D01*
G75*
G02*
X187140000Y-56838001I0J249999D01*
G01*
X187140000Y-55937999D01*
G75*
G02*
X187389999Y-55688000I249999J0D01*
G01*
X188040001Y-55688000D01*
G75*
G02*
X188290000Y-55937999I0J-249999D01*
G01*
G37*
G36*
G01*
X183849999Y-44850000D02*
X184750001Y-44850000D01*
G75*
G02*
X185000000Y-45099999I0J-249999D01*
G01*
X185000000Y-45750001D01*
G75*
G02*
X184750001Y-46000000I-249999J0D01*
G01*
X183849999Y-46000000D01*
G75*
G02*
X183600000Y-45750001I0J249999D01*
G01*
X183600000Y-45099999D01*
G75*
G02*
X183849999Y-44850000I249999J0D01*
G01*
G37*
G36*
G01*
X183849999Y-42800000D02*
X184750001Y-42800000D01*
G75*
G02*
X185000000Y-43049999I0J-249999D01*
G01*
X185000000Y-43700001D01*
G75*
G02*
X184750001Y-43950000I-249999J0D01*
G01*
X183849999Y-43950000D01*
G75*
G02*
X183600000Y-43700001I0J249999D01*
G01*
X183600000Y-43049999D01*
G75*
G02*
X183849999Y-42800000I249999J0D01*
G01*
G37*
G36*
G01*
X184549999Y-50450000D02*
X185450001Y-50450000D01*
G75*
G02*
X185700000Y-50699999I0J-249999D01*
G01*
X185700000Y-51350001D01*
G75*
G02*
X185450001Y-51600000I-249999J0D01*
G01*
X184549999Y-51600000D01*
G75*
G02*
X184300000Y-51350001I0J249999D01*
G01*
X184300000Y-50699999D01*
G75*
G02*
X184549999Y-50450000I249999J0D01*
G01*
G37*
G36*
G01*
X184549999Y-48400000D02*
X185450001Y-48400000D01*
G75*
G02*
X185700000Y-48649999I0J-249999D01*
G01*
X185700000Y-49300001D01*
G75*
G02*
X185450001Y-49550000I-249999J0D01*
G01*
X184549999Y-49550000D01*
G75*
G02*
X184300000Y-49300001I0J249999D01*
G01*
X184300000Y-48649999D01*
G75*
G02*
X184549999Y-48400000I249999J0D01*
G01*
G37*
G36*
G01*
X182350000Y-71189001D02*
X182350000Y-70288999D01*
G75*
G02*
X182599999Y-70039000I249999J0D01*
G01*
X183250001Y-70039000D01*
G75*
G02*
X183500000Y-70288999I0J-249999D01*
G01*
X183500000Y-71189001D01*
G75*
G02*
X183250001Y-71439000I-249999J0D01*
G01*
X182599999Y-71439000D01*
G75*
G02*
X182350000Y-71189001I0J249999D01*
G01*
G37*
G36*
G01*
X180300000Y-71189001D02*
X180300000Y-70288999D01*
G75*
G02*
X180549999Y-70039000I249999J0D01*
G01*
X181200001Y-70039000D01*
G75*
G02*
X181450000Y-70288999I0J-249999D01*
G01*
X181450000Y-71189001D01*
G75*
G02*
X181200001Y-71439000I-249999J0D01*
G01*
X180549999Y-71439000D01*
G75*
G02*
X180300000Y-71189001I0J249999D01*
G01*
G37*
G36*
G01*
X183550001Y-73350000D02*
X182649999Y-73350000D01*
G75*
G02*
X182400000Y-73100001I0J249999D01*
G01*
X182400000Y-72449999D01*
G75*
G02*
X182649999Y-72200000I249999J0D01*
G01*
X183550001Y-72200000D01*
G75*
G02*
X183800000Y-72449999I0J-249999D01*
G01*
X183800000Y-73100001D01*
G75*
G02*
X183550001Y-73350000I-249999J0D01*
G01*
G37*
G36*
G01*
X183550001Y-75400000D02*
X182649999Y-75400000D01*
G75*
G02*
X182400000Y-75150001I0J249999D01*
G01*
X182400000Y-74499999D01*
G75*
G02*
X182649999Y-74250000I249999J0D01*
G01*
X183550001Y-74250000D01*
G75*
G02*
X183800000Y-74499999I0J-249999D01*
G01*
X183800000Y-75150001D01*
G75*
G02*
X183550001Y-75400000I-249999J0D01*
G01*
G37*
G36*
G01*
X184969999Y-64450000D02*
X185870001Y-64450000D01*
G75*
G02*
X186120000Y-64699999I0J-249999D01*
G01*
X186120000Y-65350001D01*
G75*
G02*
X185870001Y-65600000I-249999J0D01*
G01*
X184969999Y-65600000D01*
G75*
G02*
X184720000Y-65350001I0J249999D01*
G01*
X184720000Y-64699999D01*
G75*
G02*
X184969999Y-64450000I249999J0D01*
G01*
G37*
G36*
G01*
X184969999Y-62400000D02*
X185870001Y-62400000D01*
G75*
G02*
X186120000Y-62649999I0J-249999D01*
G01*
X186120000Y-63300001D01*
G75*
G02*
X185870001Y-63550000I-249999J0D01*
G01*
X184969999Y-63550000D01*
G75*
G02*
X184720000Y-63300001I0J249999D01*
G01*
X184720000Y-62649999D01*
G75*
G02*
X184969999Y-62400000I249999J0D01*
G01*
G37*
G36*
G01*
X195750000Y-78250001D02*
X195750000Y-77349999D01*
G75*
G02*
X195999999Y-77100000I249999J0D01*
G01*
X196650001Y-77100000D01*
G75*
G02*
X196900000Y-77349999I0J-249999D01*
G01*
X196900000Y-78250001D01*
G75*
G02*
X196650001Y-78500000I-249999J0D01*
G01*
X195999999Y-78500000D01*
G75*
G02*
X195750000Y-78250001I0J249999D01*
G01*
G37*
G36*
G01*
X193700000Y-78250001D02*
X193700000Y-77349999D01*
G75*
G02*
X193949999Y-77100000I249999J0D01*
G01*
X194600001Y-77100000D01*
G75*
G02*
X194850000Y-77349999I0J-249999D01*
G01*
X194850000Y-78250001D01*
G75*
G02*
X194600001Y-78500000I-249999J0D01*
G01*
X193949999Y-78500000D01*
G75*
G02*
X193700000Y-78250001I0J249999D01*
G01*
G37*
G36*
G01*
X188350000Y-70750001D02*
X188350000Y-69849999D01*
G75*
G02*
X188599999Y-69600000I249999J0D01*
G01*
X189250001Y-69600000D01*
G75*
G02*
X189500000Y-69849999I0J-249999D01*
G01*
X189500000Y-70750001D01*
G75*
G02*
X189250001Y-71000000I-249999J0D01*
G01*
X188599999Y-71000000D01*
G75*
G02*
X188350000Y-70750001I0J249999D01*
G01*
G37*
G36*
G01*
X186300000Y-70750001D02*
X186300000Y-69849999D01*
G75*
G02*
X186549999Y-69600000I249999J0D01*
G01*
X187200001Y-69600000D01*
G75*
G02*
X187450000Y-69849999I0J-249999D01*
G01*
X187450000Y-70750001D01*
G75*
G02*
X187200001Y-71000000I-249999J0D01*
G01*
X186549999Y-71000000D01*
G75*
G02*
X186300000Y-70750001I0J249999D01*
G01*
G37*
G36*
G01*
X177300000Y-117549999D02*
X177300000Y-118450001D01*
G75*
G02*
X177050001Y-118700000I-249999J0D01*
G01*
X176399999Y-118700000D01*
G75*
G02*
X176150000Y-118450001I0J249999D01*
G01*
X176150000Y-117549999D01*
G75*
G02*
X176399999Y-117300000I249999J0D01*
G01*
X177050001Y-117300000D01*
G75*
G02*
X177300000Y-117549999I0J-249999D01*
G01*
G37*
G36*
G01*
X179350000Y-117549999D02*
X179350000Y-118450001D01*
G75*
G02*
X179100001Y-118700000I-249999J0D01*
G01*
X178449999Y-118700000D01*
G75*
G02*
X178200000Y-118450001I0J249999D01*
G01*
X178200000Y-117549999D01*
G75*
G02*
X178449999Y-117300000I249999J0D01*
G01*
X179100001Y-117300000D01*
G75*
G02*
X179350000Y-117549999I0J-249999D01*
G01*
G37*
G36*
G01*
X177350000Y-115649999D02*
X177350000Y-116550001D01*
G75*
G02*
X177100001Y-116800000I-249999J0D01*
G01*
X176449999Y-116800000D01*
G75*
G02*
X176200000Y-116550001I0J249999D01*
G01*
X176200000Y-115649999D01*
G75*
G02*
X176449999Y-115400000I249999J0D01*
G01*
X177100001Y-115400000D01*
G75*
G02*
X177350000Y-115649999I0J-249999D01*
G01*
G37*
G36*
G01*
X179400000Y-115649999D02*
X179400000Y-116550001D01*
G75*
G02*
X179150001Y-116800000I-249999J0D01*
G01*
X178499999Y-116800000D01*
G75*
G02*
X178250000Y-116550001I0J249999D01*
G01*
X178250000Y-115649999D01*
G75*
G02*
X178499999Y-115400000I249999J0D01*
G01*
X179150001Y-115400000D01*
G75*
G02*
X179400000Y-115649999I0J-249999D01*
G01*
G37*
G36*
G01*
X237650001Y-108950000D02*
X236749999Y-108950000D01*
G75*
G02*
X236500000Y-108700001I0J249999D01*
G01*
X236500000Y-108049999D01*
G75*
G02*
X236749999Y-107800000I249999J0D01*
G01*
X237650001Y-107800000D01*
G75*
G02*
X237900000Y-108049999I0J-249999D01*
G01*
X237900000Y-108700001D01*
G75*
G02*
X237650001Y-108950000I-249999J0D01*
G01*
G37*
G36*
G01*
X237650001Y-111000000D02*
X236749999Y-111000000D01*
G75*
G02*
X236500000Y-110750001I0J249999D01*
G01*
X236500000Y-110099999D01*
G75*
G02*
X236749999Y-109850000I249999J0D01*
G01*
X237650001Y-109850000D01*
G75*
G02*
X237900000Y-110099999I0J-249999D01*
G01*
X237900000Y-110750001D01*
G75*
G02*
X237650001Y-111000000I-249999J0D01*
G01*
G37*
G36*
G01*
X202450000Y-120150001D02*
X202450000Y-119249999D01*
G75*
G02*
X202699999Y-119000000I249999J0D01*
G01*
X203350001Y-119000000D01*
G75*
G02*
X203600000Y-119249999I0J-249999D01*
G01*
X203600000Y-120150001D01*
G75*
G02*
X203350001Y-120400000I-249999J0D01*
G01*
X202699999Y-120400000D01*
G75*
G02*
X202450000Y-120150001I0J249999D01*
G01*
G37*
G36*
G01*
X200400000Y-120150001D02*
X200400000Y-119249999D01*
G75*
G02*
X200649999Y-119000000I249999J0D01*
G01*
X201300001Y-119000000D01*
G75*
G02*
X201550000Y-119249999I0J-249999D01*
G01*
X201550000Y-120150001D01*
G75*
G02*
X201300001Y-120400000I-249999J0D01*
G01*
X200649999Y-120400000D01*
G75*
G02*
X200400000Y-120150001I0J249999D01*
G01*
G37*
G36*
G01*
X194450000Y-55450001D02*
X194450000Y-54549999D01*
G75*
G02*
X194699999Y-54300000I249999J0D01*
G01*
X195350001Y-54300000D01*
G75*
G02*
X195600000Y-54549999I0J-249999D01*
G01*
X195600000Y-55450001D01*
G75*
G02*
X195350001Y-55700000I-249999J0D01*
G01*
X194699999Y-55700000D01*
G75*
G02*
X194450000Y-55450001I0J249999D01*
G01*
G37*
G36*
G01*
X192400000Y-55450001D02*
X192400000Y-54549999D01*
G75*
G02*
X192649999Y-54300000I249999J0D01*
G01*
X193300001Y-54300000D01*
G75*
G02*
X193550000Y-54549999I0J-249999D01*
G01*
X193550000Y-55450001D01*
G75*
G02*
X193300001Y-55700000I-249999J0D01*
G01*
X192649999Y-55700000D01*
G75*
G02*
X192400000Y-55450001I0J249999D01*
G01*
G37*
G36*
G01*
X193550000Y-52549999D02*
X193550000Y-53450001D01*
G75*
G02*
X193300001Y-53700000I-249999J0D01*
G01*
X192649999Y-53700000D01*
G75*
G02*
X192400000Y-53450001I0J249999D01*
G01*
X192400000Y-52549999D01*
G75*
G02*
X192649999Y-52300000I249999J0D01*
G01*
X193300001Y-52300000D01*
G75*
G02*
X193550000Y-52549999I0J-249999D01*
G01*
G37*
G36*
G01*
X195600000Y-52549999D02*
X195600000Y-53450001D01*
G75*
G02*
X195350001Y-53700000I-249999J0D01*
G01*
X194699999Y-53700000D01*
G75*
G02*
X194450000Y-53450001I0J249999D01*
G01*
X194450000Y-52549999D01*
G75*
G02*
X194699999Y-52300000I249999J0D01*
G01*
X195350001Y-52300000D01*
G75*
G02*
X195600000Y-52549999I0J-249999D01*
G01*
G37*
G36*
G01*
X227550000Y-66549999D02*
X227550000Y-67450001D01*
G75*
G02*
X227300001Y-67700000I-249999J0D01*
G01*
X226649999Y-67700000D01*
G75*
G02*
X226400000Y-67450001I0J249999D01*
G01*
X226400000Y-66549999D01*
G75*
G02*
X226649999Y-66300000I249999J0D01*
G01*
X227300001Y-66300000D01*
G75*
G02*
X227550000Y-66549999I0J-249999D01*
G01*
G37*
G36*
G01*
X229600000Y-66549999D02*
X229600000Y-67450001D01*
G75*
G02*
X229350001Y-67700000I-249999J0D01*
G01*
X228699999Y-67700000D01*
G75*
G02*
X228450000Y-67450001I0J249999D01*
G01*
X228450000Y-66549999D01*
G75*
G02*
X228699999Y-66300000I249999J0D01*
G01*
X229350001Y-66300000D01*
G75*
G02*
X229600000Y-66549999I0J-249999D01*
G01*
G37*
G36*
G01*
X229850000Y-69272999D02*
X229850000Y-70173001D01*
G75*
G02*
X229600001Y-70423000I-249999J0D01*
G01*
X228949999Y-70423000D01*
G75*
G02*
X228700000Y-70173001I0J249999D01*
G01*
X228700000Y-69272999D01*
G75*
G02*
X228949999Y-69023000I249999J0D01*
G01*
X229600001Y-69023000D01*
G75*
G02*
X229850000Y-69272999I0J-249999D01*
G01*
G37*
G36*
G01*
X231900000Y-69272999D02*
X231900000Y-70173001D01*
G75*
G02*
X231650001Y-70423000I-249999J0D01*
G01*
X230999999Y-70423000D01*
G75*
G02*
X230750000Y-70173001I0J249999D01*
G01*
X230750000Y-69272999D01*
G75*
G02*
X230999999Y-69023000I249999J0D01*
G01*
X231650001Y-69023000D01*
G75*
G02*
X231900000Y-69272999I0J-249999D01*
G01*
G37*
G36*
G01*
X194650000Y-41750001D02*
X194650000Y-40849999D01*
G75*
G02*
X194899999Y-40600000I249999J0D01*
G01*
X195550001Y-40600000D01*
G75*
G02*
X195800000Y-40849999I0J-249999D01*
G01*
X195800000Y-41750001D01*
G75*
G02*
X195550001Y-42000000I-249999J0D01*
G01*
X194899999Y-42000000D01*
G75*
G02*
X194650000Y-41750001I0J249999D01*
G01*
G37*
G36*
G01*
X192600000Y-41750001D02*
X192600000Y-40849999D01*
G75*
G02*
X192849999Y-40600000I249999J0D01*
G01*
X193500001Y-40600000D01*
G75*
G02*
X193750000Y-40849999I0J-249999D01*
G01*
X193750000Y-41750001D01*
G75*
G02*
X193500001Y-42000000I-249999J0D01*
G01*
X192849999Y-42000000D01*
G75*
G02*
X192600000Y-41750001I0J249999D01*
G01*
G37*
G36*
G01*
X189050000Y-43350001D02*
X189050000Y-42449999D01*
G75*
G02*
X189299999Y-42200000I249999J0D01*
G01*
X189950001Y-42200000D01*
G75*
G02*
X190200000Y-42449999I0J-249999D01*
G01*
X190200000Y-43350001D01*
G75*
G02*
X189950001Y-43600000I-249999J0D01*
G01*
X189299999Y-43600000D01*
G75*
G02*
X189050000Y-43350001I0J249999D01*
G01*
G37*
G36*
G01*
X187000000Y-43350001D02*
X187000000Y-42449999D01*
G75*
G02*
X187249999Y-42200000I249999J0D01*
G01*
X187900001Y-42200000D01*
G75*
G02*
X188150000Y-42449999I0J-249999D01*
G01*
X188150000Y-43350001D01*
G75*
G02*
X187900001Y-43600000I-249999J0D01*
G01*
X187249999Y-43600000D01*
G75*
G02*
X187000000Y-43350001I0J249999D01*
G01*
G37*
G36*
G01*
X227550000Y-52549999D02*
X227550000Y-53450001D01*
G75*
G02*
X227300001Y-53700000I-249999J0D01*
G01*
X226649999Y-53700000D01*
G75*
G02*
X226400000Y-53450001I0J249999D01*
G01*
X226400000Y-52549999D01*
G75*
G02*
X226649999Y-52300000I249999J0D01*
G01*
X227300001Y-52300000D01*
G75*
G02*
X227550000Y-52549999I0J-249999D01*
G01*
G37*
G36*
G01*
X229600000Y-52549999D02*
X229600000Y-53450001D01*
G75*
G02*
X229350001Y-53700000I-249999J0D01*
G01*
X228699999Y-53700000D01*
G75*
G02*
X228450000Y-53450001I0J249999D01*
G01*
X228450000Y-52549999D01*
G75*
G02*
X228699999Y-52300000I249999J0D01*
G01*
X229350001Y-52300000D01*
G75*
G02*
X229600000Y-52549999I0J-249999D01*
G01*
G37*
G36*
G01*
X228450000Y-55450001D02*
X228450000Y-54549999D01*
G75*
G02*
X228699999Y-54300000I249999J0D01*
G01*
X229350001Y-54300000D01*
G75*
G02*
X229600000Y-54549999I0J-249999D01*
G01*
X229600000Y-55450001D01*
G75*
G02*
X229350001Y-55700000I-249999J0D01*
G01*
X228699999Y-55700000D01*
G75*
G02*
X228450000Y-55450001I0J249999D01*
G01*
G37*
G36*
G01*
X226400000Y-55450001D02*
X226400000Y-54549999D01*
G75*
G02*
X226649999Y-54300000I249999J0D01*
G01*
X227300001Y-54300000D01*
G75*
G02*
X227550000Y-54549999I0J-249999D01*
G01*
X227550000Y-55450001D01*
G75*
G02*
X227300001Y-55700000I-249999J0D01*
G01*
X226649999Y-55700000D01*
G75*
G02*
X226400000Y-55450001I0J249999D01*
G01*
G37*
G36*
G01*
X240087999Y-94176000D02*
X240988001Y-94176000D01*
G75*
G02*
X241238000Y-94425999I0J-249999D01*
G01*
X241238000Y-95076001D01*
G75*
G02*
X240988001Y-95326000I-249999J0D01*
G01*
X240087999Y-95326000D01*
G75*
G02*
X239838000Y-95076001I0J249999D01*
G01*
X239838000Y-94425999D01*
G75*
G02*
X240087999Y-94176000I249999J0D01*
G01*
G37*
G36*
G01*
X240087999Y-92126000D02*
X240988001Y-92126000D01*
G75*
G02*
X241238000Y-92375999I0J-249999D01*
G01*
X241238000Y-93026001D01*
G75*
G02*
X240988001Y-93276000I-249999J0D01*
G01*
X240087999Y-93276000D01*
G75*
G02*
X239838000Y-93026001I0J249999D01*
G01*
X239838000Y-92375999D01*
G75*
G02*
X240087999Y-92126000I249999J0D01*
G01*
G37*
G36*
G01*
X237293999Y-84524000D02*
X238194001Y-84524000D01*
G75*
G02*
X238444000Y-84773999I0J-249999D01*
G01*
X238444000Y-85424001D01*
G75*
G02*
X238194001Y-85674000I-249999J0D01*
G01*
X237293999Y-85674000D01*
G75*
G02*
X237044000Y-85424001I0J249999D01*
G01*
X237044000Y-84773999D01*
G75*
G02*
X237293999Y-84524000I249999J0D01*
G01*
G37*
G36*
G01*
X237293999Y-82474000D02*
X238194001Y-82474000D01*
G75*
G02*
X238444000Y-82723999I0J-249999D01*
G01*
X238444000Y-83374001D01*
G75*
G02*
X238194001Y-83624000I-249999J0D01*
G01*
X237293999Y-83624000D01*
G75*
G02*
X237044000Y-83374001I0J249999D01*
G01*
X237044000Y-82723999D01*
G75*
G02*
X237293999Y-82474000I249999J0D01*
G01*
G37*
G36*
G01*
X188942000Y-102903999D02*
X188942000Y-103804001D01*
G75*
G02*
X188692001Y-104054000I-249999J0D01*
G01*
X188041999Y-104054000D01*
G75*
G02*
X187792000Y-103804001I0J249999D01*
G01*
X187792000Y-102903999D01*
G75*
G02*
X188041999Y-102654000I249999J0D01*
G01*
X188692001Y-102654000D01*
G75*
G02*
X188942000Y-102903999I0J-249999D01*
G01*
G37*
G36*
G01*
X190992000Y-102903999D02*
X190992000Y-103804001D01*
G75*
G02*
X190742001Y-104054000I-249999J0D01*
G01*
X190091999Y-104054000D01*
G75*
G02*
X189842000Y-103804001I0J249999D01*
G01*
X189842000Y-102903999D01*
G75*
G02*
X190091999Y-102654000I249999J0D01*
G01*
X190742001Y-102654000D01*
G75*
G02*
X190992000Y-102903999I0J-249999D01*
G01*
G37*
G36*
G01*
X192050000Y-99649999D02*
X192050000Y-100550001D01*
G75*
G02*
X191800001Y-100800000I-249999J0D01*
G01*
X191149999Y-100800000D01*
G75*
G02*
X190900000Y-100550001I0J249999D01*
G01*
X190900000Y-99649999D01*
G75*
G02*
X191149999Y-99400000I249999J0D01*
G01*
X191800001Y-99400000D01*
G75*
G02*
X192050000Y-99649999I0J-249999D01*
G01*
G37*
G36*
G01*
X194100000Y-99649999D02*
X194100000Y-100550001D01*
G75*
G02*
X193850001Y-100800000I-249999J0D01*
G01*
X193199999Y-100800000D01*
G75*
G02*
X192950000Y-100550001I0J249999D01*
G01*
X192950000Y-99649999D01*
G75*
G02*
X193199999Y-99400000I249999J0D01*
G01*
X193850001Y-99400000D01*
G75*
G02*
X194100000Y-99649999I0J-249999D01*
G01*
G37*
G36*
G01*
X201550000Y-91749999D02*
X201550000Y-92650001D01*
G75*
G02*
X201300001Y-92900000I-249999J0D01*
G01*
X200649999Y-92900000D01*
G75*
G02*
X200400000Y-92650001I0J249999D01*
G01*
X200400000Y-91749999D01*
G75*
G02*
X200649999Y-91500000I249999J0D01*
G01*
X201300001Y-91500000D01*
G75*
G02*
X201550000Y-91749999I0J-249999D01*
G01*
G37*
G36*
G01*
X203600000Y-91749999D02*
X203600000Y-92650001D01*
G75*
G02*
X203350001Y-92900000I-249999J0D01*
G01*
X202699999Y-92900000D01*
G75*
G02*
X202450000Y-92650001I0J249999D01*
G01*
X202450000Y-91749999D01*
G75*
G02*
X202699999Y-91500000I249999J0D01*
G01*
X203350001Y-91500000D01*
G75*
G02*
X203600000Y-91749999I0J-249999D01*
G01*
G37*
G36*
G01*
X200850000Y-89849999D02*
X200850000Y-90750001D01*
G75*
G02*
X200600001Y-91000000I-249999J0D01*
G01*
X199949999Y-91000000D01*
G75*
G02*
X199700000Y-90750001I0J249999D01*
G01*
X199700000Y-89849999D01*
G75*
G02*
X199949999Y-89600000I249999J0D01*
G01*
X200600001Y-89600000D01*
G75*
G02*
X200850000Y-89849999I0J-249999D01*
G01*
G37*
G36*
G01*
X202900000Y-89849999D02*
X202900000Y-90750001D01*
G75*
G02*
X202650001Y-91000000I-249999J0D01*
G01*
X201999999Y-91000000D01*
G75*
G02*
X201750000Y-90750001I0J249999D01*
G01*
X201750000Y-89849999D01*
G75*
G02*
X201999999Y-89600000I249999J0D01*
G01*
X202650001Y-89600000D01*
G75*
G02*
X202900000Y-89849999I0J-249999D01*
G01*
G37*
G36*
G01*
X236350000Y-105950001D02*
X236350000Y-105049999D01*
G75*
G02*
X236599999Y-104800000I249999J0D01*
G01*
X237250001Y-104800000D01*
G75*
G02*
X237500000Y-105049999I0J-249999D01*
G01*
X237500000Y-105950001D01*
G75*
G02*
X237250001Y-106200000I-249999J0D01*
G01*
X236599999Y-106200000D01*
G75*
G02*
X236350000Y-105950001I0J249999D01*
G01*
G37*
G36*
G01*
X234300000Y-105950001D02*
X234300000Y-105049999D01*
G75*
G02*
X234549999Y-104800000I249999J0D01*
G01*
X235200001Y-104800000D01*
G75*
G02*
X235450000Y-105049999I0J-249999D01*
G01*
X235450000Y-105950001D01*
G75*
G02*
X235200001Y-106200000I-249999J0D01*
G01*
X234549999Y-106200000D01*
G75*
G02*
X234300000Y-105950001I0J249999D01*
G01*
G37*
G36*
G01*
X175950000Y-108649999D02*
X175950000Y-109550001D01*
G75*
G02*
X175700001Y-109800000I-249999J0D01*
G01*
X175049999Y-109800000D01*
G75*
G02*
X174800000Y-109550001I0J249999D01*
G01*
X174800000Y-108649999D01*
G75*
G02*
X175049999Y-108400000I249999J0D01*
G01*
X175700001Y-108400000D01*
G75*
G02*
X175950000Y-108649999I0J-249999D01*
G01*
G37*
G36*
G01*
X178000000Y-108649999D02*
X178000000Y-109550001D01*
G75*
G02*
X177750001Y-109800000I-249999J0D01*
G01*
X177099999Y-109800000D01*
G75*
G02*
X176850000Y-109550001I0J249999D01*
G01*
X176850000Y-108649999D01*
G75*
G02*
X177099999Y-108400000I249999J0D01*
G01*
X177750001Y-108400000D01*
G75*
G02*
X178000000Y-108649999I0J-249999D01*
G01*
G37*
G36*
G01*
X175950000Y-110649999D02*
X175950000Y-111550001D01*
G75*
G02*
X175700001Y-111800000I-249999J0D01*
G01*
X175049999Y-111800000D01*
G75*
G02*
X174800000Y-111550001I0J249999D01*
G01*
X174800000Y-110649999D01*
G75*
G02*
X175049999Y-110400000I249999J0D01*
G01*
X175700001Y-110400000D01*
G75*
G02*
X175950000Y-110649999I0J-249999D01*
G01*
G37*
G36*
G01*
X178000000Y-110649999D02*
X178000000Y-111550001D01*
G75*
G02*
X177750001Y-111800000I-249999J0D01*
G01*
X177099999Y-111800000D01*
G75*
G02*
X176850000Y-111550001I0J249999D01*
G01*
X176850000Y-110649999D01*
G75*
G02*
X177099999Y-110400000I249999J0D01*
G01*
X177750001Y-110400000D01*
G75*
G02*
X178000000Y-110649999I0J-249999D01*
G01*
G37*
G36*
G01*
X217792500Y-119950001D02*
X217792500Y-119049999D01*
G75*
G02*
X218042499Y-118800000I249999J0D01*
G01*
X218692501Y-118800000D01*
G75*
G02*
X218942500Y-119049999I0J-249999D01*
G01*
X218942500Y-119950001D01*
G75*
G02*
X218692501Y-120200000I-249999J0D01*
G01*
X218042499Y-120200000D01*
G75*
G02*
X217792500Y-119950001I0J249999D01*
G01*
G37*
G36*
G01*
X219842500Y-119950001D02*
X219842500Y-119049999D01*
G75*
G02*
X220092499Y-118800000I249999J0D01*
G01*
X220742501Y-118800000D01*
G75*
G02*
X220992500Y-119049999I0J-249999D01*
G01*
X220992500Y-119950001D01*
G75*
G02*
X220742501Y-120200000I-249999J0D01*
G01*
X220092499Y-120200000D01*
G75*
G02*
X219842500Y-119950001I0J249999D01*
G01*
G37*
G36*
G01*
X219005999Y-122878000D02*
X219906001Y-122878000D01*
G75*
G02*
X220156000Y-123127999I0J-249999D01*
G01*
X220156000Y-123778001D01*
G75*
G02*
X219906001Y-124028000I-249999J0D01*
G01*
X219005999Y-124028000D01*
G75*
G02*
X218756000Y-123778001I0J249999D01*
G01*
X218756000Y-123127999D01*
G75*
G02*
X219005999Y-122878000I249999J0D01*
G01*
G37*
G36*
G01*
X219005999Y-120828000D02*
X219906001Y-120828000D01*
G75*
G02*
X220156000Y-121077999I0J-249999D01*
G01*
X220156000Y-121728001D01*
G75*
G02*
X219906001Y-121978000I-249999J0D01*
G01*
X219005999Y-121978000D01*
G75*
G02*
X218756000Y-121728001I0J249999D01*
G01*
X218756000Y-121077999D01*
G75*
G02*
X219005999Y-120828000I249999J0D01*
G01*
G37*
G36*
G01*
X229673999Y-117798000D02*
X230574001Y-117798000D01*
G75*
G02*
X230824000Y-118047999I0J-249999D01*
G01*
X230824000Y-118698001D01*
G75*
G02*
X230574001Y-118948000I-249999J0D01*
G01*
X229673999Y-118948000D01*
G75*
G02*
X229424000Y-118698001I0J249999D01*
G01*
X229424000Y-118047999D01*
G75*
G02*
X229673999Y-117798000I249999J0D01*
G01*
G37*
G36*
G01*
X229673999Y-115748000D02*
X230574001Y-115748000D01*
G75*
G02*
X230824000Y-115997999I0J-249999D01*
G01*
X230824000Y-116648001D01*
G75*
G02*
X230574001Y-116898000I-249999J0D01*
G01*
X229673999Y-116898000D01*
G75*
G02*
X229424000Y-116648001I0J249999D01*
G01*
X229424000Y-115997999D01*
G75*
G02*
X229673999Y-115748000I249999J0D01*
G01*
G37*
G36*
G01*
X227750000Y-117850001D02*
X227750000Y-116949999D01*
G75*
G02*
X227999999Y-116700000I249999J0D01*
G01*
X228650001Y-116700000D01*
G75*
G02*
X228900000Y-116949999I0J-249999D01*
G01*
X228900000Y-117850001D01*
G75*
G02*
X228650001Y-118100000I-249999J0D01*
G01*
X227999999Y-118100000D01*
G75*
G02*
X227750000Y-117850001I0J249999D01*
G01*
G37*
G36*
G01*
X225700000Y-117850001D02*
X225700000Y-116949999D01*
G75*
G02*
X225949999Y-116700000I249999J0D01*
G01*
X226600001Y-116700000D01*
G75*
G02*
X226850000Y-116949999I0J-249999D01*
G01*
X226850000Y-117850001D01*
G75*
G02*
X226600001Y-118100000I-249999J0D01*
G01*
X225949999Y-118100000D01*
G75*
G02*
X225700000Y-117850001I0J249999D01*
G01*
G37*
D12*
X208782800Y-93311000D03*
X208782800Y-93961000D03*
X208782800Y-94611000D03*
X208782800Y-95261000D03*
X208782800Y-95911000D03*
X208782800Y-96561000D03*
X208782800Y-97211000D03*
X208782800Y-97861000D03*
X208782800Y-98511000D03*
X208782800Y-99161000D03*
X208782800Y-99811000D03*
X208782800Y-100461000D03*
X208782800Y-101111000D03*
X208782800Y-101761000D03*
X214482800Y-101761000D03*
X214482800Y-101111000D03*
X214482800Y-100461000D03*
X214482800Y-99811000D03*
X214482800Y-99161000D03*
X214482800Y-98511000D03*
X214482800Y-97861000D03*
X214482800Y-97211000D03*
X214482800Y-96561000D03*
X214482800Y-95911000D03*
X214482800Y-95261000D03*
X214482800Y-94611000D03*
X214482800Y-93961000D03*
X214482800Y-93311000D03*
D13*
X199050000Y-71725000D03*
X199050000Y-72375000D03*
X199050000Y-73025000D03*
X199050000Y-73675000D03*
X199050000Y-74325000D03*
X199050000Y-74975000D03*
X199050000Y-75625000D03*
X199050000Y-76275000D03*
X204950000Y-76275000D03*
X204950000Y-75625000D03*
X204950000Y-74975000D03*
X204950000Y-74325000D03*
X204950000Y-73675000D03*
X204950000Y-73025000D03*
X204950000Y-72375000D03*
X204950000Y-71725000D03*
D14*
X193168000Y-101944000D03*
X193168000Y-102444000D03*
X193168000Y-102944000D03*
X193168000Y-103444000D03*
X193168000Y-103944000D03*
X197568000Y-103944000D03*
X197568000Y-103444000D03*
X197568000Y-102944000D03*
X197568000Y-102444000D03*
X197568000Y-101944000D03*
X188784000Y-95792000D03*
X188784000Y-96292000D03*
X188784000Y-96792000D03*
X188784000Y-97292000D03*
X188784000Y-97792000D03*
X193184000Y-97792000D03*
X193184000Y-97292000D03*
X193184000Y-96792000D03*
X193184000Y-96292000D03*
X193184000Y-95792000D03*
D15*
X181450980Y-118000000D03*
X183549020Y-118000000D03*
X181450980Y-116050000D03*
X183549020Y-116050000D03*
D16*
X209400000Y-127950000D03*
X210200000Y-127950000D03*
X211000000Y-127950000D03*
X211800000Y-127950000D03*
X212600000Y-127950000D03*
X213400000Y-127950000D03*
X214200000Y-127950000D03*
X215000000Y-127950000D03*
D17*
X216450000Y-126500000D03*
X216450000Y-125700000D03*
X216450000Y-124900000D03*
X216450000Y-124100000D03*
X216450000Y-123300000D03*
X216450000Y-122500000D03*
X216450000Y-121700000D03*
X216450000Y-120900000D03*
D16*
X215000000Y-119450000D03*
X214200000Y-119450000D03*
X213400000Y-119450000D03*
X212600000Y-119450000D03*
X211800000Y-119450000D03*
X211000000Y-119450000D03*
X210200000Y-119450000D03*
X209400000Y-119450000D03*
D17*
X207950000Y-120900000D03*
X207950000Y-121700000D03*
X207950000Y-122500000D03*
X207950000Y-123300000D03*
X207950000Y-124100000D03*
X207950000Y-124900000D03*
X207950000Y-125700000D03*
X207950000Y-126500000D03*
D18*
X188100000Y-120410000D03*
X188100000Y-121680000D03*
X188100000Y-122950000D03*
X188100000Y-124220000D03*
X188100000Y-125490000D03*
X188100000Y-126760000D03*
X188100000Y-128030000D03*
X188100000Y-129300000D03*
X197400000Y-129300000D03*
X197400000Y-128030000D03*
X197400000Y-126760000D03*
X197400000Y-125490000D03*
X197400000Y-124220000D03*
X197400000Y-122950000D03*
X197400000Y-121680000D03*
X197400000Y-120410000D03*
D19*
X183900000Y-129125000D03*
X183900000Y-128475000D03*
X183900000Y-127825000D03*
X183900000Y-127175000D03*
X183900000Y-126525000D03*
X183900000Y-125875000D03*
X183900000Y-125225000D03*
X183900000Y-124575000D03*
X183900000Y-123925000D03*
X183900000Y-123275000D03*
X183900000Y-122625000D03*
X183900000Y-121975000D03*
X183900000Y-121325000D03*
X183900000Y-120675000D03*
X176700000Y-120675000D03*
X176700000Y-121325000D03*
X176700000Y-121975000D03*
X176700000Y-122625000D03*
X176700000Y-123275000D03*
X176700000Y-123925000D03*
X176700000Y-124575000D03*
X176700000Y-125225000D03*
X176700000Y-125875000D03*
X176700000Y-126525000D03*
X176700000Y-127175000D03*
X176700000Y-127825000D03*
X176700000Y-128475000D03*
X176700000Y-129125000D03*
D20*
X169125000Y-121300000D03*
X169125000Y-120650000D03*
X169125000Y-120000000D03*
X169125000Y-119350000D03*
X169125000Y-118700000D03*
D21*
X232800000Y-96964000D03*
D22*
X206170000Y-111805000D03*
X206820000Y-111805000D03*
X207470000Y-111805000D03*
X208120000Y-111805000D03*
X208770000Y-111805000D03*
X209420000Y-111805000D03*
X210070000Y-111805000D03*
X210720000Y-111805000D03*
X211370000Y-111805000D03*
X212020000Y-111805000D03*
X212020000Y-106005000D03*
X211370000Y-106005000D03*
X210720000Y-106005000D03*
X210070000Y-106005000D03*
X209420000Y-106005000D03*
X208770000Y-106005000D03*
X208120000Y-106005000D03*
X207470000Y-106005000D03*
X206820000Y-106005000D03*
X206170000Y-106005000D03*
D13*
X216950000Y-77275000D03*
X216950000Y-76625000D03*
X216950000Y-75975000D03*
X216950000Y-75325000D03*
X216950000Y-74675000D03*
X216950000Y-74025000D03*
X216950000Y-73375000D03*
X216950000Y-72725000D03*
X211050000Y-72725000D03*
X211050000Y-73375000D03*
X211050000Y-74025000D03*
X211050000Y-74675000D03*
X211050000Y-75325000D03*
X211050000Y-75975000D03*
X211050000Y-76625000D03*
X211050000Y-77275000D03*
D23*
X191300000Y-76305000D03*
X191300000Y-75035000D03*
X191300000Y-73765000D03*
X191300000Y-72495000D03*
X185900000Y-72495000D03*
X185900000Y-73765000D03*
X185900000Y-75035000D03*
X185900000Y-76305000D03*
X222300000Y-73984000D03*
X222300000Y-75254000D03*
X222300000Y-76524000D03*
X222300000Y-77794000D03*
X227700000Y-77794000D03*
X227700000Y-76524000D03*
X227700000Y-75254000D03*
X227700000Y-73984000D03*
D15*
X234349020Y-110800000D03*
X232250980Y-110800000D03*
X234349020Y-108300000D03*
X232250980Y-108300000D03*
D18*
X232950000Y-114255000D03*
X232950000Y-115525000D03*
X232950000Y-116795000D03*
X232950000Y-118065000D03*
X232950000Y-119335000D03*
X232950000Y-120605000D03*
X232950000Y-121875000D03*
X232950000Y-123145000D03*
X242250000Y-123145000D03*
X242250000Y-121875000D03*
X242250000Y-120605000D03*
X242250000Y-119335000D03*
X242250000Y-118065000D03*
X242250000Y-116795000D03*
X242250000Y-115525000D03*
X242250000Y-114255000D03*
D24*
X222800000Y-128400000D03*
X225000000Y-128400000D03*
X222800000Y-126800000D03*
X225000000Y-126800000D03*
G36*
G01*
X217380000Y-81770001D02*
X217380000Y-80869999D01*
G75*
G02*
X217629999Y-80620000I249999J0D01*
G01*
X218280001Y-80620000D01*
G75*
G02*
X218530000Y-80869999I0J-249999D01*
G01*
X218530000Y-81770001D01*
G75*
G02*
X218280001Y-82020000I-249999J0D01*
G01*
X217629999Y-82020000D01*
G75*
G02*
X217380000Y-81770001I0J249999D01*
G01*
G37*
G36*
G01*
X219430000Y-81770001D02*
X219430000Y-80869999D01*
G75*
G02*
X219679999Y-80620000I249999J0D01*
G01*
X220330001Y-80620000D01*
G75*
G02*
X220580000Y-80869999I0J-249999D01*
G01*
X220580000Y-81770001D01*
G75*
G02*
X220330001Y-82020000I-249999J0D01*
G01*
X219679999Y-82020000D01*
G75*
G02*
X219430000Y-81770001I0J249999D01*
G01*
G37*
G36*
G01*
X228600000Y-105950001D02*
X228600000Y-105049999D01*
G75*
G02*
X228849999Y-104800000I249999J0D01*
G01*
X229500001Y-104800000D01*
G75*
G02*
X229750000Y-105049999I0J-249999D01*
G01*
X229750000Y-105950001D01*
G75*
G02*
X229500001Y-106200000I-249999J0D01*
G01*
X228849999Y-106200000D01*
G75*
G02*
X228600000Y-105950001I0J249999D01*
G01*
G37*
G36*
G01*
X230650000Y-105950001D02*
X230650000Y-105049999D01*
G75*
G02*
X230899999Y-104800000I249999J0D01*
G01*
X231550001Y-104800000D01*
G75*
G02*
X231800000Y-105049999I0J-249999D01*
G01*
X231800000Y-105950001D01*
G75*
G02*
X231550001Y-106200000I-249999J0D01*
G01*
X230899999Y-106200000D01*
G75*
G02*
X230650000Y-105950001I0J249999D01*
G01*
G37*
G36*
G01*
X211150000Y-91850001D02*
X211150000Y-90949999D01*
G75*
G02*
X211399999Y-90700000I249999J0D01*
G01*
X212050001Y-90700000D01*
G75*
G02*
X212300000Y-90949999I0J-249999D01*
G01*
X212300000Y-91850001D01*
G75*
G02*
X212050001Y-92100000I-249999J0D01*
G01*
X211399999Y-92100000D01*
G75*
G02*
X211150000Y-91850001I0J249999D01*
G01*
G37*
G36*
G01*
X209100000Y-91850001D02*
X209100000Y-90949999D01*
G75*
G02*
X209349999Y-90700000I249999J0D01*
G01*
X210000001Y-90700000D01*
G75*
G02*
X210250000Y-90949999I0J-249999D01*
G01*
X210250000Y-91850001D01*
G75*
G02*
X210000001Y-92100000I-249999J0D01*
G01*
X209349999Y-92100000D01*
G75*
G02*
X209100000Y-91850001I0J249999D01*
G01*
G37*
G36*
G01*
X206449999Y-91000000D02*
X207350001Y-91000000D01*
G75*
G02*
X207600000Y-91249999I0J-249999D01*
G01*
X207600000Y-91900001D01*
G75*
G02*
X207350001Y-92150000I-249999J0D01*
G01*
X206449999Y-92150000D01*
G75*
G02*
X206200000Y-91900001I0J249999D01*
G01*
X206200000Y-91249999D01*
G75*
G02*
X206449999Y-91000000I249999J0D01*
G01*
G37*
G36*
G01*
X206449999Y-93050000D02*
X207350001Y-93050000D01*
G75*
G02*
X207600000Y-93299999I0J-249999D01*
G01*
X207600000Y-93950001D01*
G75*
G02*
X207350001Y-94200000I-249999J0D01*
G01*
X206449999Y-94200000D01*
G75*
G02*
X206200000Y-93950001I0J249999D01*
G01*
X206200000Y-93299999D01*
G75*
G02*
X206449999Y-93050000I249999J0D01*
G01*
G37*
G36*
G01*
X189306000Y-99625999D02*
X189306000Y-100526001D01*
G75*
G02*
X189056001Y-100776000I-249999J0D01*
G01*
X188405999Y-100776000D01*
G75*
G02*
X188156000Y-100526001I0J249999D01*
G01*
X188156000Y-99625999D01*
G75*
G02*
X188405999Y-99376000I249999J0D01*
G01*
X189056001Y-99376000D01*
G75*
G02*
X189306000Y-99625999I0J-249999D01*
G01*
G37*
G36*
G01*
X187256000Y-99625999D02*
X187256000Y-100526001D01*
G75*
G02*
X187006001Y-100776000I-249999J0D01*
G01*
X186355999Y-100776000D01*
G75*
G02*
X186106000Y-100526001I0J249999D01*
G01*
X186106000Y-99625999D01*
G75*
G02*
X186355999Y-99376000I249999J0D01*
G01*
X187006001Y-99376000D01*
G75*
G02*
X187256000Y-99625999I0J-249999D01*
G01*
G37*
G36*
G01*
X199550001Y-94050000D02*
X198649999Y-94050000D01*
G75*
G02*
X198400000Y-93800001I0J249999D01*
G01*
X198400000Y-93149999D01*
G75*
G02*
X198649999Y-92900000I249999J0D01*
G01*
X199550001Y-92900000D01*
G75*
G02*
X199800000Y-93149999I0J-249999D01*
G01*
X199800000Y-93800001D01*
G75*
G02*
X199550001Y-94050000I-249999J0D01*
G01*
G37*
G36*
G01*
X199550001Y-96100000D02*
X198649999Y-96100000D01*
G75*
G02*
X198400000Y-95850001I0J249999D01*
G01*
X198400000Y-95199999D01*
G75*
G02*
X198649999Y-94950000I249999J0D01*
G01*
X199550001Y-94950000D01*
G75*
G02*
X199800000Y-95199999I0J-249999D01*
G01*
X199800000Y-95850001D01*
G75*
G02*
X199550001Y-96100000I-249999J0D01*
G01*
G37*
G36*
G01*
X187549999Y-50450000D02*
X188450001Y-50450000D01*
G75*
G02*
X188700000Y-50699999I0J-249999D01*
G01*
X188700000Y-51350001D01*
G75*
G02*
X188450001Y-51600000I-249999J0D01*
G01*
X187549999Y-51600000D01*
G75*
G02*
X187300000Y-51350001I0J249999D01*
G01*
X187300000Y-50699999D01*
G75*
G02*
X187549999Y-50450000I249999J0D01*
G01*
G37*
G36*
G01*
X187549999Y-48400000D02*
X188450001Y-48400000D01*
G75*
G02*
X188700000Y-48649999I0J-249999D01*
G01*
X188700000Y-49300001D01*
G75*
G02*
X188450001Y-49550000I-249999J0D01*
G01*
X187549999Y-49550000D01*
G75*
G02*
X187300000Y-49300001I0J249999D01*
G01*
X187300000Y-48649999D01*
G75*
G02*
X187549999Y-48400000I249999J0D01*
G01*
G37*
G36*
G01*
X233604000Y-45027001D02*
X233604000Y-44126999D01*
G75*
G02*
X233853999Y-43877000I249999J0D01*
G01*
X234504001Y-43877000D01*
G75*
G02*
X234754000Y-44126999I0J-249999D01*
G01*
X234754000Y-45027001D01*
G75*
G02*
X234504001Y-45277000I-249999J0D01*
G01*
X233853999Y-45277000D01*
G75*
G02*
X233604000Y-45027001I0J249999D01*
G01*
G37*
G36*
G01*
X235654000Y-45027001D02*
X235654000Y-44126999D01*
G75*
G02*
X235903999Y-43877000I249999J0D01*
G01*
X236554001Y-43877000D01*
G75*
G02*
X236804000Y-44126999I0J-249999D01*
G01*
X236804000Y-45027001D01*
G75*
G02*
X236554001Y-45277000I-249999J0D01*
G01*
X235903999Y-45277000D01*
G75*
G02*
X235654000Y-45027001I0J249999D01*
G01*
G37*
G36*
G01*
X189549999Y-48400000D02*
X190450001Y-48400000D01*
G75*
G02*
X190700000Y-48649999I0J-249999D01*
G01*
X190700000Y-49300001D01*
G75*
G02*
X190450001Y-49550000I-249999J0D01*
G01*
X189549999Y-49550000D01*
G75*
G02*
X189300000Y-49300001I0J249999D01*
G01*
X189300000Y-48649999D01*
G75*
G02*
X189549999Y-48400000I249999J0D01*
G01*
G37*
G36*
G01*
X189549999Y-50450000D02*
X190450001Y-50450000D01*
G75*
G02*
X190700000Y-50699999I0J-249999D01*
G01*
X190700000Y-51350001D01*
G75*
G02*
X190450001Y-51600000I-249999J0D01*
G01*
X189549999Y-51600000D01*
G75*
G02*
X189300000Y-51350001I0J249999D01*
G01*
X189300000Y-50699999D01*
G75*
G02*
X189549999Y-50450000I249999J0D01*
G01*
G37*
G36*
G01*
X232450001Y-43550000D02*
X231549999Y-43550000D01*
G75*
G02*
X231300000Y-43300001I0J249999D01*
G01*
X231300000Y-42649999D01*
G75*
G02*
X231549999Y-42400000I249999J0D01*
G01*
X232450001Y-42400000D01*
G75*
G02*
X232700000Y-42649999I0J-249999D01*
G01*
X232700000Y-43300001D01*
G75*
G02*
X232450001Y-43550000I-249999J0D01*
G01*
G37*
G36*
G01*
X232450001Y-45600000D02*
X231549999Y-45600000D01*
G75*
G02*
X231300000Y-45350001I0J249999D01*
G01*
X231300000Y-44699999D01*
G75*
G02*
X231549999Y-44450000I249999J0D01*
G01*
X232450001Y-44450000D01*
G75*
G02*
X232700000Y-44699999I0J-249999D01*
G01*
X232700000Y-45350001D01*
G75*
G02*
X232450001Y-45600000I-249999J0D01*
G01*
G37*
G36*
G01*
X188145000Y-40443999D02*
X188145000Y-41344001D01*
G75*
G02*
X187895001Y-41594000I-249999J0D01*
G01*
X187244999Y-41594000D01*
G75*
G02*
X186995000Y-41344001I0J249999D01*
G01*
X186995000Y-40443999D01*
G75*
G02*
X187244999Y-40194000I249999J0D01*
G01*
X187895001Y-40194000D01*
G75*
G02*
X188145000Y-40443999I0J-249999D01*
G01*
G37*
G36*
G01*
X190195000Y-40443999D02*
X190195000Y-41344001D01*
G75*
G02*
X189945001Y-41594000I-249999J0D01*
G01*
X189294999Y-41594000D01*
G75*
G02*
X189045000Y-41344001I0J249999D01*
G01*
X189045000Y-40443999D01*
G75*
G02*
X189294999Y-40194000I249999J0D01*
G01*
X189945001Y-40194000D01*
G75*
G02*
X190195000Y-40443999I0J-249999D01*
G01*
G37*
G36*
G01*
X233749000Y-52774001D02*
X233749000Y-51873999D01*
G75*
G02*
X233998999Y-51624000I249999J0D01*
G01*
X234649001Y-51624000D01*
G75*
G02*
X234899000Y-51873999I0J-249999D01*
G01*
X234899000Y-52774001D01*
G75*
G02*
X234649001Y-53024000I-249999J0D01*
G01*
X233998999Y-53024000D01*
G75*
G02*
X233749000Y-52774001I0J249999D01*
G01*
G37*
G36*
G01*
X231699000Y-52774001D02*
X231699000Y-51873999D01*
G75*
G02*
X231948999Y-51624000I249999J0D01*
G01*
X232599001Y-51624000D01*
G75*
G02*
X232849000Y-51873999I0J-249999D01*
G01*
X232849000Y-52774001D01*
G75*
G02*
X232599001Y-53024000I-249999J0D01*
G01*
X231948999Y-53024000D01*
G75*
G02*
X231699000Y-52774001I0J249999D01*
G01*
G37*
G36*
G01*
X188450000Y-45450001D02*
X188450000Y-44549999D01*
G75*
G02*
X188699999Y-44300000I249999J0D01*
G01*
X189350001Y-44300000D01*
G75*
G02*
X189600000Y-44549999I0J-249999D01*
G01*
X189600000Y-45450001D01*
G75*
G02*
X189350001Y-45700000I-249999J0D01*
G01*
X188699999Y-45700000D01*
G75*
G02*
X188450000Y-45450001I0J249999D01*
G01*
G37*
G36*
G01*
X186400000Y-45450001D02*
X186400000Y-44549999D01*
G75*
G02*
X186649999Y-44300000I249999J0D01*
G01*
X187300001Y-44300000D01*
G75*
G02*
X187550000Y-44549999I0J-249999D01*
G01*
X187550000Y-45450001D01*
G75*
G02*
X187300001Y-45700000I-249999J0D01*
G01*
X186649999Y-45700000D01*
G75*
G02*
X186400000Y-45450001I0J249999D01*
G01*
G37*
G36*
G01*
X235600000Y-47549999D02*
X235600000Y-48450001D01*
G75*
G02*
X235350001Y-48700000I-249999J0D01*
G01*
X234699999Y-48700000D01*
G75*
G02*
X234450000Y-48450001I0J249999D01*
G01*
X234450000Y-47549999D01*
G75*
G02*
X234699999Y-47300000I249999J0D01*
G01*
X235350001Y-47300000D01*
G75*
G02*
X235600000Y-47549999I0J-249999D01*
G01*
G37*
G36*
G01*
X233550000Y-47549999D02*
X233550000Y-48450001D01*
G75*
G02*
X233300001Y-48700000I-249999J0D01*
G01*
X232649999Y-48700000D01*
G75*
G02*
X232400000Y-48450001I0J249999D01*
G01*
X232400000Y-47549999D01*
G75*
G02*
X232649999Y-47300000I249999J0D01*
G01*
X233300001Y-47300000D01*
G75*
G02*
X233550000Y-47549999I0J-249999D01*
G01*
G37*
G36*
G01*
X187549999Y-64450000D02*
X188450001Y-64450000D01*
G75*
G02*
X188700000Y-64699999I0J-249999D01*
G01*
X188700000Y-65350001D01*
G75*
G02*
X188450001Y-65600000I-249999J0D01*
G01*
X187549999Y-65600000D01*
G75*
G02*
X187300000Y-65350001I0J249999D01*
G01*
X187300000Y-64699999D01*
G75*
G02*
X187549999Y-64450000I249999J0D01*
G01*
G37*
G36*
G01*
X187549999Y-62400000D02*
X188450001Y-62400000D01*
G75*
G02*
X188700000Y-62649999I0J-249999D01*
G01*
X188700000Y-63300001D01*
G75*
G02*
X188450001Y-63550000I-249999J0D01*
G01*
X187549999Y-63550000D01*
G75*
G02*
X187300000Y-63300001I0J249999D01*
G01*
X187300000Y-62649999D01*
G75*
G02*
X187549999Y-62400000I249999J0D01*
G01*
G37*
G36*
G01*
X234450001Y-59600000D02*
X233549999Y-59600000D01*
G75*
G02*
X233300000Y-59350001I0J249999D01*
G01*
X233300000Y-58699999D01*
G75*
G02*
X233549999Y-58450000I249999J0D01*
G01*
X234450001Y-58450000D01*
G75*
G02*
X234700000Y-58699999I0J-249999D01*
G01*
X234700000Y-59350001D01*
G75*
G02*
X234450001Y-59600000I-249999J0D01*
G01*
G37*
G36*
G01*
X234450001Y-57550000D02*
X233549999Y-57550000D01*
G75*
G02*
X233300000Y-57300001I0J249999D01*
G01*
X233300000Y-56649999D01*
G75*
G02*
X233549999Y-56400000I249999J0D01*
G01*
X234450001Y-56400000D01*
G75*
G02*
X234700000Y-56649999I0J-249999D01*
G01*
X234700000Y-57300001D01*
G75*
G02*
X234450001Y-57550000I-249999J0D01*
G01*
G37*
G36*
G01*
X189549999Y-62400000D02*
X190450001Y-62400000D01*
G75*
G02*
X190700000Y-62649999I0J-249999D01*
G01*
X190700000Y-63300001D01*
G75*
G02*
X190450001Y-63550000I-249999J0D01*
G01*
X189549999Y-63550000D01*
G75*
G02*
X189300000Y-63300001I0J249999D01*
G01*
X189300000Y-62649999D01*
G75*
G02*
X189549999Y-62400000I249999J0D01*
G01*
G37*
G36*
G01*
X189549999Y-64450000D02*
X190450001Y-64450000D01*
G75*
G02*
X190700000Y-64699999I0J-249999D01*
G01*
X190700000Y-65350001D01*
G75*
G02*
X190450001Y-65600000I-249999J0D01*
G01*
X189549999Y-65600000D01*
G75*
G02*
X189300000Y-65350001I0J249999D01*
G01*
X189300000Y-64699999D01*
G75*
G02*
X189549999Y-64450000I249999J0D01*
G01*
G37*
G36*
G01*
X232450001Y-59600000D02*
X231549999Y-59600000D01*
G75*
G02*
X231300000Y-59350001I0J249999D01*
G01*
X231300000Y-58699999D01*
G75*
G02*
X231549999Y-58450000I249999J0D01*
G01*
X232450001Y-58450000D01*
G75*
G02*
X232700000Y-58699999I0J-249999D01*
G01*
X232700000Y-59350001D01*
G75*
G02*
X232450001Y-59600000I-249999J0D01*
G01*
G37*
G36*
G01*
X232450001Y-57550000D02*
X231549999Y-57550000D01*
G75*
G02*
X231300000Y-57300001I0J249999D01*
G01*
X231300000Y-56649999D01*
G75*
G02*
X231549999Y-56400000I249999J0D01*
G01*
X232450001Y-56400000D01*
G75*
G02*
X232700000Y-56649999I0J-249999D01*
G01*
X232700000Y-57300001D01*
G75*
G02*
X232450001Y-57550000I-249999J0D01*
G01*
G37*
G36*
G01*
X188850000Y-53649999D02*
X188850000Y-54550001D01*
G75*
G02*
X188600001Y-54800000I-249999J0D01*
G01*
X187949999Y-54800000D01*
G75*
G02*
X187700000Y-54550001I0J249999D01*
G01*
X187700000Y-53649999D01*
G75*
G02*
X187949999Y-53400000I249999J0D01*
G01*
X188600001Y-53400000D01*
G75*
G02*
X188850000Y-53649999I0J-249999D01*
G01*
G37*
G36*
G01*
X190900000Y-53649999D02*
X190900000Y-54550001D01*
G75*
G02*
X190650001Y-54800000I-249999J0D01*
G01*
X189999999Y-54800000D01*
G75*
G02*
X189750000Y-54550001I0J249999D01*
G01*
X189750000Y-53649999D01*
G75*
G02*
X189999999Y-53400000I249999J0D01*
G01*
X190650001Y-53400000D01*
G75*
G02*
X190900000Y-53649999I0J-249999D01*
G01*
G37*
G36*
G01*
X231318000Y-68014001D02*
X231318000Y-67113999D01*
G75*
G02*
X231567999Y-66864000I249999J0D01*
G01*
X232218001Y-66864000D01*
G75*
G02*
X232468000Y-67113999I0J-249999D01*
G01*
X232468000Y-68014001D01*
G75*
G02*
X232218001Y-68264000I-249999J0D01*
G01*
X231567999Y-68264000D01*
G75*
G02*
X231318000Y-68014001I0J249999D01*
G01*
G37*
G36*
G01*
X233368000Y-68014001D02*
X233368000Y-67113999D01*
G75*
G02*
X233617999Y-66864000I249999J0D01*
G01*
X234268001Y-66864000D01*
G75*
G02*
X234518000Y-67113999I0J-249999D01*
G01*
X234518000Y-68014001D01*
G75*
G02*
X234268001Y-68264000I-249999J0D01*
G01*
X233617999Y-68264000D01*
G75*
G02*
X233368000Y-68014001I0J249999D01*
G01*
G37*
G36*
G01*
X188450000Y-59450001D02*
X188450000Y-58549999D01*
G75*
G02*
X188699999Y-58300000I249999J0D01*
G01*
X189350001Y-58300000D01*
G75*
G02*
X189600000Y-58549999I0J-249999D01*
G01*
X189600000Y-59450001D01*
G75*
G02*
X189350001Y-59700000I-249999J0D01*
G01*
X188699999Y-59700000D01*
G75*
G02*
X188450000Y-59450001I0J249999D01*
G01*
G37*
G36*
G01*
X186400000Y-59450001D02*
X186400000Y-58549999D01*
G75*
G02*
X186649999Y-58300000I249999J0D01*
G01*
X187300001Y-58300000D01*
G75*
G02*
X187550000Y-58549999I0J-249999D01*
G01*
X187550000Y-59450001D01*
G75*
G02*
X187300001Y-59700000I-249999J0D01*
G01*
X186649999Y-59700000D01*
G75*
G02*
X186400000Y-59450001I0J249999D01*
G01*
G37*
G36*
G01*
X233357000Y-60890999D02*
X233357000Y-61791001D01*
G75*
G02*
X233107001Y-62041000I-249999J0D01*
G01*
X232456999Y-62041000D01*
G75*
G02*
X232207000Y-61791001I0J249999D01*
G01*
X232207000Y-60890999D01*
G75*
G02*
X232456999Y-60641000I249999J0D01*
G01*
X233107001Y-60641000D01*
G75*
G02*
X233357000Y-60890999I0J-249999D01*
G01*
G37*
G36*
G01*
X235407000Y-60890999D02*
X235407000Y-61791001D01*
G75*
G02*
X235157001Y-62041000I-249999J0D01*
G01*
X234506999Y-62041000D01*
G75*
G02*
X234257000Y-61791001I0J249999D01*
G01*
X234257000Y-60890999D01*
G75*
G02*
X234506999Y-60641000I249999J0D01*
G01*
X235157001Y-60641000D01*
G75*
G02*
X235407000Y-60890999I0J-249999D01*
G01*
G37*
G36*
G01*
X189434000Y-105003999D02*
X189434000Y-105904001D01*
G75*
G02*
X189184001Y-106154000I-249999J0D01*
G01*
X188533999Y-106154000D01*
G75*
G02*
X188284000Y-105904001I0J249999D01*
G01*
X188284000Y-105003999D01*
G75*
G02*
X188533999Y-104754000I249999J0D01*
G01*
X189184001Y-104754000D01*
G75*
G02*
X189434000Y-105003999I0J-249999D01*
G01*
G37*
G36*
G01*
X191484000Y-105003999D02*
X191484000Y-105904001D01*
G75*
G02*
X191234001Y-106154000I-249999J0D01*
G01*
X190583999Y-106154000D01*
G75*
G02*
X190334000Y-105904001I0J249999D01*
G01*
X190334000Y-105003999D01*
G75*
G02*
X190583999Y-104754000I249999J0D01*
G01*
X191234001Y-104754000D01*
G75*
G02*
X191484000Y-105003999I0J-249999D01*
G01*
G37*
G36*
G01*
X196250001Y-96100000D02*
X195349999Y-96100000D01*
G75*
G02*
X195100000Y-95850001I0J249999D01*
G01*
X195100000Y-95199999D01*
G75*
G02*
X195349999Y-94950000I249999J0D01*
G01*
X196250001Y-94950000D01*
G75*
G02*
X196500000Y-95199999I0J-249999D01*
G01*
X196500000Y-95850001D01*
G75*
G02*
X196250001Y-96100000I-249999J0D01*
G01*
G37*
G36*
G01*
X196250001Y-94050000D02*
X195349999Y-94050000D01*
G75*
G02*
X195100000Y-93800001I0J249999D01*
G01*
X195100000Y-93149999D01*
G75*
G02*
X195349999Y-92900000I249999J0D01*
G01*
X196250001Y-92900000D01*
G75*
G02*
X196500000Y-93149999I0J-249999D01*
G01*
X196500000Y-93800001D01*
G75*
G02*
X196250001Y-94050000I-249999J0D01*
G01*
G37*
G36*
G01*
X214650000Y-130350001D02*
X214650000Y-129449999D01*
G75*
G02*
X214899999Y-129200000I249999J0D01*
G01*
X215550001Y-129200000D01*
G75*
G02*
X215800000Y-129449999I0J-249999D01*
G01*
X215800000Y-130350001D01*
G75*
G02*
X215550001Y-130600000I-249999J0D01*
G01*
X214899999Y-130600000D01*
G75*
G02*
X214650000Y-130350001I0J249999D01*
G01*
G37*
G36*
G01*
X212600000Y-130350001D02*
X212600000Y-129449999D01*
G75*
G02*
X212849999Y-129200000I249999J0D01*
G01*
X213500001Y-129200000D01*
G75*
G02*
X213750000Y-129449999I0J-249999D01*
G01*
X213750000Y-130350001D01*
G75*
G02*
X213500001Y-130600000I-249999J0D01*
G01*
X212849999Y-130600000D01*
G75*
G02*
X212600000Y-130350001I0J249999D01*
G01*
G37*
G36*
G01*
X211100000Y-129449999D02*
X211100000Y-130350001D01*
G75*
G02*
X210850001Y-130600000I-249999J0D01*
G01*
X210199999Y-130600000D01*
G75*
G02*
X209950000Y-130350001I0J249999D01*
G01*
X209950000Y-129449999D01*
G75*
G02*
X210199999Y-129200000I249999J0D01*
G01*
X210850001Y-129200000D01*
G75*
G02*
X211100000Y-129449999I0J-249999D01*
G01*
G37*
G36*
G01*
X209050000Y-129449999D02*
X209050000Y-130350001D01*
G75*
G02*
X208800001Y-130600000I-249999J0D01*
G01*
X208149999Y-130600000D01*
G75*
G02*
X207900000Y-130350001I0J249999D01*
G01*
X207900000Y-129449999D01*
G75*
G02*
X208149999Y-129200000I249999J0D01*
G01*
X208800001Y-129200000D01*
G75*
G02*
X209050000Y-129449999I0J-249999D01*
G01*
G37*
G36*
G01*
X219049999Y-126000000D02*
X219950001Y-126000000D01*
G75*
G02*
X220200000Y-126249999I0J-249999D01*
G01*
X220200000Y-126900001D01*
G75*
G02*
X219950001Y-127150000I-249999J0D01*
G01*
X219049999Y-127150000D01*
G75*
G02*
X218800000Y-126900001I0J249999D01*
G01*
X218800000Y-126249999D01*
G75*
G02*
X219049999Y-126000000I249999J0D01*
G01*
G37*
G36*
G01*
X219049999Y-128050000D02*
X219950001Y-128050000D01*
G75*
G02*
X220200000Y-128299999I0J-249999D01*
G01*
X220200000Y-128950001D01*
G75*
G02*
X219950001Y-129200000I-249999J0D01*
G01*
X219049999Y-129200000D01*
G75*
G02*
X218800000Y-128950001I0J249999D01*
G01*
X218800000Y-128299999D01*
G75*
G02*
X219049999Y-128050000I249999J0D01*
G01*
G37*
G36*
G01*
X210350000Y-116649999D02*
X210350000Y-117550001D01*
G75*
G02*
X210100001Y-117800000I-249999J0D01*
G01*
X209449999Y-117800000D01*
G75*
G02*
X209200000Y-117550001I0J249999D01*
G01*
X209200000Y-116649999D01*
G75*
G02*
X209449999Y-116400000I249999J0D01*
G01*
X210100001Y-116400000D01*
G75*
G02*
X210350000Y-116649999I0J-249999D01*
G01*
G37*
G36*
G01*
X212400000Y-116649999D02*
X212400000Y-117550001D01*
G75*
G02*
X212150001Y-117800000I-249999J0D01*
G01*
X211499999Y-117800000D01*
G75*
G02*
X211250000Y-117550001I0J249999D01*
G01*
X211250000Y-116649999D01*
G75*
G02*
X211499999Y-116400000I249999J0D01*
G01*
X212150001Y-116400000D01*
G75*
G02*
X212400000Y-116649999I0J-249999D01*
G01*
G37*
G36*
G01*
X227749999Y-128050000D02*
X228650001Y-128050000D01*
G75*
G02*
X228900000Y-128299999I0J-249999D01*
G01*
X228900000Y-128950001D01*
G75*
G02*
X228650001Y-129200000I-249999J0D01*
G01*
X227749999Y-129200000D01*
G75*
G02*
X227500000Y-128950001I0J249999D01*
G01*
X227500000Y-128299999D01*
G75*
G02*
X227749999Y-128050000I249999J0D01*
G01*
G37*
G36*
G01*
X227749999Y-126000000D02*
X228650001Y-126000000D01*
G75*
G02*
X228900000Y-126249999I0J-249999D01*
G01*
X228900000Y-126900001D01*
G75*
G02*
X228650001Y-127150000I-249999J0D01*
G01*
X227749999Y-127150000D01*
G75*
G02*
X227500000Y-126900001I0J249999D01*
G01*
X227500000Y-126249999D01*
G75*
G02*
X227749999Y-126000000I249999J0D01*
G01*
G37*
G36*
G01*
X201650000Y-121449999D02*
X201650000Y-122350001D01*
G75*
G02*
X201400001Y-122600000I-249999J0D01*
G01*
X200749999Y-122600000D01*
G75*
G02*
X200500000Y-122350001I0J249999D01*
G01*
X200500000Y-121449999D01*
G75*
G02*
X200749999Y-121200000I249999J0D01*
G01*
X201400001Y-121200000D01*
G75*
G02*
X201650000Y-121449999I0J-249999D01*
G01*
G37*
G36*
G01*
X203700000Y-121449999D02*
X203700000Y-122350001D01*
G75*
G02*
X203450001Y-122600000I-249999J0D01*
G01*
X202799999Y-122600000D01*
G75*
G02*
X202550000Y-122350001I0J249999D01*
G01*
X202550000Y-121449999D01*
G75*
G02*
X202799999Y-121200000I249999J0D01*
G01*
X203450001Y-121200000D01*
G75*
G02*
X203700000Y-121449999I0J-249999D01*
G01*
G37*
G36*
G01*
X173849999Y-122200000D02*
X174750001Y-122200000D01*
G75*
G02*
X175000000Y-122449999I0J-249999D01*
G01*
X175000000Y-123100001D01*
G75*
G02*
X174750001Y-123350000I-249999J0D01*
G01*
X173849999Y-123350000D01*
G75*
G02*
X173600000Y-123100001I0J249999D01*
G01*
X173600000Y-122449999D01*
G75*
G02*
X173849999Y-122200000I249999J0D01*
G01*
G37*
G36*
G01*
X173849999Y-124250000D02*
X174750001Y-124250000D01*
G75*
G02*
X175000000Y-124499999I0J-249999D01*
G01*
X175000000Y-125150001D01*
G75*
G02*
X174750001Y-125400000I-249999J0D01*
G01*
X173849999Y-125400000D01*
G75*
G02*
X173600000Y-125150001I0J249999D01*
G01*
X173600000Y-124499999D01*
G75*
G02*
X173849999Y-124250000I249999J0D01*
G01*
G37*
G36*
G01*
X201599999Y-98000000D02*
X202500001Y-98000000D01*
G75*
G02*
X202750000Y-98249999I0J-249999D01*
G01*
X202750000Y-98900001D01*
G75*
G02*
X202500001Y-99150000I-249999J0D01*
G01*
X201599999Y-99150000D01*
G75*
G02*
X201350000Y-98900001I0J249999D01*
G01*
X201350000Y-98249999D01*
G75*
G02*
X201599999Y-98000000I249999J0D01*
G01*
G37*
G36*
G01*
X201599999Y-95950000D02*
X202500001Y-95950000D01*
G75*
G02*
X202750000Y-96199999I0J-249999D01*
G01*
X202750000Y-96850001D01*
G75*
G02*
X202500001Y-97100000I-249999J0D01*
G01*
X201599999Y-97100000D01*
G75*
G02*
X201350000Y-96850001I0J249999D01*
G01*
X201350000Y-96199999D01*
G75*
G02*
X201599999Y-95950000I249999J0D01*
G01*
G37*
G36*
G01*
X218176999Y-100111000D02*
X219077001Y-100111000D01*
G75*
G02*
X219327000Y-100360999I0J-249999D01*
G01*
X219327000Y-101011001D01*
G75*
G02*
X219077001Y-101261000I-249999J0D01*
G01*
X218176999Y-101261000D01*
G75*
G02*
X217927000Y-101011001I0J249999D01*
G01*
X217927000Y-100360999D01*
G75*
G02*
X218176999Y-100111000I249999J0D01*
G01*
G37*
G36*
G01*
X218176999Y-102161000D02*
X219077001Y-102161000D01*
G75*
G02*
X219327000Y-102410999I0J-249999D01*
G01*
X219327000Y-103061001D01*
G75*
G02*
X219077001Y-103311000I-249999J0D01*
G01*
X218176999Y-103311000D01*
G75*
G02*
X217927000Y-103061001I0J249999D01*
G01*
X217927000Y-102410999D01*
G75*
G02*
X218176999Y-102161000I249999J0D01*
G01*
G37*
G36*
G01*
X207086000Y-96149999D02*
X207086000Y-97050001D01*
G75*
G02*
X206836001Y-97300000I-249999J0D01*
G01*
X206185999Y-97300000D01*
G75*
G02*
X205936000Y-97050001I0J249999D01*
G01*
X205936000Y-96149999D01*
G75*
G02*
X206185999Y-95900000I249999J0D01*
G01*
X206836001Y-95900000D01*
G75*
G02*
X207086000Y-96149999I0J-249999D01*
G01*
G37*
G36*
G01*
X205036000Y-96149999D02*
X205036000Y-97050001D01*
G75*
G02*
X204786001Y-97300000I-249999J0D01*
G01*
X204135999Y-97300000D01*
G75*
G02*
X203886000Y-97050001I0J249999D01*
G01*
X203886000Y-96149999D01*
G75*
G02*
X204135999Y-95900000I249999J0D01*
G01*
X204786001Y-95900000D01*
G75*
G02*
X205036000Y-96149999I0J-249999D01*
G01*
G37*
G36*
G01*
X216332000Y-99256001D02*
X216332000Y-98355999D01*
G75*
G02*
X216581999Y-98106000I249999J0D01*
G01*
X217232001Y-98106000D01*
G75*
G02*
X217482000Y-98355999I0J-249999D01*
G01*
X217482000Y-99256001D01*
G75*
G02*
X217232001Y-99506000I-249999J0D01*
G01*
X216581999Y-99506000D01*
G75*
G02*
X216332000Y-99256001I0J249999D01*
G01*
G37*
G36*
G01*
X218382000Y-99256001D02*
X218382000Y-98355999D01*
G75*
G02*
X218631999Y-98106000I249999J0D01*
G01*
X219282001Y-98106000D01*
G75*
G02*
X219532000Y-98355999I0J-249999D01*
G01*
X219532000Y-99256001D01*
G75*
G02*
X219282001Y-99506000I-249999J0D01*
G01*
X218631999Y-99506000D01*
G75*
G02*
X218382000Y-99256001I0J249999D01*
G01*
G37*
G36*
G01*
X205200000Y-93749999D02*
X205200000Y-94650001D01*
G75*
G02*
X204950001Y-94900000I-249999J0D01*
G01*
X204299999Y-94900000D01*
G75*
G02*
X204050000Y-94650001I0J249999D01*
G01*
X204050000Y-93749999D01*
G75*
G02*
X204299999Y-93500000I249999J0D01*
G01*
X204950001Y-93500000D01*
G75*
G02*
X205200000Y-93749999I0J-249999D01*
G01*
G37*
G36*
G01*
X203150000Y-93749999D02*
X203150000Y-94650001D01*
G75*
G02*
X202900001Y-94900000I-249999J0D01*
G01*
X202249999Y-94900000D01*
G75*
G02*
X202000000Y-94650001I0J249999D01*
G01*
X202000000Y-93749999D01*
G75*
G02*
X202249999Y-93500000I249999J0D01*
G01*
X202900001Y-93500000D01*
G75*
G02*
X203150000Y-93749999I0J-249999D01*
G01*
G37*
G36*
G01*
X204949999Y-100650000D02*
X205850001Y-100650000D01*
G75*
G02*
X206100000Y-100899999I0J-249999D01*
G01*
X206100000Y-101550001D01*
G75*
G02*
X205850001Y-101800000I-249999J0D01*
G01*
X204949999Y-101800000D01*
G75*
G02*
X204700000Y-101550001I0J249999D01*
G01*
X204700000Y-100899999D01*
G75*
G02*
X204949999Y-100650000I249999J0D01*
G01*
G37*
G36*
G01*
X204949999Y-98600000D02*
X205850001Y-98600000D01*
G75*
G02*
X206100000Y-98849999I0J-249999D01*
G01*
X206100000Y-99500001D01*
G75*
G02*
X205850001Y-99750000I-249999J0D01*
G01*
X204949999Y-99750000D01*
G75*
G02*
X204700000Y-99500001I0J249999D01*
G01*
X204700000Y-98849999D01*
G75*
G02*
X204949999Y-98600000I249999J0D01*
G01*
G37*
G36*
G01*
X216076999Y-100111000D02*
X216977001Y-100111000D01*
G75*
G02*
X217227000Y-100360999I0J-249999D01*
G01*
X217227000Y-101011001D01*
G75*
G02*
X216977001Y-101261000I-249999J0D01*
G01*
X216076999Y-101261000D01*
G75*
G02*
X215827000Y-101011001I0J249999D01*
G01*
X215827000Y-100360999D01*
G75*
G02*
X216076999Y-100111000I249999J0D01*
G01*
G37*
G36*
G01*
X216076999Y-102161000D02*
X216977001Y-102161000D01*
G75*
G02*
X217227000Y-102410999I0J-249999D01*
G01*
X217227000Y-103061001D01*
G75*
G02*
X216977001Y-103311000I-249999J0D01*
G01*
X216076999Y-103311000D01*
G75*
G02*
X215827000Y-103061001I0J249999D01*
G01*
X215827000Y-102410999D01*
G75*
G02*
X216076999Y-102161000I249999J0D01*
G01*
G37*
G36*
G01*
X186200000Y-68650001D02*
X186200000Y-67749999D01*
G75*
G02*
X186449999Y-67500000I249999J0D01*
G01*
X187100001Y-67500000D01*
G75*
G02*
X187350000Y-67749999I0J-249999D01*
G01*
X187350000Y-68650001D01*
G75*
G02*
X187100001Y-68900000I-249999J0D01*
G01*
X186449999Y-68900000D01*
G75*
G02*
X186200000Y-68650001I0J249999D01*
G01*
G37*
G36*
G01*
X188250000Y-68650001D02*
X188250000Y-67749999D01*
G75*
G02*
X188499999Y-67500000I249999J0D01*
G01*
X189150001Y-67500000D01*
G75*
G02*
X189400000Y-67749999I0J-249999D01*
G01*
X189400000Y-68650001D01*
G75*
G02*
X189150001Y-68900000I-249999J0D01*
G01*
X188499999Y-68900000D01*
G75*
G02*
X188250000Y-68650001I0J249999D01*
G01*
G37*
G36*
G01*
X183950000Y-77849999D02*
X183950000Y-78750001D01*
G75*
G02*
X183700001Y-79000000I-249999J0D01*
G01*
X183049999Y-79000000D01*
G75*
G02*
X182800000Y-78750001I0J249999D01*
G01*
X182800000Y-77849999D01*
G75*
G02*
X183049999Y-77600000I249999J0D01*
G01*
X183700001Y-77600000D01*
G75*
G02*
X183950000Y-77849999I0J-249999D01*
G01*
G37*
G36*
G01*
X186000000Y-77849999D02*
X186000000Y-78750001D01*
G75*
G02*
X185750001Y-79000000I-249999J0D01*
G01*
X185099999Y-79000000D01*
G75*
G02*
X184850000Y-78750001I0J249999D01*
G01*
X184850000Y-77849999D01*
G75*
G02*
X185099999Y-77600000I249999J0D01*
G01*
X185750001Y-77600000D01*
G75*
G02*
X186000000Y-77849999I0J-249999D01*
G01*
G37*
G36*
G01*
X181050001Y-73250000D02*
X180149999Y-73250000D01*
G75*
G02*
X179900000Y-73000001I0J249999D01*
G01*
X179900000Y-72349999D01*
G75*
G02*
X180149999Y-72100000I249999J0D01*
G01*
X181050001Y-72100000D01*
G75*
G02*
X181300000Y-72349999I0J-249999D01*
G01*
X181300000Y-73000001D01*
G75*
G02*
X181050001Y-73250000I-249999J0D01*
G01*
G37*
G36*
G01*
X181050001Y-75300000D02*
X180149999Y-75300000D01*
G75*
G02*
X179900000Y-75050001I0J249999D01*
G01*
X179900000Y-74399999D01*
G75*
G02*
X180149999Y-74150000I249999J0D01*
G01*
X181050001Y-74150000D01*
G75*
G02*
X181300000Y-74399999I0J-249999D01*
G01*
X181300000Y-75050001D01*
G75*
G02*
X181050001Y-75300000I-249999J0D01*
G01*
G37*
G36*
G01*
X197050000Y-75249999D02*
X197050000Y-76150001D01*
G75*
G02*
X196800001Y-76400000I-249999J0D01*
G01*
X196149999Y-76400000D01*
G75*
G02*
X195900000Y-76150001I0J249999D01*
G01*
X195900000Y-75249999D01*
G75*
G02*
X196149999Y-75000000I249999J0D01*
G01*
X196800001Y-75000000D01*
G75*
G02*
X197050000Y-75249999I0J-249999D01*
G01*
G37*
G36*
G01*
X195000000Y-75249999D02*
X195000000Y-76150001D01*
G75*
G02*
X194750001Y-76400000I-249999J0D01*
G01*
X194099999Y-76400000D01*
G75*
G02*
X193850000Y-76150001I0J249999D01*
G01*
X193850000Y-75249999D01*
G75*
G02*
X194099999Y-75000000I249999J0D01*
G01*
X194750001Y-75000000D01*
G75*
G02*
X195000000Y-75249999I0J-249999D01*
G01*
G37*
G36*
G01*
X207650001Y-73500000D02*
X206749999Y-73500000D01*
G75*
G02*
X206500000Y-73250001I0J249999D01*
G01*
X206500000Y-72599999D01*
G75*
G02*
X206749999Y-72350000I249999J0D01*
G01*
X207650001Y-72350000D01*
G75*
G02*
X207900000Y-72599999I0J-249999D01*
G01*
X207900000Y-73250001D01*
G75*
G02*
X207650001Y-73500000I-249999J0D01*
G01*
G37*
G36*
G01*
X207650001Y-71450000D02*
X206749999Y-71450000D01*
G75*
G02*
X206500000Y-71200001I0J249999D01*
G01*
X206500000Y-70549999D01*
G75*
G02*
X206749999Y-70300000I249999J0D01*
G01*
X207650001Y-70300000D01*
G75*
G02*
X207900000Y-70549999I0J-249999D01*
G01*
X207900000Y-71200001D01*
G75*
G02*
X207650001Y-71450000I-249999J0D01*
G01*
G37*
G36*
G01*
X195050000Y-73149999D02*
X195050000Y-74050001D01*
G75*
G02*
X194800001Y-74300000I-249999J0D01*
G01*
X194149999Y-74300000D01*
G75*
G02*
X193900000Y-74050001I0J249999D01*
G01*
X193900000Y-73149999D01*
G75*
G02*
X194149999Y-72900000I249999J0D01*
G01*
X194800001Y-72900000D01*
G75*
G02*
X195050000Y-73149999I0J-249999D01*
G01*
G37*
G36*
G01*
X197100000Y-73149999D02*
X197100000Y-74050001D01*
G75*
G02*
X196850001Y-74300000I-249999J0D01*
G01*
X196199999Y-74300000D01*
G75*
G02*
X195950000Y-74050001I0J249999D01*
G01*
X195950000Y-73149999D01*
G75*
G02*
X196199999Y-72900000I249999J0D01*
G01*
X196850001Y-72900000D01*
G75*
G02*
X197100000Y-73149999I0J-249999D01*
G01*
G37*
G36*
G01*
X197100000Y-71049999D02*
X197100000Y-71950001D01*
G75*
G02*
X196850001Y-72200000I-249999J0D01*
G01*
X196199999Y-72200000D01*
G75*
G02*
X195950000Y-71950001I0J249999D01*
G01*
X195950000Y-71049999D01*
G75*
G02*
X196199999Y-70800000I249999J0D01*
G01*
X196850001Y-70800000D01*
G75*
G02*
X197100000Y-71049999I0J-249999D01*
G01*
G37*
G36*
G01*
X195050000Y-71049999D02*
X195050000Y-71950001D01*
G75*
G02*
X194800001Y-72200000I-249999J0D01*
G01*
X194149999Y-72200000D01*
G75*
G02*
X193900000Y-71950001I0J249999D01*
G01*
X193900000Y-71049999D01*
G75*
G02*
X194149999Y-70800000I249999J0D01*
G01*
X194800001Y-70800000D01*
G75*
G02*
X195050000Y-71049999I0J-249999D01*
G01*
G37*
G36*
G01*
X221350000Y-69157001D02*
X221350000Y-68256999D01*
G75*
G02*
X221599999Y-68007000I249999J0D01*
G01*
X222250001Y-68007000D01*
G75*
G02*
X222500000Y-68256999I0J-249999D01*
G01*
X222500000Y-69157001D01*
G75*
G02*
X222250001Y-69407000I-249999J0D01*
G01*
X221599999Y-69407000D01*
G75*
G02*
X221350000Y-69157001I0J249999D01*
G01*
G37*
G36*
G01*
X223400000Y-69157001D02*
X223400000Y-68256999D01*
G75*
G02*
X223649999Y-68007000I249999J0D01*
G01*
X224300001Y-68007000D01*
G75*
G02*
X224550000Y-68256999I0J-249999D01*
G01*
X224550000Y-69157001D01*
G75*
G02*
X224300001Y-69407000I-249999J0D01*
G01*
X223649999Y-69407000D01*
G75*
G02*
X223400000Y-69157001I0J249999D01*
G01*
G37*
G36*
G01*
X226891001Y-70289000D02*
X225990999Y-70289000D01*
G75*
G02*
X225741000Y-70039001I0J249999D01*
G01*
X225741000Y-69388999D01*
G75*
G02*
X225990999Y-69139000I249999J0D01*
G01*
X226891001Y-69139000D01*
G75*
G02*
X227141000Y-69388999I0J-249999D01*
G01*
X227141000Y-70039001D01*
G75*
G02*
X226891001Y-70289000I-249999J0D01*
G01*
G37*
G36*
G01*
X226891001Y-72339000D02*
X225990999Y-72339000D01*
G75*
G02*
X225741000Y-72089001I0J249999D01*
G01*
X225741000Y-71438999D01*
G75*
G02*
X225990999Y-71189000I249999J0D01*
G01*
X226891001Y-71189000D01*
G75*
G02*
X227141000Y-71438999I0J-249999D01*
G01*
X227141000Y-72089001D01*
G75*
G02*
X226891001Y-72339000I-249999J0D01*
G01*
G37*
G36*
G01*
X231673000Y-72459001D02*
X231673000Y-71558999D01*
G75*
G02*
X231922999Y-71309000I249999J0D01*
G01*
X232573001Y-71309000D01*
G75*
G02*
X232823000Y-71558999I0J-249999D01*
G01*
X232823000Y-72459001D01*
G75*
G02*
X232573001Y-72709000I-249999J0D01*
G01*
X231922999Y-72709000D01*
G75*
G02*
X231673000Y-72459001I0J249999D01*
G01*
G37*
G36*
G01*
X229623000Y-72459001D02*
X229623000Y-71558999D01*
G75*
G02*
X229872999Y-71309000I249999J0D01*
G01*
X230523001Y-71309000D01*
G75*
G02*
X230773000Y-71558999I0J-249999D01*
G01*
X230773000Y-72459001D01*
G75*
G02*
X230523001Y-72709000I-249999J0D01*
G01*
X229872999Y-72709000D01*
G75*
G02*
X229623000Y-72459001I0J249999D01*
G01*
G37*
G36*
G01*
X208464999Y-77050000D02*
X209365001Y-77050000D01*
G75*
G02*
X209615000Y-77299999I0J-249999D01*
G01*
X209615000Y-77950001D01*
G75*
G02*
X209365001Y-78200000I-249999J0D01*
G01*
X208464999Y-78200000D01*
G75*
G02*
X208215000Y-77950001I0J249999D01*
G01*
X208215000Y-77299999D01*
G75*
G02*
X208464999Y-77050000I249999J0D01*
G01*
G37*
G36*
G01*
X208464999Y-75000000D02*
X209365001Y-75000000D01*
G75*
G02*
X209615000Y-75249999I0J-249999D01*
G01*
X209615000Y-75900001D01*
G75*
G02*
X209365001Y-76150000I-249999J0D01*
G01*
X208464999Y-76150000D01*
G75*
G02*
X208215000Y-75900001I0J249999D01*
G01*
X208215000Y-75249999D01*
G75*
G02*
X208464999Y-75000000I249999J0D01*
G01*
G37*
G36*
G01*
X218549999Y-74900000D02*
X219450001Y-74900000D01*
G75*
G02*
X219700000Y-75149999I0J-249999D01*
G01*
X219700000Y-75800001D01*
G75*
G02*
X219450001Y-76050000I-249999J0D01*
G01*
X218549999Y-76050000D01*
G75*
G02*
X218300000Y-75800001I0J249999D01*
G01*
X218300000Y-75149999D01*
G75*
G02*
X218549999Y-74900000I249999J0D01*
G01*
G37*
G36*
G01*
X218549999Y-76950000D02*
X219450001Y-76950000D01*
G75*
G02*
X219700000Y-77199999I0J-249999D01*
G01*
X219700000Y-77850001D01*
G75*
G02*
X219450001Y-78100000I-249999J0D01*
G01*
X218549999Y-78100000D01*
G75*
G02*
X218300000Y-77850001I0J249999D01*
G01*
X218300000Y-77199999D01*
G75*
G02*
X218549999Y-76950000I249999J0D01*
G01*
G37*
G36*
G01*
X211649999Y-80100000D02*
X212550001Y-80100000D01*
G75*
G02*
X212800000Y-80349999I0J-249999D01*
G01*
X212800000Y-81000001D01*
G75*
G02*
X212550001Y-81250000I-249999J0D01*
G01*
X211649999Y-81250000D01*
G75*
G02*
X211400000Y-81000001I0J249999D01*
G01*
X211400000Y-80349999D01*
G75*
G02*
X211649999Y-80100000I249999J0D01*
G01*
G37*
G36*
G01*
X211649999Y-82150000D02*
X212550001Y-82150000D01*
G75*
G02*
X212800000Y-82399999I0J-249999D01*
G01*
X212800000Y-83050001D01*
G75*
G02*
X212550001Y-83300000I-249999J0D01*
G01*
X211649999Y-83300000D01*
G75*
G02*
X211400000Y-83050001I0J249999D01*
G01*
X211400000Y-82399999D01*
G75*
G02*
X211649999Y-82150000I249999J0D01*
G01*
G37*
G36*
G01*
X213925999Y-80841000D02*
X214826001Y-80841000D01*
G75*
G02*
X215076000Y-81090999I0J-249999D01*
G01*
X215076000Y-81741001D01*
G75*
G02*
X214826001Y-81991000I-249999J0D01*
G01*
X213925999Y-81991000D01*
G75*
G02*
X213676000Y-81741001I0J249999D01*
G01*
X213676000Y-81090999D01*
G75*
G02*
X213925999Y-80841000I249999J0D01*
G01*
G37*
G36*
G01*
X213925999Y-78791000D02*
X214826001Y-78791000D01*
G75*
G02*
X215076000Y-79040999I0J-249999D01*
G01*
X215076000Y-79691001D01*
G75*
G02*
X214826001Y-79941000I-249999J0D01*
G01*
X213925999Y-79941000D01*
G75*
G02*
X213676000Y-79691001I0J249999D01*
G01*
X213676000Y-79040999D01*
G75*
G02*
X213925999Y-78791000I249999J0D01*
G01*
G37*
G36*
G01*
X241650001Y-100150000D02*
X240749999Y-100150000D01*
G75*
G02*
X240500000Y-99900001I0J249999D01*
G01*
X240500000Y-99249999D01*
G75*
G02*
X240749999Y-99000000I249999J0D01*
G01*
X241650001Y-99000000D01*
G75*
G02*
X241900000Y-99249999I0J-249999D01*
G01*
X241900000Y-99900001D01*
G75*
G02*
X241650001Y-100150000I-249999J0D01*
G01*
G37*
G36*
G01*
X241650001Y-102200000D02*
X240749999Y-102200000D01*
G75*
G02*
X240500000Y-101950001I0J249999D01*
G01*
X240500000Y-101299999D01*
G75*
G02*
X240749999Y-101050000I249999J0D01*
G01*
X241650001Y-101050000D01*
G75*
G02*
X241900000Y-101299999I0J-249999D01*
G01*
X241900000Y-101950001D01*
G75*
G02*
X241650001Y-102200000I-249999J0D01*
G01*
G37*
G36*
G01*
X242200000Y-111549999D02*
X242200000Y-112450001D01*
G75*
G02*
X241950001Y-112700000I-249999J0D01*
G01*
X241299999Y-112700000D01*
G75*
G02*
X241050000Y-112450001I0J249999D01*
G01*
X241050000Y-111549999D01*
G75*
G02*
X241299999Y-111300000I249999J0D01*
G01*
X241950001Y-111300000D01*
G75*
G02*
X242200000Y-111549999I0J-249999D01*
G01*
G37*
G36*
G01*
X240150000Y-111549999D02*
X240150000Y-112450001D01*
G75*
G02*
X239900001Y-112700000I-249999J0D01*
G01*
X239249999Y-112700000D01*
G75*
G02*
X239000000Y-112450001I0J249999D01*
G01*
X239000000Y-111549999D01*
G75*
G02*
X239249999Y-111300000I249999J0D01*
G01*
X239900001Y-111300000D01*
G75*
G02*
X240150000Y-111549999I0J-249999D01*
G01*
G37*
G36*
G01*
X204549999Y-89300000D02*
X205450001Y-89300000D01*
G75*
G02*
X205700000Y-89549999I0J-249999D01*
G01*
X205700000Y-90200001D01*
G75*
G02*
X205450001Y-90450000I-249999J0D01*
G01*
X204549999Y-90450000D01*
G75*
G02*
X204300000Y-90200001I0J249999D01*
G01*
X204300000Y-89549999D01*
G75*
G02*
X204549999Y-89300000I249999J0D01*
G01*
G37*
G36*
G01*
X204549999Y-91350000D02*
X205450001Y-91350000D01*
G75*
G02*
X205700000Y-91599999I0J-249999D01*
G01*
X205700000Y-92250001D01*
G75*
G02*
X205450001Y-92500000I-249999J0D01*
G01*
X204549999Y-92500000D01*
G75*
G02*
X204300000Y-92250001I0J249999D01*
G01*
X204300000Y-91599999D01*
G75*
G02*
X204549999Y-91350000I249999J0D01*
G01*
G37*
G36*
G01*
X201650001Y-102050000D02*
X200749999Y-102050000D01*
G75*
G02*
X200500000Y-101800001I0J249999D01*
G01*
X200500000Y-101149999D01*
G75*
G02*
X200749999Y-100900000I249999J0D01*
G01*
X201650001Y-100900000D01*
G75*
G02*
X201900000Y-101149999I0J-249999D01*
G01*
X201900000Y-101800001D01*
G75*
G02*
X201650001Y-102050000I-249999J0D01*
G01*
G37*
G36*
G01*
X201650001Y-104100000D02*
X200749999Y-104100000D01*
G75*
G02*
X200500000Y-103850001I0J249999D01*
G01*
X200500000Y-103199999D01*
G75*
G02*
X200749999Y-102950000I249999J0D01*
G01*
X201650001Y-102950000D01*
G75*
G02*
X201900000Y-103199999I0J-249999D01*
G01*
X201900000Y-103850001D01*
G75*
G02*
X201650001Y-104100000I-249999J0D01*
G01*
G37*
G36*
G01*
X198350000Y-100350001D02*
X198350000Y-99449999D01*
G75*
G02*
X198599999Y-99200000I249999J0D01*
G01*
X199250001Y-99200000D01*
G75*
G02*
X199500000Y-99449999I0J-249999D01*
G01*
X199500000Y-100350001D01*
G75*
G02*
X199250001Y-100600000I-249999J0D01*
G01*
X198599999Y-100600000D01*
G75*
G02*
X198350000Y-100350001I0J249999D01*
G01*
G37*
G36*
G01*
X196300000Y-100350001D02*
X196300000Y-99449999D01*
G75*
G02*
X196549999Y-99200000I249999J0D01*
G01*
X197200001Y-99200000D01*
G75*
G02*
X197450000Y-99449999I0J-249999D01*
G01*
X197450000Y-100350001D01*
G75*
G02*
X197200001Y-100600000I-249999J0D01*
G01*
X196549999Y-100600000D01*
G75*
G02*
X196300000Y-100350001I0J249999D01*
G01*
G37*
G36*
G01*
X172950001Y-105800000D02*
X172049999Y-105800000D01*
G75*
G02*
X171800000Y-105550001I0J249999D01*
G01*
X171800000Y-104899999D01*
G75*
G02*
X172049999Y-104650000I249999J0D01*
G01*
X172950001Y-104650000D01*
G75*
G02*
X173200000Y-104899999I0J-249999D01*
G01*
X173200000Y-105550001D01*
G75*
G02*
X172950001Y-105800000I-249999J0D01*
G01*
G37*
G36*
G01*
X172950001Y-103750000D02*
X172049999Y-103750000D01*
G75*
G02*
X171800000Y-103500001I0J249999D01*
G01*
X171800000Y-102849999D01*
G75*
G02*
X172049999Y-102600000I249999J0D01*
G01*
X172950001Y-102600000D01*
G75*
G02*
X173200000Y-102849999I0J-249999D01*
G01*
X173200000Y-103500001D01*
G75*
G02*
X172950001Y-103750000I-249999J0D01*
G01*
G37*
G36*
G01*
X181450001Y-102550000D02*
X180549999Y-102550000D01*
G75*
G02*
X180300000Y-102300001I0J249999D01*
G01*
X180300000Y-101649999D01*
G75*
G02*
X180549999Y-101400000I249999J0D01*
G01*
X181450001Y-101400000D01*
G75*
G02*
X181700000Y-101649999I0J-249999D01*
G01*
X181700000Y-102300001D01*
G75*
G02*
X181450001Y-102550000I-249999J0D01*
G01*
G37*
G36*
G01*
X181450001Y-104600000D02*
X180549999Y-104600000D01*
G75*
G02*
X180300000Y-104350001I0J249999D01*
G01*
X180300000Y-103699999D01*
G75*
G02*
X180549999Y-103450000I249999J0D01*
G01*
X181450001Y-103450000D01*
G75*
G02*
X181700000Y-103699999I0J-249999D01*
G01*
X181700000Y-104350001D01*
G75*
G02*
X181450001Y-104600000I-249999J0D01*
G01*
G37*
G36*
G01*
X189450001Y-89550000D02*
X188549999Y-89550000D01*
G75*
G02*
X188300000Y-89300001I0J249999D01*
G01*
X188300000Y-88649999D01*
G75*
G02*
X188549999Y-88400000I249999J0D01*
G01*
X189450001Y-88400000D01*
G75*
G02*
X189700000Y-88649999I0J-249999D01*
G01*
X189700000Y-89300001D01*
G75*
G02*
X189450001Y-89550000I-249999J0D01*
G01*
G37*
G36*
G01*
X189450001Y-91600000D02*
X188549999Y-91600000D01*
G75*
G02*
X188300000Y-91350001I0J249999D01*
G01*
X188300000Y-90699999D01*
G75*
G02*
X188549999Y-90450000I249999J0D01*
G01*
X189450001Y-90450000D01*
G75*
G02*
X189700000Y-90699999I0J-249999D01*
G01*
X189700000Y-91350001D01*
G75*
G02*
X189450001Y-91600000I-249999J0D01*
G01*
G37*
G36*
G01*
X183549999Y-101400000D02*
X184450001Y-101400000D01*
G75*
G02*
X184700000Y-101649999I0J-249999D01*
G01*
X184700000Y-102300001D01*
G75*
G02*
X184450001Y-102550000I-249999J0D01*
G01*
X183549999Y-102550000D01*
G75*
G02*
X183300000Y-102300001I0J249999D01*
G01*
X183300000Y-101649999D01*
G75*
G02*
X183549999Y-101400000I249999J0D01*
G01*
G37*
G36*
G01*
X183549999Y-103450000D02*
X184450001Y-103450000D01*
G75*
G02*
X184700000Y-103699999I0J-249999D01*
G01*
X184700000Y-104350001D01*
G75*
G02*
X184450001Y-104600000I-249999J0D01*
G01*
X183549999Y-104600000D01*
G75*
G02*
X183300000Y-104350001I0J249999D01*
G01*
X183300000Y-103699999D01*
G75*
G02*
X183549999Y-103450000I249999J0D01*
G01*
G37*
G36*
G01*
X192450001Y-91600000D02*
X191549999Y-91600000D01*
G75*
G02*
X191300000Y-91350001I0J249999D01*
G01*
X191300000Y-90699999D01*
G75*
G02*
X191549999Y-90450000I249999J0D01*
G01*
X192450001Y-90450000D01*
G75*
G02*
X192700000Y-90699999I0J-249999D01*
G01*
X192700000Y-91350001D01*
G75*
G02*
X192450001Y-91600000I-249999J0D01*
G01*
G37*
G36*
G01*
X192450001Y-89550000D02*
X191549999Y-89550000D01*
G75*
G02*
X191300000Y-89300001I0J249999D01*
G01*
X191300000Y-88649999D01*
G75*
G02*
X191549999Y-88400000I249999J0D01*
G01*
X192450001Y-88400000D01*
G75*
G02*
X192700000Y-88649999I0J-249999D01*
G01*
X192700000Y-89300001D01*
G75*
G02*
X192450001Y-89550000I-249999J0D01*
G01*
G37*
D25*
X228150000Y-123350000D03*
X228150000Y-122700000D03*
X228150000Y-122050000D03*
X228150000Y-121400000D03*
X228150000Y-120750000D03*
X228150000Y-120100000D03*
X228150000Y-119450000D03*
X222250000Y-119450000D03*
X222250000Y-120100000D03*
X222250000Y-120750000D03*
X222250000Y-121400000D03*
X222250000Y-122050000D03*
X222250000Y-122700000D03*
X222250000Y-123350000D03*
M02*
