M48
; DRILL file {KiCad (5.1.5)-3} date 24/03/2020 10:39:50
; FORMAT={-:-/ absolute / inch / decimal}
; #@! TF.CreationDate,2020-03-24T10:39:50+00:00
; #@! TF.GenerationSoftware,Kicad,Pcbnew,(5.1.5)-3
; #@! TF.FileFunction,Plated,1,4,PTH
FMAT,2
INCH
T1C0.0157
T2C0.0197
T3C0.0236
T4C0.0250
T5C0.0256
T6C0.0276
T7C0.0300
T8C0.0315
T9C0.0331
T10C0.0382
T11C0.0394
T12C0.0394
T13C0.0400
T14C0.0433
T15C0.0472
T16C0.0591
T17C0.0866
T18C0.1102
T19C0.1496
%
G90
G05
T1
X9.435Y-3.5
X9.4541Y-3.4541
X9.4541Y-3.5459
X9.5Y-3.435
X9.5Y-3.565
X9.5459Y-3.4541
X9.5459Y-3.5459
X9.565Y-3.5
X7.935Y-5.1
X7.9541Y-5.0541
X7.9541Y-5.1459
X8.0Y-5.035
X8.0Y-5.165
X8.0459Y-5.0541
X8.0459Y-5.1459
X8.065Y-5.1
X6.835Y-1.6
X6.8541Y-1.5541
X6.8541Y-1.6459
X6.9Y-1.535
X6.9Y-1.665
X6.9459Y-1.5541
X6.9459Y-1.6459
X6.965Y-1.6
X9.235Y-1.6
X9.2541Y-1.5541
X9.2541Y-1.6459
X9.3Y-1.535
X9.3Y-1.665
X9.3459Y-1.5541
X9.3459Y-1.6459
X9.365Y-1.6
X6.735Y-3.9
X6.7541Y-3.8541
X6.7541Y-3.9459
X6.8Y-3.835
X6.8Y-3.965
X6.8459Y-3.8541
X6.8459Y-3.9459
X6.865Y-3.9
T2
X9.4646Y-4.1398
X9.4646Y-4.189
X9.4646Y-4.2382
X9.4646Y-4.2874
T4
X6.719Y-4.7886
X6.7874Y-4.0157
X6.8228Y-4.9173
X6.9094Y-4.5433
X6.9134Y-4.6732
X7.0283Y-4.8271
X7.0315Y-5.0197
X7.0394Y-4.8858
X7.1654Y-3.0472
X7.1732Y-5.0079
X7.1811Y-4.9291
X7.2047Y-1.8504
X7.2559Y-2.7677
X7.2719Y-2.248
X7.2795Y-3.0236
X7.31Y-3.91
X7.3228Y-1.7992
X7.3228Y-5.0354
X7.3425Y-4.7441
X7.3504Y-2.2988
X7.3622Y-2.5039
X7.3622Y-4.7913
X7.3698Y-4.0966
X7.3701Y-1.9055
X7.3852Y-4.1793
X7.4094Y-1.689
X7.4173Y-1.8976
X7.4173Y-2.4409
X7.437Y-2.6063
X7.4409Y-2.0591
X7.4646Y-1.8976
X7.4721Y-4.0691
X7.4724Y-2.4409
X7.4882Y-3.9409
X7.4915Y-3.8028
X7.5157Y-1.8465
X7.5315Y-2.4016
X7.5394Y-2.8268
X7.5506Y-4.1793
X7.5591Y-2.7244
X7.6155Y-3.8648
X7.6181Y-2.8071
X7.6693Y-3.6693
X7.6772Y-4.0748
X7.7087Y-2.9606
X7.7323Y-2.063
X7.7475Y-4.491
X7.7559Y-2.1654
X7.7717Y-4.7087
X7.7717Y-5.122
X7.7795Y-3.0472
X7.7913Y-3.7165
X7.8307Y-4.7992
X7.8346Y-2.7795
X7.8425Y-4.0236
X7.8525Y-4.1095
X7.8661Y-4.6811
X7.874Y-2.7087
X7.878Y-3.6929
X7.8817Y-4.0629
X7.8898Y-2.9331
X7.8898Y-4.5984
X7.8969Y-3.7415
X7.8976Y-2.8504
X7.9232Y-3.7953
X7.9272Y-3.8563
X7.9724Y-1.6732
X7.9724Y-1.7717
X7.9724Y-1.8701
X7.9724Y-1.9685
X7.9724Y-2.2638
X7.9724Y-2.3622
X7.9724Y-2.4606
X7.9724Y-2.5591
X8.0039Y-2.9055
X8.0039Y-2.9528
X8.0551Y-3.5866
X8.0709Y-1.6732
X8.0709Y-1.7717
X8.0709Y-1.8701
X8.0709Y-1.9685
X8.0709Y-2.2638
X8.0709Y-2.3622
X8.0709Y-2.4606
X8.0709Y-2.5591
X8.08Y-3.82
X8.0866Y-4.0394
X8.1181Y-4.1339
X8.1654Y-5.0827
X8.1671Y-4.1085
X8.1693Y-1.6732
X8.1693Y-1.7717
X8.1693Y-1.8701
X8.1693Y-1.9685
X8.1693Y-2.2638
X8.1693Y-2.3622
X8.1693Y-2.4606
X8.1693Y-2.5591
X8.1772Y-4.2874
X8.1811Y-4.378
X8.185Y-2.8465
X8.1929Y-2.7717
X8.1969Y-4.1457
X8.2087Y-4.5906
X8.2283Y-4.6693
X8.2362Y-2.9291
X8.2391Y-4.3718
X8.2402Y-3.1063
X8.252Y-4.2717
X8.2677Y-3.7283
X8.2763Y-4.7477
X8.2813Y-3.784
X8.2873Y-4.1577
X8.2992Y-3.0591
X8.3071Y-4.9882
X8.3268Y-4.3976
X8.3386Y-4.7598
X8.3411Y-5.126
X8.3465Y-4.1496
X8.3545Y-2.9135
X8.3611Y-2.9568
X8.3701Y-4.3819
X8.3701Y-4.9843
X8.378Y-4.811
X8.3937Y-3.8268
X8.4Y-3.93
X8.4119Y-3.2674
X8.4331Y-4.1417
X8.4429Y-4.0256
X8.4449Y-4.3661
X8.4449Y-4.7677
X8.4646Y-1.6732
X8.4646Y-1.7717
X8.4646Y-1.8701
X8.4646Y-1.9685
X8.4646Y-2.2638
X8.4646Y-2.3622
X8.4646Y-2.4606
X8.4646Y-2.5591
X8.4646Y-4.5709
X8.4843Y-2.9331
X8.4843Y-4.0984
X8.5157Y-5.1063
X8.5409Y-3.1768
X8.5433Y-3.2295
X8.563Y-1.6732
X8.563Y-1.7717
X8.563Y-1.8701
X8.563Y-1.9685
X8.563Y-2.2638
X8.563Y-2.3622
X8.563Y-2.4606
X8.563Y-2.5591
X8.6008Y-3.1724
X8.6063Y-2.9252
X8.6063Y-4.7638
X8.6142Y-2.6969
X8.6299Y-3.0276
X8.6369Y-3.2247
X8.6378Y-3.9961
X8.6417Y-4.0827
X8.6535Y-3.8858
X8.6614Y-1.6732
X8.6614Y-1.7717
X8.6614Y-1.8701
X8.6614Y-1.9685
X8.6614Y-2.2638
X8.6614Y-2.3622
X8.6614Y-2.4606
X8.6614Y-2.5591
X8.662Y-4.9487
X8.6992Y-3.2157
X8.7Y-4.88
X8.702Y-3.1744
X8.76Y-2.68
X8.7697Y-4.2618
X8.8Y-3.07
X8.8Y-4.72
X8.8Y-4.8
X8.802Y-4.5131
X8.8189Y-2.2047
X8.88Y-4.83
X8.8937Y-2.7087
X8.91Y-4.74
X8.92Y-4.59
X8.92Y-4.86
X8.9298Y-4.7802
X8.94Y-4.69
X8.9567Y-2.1929
X8.9567Y-4.1043
X8.9598Y-2.813
X8.9764Y-5.1029
X8.9921Y-1.5512
X9.01Y-4.56
X9.0906Y-1.8504
X9.0945Y-2.4016
X9.1181Y-4.3425
X9.1289Y-3.0339
X9.1339Y-2.3543
X9.1417Y-1.811
X9.1457Y-4.126
X9.1535Y-2.7165
X9.1732Y-1.6811
X9.1881Y-1.8022
X9.189Y-2.3543
X9.19Y-2.45
X9.1927Y-2.216
X9.2Y-1.85
X9.2088Y-1.7162
X9.2165Y-4.7835
X9.2244Y-4.4803
X9.2244Y-4.5354
X9.2304Y-2.3407
X9.2598Y-4.2362
X9.2638Y-2.0
X9.2835Y-2.7756
X9.285Y-2.435
X9.2913Y-4.4173
X9.3031Y-1.8819
X9.335Y-1.765
X9.3701Y-4.1299
X9.4488Y-4.4567
X9.4567Y-4.3622
X9.4882Y-4.4173
X9.4882Y-4.5315
X9.51Y-3.74
X9.5118Y-4.3622
X9.5276Y-3.9409
X9.5276Y-4.0394
X9.5787Y-4.8071
T5
X8.5878Y-3.6177
X8.5878Y-3.6677
X8.5878Y-3.7177
X8.5878Y-3.7677
X8.6378Y-3.6177
X8.6378Y-3.6677
X8.6378Y-3.7177
X8.6378Y-3.7677
T6
X8.3Y-2.75
X7.13Y-1.77
X7.18Y-2.41
X8.5Y-2.75
T7
X6.6709Y-4.0307
X6.6709Y-4.1307
X6.6709Y-4.3417
X6.6709Y-4.4417
X6.7709Y-4.3417
X6.7709Y-4.4417
X7.5315Y-3.2965
X7.6315Y-3.2965
X7.7315Y-3.2965
X7.9315Y-3.2965
X8.0315Y-3.2965
T8
X7.7441Y-3.4488
X7.7441Y-3.5276
X8.8224Y-3.198
X8.8224Y-3.2768
X9.2713Y-3.09
X9.35Y-3.09
T9
X8.2059Y-3.4106
X8.2059Y-3.5106
X8.2559Y-3.4606
X8.3059Y-3.4106
X8.3059Y-3.5106
T10
X6.6984Y-3.1728
X6.6984Y-3.2531
X6.6984Y-3.3335
X6.6984Y-3.4138
X6.7685Y-3.1327
X6.7685Y-3.213
X6.7685Y-3.2933
X6.7685Y-3.3736
T11
X7.18Y-2.53
X7.95Y-4.2
X7.13Y-1.64
X7.18Y-2.28
X9.5Y-1.81
X9.5Y-1.91
X9.5Y-2.01
X7.74Y-4.35
X7.18Y-2.13
X7.135Y-1.91
X7.255Y-1.565
X7.95Y-4.35
X7.6969Y-4.2
X7.04Y-2.675
X7.14Y-2.675
X7.24Y-2.675
T12
X9.0654Y-3.2677
X9.1654Y-3.2677
X9.2654Y-3.2677
X7.3031Y-3.563
X7.3031Y-3.7599
X7.1457Y-3.563
X7.1457Y-3.7599
T13
X9.0157Y-4.2685
X9.0157Y-4.3685
X9.0157Y-4.4685
X8.5827Y-4.2898
X8.5827Y-4.3898
X8.5827Y-4.4898
X8.6827Y-4.2898
X8.6827Y-4.3898
X8.6827Y-4.4898
T14
X6.5Y-3.7402
X6.7Y-3.7402
X6.8Y-3.7402
X6.9Y-3.7402
X6.7717Y-2.3819
X6.7717Y-2.5
X6.7717Y-2.6181
X6.7717Y-2.7362
X6.8898Y-2.3819
X6.8898Y-2.5
X6.8898Y-2.6181
X6.8898Y-2.7362
T15
X9.1439Y-5.0057
X9.3439Y-5.0057
T16
X9.5Y-3.2
X9.5Y-2.2
X9.5Y-3.0
X9.5Y-2.6
X9.5Y-2.4
X7.6Y-4.6
X9.5Y-2.8
T17
X6.9Y-1.6
X9.3Y-1.6
X6.8Y-3.9
X9.5Y-3.5
X8.0Y-5.1
T18
X9.537Y-1.5965
X9.537Y-5.0965
X6.6366Y-1.5965
X6.6366Y-5.0965
T19
X9.1654Y-3.9272
T3
G00X6.5669Y-4.56
M15
G01X6.5394Y-4.56
M16
G05
G00X6.5669Y-4.8888
M15
G01X6.5394Y-4.8888
M16
G05
T5
G00X6.6752Y-4.6368
M15
G01X6.6673Y-4.6368
M16
G05
G00X6.6752Y-4.812
M15
G01X6.6673Y-4.812
M16
G05
T11
G00X6.6142Y-1.8898
M15
G01X6.6142Y-1.9685
M16
G05
G00X6.6929Y-2.1142
M15
G01X6.7717Y-2.1142
M16
G05
G00X6.8504Y-1.8898
M15
G01X6.8504Y-1.9685
M16
G05
T0
M30
